<?xml version="1.0" encoding="utf-8" standalone="no"?>
<!DOCTYPE svg PUBLIC "-//W3C//DTD SVG 1.1//EN"
  "http://www.w3.org/Graphics/SVG/1.1/DTD/svg11.dtd">
<svg xmlns:xlink="http://www.w3.org/1999/xlink" width="460.8pt" height="345.6pt" viewBox="0 0 460.8 345.6" xmlns="http://www.w3.org/2000/svg" version="1.1">
 <metadata>
  <rdf:RDF xmlns:dc="http://purl.org/dc/elements/1.1/" xmlns:cc="http://creativecommons.org/ns#" xmlns:rdf="http://www.w3.org/1999/02/22-rdf-syntax-ns#">
   <cc:Work>
    <dc:type rdf:resource="http://purl.org/dc/dcmitype/StillImage"/>
    <dc:date>2024-12-19T13:01:15.733862</dc:date>
    <dc:format>image/svg+xml</dc:format>
    <dc:creator>
     <cc:Agent>
      <dc:title>Matplotlib v3.7.1, https://matplotlib.org/</dc:title>
     </cc:Agent>
    </dc:creator>
   </cc:Work>
  </rdf:RDF>
 </metadata>
 <defs>
  <style type="text/css">*{stroke-linejoin: round; stroke-linecap: butt}</style>
 </defs>
 <g id="figure_1">
  <g id="patch_1">
   <path d="M 0 345.6 
L 460.8 345.6 
L 460.8 0 
L 0 0 
z
" style="fill: #ffffff"/>
  </g>
  <g id="axes_1">
   <g id="patch_2">
    <path d="M 57.6 307.584 
L 414.72 307.584 
L 414.72 41.472 
L 57.6 41.472 
z
" style="fill: #ffffff"/>
   </g>
   <g id="matplotlib.axis_1">
    <g id="xtick_1">
     <g id="line2d_1">
      <path d="M 90.065455 307.584 
L 90.065455 41.472 
" clip-path="url(#pd7425e75f3)" style="fill: none; stroke: #b0b0b0; stroke-width: 0.8; stroke-linecap: square"/>
     </g>
     <g id="line2d_2">
      <defs>
       <path id="m5e23715a24" d="M 0 0 
L 0 3.5 
" style="stroke: #000000; stroke-width: 0.8"/>
      </defs>
      <g>
       <use xlink:href="#m5e23715a24" x="90.065455" y="307.584" style="stroke: #000000; stroke-width: 0.8"/>
      </g>
     </g>
     <g id="text_1">
      <!-- 1.00 -->
      <g transform="translate(78.932642 322.182437) scale(0.1 -0.1)">
       <defs>
        <path id="DejaVuSans-31" d="M 794 531 
L 1825 531 
L 1825 4091 
L 703 3866 
L 703 4441 
L 1819 4666 
L 2450 4666 
L 2450 531 
L 3481 531 
L 3481 0 
L 794 0 
L 794 531 
z
" transform="scale(0.015625)"/>
        <path id="DejaVuSans-2e" d="M 684 794 
L 1344 794 
L 1344 0 
L 684 0 
L 684 794 
z
" transform="scale(0.015625)"/>
        <path id="DejaVuSans-30" d="M 2034 4250 
Q 1547 4250 1301 3770 
Q 1056 3291 1056 2328 
Q 1056 1369 1301 889 
Q 1547 409 2034 409 
Q 2525 409 2770 889 
Q 3016 1369 3016 2328 
Q 3016 3291 2770 3770 
Q 2525 4250 2034 4250 
z
M 2034 4750 
Q 2819 4750 3233 4129 
Q 3647 3509 3647 2328 
Q 3647 1150 3233 529 
Q 2819 -91 2034 -91 
Q 1250 -91 836 529 
Q 422 1150 422 2328 
Q 422 3509 836 4129 
Q 1250 4750 2034 4750 
z
" transform="scale(0.015625)"/>
       </defs>
       <use xlink:href="#DejaVuSans-31"/>
       <use xlink:href="#DejaVuSans-2e" x="63.623047"/>
       <use xlink:href="#DejaVuSans-30" x="95.410156"/>
       <use xlink:href="#DejaVuSans-30" x="159.033203"/>
      </g>
     </g>
    </g>
    <g id="xtick_2">
     <g id="line2d_3">
      <path d="M 130.647273 307.584 
L 130.647273 41.472 
" clip-path="url(#pd7425e75f3)" style="fill: none; stroke: #b0b0b0; stroke-width: 0.8; stroke-linecap: square"/>
     </g>
     <g id="line2d_4">
      <g>
       <use xlink:href="#m5e23715a24" x="130.647273" y="307.584" style="stroke: #000000; stroke-width: 0.8"/>
      </g>
     </g>
     <g id="text_2">
      <!-- 1.25 -->
      <g transform="translate(119.51446 322.182437) scale(0.1 -0.1)">
       <defs>
        <path id="DejaVuSans-32" d="M 1228 531 
L 3431 531 
L 3431 0 
L 469 0 
L 469 531 
Q 828 903 1448 1529 
Q 2069 2156 2228 2338 
Q 2531 2678 2651 2914 
Q 2772 3150 2772 3378 
Q 2772 3750 2511 3984 
Q 2250 4219 1831 4219 
Q 1534 4219 1204 4116 
Q 875 4013 500 3803 
L 500 4441 
Q 881 4594 1212 4672 
Q 1544 4750 1819 4750 
Q 2544 4750 2975 4387 
Q 3406 4025 3406 3419 
Q 3406 3131 3298 2873 
Q 3191 2616 2906 2266 
Q 2828 2175 2409 1742 
Q 1991 1309 1228 531 
z
" transform="scale(0.015625)"/>
        <path id="DejaVuSans-35" d="M 691 4666 
L 3169 4666 
L 3169 4134 
L 1269 4134 
L 1269 2991 
Q 1406 3038 1543 3061 
Q 1681 3084 1819 3084 
Q 2600 3084 3056 2656 
Q 3513 2228 3513 1497 
Q 3513 744 3044 326 
Q 2575 -91 1722 -91 
Q 1428 -91 1123 -41 
Q 819 9 494 109 
L 494 744 
Q 775 591 1075 516 
Q 1375 441 1709 441 
Q 2250 441 2565 725 
Q 2881 1009 2881 1497 
Q 2881 1984 2565 2268 
Q 2250 2553 1709 2553 
Q 1456 2553 1204 2497 
Q 953 2441 691 2322 
L 691 4666 
z
" transform="scale(0.015625)"/>
       </defs>
       <use xlink:href="#DejaVuSans-31"/>
       <use xlink:href="#DejaVuSans-2e" x="63.623047"/>
       <use xlink:href="#DejaVuSans-32" x="95.410156"/>
       <use xlink:href="#DejaVuSans-35" x="159.033203"/>
      </g>
     </g>
    </g>
    <g id="xtick_3">
     <g id="line2d_5">
      <path d="M 171.229091 307.584 
L 171.229091 41.472 
" clip-path="url(#pd7425e75f3)" style="fill: none; stroke: #b0b0b0; stroke-width: 0.8; stroke-linecap: square"/>
     </g>
     <g id="line2d_6">
      <g>
       <use xlink:href="#m5e23715a24" x="171.229091" y="307.584" style="stroke: #000000; stroke-width: 0.8"/>
      </g>
     </g>
     <g id="text_3">
      <!-- 1.50 -->
      <g transform="translate(160.096278 322.182437) scale(0.1 -0.1)">
       <use xlink:href="#DejaVuSans-31"/>
       <use xlink:href="#DejaVuSans-2e" x="63.623047"/>
       <use xlink:href="#DejaVuSans-35" x="95.410156"/>
       <use xlink:href="#DejaVuSans-30" x="159.033203"/>
      </g>
     </g>
    </g>
    <g id="xtick_4">
     <g id="line2d_7">
      <path d="M 211.810909 307.584 
L 211.810909 41.472 
" clip-path="url(#pd7425e75f3)" style="fill: none; stroke: #b0b0b0; stroke-width: 0.8; stroke-linecap: square"/>
     </g>
     <g id="line2d_8">
      <g>
       <use xlink:href="#m5e23715a24" x="211.810909" y="307.584" style="stroke: #000000; stroke-width: 0.8"/>
      </g>
     </g>
     <g id="text_4">
      <!-- 1.75 -->
      <g transform="translate(200.678097 322.182437) scale(0.1 -0.1)">
       <defs>
        <path id="DejaVuSans-37" d="M 525 4666 
L 3525 4666 
L 3525 4397 
L 1831 0 
L 1172 0 
L 2766 4134 
L 525 4134 
L 525 4666 
z
" transform="scale(0.015625)"/>
       </defs>
       <use xlink:href="#DejaVuSans-31"/>
       <use xlink:href="#DejaVuSans-2e" x="63.623047"/>
       <use xlink:href="#DejaVuSans-37" x="95.410156"/>
       <use xlink:href="#DejaVuSans-35" x="159.033203"/>
      </g>
     </g>
    </g>
    <g id="xtick_5">
     <g id="line2d_9">
      <path d="M 252.392727 307.584 
L 252.392727 41.472 
" clip-path="url(#pd7425e75f3)" style="fill: none; stroke: #b0b0b0; stroke-width: 0.8; stroke-linecap: square"/>
     </g>
     <g id="line2d_10">
      <g>
       <use xlink:href="#m5e23715a24" x="252.392727" y="307.584" style="stroke: #000000; stroke-width: 0.8"/>
      </g>
     </g>
     <g id="text_5">
      <!-- 2.00 -->
      <g transform="translate(241.259915 322.182437) scale(0.1 -0.1)">
       <use xlink:href="#DejaVuSans-32"/>
       <use xlink:href="#DejaVuSans-2e" x="63.623047"/>
       <use xlink:href="#DejaVuSans-30" x="95.410156"/>
       <use xlink:href="#DejaVuSans-30" x="159.033203"/>
      </g>
     </g>
    </g>
    <g id="xtick_6">
     <g id="line2d_11">
      <path d="M 292.974545 307.584 
L 292.974545 41.472 
" clip-path="url(#pd7425e75f3)" style="fill: none; stroke: #b0b0b0; stroke-width: 0.8; stroke-linecap: square"/>
     </g>
     <g id="line2d_12">
      <g>
       <use xlink:href="#m5e23715a24" x="292.974545" y="307.584" style="stroke: #000000; stroke-width: 0.8"/>
      </g>
     </g>
     <g id="text_6">
      <!-- 2.25 -->
      <g transform="translate(281.841733 322.182437) scale(0.1 -0.1)">
       <use xlink:href="#DejaVuSans-32"/>
       <use xlink:href="#DejaVuSans-2e" x="63.623047"/>
       <use xlink:href="#DejaVuSans-32" x="95.410156"/>
       <use xlink:href="#DejaVuSans-35" x="159.033203"/>
      </g>
     </g>
    </g>
    <g id="xtick_7">
     <g id="line2d_13">
      <path d="M 333.556364 307.584 
L 333.556364 41.472 
" clip-path="url(#pd7425e75f3)" style="fill: none; stroke: #b0b0b0; stroke-width: 0.8; stroke-linecap: square"/>
     </g>
     <g id="line2d_14">
      <g>
       <use xlink:href="#m5e23715a24" x="333.556364" y="307.584" style="stroke: #000000; stroke-width: 0.8"/>
      </g>
     </g>
     <g id="text_7">
      <!-- 2.50 -->
      <g transform="translate(322.423551 322.182437) scale(0.1 -0.1)">
       <use xlink:href="#DejaVuSans-32"/>
       <use xlink:href="#DejaVuSans-2e" x="63.623047"/>
       <use xlink:href="#DejaVuSans-35" x="95.410156"/>
       <use xlink:href="#DejaVuSans-30" x="159.033203"/>
      </g>
     </g>
    </g>
    <g id="xtick_8">
     <g id="line2d_15">
      <path d="M 374.138182 307.584 
L 374.138182 41.472 
" clip-path="url(#pd7425e75f3)" style="fill: none; stroke: #b0b0b0; stroke-width: 0.8; stroke-linecap: square"/>
     </g>
     <g id="line2d_16">
      <g>
       <use xlink:href="#m5e23715a24" x="374.138182" y="307.584" style="stroke: #000000; stroke-width: 0.8"/>
      </g>
     </g>
     <g id="text_8">
      <!-- 2.75 -->
      <g transform="translate(363.005369 322.182437) scale(0.1 -0.1)">
       <use xlink:href="#DejaVuSans-32"/>
       <use xlink:href="#DejaVuSans-2e" x="63.623047"/>
       <use xlink:href="#DejaVuSans-37" x="95.410156"/>
       <use xlink:href="#DejaVuSans-35" x="159.033203"/>
      </g>
     </g>
    </g>
    <g id="xtick_9">
     <g id="line2d_17">
      <path d="M 414.72 307.584 
L 414.72 41.472 
" clip-path="url(#pd7425e75f3)" style="fill: none; stroke: #b0b0b0; stroke-width: 0.8; stroke-linecap: square"/>
     </g>
     <g id="line2d_18">
      <g>
       <use xlink:href="#m5e23715a24" x="414.72" y="307.584" style="stroke: #000000; stroke-width: 0.8"/>
      </g>
     </g>
     <g id="text_9">
      <!-- 3.00 -->
      <g transform="translate(403.587187 322.182437) scale(0.1 -0.1)">
       <defs>
        <path id="DejaVuSans-33" d="M 2597 2516 
Q 3050 2419 3304 2112 
Q 3559 1806 3559 1356 
Q 3559 666 3084 287 
Q 2609 -91 1734 -91 
Q 1441 -91 1130 -33 
Q 819 25 488 141 
L 488 750 
Q 750 597 1062 519 
Q 1375 441 1716 441 
Q 2309 441 2620 675 
Q 2931 909 2931 1356 
Q 2931 1769 2642 2001 
Q 2353 2234 1838 2234 
L 1294 2234 
L 1294 2753 
L 1863 2753 
Q 2328 2753 2575 2939 
Q 2822 3125 2822 3475 
Q 2822 3834 2567 4026 
Q 2313 4219 1838 4219 
Q 1578 4219 1281 4162 
Q 984 4106 628 3988 
L 628 4550 
Q 988 4650 1302 4700 
Q 1616 4750 1894 4750 
Q 2613 4750 3031 4423 
Q 3450 4097 3450 3541 
Q 3450 3153 3228 2886 
Q 3006 2619 2597 2516 
z
" transform="scale(0.015625)"/>
       </defs>
       <use xlink:href="#DejaVuSans-33"/>
       <use xlink:href="#DejaVuSans-2e" x="63.623047"/>
       <use xlink:href="#DejaVuSans-30" x="95.410156"/>
       <use xlink:href="#DejaVuSans-30" x="159.033203"/>
      </g>
     </g>
    </g>
    <g id="text_10">
     <!-- $r$ -->
     <g transform="translate(233.64 337.38025) scale(0.12 -0.12)">
      <defs>
       <path id="DejaVuSans-Oblique-72" d="M 2853 2969 
Q 2766 3016 2653 3041 
Q 2541 3066 2413 3066 
Q 1953 3066 1609 2717 
Q 1266 2369 1153 1784 
L 800 0 
L 225 0 
L 909 3500 
L 1484 3500 
L 1375 2956 
Q 1603 3259 1920 3421 
Q 2238 3584 2597 3584 
Q 2691 3584 2781 3573 
Q 2872 3563 2963 3538 
L 2853 2969 
z
" transform="scale(0.015625)"/>
      </defs>
      <use xlink:href="#DejaVuSans-Oblique-72"/>
     </g>
    </g>
   </g>
   <g id="matplotlib.axis_2">
    <g id="ytick_1">
     <g id="line2d_19">
      <path d="M 57.6 285.408 
L 414.72 285.408 
" clip-path="url(#pd7425e75f3)" style="fill: none; stroke: #b0b0b0; stroke-width: 0.8; stroke-linecap: square"/>
     </g>
     <g id="line2d_20">
      <defs>
       <path id="md8167cfec5" d="M 0 0 
L -3.5 0 
" style="stroke: #000000; stroke-width: 0.8"/>
      </defs>
      <g>
       <use xlink:href="#md8167cfec5" x="57.6" y="285.408" style="stroke: #000000; stroke-width: 0.8"/>
      </g>
     </g>
     <g id="text_11">
      <!-- −1.0 -->
      <g transform="translate(26.317187 289.207219) scale(0.1 -0.1)">
       <defs>
        <path id="DejaVuSans-2212" d="M 678 2272 
L 4684 2272 
L 4684 1741 
L 678 1741 
L 678 2272 
z
" transform="scale(0.015625)"/>
       </defs>
       <use xlink:href="#DejaVuSans-2212"/>
       <use xlink:href="#DejaVuSans-31" x="83.789062"/>
       <use xlink:href="#DejaVuSans-2e" x="147.412109"/>
       <use xlink:href="#DejaVuSans-30" x="179.199219"/>
      </g>
     </g>
    </g>
    <g id="ytick_2">
     <g id="line2d_21">
      <path d="M 57.6 229.968 
L 414.72 229.968 
" clip-path="url(#pd7425e75f3)" style="fill: none; stroke: #b0b0b0; stroke-width: 0.8; stroke-linecap: square"/>
     </g>
     <g id="line2d_22">
      <g>
       <use xlink:href="#md8167cfec5" x="57.6" y="229.968" style="stroke: #000000; stroke-width: 0.8"/>
      </g>
     </g>
     <g id="text_12">
      <!-- −0.5 -->
      <g transform="translate(26.317187 233.767219) scale(0.1 -0.1)">
       <use xlink:href="#DejaVuSans-2212"/>
       <use xlink:href="#DejaVuSans-30" x="83.789062"/>
       <use xlink:href="#DejaVuSans-2e" x="147.412109"/>
       <use xlink:href="#DejaVuSans-35" x="179.199219"/>
      </g>
     </g>
    </g>
    <g id="ytick_3">
     <g id="line2d_23">
      <path d="M 57.6 174.528 
L 414.72 174.528 
" clip-path="url(#pd7425e75f3)" style="fill: none; stroke: #b0b0b0; stroke-width: 0.8; stroke-linecap: square"/>
     </g>
     <g id="line2d_24">
      <g>
       <use xlink:href="#md8167cfec5" x="57.6" y="174.528" style="stroke: #000000; stroke-width: 0.8"/>
      </g>
     </g>
     <g id="text_13">
      <!-- 0.0 -->
      <g transform="translate(34.696875 178.327219) scale(0.1 -0.1)">
       <use xlink:href="#DejaVuSans-30"/>
       <use xlink:href="#DejaVuSans-2e" x="63.623047"/>
       <use xlink:href="#DejaVuSans-30" x="95.410156"/>
      </g>
     </g>
    </g>
    <g id="ytick_4">
     <g id="line2d_25">
      <path d="M 57.6 119.088 
L 414.72 119.088 
" clip-path="url(#pd7425e75f3)" style="fill: none; stroke: #b0b0b0; stroke-width: 0.8; stroke-linecap: square"/>
     </g>
     <g id="line2d_26">
      <g>
       <use xlink:href="#md8167cfec5" x="57.6" y="119.088" style="stroke: #000000; stroke-width: 0.8"/>
      </g>
     </g>
     <g id="text_14">
      <!-- 0.5 -->
      <g transform="translate(34.696875 122.887219) scale(0.1 -0.1)">
       <use xlink:href="#DejaVuSans-30"/>
       <use xlink:href="#DejaVuSans-2e" x="63.623047"/>
       <use xlink:href="#DejaVuSans-35" x="95.410156"/>
      </g>
     </g>
    </g>
    <g id="ytick_5">
     <g id="line2d_27">
      <path d="M 57.6 63.648 
L 414.72 63.648 
" clip-path="url(#pd7425e75f3)" style="fill: none; stroke: #b0b0b0; stroke-width: 0.8; stroke-linecap: square"/>
     </g>
     <g id="line2d_28">
      <g>
       <use xlink:href="#md8167cfec5" x="57.6" y="63.648" style="stroke: #000000; stroke-width: 0.8"/>
      </g>
     </g>
     <g id="text_15">
      <!-- 1.0 -->
      <g transform="translate(34.696875 67.447219) scale(0.1 -0.1)">
       <use xlink:href="#DejaVuSans-31"/>
       <use xlink:href="#DejaVuSans-2e" x="63.623047"/>
       <use xlink:href="#DejaVuSans-30" x="95.410156"/>
      </g>
     </g>
    </g>
    <g id="text_16">
     <!-- $E(r)$ -->
     <g transform="translate(19.821562 185.508) rotate(-90) scale(0.12 -0.12)">
      <defs>
       <path id="DejaVuSans-Oblique-45" d="M 1081 4666 
L 4031 4666 
L 3928 4134 
L 1606 4134 
L 1338 2753 
L 3566 2753 
L 3463 2222 
L 1234 2222 
L 909 531 
L 3284 531 
L 3181 0 
L 172 0 
L 1081 4666 
z
" transform="scale(0.015625)"/>
       <path id="DejaVuSans-28" d="M 1984 4856 
Q 1566 4138 1362 3434 
Q 1159 2731 1159 2009 
Q 1159 1288 1364 580 
Q 1569 -128 1984 -844 
L 1484 -844 
Q 1016 -109 783 600 
Q 550 1309 550 2009 
Q 550 2706 781 3412 
Q 1013 4119 1484 4856 
L 1984 4856 
z
" transform="scale(0.015625)"/>
       <path id="DejaVuSans-29" d="M 513 4856 
L 1013 4856 
Q 1481 4119 1714 3412 
Q 1947 2706 1947 2009 
Q 1947 1309 1714 600 
Q 1481 -109 1013 -844 
L 513 -844 
Q 928 -128 1133 580 
Q 1338 1288 1338 2009 
Q 1338 2731 1133 3434 
Q 928 4138 513 4856 
z
" transform="scale(0.015625)"/>
      </defs>
      <use xlink:href="#DejaVuSans-Oblique-45" transform="translate(0 0.125)"/>
      <use xlink:href="#DejaVuSans-28" transform="translate(63.183594 0.125)"/>
      <use xlink:href="#DejaVuSans-Oblique-72" transform="translate(102.197266 0.125)"/>
      <use xlink:href="#DejaVuSans-29" transform="translate(143.310547 0.125)"/>
     </g>
    </g>
   </g>
   <g id="line2d_29">
    <path d="M 65.157757 -1 
L 67.068416 54.600383 
L 68.854912 100.877597 
L 70.641399 141.423757 
L 72.249247 172.98712 
L 73.857086 199.980901 
L 75.286287 220.300026 
L 76.715478 237.365452 
L 77.966022 249.816738 
L 79.216575 260.140639 
L 80.467118 268.527585 
L 81.539014 274.323196 
L 82.61091 278.962635 
L 83.682806 282.566556 
L 84.576054 284.862985 
L 85.469302 286.585717 
L 86.36254 287.796069 
L 87.077141 288.434218 
L 87.791741 288.809171 
L 88.506332 288.947272 
L 89.220932 288.873093 
L 90.11418 288.516499 
L 91.007419 287.905355 
L 92.079324 286.887853 
L 93.329877 285.38163 
L 94.937706 283.059161 
L 96.90285 279.813447 
L 99.939899 274.316666 
L 109.765599 256.248224 
L 114.589145 247.991052 
L 120.305909 238.66295 
L 127.630542 227.161054 
L 134.240564 217.165976 
L 139.242757 209.985073 
L 143.173026 204.70475 
L 146.56737 200.48995 
L 149.6044 197.05276 
L 152.462802 194.153117 
L 154.963889 191.91404 
L 157.464976 189.977654 
L 159.787415 188.467149 
L 161.931207 187.328927 
L 164.074998 186.442453 
L 166.21879 185.809645 
L 168.183934 185.450686 
L 170.327725 185.293988 
L 172.471517 185.371801 
L 174.615308 185.667368 
L 176.937767 186.208853 
L 179.617482 187.075037 
L 182.833179 188.369297 
L 194.445395 193.315048 
L 197.125129 194.073519 
L 199.626216 194.556 
L 202.30597 194.834554 
L 205.521648 194.915977 
L 211.059784 195.007022 
L 213.024908 195.28518 
L 214.632757 195.713613 
L 216.240605 196.377271 
L 217.669787 197.201323 
L 219.099007 198.271869 
L 220.528188 199.60454 
L 222.136018 201.420888 
L 223.922533 203.811046 
L 226.066305 207.107531 
L 229.996593 213.720271 
L 232.497699 217.671403 
L 234.105528 219.844668 
L 235.534749 221.438201 
L 236.785263 222.53248 
L 238.035816 223.330936 
L 239.107702 223.780246 
L 240.179608 224.021995 
L 241.430161 224.063143 
L 242.680695 223.876691 
L 244.109895 223.433335 
L 245.896392 222.615628 
L 248.040183 221.370684 
L 250.898565 219.43981 
L 254.471558 216.750722 
L 258.401846 213.499224 
L 262.868076 209.49681 
L 275.37353 198.110075 
L 279.482466 194.76483 
L 283.412753 191.843625 
L 287.343041 189.199313 
L 291.273329 186.822295 
L 295.203616 184.698031 
L 299.312513 182.732611 
L 303.421487 181.015622 
L 307.530384 179.537416 
L 311.639358 178.289362 
L 315.926903 177.222263 
L 320.214524 176.380757 
L 324.859403 175.699908 
L 329.861577 175.196004 
L 335.756989 174.834633 
L 344.868098 174.538181 
L 354.872484 174.158129 
L 360.946544 173.70484 
L 366.306014 173.083274 
L 371.308226 172.277572 
L 376.131752 171.272058 
L 380.776631 170.079758 
L 385.421509 168.662185 
L 390.245035 166.951402 
L 395.068561 165.001768 
L 400.070774 162.736133 
L 405.251595 160.14071 
L 410.611065 157.206186 
L 414.72 154.796508 
L 414.72 154.796508 
" clip-path="url(#pd7425e75f3)" style="fill: none; stroke: #000000; stroke-linecap: square"/>
   </g>
   <g id="line2d_30">
    <path d="M 62.078446 -1 
L 63.495434 18.581375 
L 65.103272 43.994292 
L 67.068416 78.81824 
L 72.249247 172.822451 
L 74.035744 200.562695 
L 75.643582 222.269348 
L 77.072783 238.827725 
L 78.501974 252.818291 
L 79.752518 263.021076 
L 81.003061 271.417024 
L 82.074957 277.260827 
L 83.146853 281.939748 
L 84.040101 285.009532 
L 84.933349 287.378925 
L 85.826597 289.098709 
L 86.541188 290.04083 
L 87.255788 290.625486 
L 87.970389 290.878199 
L 88.684979 290.823926 
L 89.39958 290.487213 
L 90.11418 289.89197 
L 91.007419 288.819917 
L 92.079324 287.109385 
L 93.329877 284.62037 
L 94.759059 281.255866 
L 96.724202 275.98198 
L 99.761232 267.069568 
L 103.870168 255.130014 
L 106.192626 249.092317 
L 108.157751 244.621102 
L 109.765599 241.473887 
L 111.373448 238.823376 
L 112.802649 236.894008 
L 114.23185 235.358667 
L 115.482383 234.319791 
L 116.732917 233.537408 
L 118.162118 232.909848 
L 119.769966 232.459592 
L 122.449701 231.994599 
L 124.593493 231.528812 
L 126.022693 231.004827 
L 127.273247 230.328611 
L 128.52378 229.396282 
L 129.774333 228.162699 
L 131.024887 226.588708 
L 132.27542 224.640809 
L 133.525954 222.292684 
L 134.955155 219.098341 
L 136.384356 215.356161 
L 137.992204 210.525459 
L 139.957348 203.867206 
L 143.173026 191.992304 
L 146.031408 181.775058 
L 147.817924 176.202159 
L 149.247105 172.412088 
L 150.497639 169.655839 
L 151.748211 167.450888 
L 152.820097 166.002177 
L 153.891983 164.949514 
L 154.785222 164.360593 
L 155.67848 164.017419 
L 156.571737 163.90198 
L 157.464976 163.994423 
L 158.536862 164.350693 
L 159.608767 164.940176 
L 160.859321 165.874677 
L 162.46715 167.383688 
L 164.432313 169.557039 
L 167.647991 173.503224 
L 172.471517 179.383202 
L 175.151251 182.301092 
L 177.652358 184.694142 
L 179.974777 186.599694 
L 182.118588 188.079758 
L 184.26236 189.294165 
L 186.406171 190.252788 
L 188.549963 190.971539 
L 190.872402 191.504913 
L 193.373489 191.833338 
L 196.231871 191.965309 
L 200.340807 191.899801 
L 204.62839 191.883824 
L 207.129496 192.101315 
L 209.094621 192.481919 
L 210.881136 193.038552 
L 212.667613 193.835375 
L 214.275461 194.785182 
L 215.88331 195.974035 
L 217.669787 197.587019 
L 219.456302 199.506325 
L 221.421427 201.947362 
L 223.743885 205.201549 
L 227.495525 210.917948 
L 230.711184 215.679703 
L 232.854995 218.461733 
L 234.641471 220.405733 
L 236.24932 221.806383 
L 237.678521 222.749958 
L 238.929055 223.336305 
L 240.179608 223.701054 
L 241.430161 223.851421 
L 242.680695 223.798497 
L 244.109895 223.507782 
L 245.539096 222.995019 
L 247.146925 222.18509 
L 248.933422 221.0394 
L 251.077213 219.389585 
L 253.756967 217.015493 
L 257.329921 213.51731 
L 269.29947 201.544681 
L 273.229719 198.049722 
L 276.802712 195.157544 
L 280.375704 192.545418 
L 283.948696 190.206483 
L 287.521689 188.124735 
L 291.273329 186.192934 
L 295.203616 184.41985 
L 299.312513 182.807838 
L 303.778783 181.297789 
L 308.602309 179.907309 
L 313.78313 178.644989 
L 319.678581 177.445309 
L 326.288584 176.337679 
L 333.791864 175.314219 
L 342.545678 174.35373 
L 352.907321 173.449136 
L 365.591423 172.575474 
L 381.491221 171.715199 
L 401.857251 170.846967 
L 414.72 170.385682 
L 414.72 170.385682 
" clip-path="url(#pd7425e75f3)" style="fill: none; stroke: #ff0000; stroke-linecap: square"/>
   </g>
   <g id="line2d_31">
    <path d="M 64.10943 -1 
L 67.425712 76.525954 
L 69.748151 126.043226 
L 71.713295 163.494011 
L 73.499791 193.356075 
L 75.107639 216.546591 
L 76.53683 234.156648 
L 77.966022 248.974406 
L 79.216575 259.735444 
L 80.467118 268.556578 
L 81.539014 274.680781 
L 82.61091 279.585312 
L 83.682806 283.378308 
L 84.576054 285.770449 
L 85.469302 287.533191 
L 86.183892 288.533392 
L 86.898493 289.20362 
L 87.613093 289.574925 
L 88.327684 289.677007 
L 89.042284 289.538417 
L 89.756885 289.185776 
L 90.650123 288.482688 
L 91.722029 287.313721 
L 92.972562 285.590751 
L 94.580411 282.956128 
L 96.724202 278.979614 
L 107.621808 258.068425 
L 111.016153 252.342902 
L 114.94644 246.151705 
L 120.663205 237.610691 
L 135.669765 215.318123 
L 142.637083 205.083331 
L 146.746018 199.423942 
L 150.140343 195.122247 
L 152.998745 191.849727 
L 155.499832 189.304087 
L 157.822271 187.24472 
L 159.966063 185.631631 
L 161.931207 184.414815 
L 163.89635 183.463006 
L 165.682847 182.837058 
L 167.469343 182.44475 
L 169.255839 182.288937 
L 171.042316 182.368905 
L 172.828831 182.680108 
L 174.615308 183.214112 
L 176.580452 184.043114 
L 178.724244 185.208036 
L 181.046683 186.729882 
L 183.905065 188.876103 
L 192.658879 195.653251 
L 194.80269 196.932376 
L 196.767814 197.842801 
L 198.55433 198.417476 
L 200.162159 198.712996 
L 201.770008 198.795608 
L 203.556504 198.650112 
L 205.521648 198.241671 
L 208.022735 197.468555 
L 211.774375 196.296151 
L 213.382204 196.020326 
L 214.811424 195.998583 
L 216.061958 196.20202 
L 217.312491 196.649506 
L 218.563045 197.366427 
L 219.813598 198.366673 
L 221.064131 199.650597 
L 222.493313 201.445915 
L 224.101181 203.827641 
L 226.244953 207.428218 
L 231.425813 216.330894 
L 233.21229 218.881504 
L 234.820119 220.773122 
L 236.24932 222.09463 
L 237.499873 222.963629 
L 238.750407 223.567808 
L 240.00096 223.918737 
L 241.251513 224.03366 
L 242.502047 223.934109 
L 243.931248 223.587555 
L 245.539096 222.944311 
L 247.325573 221.972952 
L 249.469365 220.534446 
L 252.149119 218.446007 
L 255.900739 215.211719 
L 273.408367 199.749833 
L 278.589227 195.624539 
L 283.412753 192.070932 
L 287.878984 189.058696 
L 292.166567 186.440575 
L 296.275503 184.197076 
L 300.20579 182.301469 
L 304.136078 180.652277 
L 308.066366 179.245764 
L 311.996653 178.073132 
L 316.10555 177.082318 
L 320.393172 176.281978 
L 325.03805 175.650196 
L 330.218872 175.181298 
L 336.47158 174.852023 
L 359.338715 173.875831 
L 364.698184 173.29658 
L 369.700358 172.539783 
L 374.702532 171.553099 
L 379.526097 170.375795 
L 384.528271 168.922791 
L 389.709092 167.181082 
L 395.247209 165.076785 
L 401.321308 162.520041 
L 408.109958 159.415068 
L 414.72 156.207318 
L 414.72 156.207318 
" clip-path="url(#pd7425e75f3)" style="fill: none; stroke: #008000; stroke-linecap: square"/>
   </g>
   <g id="line2d_32">
    <path d="M 57.600002 67.759257 
L 58.850545 78.980576 
L 59.922441 86.770349 
L 60.994337 92.877666 
L 61.887585 96.752593 
L 62.780833 99.654298 
L 63.674081 101.795906 
L 65.99652 106.624626 
L 66.711121 109.061899 
L 67.425712 112.566414 
L 68.140312 117.443485 
L 68.854912 123.879445 
L 69.748151 134.136999 
L 70.820056 149.224136 
L 72.606543 178.133004 
L 74.928992 214.965958 
L 76.358183 234.233517 
L 77.608726 248.331665 
L 78.85927 259.847181 
L 79.931165 267.797936 
L 81.003061 274.152572 
L 82.074957 279.097901 
L 82.968205 282.278226 
L 83.861453 284.714792 
L 84.754701 286.505207 
L 85.647949 287.738928 
L 86.36254 288.379575 
L 87.077141 288.75314 
L 87.791741 288.89321 
L 88.506332 288.830253 
L 89.39958 288.507181 
L 90.471476 287.821421 
L 91.722029 286.694792 
L 93.15121 285.081616 
L 94.937706 282.7195 
L 97.438813 279.005508 
L 101.190433 272.975741 
L 107.621808 262.15018 
L 117.804823 244.534683 
L 127.273247 228.267514 
L 132.454068 219.817608 
L 136.563003 213.519434 
L 140.314643 208.167205 
L 143.708988 203.706251 
L 146.924666 199.852502 
L 149.783048 196.756247 
L 152.64145 193.990106 
L 155.321184 191.712769 
L 157.822271 189.875716 
L 160.14473 188.429061 
L 162.46715 187.240372 
L 164.610961 186.378591 
L 166.754733 185.748061 
L 168.898544 185.352543 
L 171.042316 185.193966 
L 173.186127 185.271633 
L 175.329899 185.581436 
L 177.47371 186.114693 
L 179.79613 186.927793 
L 182.297236 188.046255 
L 185.155618 189.571092 
L 189.800516 192.351783 
L 193.909451 194.718294 
L 196.410519 195.908625 
L 198.55433 196.684958 
L 200.519454 197.15513 
L 202.30597 197.364991 
L 204.271094 197.360062 
L 206.414905 197.111628 
L 209.630583 196.469081 
L 212.310318 196.015236 
L 213.918166 195.949237 
L 215.347367 196.108559 
L 216.597901 196.463708 
L 217.848434 197.054064 
L 219.099007 197.902703 
L 220.349541 199.020825 
L 221.778722 200.624664 
L 223.38659 202.809494 
L 225.351715 205.914015 
L 232.676347 218.000113 
L 234.284176 219.998492 
L 235.713396 221.43487 
L 237.142578 222.535649 
L 238.393112 223.22544 
L 239.643665 223.670339 
L 240.894198 223.885606 
L 242.144752 223.889492 
L 243.573952 223.660544 
L 245.003134 223.210335 
L 246.610982 222.47301 
L 248.397479 221.407024 
L 250.362622 219.980528 
L 252.685081 218.010595 
L 255.364796 215.432491 
L 258.759141 211.827917 
L 265.011848 204.762301 
L 269.29947 200.086762 
L 272.515129 196.900741 
L 275.37353 194.386019 
L 278.053284 192.33044 
L 280.732999 190.567591 
L 283.412753 189.074321 
L 286.271155 187.731674 
L 289.665461 186.384866 
L 294.846321 184.604587 
L 306.101203 180.775109 
L 314.497721 177.927938 
L 318.963952 176.659855 
L 322.89424 175.775404 
L 326.64588 175.156747 
L 330.576167 174.739158 
L 334.86375 174.51633 
L 340.044572 174.480234 
L 356.123018 174.534519 
L 360.589249 174.237175 
L 364.698184 173.746661 
L 368.628472 173.056516 
L 372.55876 172.13453 
L 376.3104 171.030674 
L 380.240688 169.637998 
L 384.170975 168.006915 
L 388.279911 166.055106 
L 392.567494 163.763116 
L 397.033725 161.117257 
L 401.857251 157.989534 
L 407.038072 154.351971 
L 412.576189 150.188443 
L 414.72 148.510371 
L 414.72 148.510371 
" clip-path="url(#pd7425e75f3)" style="fill: none; stroke: #0000ff; stroke-linecap: square"/>
   </g>
   <g id="line2d_33">
    <defs>
     <path id="mce558300a7" d="M 0 3 
C 0.795609 3 1.55874 2.683901 2.12132 2.12132 
C 2.683901 1.55874 3 0.795609 3 0 
C 3 -0.795609 2.683901 -1.55874 2.12132 -2.12132 
C 1.55874 -2.683901 0.795609 -3 0 -3 
C -0.795609 -3 -1.55874 -2.683901 -2.12132 -2.12132 
C -2.683901 -1.55874 -3 -0.795609 -3 0 
C -3 0.795609 -2.683901 1.55874 -2.12132 2.12132 
C -1.55874 2.683901 -0.795609 3 0 3 
z
" style="stroke: #000000; stroke-opacity: 0.7"/>
    </defs>
    <g clip-path="url(#pd7425e75f3)">
     <use xlink:href="#mce558300a7" x="73.668745" y="195.676548" style="fill: #ff7f0e; fill-opacity: 0.7; stroke: #000000; stroke-opacity: 0.7"/>
     <use xlink:href="#mce558300a7" x="92.684103" y="288.789324" style="fill: #ff7f0e; fill-opacity: 0.7; stroke: #000000; stroke-opacity: 0.7"/>
     <use xlink:href="#mce558300a7" x="180.414347" y="187.474215" style="fill: #ff7f0e; fill-opacity: 0.7; stroke: #000000; stroke-opacity: 0.7"/>
     <use xlink:href="#mce558300a7" x="349.210238" y="178.051066" style="fill: #ff7f0e; fill-opacity: 0.7; stroke: #000000; stroke-opacity: 0.7"/>
     <use xlink:href="#mce558300a7" x="253.277108" y="223.52298" style="fill: #ff7f0e; fill-opacity: 0.7; stroke: #000000; stroke-opacity: 0.7"/>
     <use xlink:href="#mce558300a7" x="216.416238" y="196.287693" style="fill: #ff7f0e; fill-opacity: 0.7; stroke: #000000; stroke-opacity: 0.7"/>
     <use xlink:href="#mce558300a7" x="298.973253" y="180.445469" style="fill: #ff7f0e; fill-opacity: 0.7; stroke: #000000; stroke-opacity: 0.7"/>
     <use xlink:href="#mce558300a7" x="71.494659" y="159.759425" style="fill: #ff7f0e; fill-opacity: 0.7; stroke: #000000; stroke-opacity: 0.7"/>
     <use xlink:href="#mce558300a7" x="247.700296" y="224.173525" style="fill: #ff7f0e; fill-opacity: 0.7; stroke: #000000; stroke-opacity: 0.7"/>
     <use xlink:href="#mce558300a7" x="251.234016" y="213.5733" style="fill: #ff7f0e; fill-opacity: 0.7; stroke: #000000; stroke-opacity: 0.7"/>
     <use xlink:href="#mce558300a7" x="306.940621" y="183.951889" style="fill: #ff7f0e; fill-opacity: 0.7; stroke: #000000; stroke-opacity: 0.7"/>
     <use xlink:href="#mce558300a7" x="333.514044" y="174.069806" style="fill: #ff7f0e; fill-opacity: 0.7; stroke: #000000; stroke-opacity: 0.7"/>
     <use xlink:href="#mce558300a7" x="84.44649" y="285.542975" style="fill: #ff7f0e; fill-opacity: 0.7; stroke: #000000; stroke-opacity: 0.7"/>
     <use xlink:href="#mce558300a7" x="290.704052" y="183.228578" style="fill: #ff7f0e; fill-opacity: 0.7; stroke: #000000; stroke-opacity: 0.7"/>
     <use xlink:href="#mce558300a7" x="302.242692" y="178.297587" style="fill: #ff7f0e; fill-opacity: 0.7; stroke: #000000; stroke-opacity: 0.7"/>
     <use xlink:href="#mce558300a7" x="296.225933" y="190.71132" style="fill: #ff7f0e; fill-opacity: 0.7; stroke: #000000; stroke-opacity: 0.7"/>
     <use xlink:href="#mce558300a7" x="184.498613" y="186.475382" style="fill: #ff7f0e; fill-opacity: 0.7; stroke: #000000; stroke-opacity: 0.7"/>
     <use xlink:href="#mce558300a7" x="378.683018" y="170.128033" style="fill: #ff7f0e; fill-opacity: 0.7; stroke: #000000; stroke-opacity: 0.7"/>
     <use xlink:href="#mce558300a7" x="250.592186" y="217.21218" style="fill: #ff7f0e; fill-opacity: 0.7; stroke: #000000; stroke-opacity: 0.7"/>
     <use xlink:href="#mce558300a7" x="342.04852" y="175.949006" style="fill: #ff7f0e; fill-opacity: 0.7; stroke: #000000; stroke-opacity: 0.7"/>
     <use xlink:href="#mce558300a7" x="330.922939" y="173.026046" style="fill: #ff7f0e; fill-opacity: 0.7; stroke: #000000; stroke-opacity: 0.7"/>
     <use xlink:href="#mce558300a7" x="136.17143" y="216.111884" style="fill: #ff7f0e; fill-opacity: 0.7; stroke: #000000; stroke-opacity: 0.7"/>
     <use xlink:href="#mce558300a7" x="335.128811" y="173.583952" style="fill: #ff7f0e; fill-opacity: 0.7; stroke: #000000; stroke-opacity: 0.7"/>
     <use xlink:href="#mce558300a7" x="93.43169" y="282.014567" style="fill: #ff7f0e; fill-opacity: 0.7; stroke: #000000; stroke-opacity: 0.7"/>
     <use xlink:href="#mce558300a7" x="234.691203" y="220.623862" style="fill: #ff7f0e; fill-opacity: 0.7; stroke: #000000; stroke-opacity: 0.7"/>
     <use xlink:href="#mce558300a7" x="124.977887" y="231.385433" style="fill: #ff7f0e; fill-opacity: 0.7; stroke: #000000; stroke-opacity: 0.7"/>
     <use xlink:href="#mce558300a7" x="357.726037" y="170.487706" style="fill: #ff7f0e; fill-opacity: 0.7; stroke: #000000; stroke-opacity: 0.7"/>
     <use xlink:href="#mce558300a7" x="138.085889" y="210.076721" style="fill: #ff7f0e; fill-opacity: 0.7; stroke: #000000; stroke-opacity: 0.7"/>
     <use xlink:href="#mce558300a7" x="363.964202" y="175.336376" style="fill: #ff7f0e; fill-opacity: 0.7; stroke: #000000; stroke-opacity: 0.7"/>
     <use xlink:href="#mce558300a7" x="186.528706" y="192.758013" style="fill: #ff7f0e; fill-opacity: 0.7; stroke: #000000; stroke-opacity: 0.7"/>
    </g>
   </g>
   <g id="patch_3">
    <path d="M 57.6 307.584 
L 57.6 41.472 
" style="fill: none; stroke: #000000; stroke-width: 0.8; stroke-linejoin: miter; stroke-linecap: square"/>
   </g>
   <g id="patch_4">
    <path d="M 414.72 307.584 
L 414.72 41.472 
" style="fill: none; stroke: #000000; stroke-width: 0.8; stroke-linejoin: miter; stroke-linecap: square"/>
   </g>
   <g id="patch_5">
    <path d="M 57.6 307.584 
L 414.72 307.584 
" style="fill: none; stroke: #000000; stroke-width: 0.8; stroke-linejoin: miter; stroke-linecap: square"/>
   </g>
   <g id="patch_6">
    <path d="M 57.6 41.472 
L 414.72 41.472 
" style="fill: none; stroke: #000000; stroke-width: 0.8; stroke-linejoin: miter; stroke-linecap: square"/>
   </g>
   <g id="legend_1">
    <g id="patch_7">
     <path d="M 169.22 108.272 
L 407.72 108.272 
Q 409.72 108.272 409.72 106.272 
L 409.72 48.472 
Q 409.72 46.472 407.72 46.472 
L 169.22 46.472 
Q 167.22 46.472 167.22 48.472 
L 167.22 106.272 
Q 167.22 108.272 169.22 108.272 
z
" style="fill: #ffffff; opacity: 0.8; stroke: #cccccc; stroke-linejoin: miter"/>
    </g>
    <g id="line2d_34">
     <path d="M 171.22 54.572 
L 181.22 54.572 
L 191.22 54.572 
" style="fill: none; stroke: #000000; stroke-linecap: square"/>
    </g>
    <g id="text_17">
     <!-- N hidden 2, Dim. of layers 16 ; $\mathcal{L}$ = 0.001 -->
     <g transform="translate(199.22 58.072) scale(0.1 -0.1)">
      <defs>
       <path id="DejaVuSans-4e" d="M 628 4666 
L 1478 4666 
L 3547 763 
L 3547 4666 
L 4159 4666 
L 4159 0 
L 3309 0 
L 1241 3903 
L 1241 0 
L 628 0 
L 628 4666 
z
" transform="scale(0.015625)"/>
       <path id="DejaVuSans-20" transform="scale(0.015625)"/>
       <path id="DejaVuSans-68" d="M 3513 2113 
L 3513 0 
L 2938 0 
L 2938 2094 
Q 2938 2591 2744 2837 
Q 2550 3084 2163 3084 
Q 1697 3084 1428 2787 
Q 1159 2491 1159 1978 
L 1159 0 
L 581 0 
L 581 4863 
L 1159 4863 
L 1159 2956 
Q 1366 3272 1645 3428 
Q 1925 3584 2291 3584 
Q 2894 3584 3203 3211 
Q 3513 2838 3513 2113 
z
" transform="scale(0.015625)"/>
       <path id="DejaVuSans-69" d="M 603 3500 
L 1178 3500 
L 1178 0 
L 603 0 
L 603 3500 
z
M 603 4863 
L 1178 4863 
L 1178 4134 
L 603 4134 
L 603 4863 
z
" transform="scale(0.015625)"/>
       <path id="DejaVuSans-64" d="M 2906 2969 
L 2906 4863 
L 3481 4863 
L 3481 0 
L 2906 0 
L 2906 525 
Q 2725 213 2448 61 
Q 2172 -91 1784 -91 
Q 1150 -91 751 415 
Q 353 922 353 1747 
Q 353 2572 751 3078 
Q 1150 3584 1784 3584 
Q 2172 3584 2448 3432 
Q 2725 3281 2906 2969 
z
M 947 1747 
Q 947 1113 1208 752 
Q 1469 391 1925 391 
Q 2381 391 2643 752 
Q 2906 1113 2906 1747 
Q 2906 2381 2643 2742 
Q 2381 3103 1925 3103 
Q 1469 3103 1208 2742 
Q 947 2381 947 1747 
z
" transform="scale(0.015625)"/>
       <path id="DejaVuSans-65" d="M 3597 1894 
L 3597 1613 
L 953 1613 
Q 991 1019 1311 708 
Q 1631 397 2203 397 
Q 2534 397 2845 478 
Q 3156 559 3463 722 
L 3463 178 
Q 3153 47 2828 -22 
Q 2503 -91 2169 -91 
Q 1331 -91 842 396 
Q 353 884 353 1716 
Q 353 2575 817 3079 
Q 1281 3584 2069 3584 
Q 2775 3584 3186 3129 
Q 3597 2675 3597 1894 
z
M 3022 2063 
Q 3016 2534 2758 2815 
Q 2500 3097 2075 3097 
Q 1594 3097 1305 2825 
Q 1016 2553 972 2059 
L 3022 2063 
z
" transform="scale(0.015625)"/>
       <path id="DejaVuSans-6e" d="M 3513 2113 
L 3513 0 
L 2938 0 
L 2938 2094 
Q 2938 2591 2744 2837 
Q 2550 3084 2163 3084 
Q 1697 3084 1428 2787 
Q 1159 2491 1159 1978 
L 1159 0 
L 581 0 
L 581 3500 
L 1159 3500 
L 1159 2956 
Q 1366 3272 1645 3428 
Q 1925 3584 2291 3584 
Q 2894 3584 3203 3211 
Q 3513 2838 3513 2113 
z
" transform="scale(0.015625)"/>
       <path id="DejaVuSans-2c" d="M 750 794 
L 1409 794 
L 1409 256 
L 897 -744 
L 494 -744 
L 750 256 
L 750 794 
z
" transform="scale(0.015625)"/>
       <path id="DejaVuSans-44" d="M 1259 4147 
L 1259 519 
L 2022 519 
Q 2988 519 3436 956 
Q 3884 1394 3884 2338 
Q 3884 3275 3436 3711 
Q 2988 4147 2022 4147 
L 1259 4147 
z
M 628 4666 
L 1925 4666 
Q 3281 4666 3915 4102 
Q 4550 3538 4550 2338 
Q 4550 1131 3912 565 
Q 3275 0 1925 0 
L 628 0 
L 628 4666 
z
" transform="scale(0.015625)"/>
       <path id="DejaVuSans-6d" d="M 3328 2828 
Q 3544 3216 3844 3400 
Q 4144 3584 4550 3584 
Q 5097 3584 5394 3201 
Q 5691 2819 5691 2113 
L 5691 0 
L 5113 0 
L 5113 2094 
Q 5113 2597 4934 2840 
Q 4756 3084 4391 3084 
Q 3944 3084 3684 2787 
Q 3425 2491 3425 1978 
L 3425 0 
L 2847 0 
L 2847 2094 
Q 2847 2600 2669 2842 
Q 2491 3084 2119 3084 
Q 1678 3084 1418 2786 
Q 1159 2488 1159 1978 
L 1159 0 
L 581 0 
L 581 3500 
L 1159 3500 
L 1159 2956 
Q 1356 3278 1631 3431 
Q 1906 3584 2284 3584 
Q 2666 3584 2933 3390 
Q 3200 3197 3328 2828 
z
" transform="scale(0.015625)"/>
       <path id="DejaVuSans-6f" d="M 1959 3097 
Q 1497 3097 1228 2736 
Q 959 2375 959 1747 
Q 959 1119 1226 758 
Q 1494 397 1959 397 
Q 2419 397 2687 759 
Q 2956 1122 2956 1747 
Q 2956 2369 2687 2733 
Q 2419 3097 1959 3097 
z
M 1959 3584 
Q 2709 3584 3137 3096 
Q 3566 2609 3566 1747 
Q 3566 888 3137 398 
Q 2709 -91 1959 -91 
Q 1206 -91 779 398 
Q 353 888 353 1747 
Q 353 2609 779 3096 
Q 1206 3584 1959 3584 
z
" transform="scale(0.015625)"/>
       <path id="DejaVuSans-66" d="M 2375 4863 
L 2375 4384 
L 1825 4384 
Q 1516 4384 1395 4259 
Q 1275 4134 1275 3809 
L 1275 3500 
L 2222 3500 
L 2222 3053 
L 1275 3053 
L 1275 0 
L 697 0 
L 697 3053 
L 147 3053 
L 147 3500 
L 697 3500 
L 697 3744 
Q 697 4328 969 4595 
Q 1241 4863 1831 4863 
L 2375 4863 
z
" transform="scale(0.015625)"/>
       <path id="DejaVuSans-6c" d="M 603 4863 
L 1178 4863 
L 1178 0 
L 603 0 
L 603 4863 
z
" transform="scale(0.015625)"/>
       <path id="DejaVuSans-61" d="M 2194 1759 
Q 1497 1759 1228 1600 
Q 959 1441 959 1056 
Q 959 750 1161 570 
Q 1363 391 1709 391 
Q 2188 391 2477 730 
Q 2766 1069 2766 1631 
L 2766 1759 
L 2194 1759 
z
M 3341 1997 
L 3341 0 
L 2766 0 
L 2766 531 
Q 2569 213 2275 61 
Q 1981 -91 1556 -91 
Q 1019 -91 701 211 
Q 384 513 384 1019 
Q 384 1609 779 1909 
Q 1175 2209 1959 2209 
L 2766 2209 
L 2766 2266 
Q 2766 2663 2505 2880 
Q 2244 3097 1772 3097 
Q 1472 3097 1187 3025 
Q 903 2953 641 2809 
L 641 3341 
Q 956 3463 1253 3523 
Q 1550 3584 1831 3584 
Q 2591 3584 2966 3190 
Q 3341 2797 3341 1997 
z
" transform="scale(0.015625)"/>
       <path id="DejaVuSans-79" d="M 2059 -325 
Q 1816 -950 1584 -1140 
Q 1353 -1331 966 -1331 
L 506 -1331 
L 506 -850 
L 844 -850 
Q 1081 -850 1212 -737 
Q 1344 -625 1503 -206 
L 1606 56 
L 191 3500 
L 800 3500 
L 1894 763 
L 2988 3500 
L 3597 3500 
L 2059 -325 
z
" transform="scale(0.015625)"/>
       <path id="DejaVuSans-72" d="M 2631 2963 
Q 2534 3019 2420 3045 
Q 2306 3072 2169 3072 
Q 1681 3072 1420 2755 
Q 1159 2438 1159 1844 
L 1159 0 
L 581 0 
L 581 3500 
L 1159 3500 
L 1159 2956 
Q 1341 3275 1631 3429 
Q 1922 3584 2338 3584 
Q 2397 3584 2469 3576 
Q 2541 3569 2628 3553 
L 2631 2963 
z
" transform="scale(0.015625)"/>
       <path id="DejaVuSans-73" d="M 2834 3397 
L 2834 2853 
Q 2591 2978 2328 3040 
Q 2066 3103 1784 3103 
Q 1356 3103 1142 2972 
Q 928 2841 928 2578 
Q 928 2378 1081 2264 
Q 1234 2150 1697 2047 
L 1894 2003 
Q 2506 1872 2764 1633 
Q 3022 1394 3022 966 
Q 3022 478 2636 193 
Q 2250 -91 1575 -91 
Q 1294 -91 989 -36 
Q 684 19 347 128 
L 347 722 
Q 666 556 975 473 
Q 1284 391 1588 391 
Q 1994 391 2212 530 
Q 2431 669 2431 922 
Q 2431 1156 2273 1281 
Q 2116 1406 1581 1522 
L 1381 1569 
Q 847 1681 609 1914 
Q 372 2147 372 2553 
Q 372 3047 722 3315 
Q 1072 3584 1716 3584 
Q 2034 3584 2315 3537 
Q 2597 3491 2834 3397 
z
" transform="scale(0.015625)"/>
       <path id="DejaVuSans-36" d="M 2113 2584 
Q 1688 2584 1439 2293 
Q 1191 2003 1191 1497 
Q 1191 994 1439 701 
Q 1688 409 2113 409 
Q 2538 409 2786 701 
Q 3034 994 3034 1497 
Q 3034 2003 2786 2293 
Q 2538 2584 2113 2584 
z
M 3366 4563 
L 3366 3988 
Q 3128 4100 2886 4159 
Q 2644 4219 2406 4219 
Q 1781 4219 1451 3797 
Q 1122 3375 1075 2522 
Q 1259 2794 1537 2939 
Q 1816 3084 2150 3084 
Q 2853 3084 3261 2657 
Q 3669 2231 3669 1497 
Q 3669 778 3244 343 
Q 2819 -91 2113 -91 
Q 1303 -91 875 529 
Q 447 1150 447 2328 
Q 447 3434 972 4092 
Q 1497 4750 2381 4750 
Q 2619 4750 2861 4703 
Q 3103 4656 3366 4563 
z
" transform="scale(0.015625)"/>
       <path id="DejaVuSans-3b" d="M 750 3309 
L 1409 3309 
L 1409 2516 
L 750 2516 
L 750 3309 
z
M 750 794 
L 1409 794 
L 1409 256 
L 897 -744 
L 494 -744 
L 750 256 
L 750 794 
z
" transform="scale(0.015625)"/>
       <path id="STIXNonUnicode-Italic-e238" d="M 4070 915 
L 4179 800 
Q 3347 -45 2413 -45 
Q 2157 -45 1850 26 
Q 1395 122 1146 122 
Q 1005 122 672 61 
Q 339 0 192 0 
L 230 154 
Q 582 154 730 749 
L 1178 2566 
Q 1286 3008 1516 3353 
Q 1747 3699 2025 3894 
Q 2304 4090 2585 4189 
Q 2867 4288 3123 4288 
Q 3443 4288 3593 4083 
Q 3744 3878 3744 3584 
Q 3744 3347 3593 3200 
Q 3443 3053 3226 3053 
Q 3085 3053 2995 3149 
Q 2906 3245 2906 3379 
Q 2906 3482 2957 3552 
Q 3008 3622 3065 3644 
Q 3123 3667 3174 3705 
Q 3226 3744 3226 3789 
Q 3226 4032 2854 4032 
Q 2522 4032 2310 3785 
Q 2099 3539 1990 3132 
Q 1882 2726 1795 2284 
Q 1709 1843 1549 1363 
Q 1389 883 1158 589 
L 1158 563 
Q 1363 704 1888 704 
Q 2227 704 2460 544 
Q 2694 384 2963 384 
Q 3507 384 4070 915 
z
" transform="scale(0.015625)"/>
       <path id="DejaVuSans-3d" d="M 678 2906 
L 4684 2906 
L 4684 2381 
L 678 2381 
L 678 2906 
z
M 678 1631 
L 4684 1631 
L 4684 1100 
L 678 1100 
L 678 1631 
z
" transform="scale(0.015625)"/>
      </defs>
      <use xlink:href="#DejaVuSans-4e" transform="translate(0 0.015625)"/>
      <use xlink:href="#DejaVuSans-20" transform="translate(74.804688 0.015625)"/>
      <use xlink:href="#DejaVuSans-68" transform="translate(106.591797 0.015625)"/>
      <use xlink:href="#DejaVuSans-69" transform="translate(169.970703 0.015625)"/>
      <use xlink:href="#DejaVuSans-64" transform="translate(197.753906 0.015625)"/>
      <use xlink:href="#DejaVuSans-64" transform="translate(261.230469 0.015625)"/>
      <use xlink:href="#DejaVuSans-65" transform="translate(324.707031 0.015625)"/>
      <use xlink:href="#DejaVuSans-6e" transform="translate(386.230469 0.015625)"/>
      <use xlink:href="#DejaVuSans-20" transform="translate(449.609375 0.015625)"/>
      <use xlink:href="#DejaVuSans-32" transform="translate(481.396484 0.015625)"/>
      <use xlink:href="#DejaVuSans-2c" transform="translate(545.019531 0.015625)"/>
      <use xlink:href="#DejaVuSans-20" transform="translate(576.806641 0.015625)"/>
      <use xlink:href="#DejaVuSans-44" transform="translate(608.59375 0.015625)"/>
      <use xlink:href="#DejaVuSans-69" transform="translate(685.595703 0.015625)"/>
      <use xlink:href="#DejaVuSans-6d" transform="translate(713.378906 0.015625)"/>
      <use xlink:href="#DejaVuSans-2e" transform="translate(810.791016 0.015625)"/>
      <use xlink:href="#DejaVuSans-20" transform="translate(842.578125 0.015625)"/>
      <use xlink:href="#DejaVuSans-6f" transform="translate(874.365234 0.015625)"/>
      <use xlink:href="#DejaVuSans-66" transform="translate(935.546875 0.015625)"/>
      <use xlink:href="#DejaVuSans-20" transform="translate(970.751953 0.015625)"/>
      <use xlink:href="#DejaVuSans-6c" transform="translate(1002.539062 0.015625)"/>
      <use xlink:href="#DejaVuSans-61" transform="translate(1030.322266 0.015625)"/>
      <use xlink:href="#DejaVuSans-79" transform="translate(1091.601562 0.015625)"/>
      <use xlink:href="#DejaVuSans-65" transform="translate(1150.78125 0.015625)"/>
      <use xlink:href="#DejaVuSans-72" transform="translate(1212.304688 0.015625)"/>
      <use xlink:href="#DejaVuSans-73" transform="translate(1253.417969 0.015625)"/>
      <use xlink:href="#DejaVuSans-20" transform="translate(1305.517578 0.015625)"/>
      <use xlink:href="#DejaVuSans-31" transform="translate(1337.304688 0.015625)"/>
      <use xlink:href="#DejaVuSans-36" transform="translate(1400.927734 0.015625)"/>
      <use xlink:href="#DejaVuSans-20" transform="translate(1464.550781 0.015625)"/>
      <use xlink:href="#DejaVuSans-3b" transform="translate(1496.337891 0.015625)"/>
      <use xlink:href="#DejaVuSans-20" transform="translate(1530.029297 0.015625)"/>
      <use xlink:href="#STIXNonUnicode-Italic-e238" transform="translate(1561.816406 0.015625)"/>
      <use xlink:href="#DejaVuSans-20" transform="translate(1631.116394 0.015625)"/>
      <use xlink:href="#DejaVuSans-3d" transform="translate(1662.903503 0.015625)"/>
      <use xlink:href="#DejaVuSans-20" transform="translate(1746.692566 0.015625)"/>
      <use xlink:href="#DejaVuSans-30" transform="translate(1778.479675 0.015625)"/>
      <use xlink:href="#DejaVuSans-2e" transform="translate(1842.102722 0.015625)"/>
      <use xlink:href="#DejaVuSans-30" transform="translate(1873.889832 0.015625)"/>
      <use xlink:href="#DejaVuSans-30" transform="translate(1937.512878 0.015625)"/>
      <use xlink:href="#DejaVuSans-31" transform="translate(2001.135925 0.015625)"/>
     </g>
    </g>
    <g id="line2d_35">
     <path d="M 171.22 69.272 
L 181.22 69.272 
L 191.22 69.272 
" style="fill: none; stroke: #ff0000; stroke-linecap: square"/>
    </g>
    <g id="text_18">
     <!-- N hidden 4, Dim. of layers 16 ; $\mathcal{L}$ = 0.001 -->
     <g transform="translate(199.22 72.772) scale(0.1 -0.1)">
      <defs>
       <path id="DejaVuSans-34" d="M 2419 4116 
L 825 1625 
L 2419 1625 
L 2419 4116 
z
M 2253 4666 
L 3047 4666 
L 3047 1625 
L 3713 1625 
L 3713 1100 
L 3047 1100 
L 3047 0 
L 2419 0 
L 2419 1100 
L 313 1100 
L 313 1709 
L 2253 4666 
z
" transform="scale(0.015625)"/>
      </defs>
      <use xlink:href="#DejaVuSans-4e" transform="translate(0 0.015625)"/>
      <use xlink:href="#DejaVuSans-20" transform="translate(74.804688 0.015625)"/>
      <use xlink:href="#DejaVuSans-68" transform="translate(106.591797 0.015625)"/>
      <use xlink:href="#DejaVuSans-69" transform="translate(169.970703 0.015625)"/>
      <use xlink:href="#DejaVuSans-64" transform="translate(197.753906 0.015625)"/>
      <use xlink:href="#DejaVuSans-64" transform="translate(261.230469 0.015625)"/>
      <use xlink:href="#DejaVuSans-65" transform="translate(324.707031 0.015625)"/>
      <use xlink:href="#DejaVuSans-6e" transform="translate(386.230469 0.015625)"/>
      <use xlink:href="#DejaVuSans-20" transform="translate(449.609375 0.015625)"/>
      <use xlink:href="#DejaVuSans-34" transform="translate(481.396484 0.015625)"/>
      <use xlink:href="#DejaVuSans-2c" transform="translate(545.019531 0.015625)"/>
      <use xlink:href="#DejaVuSans-20" transform="translate(576.806641 0.015625)"/>
      <use xlink:href="#DejaVuSans-44" transform="translate(608.59375 0.015625)"/>
      <use xlink:href="#DejaVuSans-69" transform="translate(685.595703 0.015625)"/>
      <use xlink:href="#DejaVuSans-6d" transform="translate(713.378906 0.015625)"/>
      <use xlink:href="#DejaVuSans-2e" transform="translate(810.791016 0.015625)"/>
      <use xlink:href="#DejaVuSans-20" transform="translate(842.578125 0.015625)"/>
      <use xlink:href="#DejaVuSans-6f" transform="translate(874.365234 0.015625)"/>
      <use xlink:href="#DejaVuSans-66" transform="translate(935.546875 0.015625)"/>
      <use xlink:href="#DejaVuSans-20" transform="translate(970.751953 0.015625)"/>
      <use xlink:href="#DejaVuSans-6c" transform="translate(1002.539062 0.015625)"/>
      <use xlink:href="#DejaVuSans-61" transform="translate(1030.322266 0.015625)"/>
      <use xlink:href="#DejaVuSans-79" transform="translate(1091.601562 0.015625)"/>
      <use xlink:href="#DejaVuSans-65" transform="translate(1150.78125 0.015625)"/>
      <use xlink:href="#DejaVuSans-72" transform="translate(1212.304688 0.015625)"/>
      <use xlink:href="#DejaVuSans-73" transform="translate(1253.417969 0.015625)"/>
      <use xlink:href="#DejaVuSans-20" transform="translate(1305.517578 0.015625)"/>
      <use xlink:href="#DejaVuSans-31" transform="translate(1337.304688 0.015625)"/>
      <use xlink:href="#DejaVuSans-36" transform="translate(1400.927734 0.015625)"/>
      <use xlink:href="#DejaVuSans-20" transform="translate(1464.550781 0.015625)"/>
      <use xlink:href="#DejaVuSans-3b" transform="translate(1496.337891 0.015625)"/>
      <use xlink:href="#DejaVuSans-20" transform="translate(1530.029297 0.015625)"/>
      <use xlink:href="#STIXNonUnicode-Italic-e238" transform="translate(1561.816406 0.015625)"/>
      <use xlink:href="#DejaVuSans-20" transform="translate(1631.116394 0.015625)"/>
      <use xlink:href="#DejaVuSans-3d" transform="translate(1662.903503 0.015625)"/>
      <use xlink:href="#DejaVuSans-20" transform="translate(1746.692566 0.015625)"/>
      <use xlink:href="#DejaVuSans-30" transform="translate(1778.479675 0.015625)"/>
      <use xlink:href="#DejaVuSans-2e" transform="translate(1842.102722 0.015625)"/>
      <use xlink:href="#DejaVuSans-30" transform="translate(1873.889832 0.015625)"/>
      <use xlink:href="#DejaVuSans-30" transform="translate(1937.512878 0.015625)"/>
      <use xlink:href="#DejaVuSans-31" transform="translate(2001.135925 0.015625)"/>
     </g>
    </g>
    <g id="line2d_36">
     <path d="M 171.22 83.972 
L 181.22 83.972 
L 191.22 83.972 
" style="fill: none; stroke: #008000; stroke-linecap: square"/>
    </g>
    <g id="text_19">
     <!-- N hidden 2, Dim. of layers 32 ; $\mathcal{L}$ = 0.001 -->
     <g transform="translate(199.22 87.472) scale(0.1 -0.1)">
      <use xlink:href="#DejaVuSans-4e" transform="translate(0 0.015625)"/>
      <use xlink:href="#DejaVuSans-20" transform="translate(74.804688 0.015625)"/>
      <use xlink:href="#DejaVuSans-68" transform="translate(106.591797 0.015625)"/>
      <use xlink:href="#DejaVuSans-69" transform="translate(169.970703 0.015625)"/>
      <use xlink:href="#DejaVuSans-64" transform="translate(197.753906 0.015625)"/>
      <use xlink:href="#DejaVuSans-64" transform="translate(261.230469 0.015625)"/>
      <use xlink:href="#DejaVuSans-65" transform="translate(324.707031 0.015625)"/>
      <use xlink:href="#DejaVuSans-6e" transform="translate(386.230469 0.015625)"/>
      <use xlink:href="#DejaVuSans-20" transform="translate(449.609375 0.015625)"/>
      <use xlink:href="#DejaVuSans-32" transform="translate(481.396484 0.015625)"/>
      <use xlink:href="#DejaVuSans-2c" transform="translate(545.019531 0.015625)"/>
      <use xlink:href="#DejaVuSans-20" transform="translate(576.806641 0.015625)"/>
      <use xlink:href="#DejaVuSans-44" transform="translate(608.59375 0.015625)"/>
      <use xlink:href="#DejaVuSans-69" transform="translate(685.595703 0.015625)"/>
      <use xlink:href="#DejaVuSans-6d" transform="translate(713.378906 0.015625)"/>
      <use xlink:href="#DejaVuSans-2e" transform="translate(810.791016 0.015625)"/>
      <use xlink:href="#DejaVuSans-20" transform="translate(842.578125 0.015625)"/>
      <use xlink:href="#DejaVuSans-6f" transform="translate(874.365234 0.015625)"/>
      <use xlink:href="#DejaVuSans-66" transform="translate(935.546875 0.015625)"/>
      <use xlink:href="#DejaVuSans-20" transform="translate(970.751953 0.015625)"/>
      <use xlink:href="#DejaVuSans-6c" transform="translate(1002.539062 0.015625)"/>
      <use xlink:href="#DejaVuSans-61" transform="translate(1030.322266 0.015625)"/>
      <use xlink:href="#DejaVuSans-79" transform="translate(1091.601562 0.015625)"/>
      <use xlink:href="#DejaVuSans-65" transform="translate(1150.78125 0.015625)"/>
      <use xlink:href="#DejaVuSans-72" transform="translate(1212.304688 0.015625)"/>
      <use xlink:href="#DejaVuSans-73" transform="translate(1253.417969 0.015625)"/>
      <use xlink:href="#DejaVuSans-20" transform="translate(1305.517578 0.015625)"/>
      <use xlink:href="#DejaVuSans-33" transform="translate(1337.304688 0.015625)"/>
      <use xlink:href="#DejaVuSans-32" transform="translate(1400.927734 0.015625)"/>
      <use xlink:href="#DejaVuSans-20" transform="translate(1464.550781 0.015625)"/>
      <use xlink:href="#DejaVuSans-3b" transform="translate(1496.337891 0.015625)"/>
      <use xlink:href="#DejaVuSans-20" transform="translate(1530.029297 0.015625)"/>
      <use xlink:href="#STIXNonUnicode-Italic-e238" transform="translate(1561.816406 0.015625)"/>
      <use xlink:href="#DejaVuSans-20" transform="translate(1631.116394 0.015625)"/>
      <use xlink:href="#DejaVuSans-3d" transform="translate(1662.903503 0.015625)"/>
      <use xlink:href="#DejaVuSans-20" transform="translate(1746.692566 0.015625)"/>
      <use xlink:href="#DejaVuSans-30" transform="translate(1778.479675 0.015625)"/>
      <use xlink:href="#DejaVuSans-2e" transform="translate(1842.102722 0.015625)"/>
      <use xlink:href="#DejaVuSans-30" transform="translate(1873.889832 0.015625)"/>
      <use xlink:href="#DejaVuSans-30" transform="translate(1937.512878 0.015625)"/>
      <use xlink:href="#DejaVuSans-31" transform="translate(2001.135925 0.015625)"/>
     </g>
    </g>
    <g id="line2d_37">
     <path d="M 171.22 98.672 
L 181.22 98.672 
L 191.22 98.672 
" style="fill: none; stroke: #0000ff; stroke-linecap: square"/>
    </g>
    <g id="text_20">
     <!-- N hidden 4, Dim. of layers 32 ; $\mathcal{L}$ = 0.001 -->
     <g transform="translate(199.22 102.172) scale(0.1 -0.1)">
      <use xlink:href="#DejaVuSans-4e" transform="translate(0 0.015625)"/>
      <use xlink:href="#DejaVuSans-20" transform="translate(74.804688 0.015625)"/>
      <use xlink:href="#DejaVuSans-68" transform="translate(106.591797 0.015625)"/>
      <use xlink:href="#DejaVuSans-69" transform="translate(169.970703 0.015625)"/>
      <use xlink:href="#DejaVuSans-64" transform="translate(197.753906 0.015625)"/>
      <use xlink:href="#DejaVuSans-64" transform="translate(261.230469 0.015625)"/>
      <use xlink:href="#DejaVuSans-65" transform="translate(324.707031 0.015625)"/>
      <use xlink:href="#DejaVuSans-6e" transform="translate(386.230469 0.015625)"/>
      <use xlink:href="#DejaVuSans-20" transform="translate(449.609375 0.015625)"/>
      <use xlink:href="#DejaVuSans-34" transform="translate(481.396484 0.015625)"/>
      <use xlink:href="#DejaVuSans-2c" transform="translate(545.019531 0.015625)"/>
      <use xlink:href="#DejaVuSans-20" transform="translate(576.806641 0.015625)"/>
      <use xlink:href="#DejaVuSans-44" transform="translate(608.59375 0.015625)"/>
      <use xlink:href="#DejaVuSans-69" transform="translate(685.595703 0.015625)"/>
      <use xlink:href="#DejaVuSans-6d" transform="translate(713.378906 0.015625)"/>
      <use xlink:href="#DejaVuSans-2e" transform="translate(810.791016 0.015625)"/>
      <use xlink:href="#DejaVuSans-20" transform="translate(842.578125 0.015625)"/>
      <use xlink:href="#DejaVuSans-6f" transform="translate(874.365234 0.015625)"/>
      <use xlink:href="#DejaVuSans-66" transform="translate(935.546875 0.015625)"/>
      <use xlink:href="#DejaVuSans-20" transform="translate(970.751953 0.015625)"/>
      <use xlink:href="#DejaVuSans-6c" transform="translate(1002.539062 0.015625)"/>
      <use xlink:href="#DejaVuSans-61" transform="translate(1030.322266 0.015625)"/>
      <use xlink:href="#DejaVuSans-79" transform="translate(1091.601562 0.015625)"/>
      <use xlink:href="#DejaVuSans-65" transform="translate(1150.78125 0.015625)"/>
      <use xlink:href="#DejaVuSans-72" transform="translate(1212.304688 0.015625)"/>
      <use xlink:href="#DejaVuSans-73" transform="translate(1253.417969 0.015625)"/>
      <use xlink:href="#DejaVuSans-20" transform="translate(1305.517578 0.015625)"/>
      <use xlink:href="#DejaVuSans-33" transform="translate(1337.304688 0.015625)"/>
      <use xlink:href="#DejaVuSans-32" transform="translate(1400.927734 0.015625)"/>
      <use xlink:href="#DejaVuSans-20" transform="translate(1464.550781 0.015625)"/>
      <use xlink:href="#DejaVuSans-3b" transform="translate(1496.337891 0.015625)"/>
      <use xlink:href="#DejaVuSans-20" transform="translate(1530.029297 0.015625)"/>
      <use xlink:href="#STIXNonUnicode-Italic-e238" transform="translate(1561.816406 0.015625)"/>
      <use xlink:href="#DejaVuSans-20" transform="translate(1631.116394 0.015625)"/>
      <use xlink:href="#DejaVuSans-3d" transform="translate(1662.903503 0.015625)"/>
      <use xlink:href="#DejaVuSans-20" transform="translate(1746.692566 0.015625)"/>
      <use xlink:href="#DejaVuSans-30" transform="translate(1778.479675 0.015625)"/>
      <use xlink:href="#DejaVuSans-2e" transform="translate(1842.102722 0.015625)"/>
      <use xlink:href="#DejaVuSans-30" transform="translate(1873.889832 0.015625)"/>
      <use xlink:href="#DejaVuSans-30" transform="translate(1937.512878 0.015625)"/>
      <use xlink:href="#DejaVuSans-31" transform="translate(2001.135925 0.015625)"/>
     </g>
    </g>
   </g>
  </g>
 </g>
 <defs>
  <clipPath id="pd7425e75f3">
   <rect x="57.6" y="41.472" width="357.12" height="266.112"/>
  </clipPath>
 </defs>
</svg>
