<?xml version="1.0" encoding="utf-8" standalone="no"?>
<!DOCTYPE svg PUBLIC "-//W3C//DTD SVG 1.1//EN"
  "http://www.w3.org/Graphics/SVG/1.1/DTD/svg11.dtd">
<svg xmlns:xlink="http://www.w3.org/1999/xlink" width="460.8pt" height="345.6pt" viewBox="0 0 460.8 345.6" xmlns="http://www.w3.org/2000/svg" version="1.1">
 <metadata>
  <rdf:RDF xmlns:dc="http://purl.org/dc/elements/1.1/" xmlns:cc="http://creativecommons.org/ns#" xmlns:rdf="http://www.w3.org/1999/02/22-rdf-syntax-ns#">
   <cc:Work>
    <dc:type rdf:resource="http://purl.org/dc/dcmitype/StillImage"/>
    <dc:date>2024-12-19T13:18:58.175620</dc:date>
    <dc:format>image/svg+xml</dc:format>
    <dc:creator>
     <cc:Agent>
      <dc:title>Matplotlib v3.7.1, https://matplotlib.org/</dc:title>
     </cc:Agent>
    </dc:creator>
   </cc:Work>
  </rdf:RDF>
 </metadata>
 <defs>
  <style type="text/css">*{stroke-linejoin: round; stroke-linecap: butt}</style>
 </defs>
 <g id="figure_1">
  <g id="patch_1">
   <path d="M 0 345.6 
L 460.8 345.6 
L 460.8 0 
L 0 0 
z
" style="fill: #ffffff"/>
  </g>
  <g id="axes_1">
   <g id="patch_2">
    <path d="M 57.6 307.584 
L 414.72 307.584 
L 414.72 41.472 
L 57.6 41.472 
z
" style="fill: #ffffff"/>
   </g>
   <g id="matplotlib.axis_1">
    <g id="xtick_1">
     <g id="line2d_1">
      <path d="M 73.832727 307.584 
L 73.832727 41.472 
" clip-path="url(#p18a13bfba8)" style="fill: none; stroke: #b0b0b0; stroke-width: 0.8; stroke-linecap: square"/>
     </g>
     <g id="line2d_2">
      <defs>
       <path id="m42bace19d2" d="M 0 0 
L 0 3.5 
" style="stroke: #000000; stroke-width: 0.8"/>
      </defs>
      <g>
       <use xlink:href="#m42bace19d2" x="73.832727" y="307.584" style="stroke: #000000; stroke-width: 0.8"/>
      </g>
     </g>
     <g id="text_1">
      <!-- −3 -->
      <g transform="translate(66.461634 322.182437) scale(0.1 -0.1)">
       <defs>
        <path id="DejaVuSans-2212" d="M 678 2272 
L 4684 2272 
L 4684 1741 
L 678 1741 
L 678 2272 
z
" transform="scale(0.015625)"/>
        <path id="DejaVuSans-33" d="M 2597 2516 
Q 3050 2419 3304 2112 
Q 3559 1806 3559 1356 
Q 3559 666 3084 287 
Q 2609 -91 1734 -91 
Q 1441 -91 1130 -33 
Q 819 25 488 141 
L 488 750 
Q 750 597 1062 519 
Q 1375 441 1716 441 
Q 2309 441 2620 675 
Q 2931 909 2931 1356 
Q 2931 1769 2642 2001 
Q 2353 2234 1838 2234 
L 1294 2234 
L 1294 2753 
L 1863 2753 
Q 2328 2753 2575 2939 
Q 2822 3125 2822 3475 
Q 2822 3834 2567 4026 
Q 2313 4219 1838 4219 
Q 1578 4219 1281 4162 
Q 984 4106 628 3988 
L 628 4550 
Q 988 4650 1302 4700 
Q 1616 4750 1894 4750 
Q 2613 4750 3031 4423 
Q 3450 4097 3450 3541 
Q 3450 3153 3228 2886 
Q 3006 2619 2597 2516 
z
" transform="scale(0.015625)"/>
       </defs>
       <use xlink:href="#DejaVuSans-2212"/>
       <use xlink:href="#DejaVuSans-33" x="83.789062"/>
      </g>
     </g>
    </g>
    <g id="xtick_2">
     <g id="line2d_3">
      <path d="M 127.941818 307.584 
L 127.941818 41.472 
" clip-path="url(#p18a13bfba8)" style="fill: none; stroke: #b0b0b0; stroke-width: 0.8; stroke-linecap: square"/>
     </g>
     <g id="line2d_4">
      <g>
       <use xlink:href="#m42bace19d2" x="127.941818" y="307.584" style="stroke: #000000; stroke-width: 0.8"/>
      </g>
     </g>
     <g id="text_2">
      <!-- −2 -->
      <g transform="translate(120.570724 322.182437) scale(0.1 -0.1)">
       <defs>
        <path id="DejaVuSans-32" d="M 1228 531 
L 3431 531 
L 3431 0 
L 469 0 
L 469 531 
Q 828 903 1448 1529 
Q 2069 2156 2228 2338 
Q 2531 2678 2651 2914 
Q 2772 3150 2772 3378 
Q 2772 3750 2511 3984 
Q 2250 4219 1831 4219 
Q 1534 4219 1204 4116 
Q 875 4013 500 3803 
L 500 4441 
Q 881 4594 1212 4672 
Q 1544 4750 1819 4750 
Q 2544 4750 2975 4387 
Q 3406 4025 3406 3419 
Q 3406 3131 3298 2873 
Q 3191 2616 2906 2266 
Q 2828 2175 2409 1742 
Q 1991 1309 1228 531 
z
" transform="scale(0.015625)"/>
       </defs>
       <use xlink:href="#DejaVuSans-2212"/>
       <use xlink:href="#DejaVuSans-32" x="83.789062"/>
      </g>
     </g>
    </g>
    <g id="xtick_3">
     <g id="line2d_5">
      <path d="M 182.050909 307.584 
L 182.050909 41.472 
" clip-path="url(#p18a13bfba8)" style="fill: none; stroke: #b0b0b0; stroke-width: 0.8; stroke-linecap: square"/>
     </g>
     <g id="line2d_6">
      <g>
       <use xlink:href="#m42bace19d2" x="182.050909" y="307.584" style="stroke: #000000; stroke-width: 0.8"/>
      </g>
     </g>
     <g id="text_3">
      <!-- −1 -->
      <g transform="translate(174.679815 322.182437) scale(0.1 -0.1)">
       <defs>
        <path id="DejaVuSans-31" d="M 794 531 
L 1825 531 
L 1825 4091 
L 703 3866 
L 703 4441 
L 1819 4666 
L 2450 4666 
L 2450 531 
L 3481 531 
L 3481 0 
L 794 0 
L 794 531 
z
" transform="scale(0.015625)"/>
       </defs>
       <use xlink:href="#DejaVuSans-2212"/>
       <use xlink:href="#DejaVuSans-31" x="83.789062"/>
      </g>
     </g>
    </g>
    <g id="xtick_4">
     <g id="line2d_7">
      <path d="M 236.16 307.584 
L 236.16 41.472 
" clip-path="url(#p18a13bfba8)" style="fill: none; stroke: #b0b0b0; stroke-width: 0.8; stroke-linecap: square"/>
     </g>
     <g id="line2d_8">
      <g>
       <use xlink:href="#m42bace19d2" x="236.16" y="307.584" style="stroke: #000000; stroke-width: 0.8"/>
      </g>
     </g>
     <g id="text_4">
      <!-- 0 -->
      <g transform="translate(232.97875 322.182437) scale(0.1 -0.1)">
       <defs>
        <path id="DejaVuSans-30" d="M 2034 4250 
Q 1547 4250 1301 3770 
Q 1056 3291 1056 2328 
Q 1056 1369 1301 889 
Q 1547 409 2034 409 
Q 2525 409 2770 889 
Q 3016 1369 3016 2328 
Q 3016 3291 2770 3770 
Q 2525 4250 2034 4250 
z
M 2034 4750 
Q 2819 4750 3233 4129 
Q 3647 3509 3647 2328 
Q 3647 1150 3233 529 
Q 2819 -91 2034 -91 
Q 1250 -91 836 529 
Q 422 1150 422 2328 
Q 422 3509 836 4129 
Q 1250 4750 2034 4750 
z
" transform="scale(0.015625)"/>
       </defs>
       <use xlink:href="#DejaVuSans-30"/>
      </g>
     </g>
    </g>
    <g id="xtick_5">
     <g id="line2d_9">
      <path d="M 290.269091 307.584 
L 290.269091 41.472 
" clip-path="url(#p18a13bfba8)" style="fill: none; stroke: #b0b0b0; stroke-width: 0.8; stroke-linecap: square"/>
     </g>
     <g id="line2d_10">
      <g>
       <use xlink:href="#m42bace19d2" x="290.269091" y="307.584" style="stroke: #000000; stroke-width: 0.8"/>
      </g>
     </g>
     <g id="text_5">
      <!-- 1 -->
      <g transform="translate(287.087841 322.182437) scale(0.1 -0.1)">
       <use xlink:href="#DejaVuSans-31"/>
      </g>
     </g>
    </g>
    <g id="xtick_6">
     <g id="line2d_11">
      <path d="M 344.378182 307.584 
L 344.378182 41.472 
" clip-path="url(#p18a13bfba8)" style="fill: none; stroke: #b0b0b0; stroke-width: 0.8; stroke-linecap: square"/>
     </g>
     <g id="line2d_12">
      <g>
       <use xlink:href="#m42bace19d2" x="344.378182" y="307.584" style="stroke: #000000; stroke-width: 0.8"/>
      </g>
     </g>
     <g id="text_6">
      <!-- 2 -->
      <g transform="translate(341.196932 322.182437) scale(0.1 -0.1)">
       <use xlink:href="#DejaVuSans-32"/>
      </g>
     </g>
    </g>
    <g id="xtick_7">
     <g id="line2d_13">
      <path d="M 398.487273 307.584 
L 398.487273 41.472 
" clip-path="url(#p18a13bfba8)" style="fill: none; stroke: #b0b0b0; stroke-width: 0.8; stroke-linecap: square"/>
     </g>
     <g id="line2d_14">
      <g>
       <use xlink:href="#m42bace19d2" x="398.487273" y="307.584" style="stroke: #000000; stroke-width: 0.8"/>
      </g>
     </g>
     <g id="text_7">
      <!-- 3 -->
      <g transform="translate(395.306023 322.182437) scale(0.1 -0.1)">
       <use xlink:href="#DejaVuSans-33"/>
      </g>
     </g>
    </g>
    <g id="text_8">
     <!-- $x$ -->
     <g transform="translate(232.56 337.38025) scale(0.12 -0.12)">
      <defs>
       <path id="DejaVuSans-Oblique-78" d="M 3841 3500 
L 2234 1784 
L 3219 0 
L 2559 0 
L 1819 1388 
L 531 0 
L -166 0 
L 1556 1844 
L 641 3500 
L 1300 3500 
L 1972 2234 
L 3144 3500 
L 3841 3500 
z
" transform="scale(0.015625)"/>
      </defs>
      <use xlink:href="#DejaVuSans-Oblique-78" transform="translate(0 0.3125)"/>
     </g>
    </g>
   </g>
   <g id="matplotlib.axis_2">
    <g id="ytick_1">
     <g id="line2d_15">
      <path d="M 57.6 275.039011 
L 414.72 275.039011 
" clip-path="url(#p18a13bfba8)" style="fill: none; stroke: #b0b0b0; stroke-width: 0.8; stroke-linecap: square"/>
     </g>
     <g id="line2d_16">
      <defs>
       <path id="mf54bd15942" d="M 0 0 
L -3.5 0 
" style="stroke: #000000; stroke-width: 0.8"/>
      </defs>
      <g>
       <use xlink:href="#mf54bd15942" x="57.6" y="275.039011" style="stroke: #000000; stroke-width: 0.8"/>
      </g>
     </g>
     <g id="text_9">
      <!-- −40 -->
      <g transform="translate(29.495313 278.838229) scale(0.1 -0.1)">
       <defs>
        <path id="DejaVuSans-34" d="M 2419 4116 
L 825 1625 
L 2419 1625 
L 2419 4116 
z
M 2253 4666 
L 3047 4666 
L 3047 1625 
L 3713 1625 
L 3713 1100 
L 3047 1100 
L 3047 0 
L 2419 0 
L 2419 1100 
L 313 1100 
L 313 1709 
L 2253 4666 
z
" transform="scale(0.015625)"/>
       </defs>
       <use xlink:href="#DejaVuSans-2212"/>
       <use xlink:href="#DejaVuSans-34" x="83.789062"/>
       <use xlink:href="#DejaVuSans-30" x="147.412109"/>
      </g>
     </g>
    </g>
    <g id="ytick_2">
     <g id="line2d_17">
      <path d="M 57.6 233.780408 
L 414.72 233.780408 
" clip-path="url(#p18a13bfba8)" style="fill: none; stroke: #b0b0b0; stroke-width: 0.8; stroke-linecap: square"/>
     </g>
     <g id="line2d_18">
      <g>
       <use xlink:href="#mf54bd15942" x="57.6" y="233.780408" style="stroke: #000000; stroke-width: 0.8"/>
      </g>
     </g>
     <g id="text_10">
      <!-- −35 -->
      <g transform="translate(29.495313 237.579627) scale(0.1 -0.1)">
       <defs>
        <path id="DejaVuSans-35" d="M 691 4666 
L 3169 4666 
L 3169 4134 
L 1269 4134 
L 1269 2991 
Q 1406 3038 1543 3061 
Q 1681 3084 1819 3084 
Q 2600 3084 3056 2656 
Q 3513 2228 3513 1497 
Q 3513 744 3044 326 
Q 2575 -91 1722 -91 
Q 1428 -91 1123 -41 
Q 819 9 494 109 
L 494 744 
Q 775 591 1075 516 
Q 1375 441 1709 441 
Q 2250 441 2565 725 
Q 2881 1009 2881 1497 
Q 2881 1984 2565 2268 
Q 2250 2553 1709 2553 
Q 1456 2553 1204 2497 
Q 953 2441 691 2322 
L 691 4666 
z
" transform="scale(0.015625)"/>
       </defs>
       <use xlink:href="#DejaVuSans-2212"/>
       <use xlink:href="#DejaVuSans-33" x="83.789062"/>
       <use xlink:href="#DejaVuSans-35" x="147.412109"/>
      </g>
     </g>
    </g>
    <g id="ytick_3">
     <g id="line2d_19">
      <path d="M 57.6 192.521805 
L 414.72 192.521805 
" clip-path="url(#p18a13bfba8)" style="fill: none; stroke: #b0b0b0; stroke-width: 0.8; stroke-linecap: square"/>
     </g>
     <g id="line2d_20">
      <g>
       <use xlink:href="#mf54bd15942" x="57.6" y="192.521805" style="stroke: #000000; stroke-width: 0.8"/>
      </g>
     </g>
     <g id="text_11">
      <!-- −30 -->
      <g transform="translate(29.495313 196.321024) scale(0.1 -0.1)">
       <use xlink:href="#DejaVuSans-2212"/>
       <use xlink:href="#DejaVuSans-33" x="83.789062"/>
       <use xlink:href="#DejaVuSans-30" x="147.412109"/>
      </g>
     </g>
    </g>
    <g id="ytick_4">
     <g id="line2d_21">
      <path d="M 57.6 151.263202 
L 414.72 151.263202 
" clip-path="url(#p18a13bfba8)" style="fill: none; stroke: #b0b0b0; stroke-width: 0.8; stroke-linecap: square"/>
     </g>
     <g id="line2d_22">
      <g>
       <use xlink:href="#mf54bd15942" x="57.6" y="151.263202" style="stroke: #000000; stroke-width: 0.8"/>
      </g>
     </g>
     <g id="text_12">
      <!-- −25 -->
      <g transform="translate(29.495313 155.062421) scale(0.1 -0.1)">
       <use xlink:href="#DejaVuSans-2212"/>
       <use xlink:href="#DejaVuSans-32" x="83.789062"/>
       <use xlink:href="#DejaVuSans-35" x="147.412109"/>
      </g>
     </g>
    </g>
    <g id="ytick_5">
     <g id="line2d_23">
      <path d="M 57.6 110.004599 
L 414.72 110.004599 
" clip-path="url(#p18a13bfba8)" style="fill: none; stroke: #b0b0b0; stroke-width: 0.8; stroke-linecap: square"/>
     </g>
     <g id="line2d_24">
      <g>
       <use xlink:href="#mf54bd15942" x="57.6" y="110.004599" style="stroke: #000000; stroke-width: 0.8"/>
      </g>
     </g>
     <g id="text_13">
      <!-- −20 -->
      <g transform="translate(29.495313 113.803818) scale(0.1 -0.1)">
       <use xlink:href="#DejaVuSans-2212"/>
       <use xlink:href="#DejaVuSans-32" x="83.789062"/>
       <use xlink:href="#DejaVuSans-30" x="147.412109"/>
      </g>
     </g>
    </g>
    <g id="ytick_6">
     <g id="line2d_25">
      <path d="M 57.6 68.745996 
L 414.72 68.745996 
" clip-path="url(#p18a13bfba8)" style="fill: none; stroke: #b0b0b0; stroke-width: 0.8; stroke-linecap: square"/>
     </g>
     <g id="line2d_26">
      <g>
       <use xlink:href="#mf54bd15942" x="57.6" y="68.745996" style="stroke: #000000; stroke-width: 0.8"/>
      </g>
     </g>
     <g id="text_14">
      <!-- −15 -->
      <g transform="translate(29.495313 72.545215) scale(0.1 -0.1)">
       <use xlink:href="#DejaVuSans-2212"/>
       <use xlink:href="#DejaVuSans-31" x="83.789062"/>
       <use xlink:href="#DejaVuSans-35" x="147.412109"/>
      </g>
     </g>
    </g>
    <g id="text_15">
     <!-- $V(x)$ -->
     <g transform="translate(22.999688 186.888) rotate(-90) scale(0.12 -0.12)">
      <defs>
       <path id="DejaVuSans-Oblique-56" d="M 1319 0 
L 500 4666 
L 1119 4666 
L 1797 653 
L 4063 4666 
L 4750 4666 
L 2053 0 
L 1319 0 
z
" transform="scale(0.015625)"/>
       <path id="DejaVuSans-28" d="M 1984 4856 
Q 1566 4138 1362 3434 
Q 1159 2731 1159 2009 
Q 1159 1288 1364 580 
Q 1569 -128 1984 -844 
L 1484 -844 
Q 1016 -109 783 600 
Q 550 1309 550 2009 
Q 550 2706 781 3412 
Q 1013 4119 1484 4856 
L 1984 4856 
z
" transform="scale(0.015625)"/>
       <path id="DejaVuSans-29" d="M 513 4856 
L 1013 4856 
Q 1481 4119 1714 3412 
Q 1947 2706 1947 2009 
Q 1947 1309 1714 600 
Q 1481 -109 1013 -844 
L 513 -844 
Q 928 -128 1133 580 
Q 1338 1288 1338 2009 
Q 1338 2731 1133 3434 
Q 928 4138 513 4856 
z
" transform="scale(0.015625)"/>
      </defs>
      <use xlink:href="#DejaVuSans-Oblique-56" transform="translate(0 0.125)"/>
      <use xlink:href="#DejaVuSans-28" transform="translate(68.408203 0.125)"/>
      <use xlink:href="#DejaVuSans-Oblique-78" transform="translate(107.421875 0.125)"/>
      <use xlink:href="#DejaVuSans-29" transform="translate(166.601562 0.125)"/>
     </g>
    </g>
   </g>
   <g id="line2d_27">
    <path d="M 73.832727 121.870832 
L 84.893103 122.337883 
L 93.351037 122.904859 
L 100.50775 123.611806 
L 106.363243 124.418825 
L 111.568125 125.377621 
L 116.122398 126.465226 
L 120.026059 127.634608 
L 123.279111 128.815465 
L 126.532163 130.221511 
L 129.785214 131.893235 
L 132.387655 133.452135 
L 134.990097 135.234844 
L 137.592538 137.267238 
L 140.194979 139.575208 
L 142.79742 142.18333 
L 145.399862 145.113085 
L 148.002303 148.380595 
L 150.604744 151.993965 
L 153.207185 155.950354 
L 156.460237 161.351288 
L 159.713288 167.192174 
L 164.267561 175.886792 
L 172.074884 190.939121 
L 175.327936 196.6891 
L 177.930377 200.823582 
L 179.882208 203.558533 
L 181.834039 205.902942 
L 183.13526 207.210756 
L 184.43648 208.285614 
L 185.737701 209.101686 
L 187.038921 209.633049 
L 188.340142 209.854898 
L 189.641363 209.745137 
L 190.942583 209.286318 
L 192.243804 208.467832 
L 193.545025 207.288206 
L 194.846245 205.757321 
L 196.147466 203.89831 
L 198.099297 200.581216 
L 200.701738 195.487295 
L 204.6054 187.759931 
L 205.906621 185.544192 
L 207.207841 183.664452 
L 208.509062 182.199547 
L 209.810282 181.211418 
L 210.460893 180.909894 
L 211.111503 180.741203 
L 211.762113 180.706818 
L 212.412724 180.806673 
L 213.063334 181.03918 
L 214.364555 181.8884 
L 215.665775 183.21321 
L 216.966996 184.952668 
L 218.268216 187.030356 
L 220.220047 190.5895 
L 225.42493 200.544021 
L 227.376761 203.723185 
L 228.677981 205.536849 
L 229.979202 207.078457 
L 231.280423 208.340358 
L 232.581643 209.327401 
L 233.882864 210.055007 
L 235.184085 210.547017 
L 236.485305 210.833483 
L 238.437136 210.953076 
L 240.388967 210.809844 
L 248.196291 209.835802 
L 250.148122 209.905676 
L 252.099953 210.194922 
L 254.051784 210.715121 
L 256.003615 211.460346 
L 257.955445 212.409706 
L 260.557887 213.934359 
L 264.461549 216.556291 
L 269.015821 219.59814 
L 271.618262 221.04167 
L 273.570093 221.857575 
L 274.871314 222.231272 
L 276.172534 222.439495 
L 277.473755 222.45552 
L 278.774975 222.251527 
L 280.076196 221.799236 
L 281.377417 221.070915 
L 282.678637 220.040763 
L 283.979858 218.686672 
L 285.281079 216.992284 
L 286.582299 214.949249 
L 287.88352 212.559496 
L 289.835351 208.359846 
L 291.787182 203.523962 
L 294.389623 196.41489 
L 298.293285 185.656738 
L 300.245116 180.923096 
L 301.546336 178.21247 
L 302.847557 175.941481 
L 304.148778 174.160914 
L 305.449998 172.899303 
L 306.751219 172.161096 
L 307.401829 171.982994 
L 308.052439 171.926472 
L 309.35366 172.152809 
L 310.654881 172.777652 
L 311.956101 173.722899 
L 313.907932 175.545766 
L 318.462204 180.071164 
L 319.763425 181.063383 
L 321.064646 181.807031 
L 322.365866 182.262703 
L 323.667087 182.405888 
L 324.968308 182.226126 
L 326.269528 181.725539 
L 327.570749 180.916957 
L 328.871969 179.821808 
L 330.17319 178.46796 
L 332.125021 176.023355 
L 334.076852 173.187255 
L 336.679293 169.000416 
L 346.438448 152.797355 
L 349.040889 148.989796 
L 351.64333 145.526407 
L 354.245772 142.41951 
L 356.848213 139.662357 
L 359.450654 137.235917 
L 362.053095 135.114091 
L 364.655537 133.267473 
L 367.257978 131.665943 
L 370.511029 129.964406 
L 373.764081 128.547759 
L 377.017132 127.369452 
L 380.920794 126.214009 
L 384.824456 125.286462 
L 389.378728 124.430673 
L 394.583611 123.681323 
L 398.487273 123.241808 
L 398.487273 123.241808 
" clip-path="url(#p18a13bfba8)" style="fill: none; stroke: #1f77b4; stroke-linecap: square"/>
   </g>
   <g id="line2d_28">
    <defs>
     <path id="mfe74424f2f" d="M 0 3 
C 0.795609 3 1.55874 2.683901 2.12132 2.12132 
C 2.683901 1.55874 3 0.795609 3 0 
C 3 -0.795609 2.683901 -1.55874 2.12132 -2.12132 
C 1.55874 -2.683901 0.795609 -3 0 -3 
C -0.795609 -3 -1.55874 -2.683901 -2.12132 -2.12132 
C -2.683901 -1.55874 -3 -0.795609 -3 0 
C -3 0.795609 -2.683901 1.55874 -2.12132 2.12132 
C -1.55874 2.683901 -0.795609 3 0 3 
z
" style="stroke: #000000; stroke-opacity: 0.8"/>
    </defs>
    <g clip-path="url(#p18a13bfba8)">
     <use xlink:href="#mfe74424f2f" x="100.887273" y="123.657002" style="fill: #1f77b4; fill-opacity: 0.8; stroke: #000000; stroke-opacity: 0.8"/>
     <use xlink:href="#mfe74424f2f" x="123.207273" y="128.787096" style="fill: #1f77b4; fill-opacity: 0.8; stroke: #000000; stroke-opacity: 0.8"/>
     <use xlink:href="#mfe74424f2f" x="145.527273" y="145.265091" style="fill: #1f77b4; fill-opacity: 0.8; stroke: #000000; stroke-opacity: 0.8"/>
     <use xlink:href="#mfe74424f2f" x="167.847273" y="182.884243" style="fill: #1f77b4; fill-opacity: 0.8; stroke: #000000; stroke-opacity: 0.8"/>
     <use xlink:href="#mfe74424f2f" x="190.167273" y="209.602504" style="fill: #1f77b4; fill-opacity: 0.8; stroke: #000000; stroke-opacity: 0.8"/>
     <use xlink:href="#mfe74424f2f" x="212.487273" y="180.82663" style="fill: #1f77b4; fill-opacity: 0.8; stroke: #000000; stroke-opacity: 0.8"/>
     <use xlink:href="#mfe74424f2f" x="234.807273" y="210.427106" style="fill: #1f77b4; fill-opacity: 0.8; stroke: #000000; stroke-opacity: 0.8"/>
     <use xlink:href="#mfe74424f2f" x="257.127273" y="211.983834" style="fill: #1f77b4; fill-opacity: 0.8; stroke: #000000; stroke-opacity: 0.8"/>
     <use xlink:href="#mfe74424f2f" x="279.447273" y="222.050624" style="fill: #1f77b4; fill-opacity: 0.8; stroke: #000000; stroke-opacity: 0.8"/>
    </g>
   </g>
   <g id="line2d_29">
    <path d="M 73.832727 53.568 
L 76.435169 64.88434 
L 79.03761 75.330692 
L 81.640051 84.834802 
L 84.242492 93.344398 
L 86.194323 99.054478 
L 88.146154 104.182304 
L 90.097985 108.729973 
L 92.049816 112.706594 
L 94.001647 116.128141 
L 95.953478 119.017199 
L 97.905309 121.402606 
L 99.85714 123.318998 
L 101.808971 124.806256 
L 103.760802 125.908866 
L 105.712633 126.675203 
L 107.664463 127.156752 
L 109.616294 127.407269 
L 112.218736 127.47732 
L 116.122398 127.283781 
L 120.026059 127.113548 
L 122.628501 127.208788 
L 124.580332 127.463424 
L 126.532163 127.916594 
L 128.483993 128.599679 
L 130.435824 129.538041 
L 132.387655 130.750662 
L 134.339486 132.24991 
L 136.291317 134.041414 
L 138.243148 136.12408 
L 140.194979 138.490222 
L 142.79742 142.060949 
L 145.399862 146.06056 
L 148.652913 151.561104 
L 152.556575 158.682973 
L 162.96634 178.045493 
L 166.219392 183.475314 
L 168.821833 187.399521 
L 171.424274 190.87723 
L 173.376105 193.160926 
L 175.327936 195.148773 
L 177.279767 196.831057 
L 179.231598 198.203893 
L 181.183429 199.269223 
L 183.13526 200.034695 
L 185.087091 200.513423 
L 187.038921 200.723633 
L 188.990752 200.688199 
L 190.942583 200.434091 
L 192.894414 199.991742 
L 195.496856 199.166795 
L 198.749907 197.876429 
L 207.207841 194.327356 
L 209.810282 193.490959 
L 212.412724 192.892087 
L 214.364555 192.628661 
L 216.316385 192.541963 
L 218.268216 192.642682 
L 220.220047 192.936673 
L 222.171878 193.424954 
L 224.123709 194.103814 
L 226.72615 195.290579 
L 229.328592 196.770104 
L 231.931033 198.500006 
L 235.184085 200.935178 
L 240.388967 205.187067 
L 246.24446 209.948497 
L 249.497511 212.353897 
L 252.750563 214.475739 
L 255.353004 215.929089 
L 257.955445 217.147576 
L 260.557887 218.128858 
L 263.160328 218.884143 
L 265.762769 219.437818 
L 269.015821 219.903298 
L 274.220703 220.358445 
L 278.774975 220.802915 
L 282.028027 221.358762 
L 284.630468 222.047839 
L 287.232909 223.021917 
L 289.18474 223.972877 
L 291.136571 225.13491 
L 293.088402 226.524119 
L 295.040233 228.152602 
L 296.992064 230.028088 
L 298.943895 232.153661 
L 301.546336 235.373031 
L 304.148778 239.015442 
L 306.751219 243.047418 
L 310.00427 248.559765 
L 313.907932 255.697038 
L 325.618918 277.641842 
L 328.221359 281.968261 
L 330.8238 285.861953 
L 332.775631 288.435905 
L 334.727462 290.66688 
L 336.679293 292.516036 
L 337.980514 293.518839 
L 339.281734 294.326131 
L 340.582955 294.928832 
L 341.884176 295.318625 
L 343.185396 295.488 
L 344.486617 295.430285 
L 345.787837 295.139674 
L 347.089058 294.611253 
L 348.390279 293.841012 
L 349.691499 292.825862 
L 350.99272 291.563635 
L 352.293941 290.053091 
L 353.595161 288.293908 
L 355.546992 285.19047 
L 357.498823 281.53488 
L 359.450654 277.33726 
L 361.402485 272.611909 
L 363.354316 267.377051 
L 365.956757 259.642948 
L 368.559198 251.10317 
L 371.16164 241.827608 
L 374.414691 229.316878 
L 377.667743 215.941206 
L 381.571405 198.992109 
L 386.776287 175.370928 
L 398.487273 121.340215 
L 398.487273 121.340215 
" clip-path="url(#p18a13bfba8)" style="fill: none; stroke: #ff7f0e; stroke-linecap: square"/>
   </g>
   <g id="line2d_30">
    <path d="M 73.832727 92.005007 
L 83.591882 101.821373 
L 93.351037 111.329389 
L 103.110191 120.516722 
L 112.218736 128.791844 
L 121.32728 136.768231 
L 130.435824 144.437217 
L 138.893758 151.275995 
L 147.351692 157.836455 
L 155.809627 164.112773 
L 164.267561 170.099505 
L 172.074884 175.364305 
L 179.882208 180.374355 
L 187.689532 185.126257 
L 195.496856 189.616908 
L 203.304179 193.843499 
L 211.111503 197.803518 
L 218.918827 201.494757 
L 226.07554 204.640643 
L 233.232254 207.55783 
L 240.388967 210.245289 
L 247.54568 212.702209 
L 254.702394 214.927995 
L 261.859107 216.922268 
L 269.015821 218.684864 
L 276.172534 220.215837 
L 283.329248 221.515453 
L 290.485961 222.584192 
L 297.642674 223.422747 
L 304.799388 224.032019 
L 311.956101 224.41312 
L 319.112815 224.567365 
L 326.269528 224.496275 
L 333.426242 224.20157 
L 340.582955 223.685171 
L 347.739668 222.94919 
L 354.896382 221.995934 
L 362.053095 220.827896 
L 369.209809 219.447752 
L 377.017132 217.703597 
L 384.824456 215.714371 
L 392.63178 213.484263 
L 398.487273 211.656257 
L 398.487273 211.656257 
" clip-path="url(#p18a13bfba8)" style="fill: none; stroke: #2ca02c; stroke-linecap: square"/>
   </g>
   <g id="patch_3">
    <path d="M 57.6 307.584 
L 57.6 41.472 
" style="fill: none; stroke: #000000; stroke-width: 0.8; stroke-linejoin: miter; stroke-linecap: square"/>
   </g>
   <g id="patch_4">
    <path d="M 414.72 307.584 
L 414.72 41.472 
" style="fill: none; stroke: #000000; stroke-width: 0.8; stroke-linejoin: miter; stroke-linecap: square"/>
   </g>
   <g id="patch_5">
    <path d="M 57.6 307.584 
L 414.72 307.584 
" style="fill: none; stroke: #000000; stroke-width: 0.8; stroke-linejoin: miter; stroke-linecap: square"/>
   </g>
   <g id="patch_6">
    <path d="M 57.6 41.472 
L 414.72 41.472 
" style="fill: none; stroke: #000000; stroke-width: 0.8; stroke-linejoin: miter; stroke-linecap: square"/>
   </g>
   <g id="text_16">
    <!-- $x$ as plain descriptor -->
    <g transform="translate(159.81 35.472) scale(0.15 -0.15)">
     <defs>
      <path id="DejaVuSans-20" transform="scale(0.015625)"/>
      <path id="DejaVuSans-61" d="M 2194 1759 
Q 1497 1759 1228 1600 
Q 959 1441 959 1056 
Q 959 750 1161 570 
Q 1363 391 1709 391 
Q 2188 391 2477 730 
Q 2766 1069 2766 1631 
L 2766 1759 
L 2194 1759 
z
M 3341 1997 
L 3341 0 
L 2766 0 
L 2766 531 
Q 2569 213 2275 61 
Q 1981 -91 1556 -91 
Q 1019 -91 701 211 
Q 384 513 384 1019 
Q 384 1609 779 1909 
Q 1175 2209 1959 2209 
L 2766 2209 
L 2766 2266 
Q 2766 2663 2505 2880 
Q 2244 3097 1772 3097 
Q 1472 3097 1187 3025 
Q 903 2953 641 2809 
L 641 3341 
Q 956 3463 1253 3523 
Q 1550 3584 1831 3584 
Q 2591 3584 2966 3190 
Q 3341 2797 3341 1997 
z
" transform="scale(0.015625)"/>
      <path id="DejaVuSans-73" d="M 2834 3397 
L 2834 2853 
Q 2591 2978 2328 3040 
Q 2066 3103 1784 3103 
Q 1356 3103 1142 2972 
Q 928 2841 928 2578 
Q 928 2378 1081 2264 
Q 1234 2150 1697 2047 
L 1894 2003 
Q 2506 1872 2764 1633 
Q 3022 1394 3022 966 
Q 3022 478 2636 193 
Q 2250 -91 1575 -91 
Q 1294 -91 989 -36 
Q 684 19 347 128 
L 347 722 
Q 666 556 975 473 
Q 1284 391 1588 391 
Q 1994 391 2212 530 
Q 2431 669 2431 922 
Q 2431 1156 2273 1281 
Q 2116 1406 1581 1522 
L 1381 1569 
Q 847 1681 609 1914 
Q 372 2147 372 2553 
Q 372 3047 722 3315 
Q 1072 3584 1716 3584 
Q 2034 3584 2315 3537 
Q 2597 3491 2834 3397 
z
" transform="scale(0.015625)"/>
      <path id="DejaVuSans-70" d="M 1159 525 
L 1159 -1331 
L 581 -1331 
L 581 3500 
L 1159 3500 
L 1159 2969 
Q 1341 3281 1617 3432 
Q 1894 3584 2278 3584 
Q 2916 3584 3314 3078 
Q 3713 2572 3713 1747 
Q 3713 922 3314 415 
Q 2916 -91 2278 -91 
Q 1894 -91 1617 61 
Q 1341 213 1159 525 
z
M 3116 1747 
Q 3116 2381 2855 2742 
Q 2594 3103 2138 3103 
Q 1681 3103 1420 2742 
Q 1159 2381 1159 1747 
Q 1159 1113 1420 752 
Q 1681 391 2138 391 
Q 2594 391 2855 752 
Q 3116 1113 3116 1747 
z
" transform="scale(0.015625)"/>
      <path id="DejaVuSans-6c" d="M 603 4863 
L 1178 4863 
L 1178 0 
L 603 0 
L 603 4863 
z
" transform="scale(0.015625)"/>
      <path id="DejaVuSans-69" d="M 603 3500 
L 1178 3500 
L 1178 0 
L 603 0 
L 603 3500 
z
M 603 4863 
L 1178 4863 
L 1178 4134 
L 603 4134 
L 603 4863 
z
" transform="scale(0.015625)"/>
      <path id="DejaVuSans-6e" d="M 3513 2113 
L 3513 0 
L 2938 0 
L 2938 2094 
Q 2938 2591 2744 2837 
Q 2550 3084 2163 3084 
Q 1697 3084 1428 2787 
Q 1159 2491 1159 1978 
L 1159 0 
L 581 0 
L 581 3500 
L 1159 3500 
L 1159 2956 
Q 1366 3272 1645 3428 
Q 1925 3584 2291 3584 
Q 2894 3584 3203 3211 
Q 3513 2838 3513 2113 
z
" transform="scale(0.015625)"/>
      <path id="DejaVuSans-64" d="M 2906 2969 
L 2906 4863 
L 3481 4863 
L 3481 0 
L 2906 0 
L 2906 525 
Q 2725 213 2448 61 
Q 2172 -91 1784 -91 
Q 1150 -91 751 415 
Q 353 922 353 1747 
Q 353 2572 751 3078 
Q 1150 3584 1784 3584 
Q 2172 3584 2448 3432 
Q 2725 3281 2906 2969 
z
M 947 1747 
Q 947 1113 1208 752 
Q 1469 391 1925 391 
Q 2381 391 2643 752 
Q 2906 1113 2906 1747 
Q 2906 2381 2643 2742 
Q 2381 3103 1925 3103 
Q 1469 3103 1208 2742 
Q 947 2381 947 1747 
z
" transform="scale(0.015625)"/>
      <path id="DejaVuSans-65" d="M 3597 1894 
L 3597 1613 
L 953 1613 
Q 991 1019 1311 708 
Q 1631 397 2203 397 
Q 2534 397 2845 478 
Q 3156 559 3463 722 
L 3463 178 
Q 3153 47 2828 -22 
Q 2503 -91 2169 -91 
Q 1331 -91 842 396 
Q 353 884 353 1716 
Q 353 2575 817 3079 
Q 1281 3584 2069 3584 
Q 2775 3584 3186 3129 
Q 3597 2675 3597 1894 
z
M 3022 2063 
Q 3016 2534 2758 2815 
Q 2500 3097 2075 3097 
Q 1594 3097 1305 2825 
Q 1016 2553 972 2059 
L 3022 2063 
z
" transform="scale(0.015625)"/>
      <path id="DejaVuSans-63" d="M 3122 3366 
L 3122 2828 
Q 2878 2963 2633 3030 
Q 2388 3097 2138 3097 
Q 1578 3097 1268 2742 
Q 959 2388 959 1747 
Q 959 1106 1268 751 
Q 1578 397 2138 397 
Q 2388 397 2633 464 
Q 2878 531 3122 666 
L 3122 134 
Q 2881 22 2623 -34 
Q 2366 -91 2075 -91 
Q 1284 -91 818 406 
Q 353 903 353 1747 
Q 353 2603 823 3093 
Q 1294 3584 2113 3584 
Q 2378 3584 2631 3529 
Q 2884 3475 3122 3366 
z
" transform="scale(0.015625)"/>
      <path id="DejaVuSans-72" d="M 2631 2963 
Q 2534 3019 2420 3045 
Q 2306 3072 2169 3072 
Q 1681 3072 1420 2755 
Q 1159 2438 1159 1844 
L 1159 0 
L 581 0 
L 581 3500 
L 1159 3500 
L 1159 2956 
Q 1341 3275 1631 3429 
Q 1922 3584 2338 3584 
Q 2397 3584 2469 3576 
Q 2541 3569 2628 3553 
L 2631 2963 
z
" transform="scale(0.015625)"/>
      <path id="DejaVuSans-74" d="M 1172 4494 
L 1172 3500 
L 2356 3500 
L 2356 3053 
L 1172 3053 
L 1172 1153 
Q 1172 725 1289 603 
Q 1406 481 1766 481 
L 2356 481 
L 2356 0 
L 1766 0 
Q 1100 0 847 248 
Q 594 497 594 1153 
L 594 3053 
L 172 3053 
L 172 3500 
L 594 3500 
L 594 4494 
L 1172 4494 
z
" transform="scale(0.015625)"/>
      <path id="DejaVuSans-6f" d="M 1959 3097 
Q 1497 3097 1228 2736 
Q 959 2375 959 1747 
Q 959 1119 1226 758 
Q 1494 397 1959 397 
Q 2419 397 2687 759 
Q 2956 1122 2956 1747 
Q 2956 2369 2687 2733 
Q 2419 3097 1959 3097 
z
M 1959 3584 
Q 2709 3584 3137 3096 
Q 3566 2609 3566 1747 
Q 3566 888 3137 398 
Q 2709 -91 1959 -91 
Q 1206 -91 779 398 
Q 353 888 353 1747 
Q 353 2609 779 3096 
Q 1206 3584 1959 3584 
z
" transform="scale(0.015625)"/>
     </defs>
     <use xlink:href="#DejaVuSans-Oblique-78" transform="translate(0 0.015625)"/>
     <use xlink:href="#DejaVuSans-20" transform="translate(59.179688 0.015625)"/>
     <use xlink:href="#DejaVuSans-61" transform="translate(90.966797 0.015625)"/>
     <use xlink:href="#DejaVuSans-73" transform="translate(152.246094 0.015625)"/>
     <use xlink:href="#DejaVuSans-20" transform="translate(204.345703 0.015625)"/>
     <use xlink:href="#DejaVuSans-70" transform="translate(236.132812 0.015625)"/>
     <use xlink:href="#DejaVuSans-6c" transform="translate(299.609375 0.015625)"/>
     <use xlink:href="#DejaVuSans-61" transform="translate(327.392578 0.015625)"/>
     <use xlink:href="#DejaVuSans-69" transform="translate(388.671875 0.015625)"/>
     <use xlink:href="#DejaVuSans-6e" transform="translate(416.455078 0.015625)"/>
     <use xlink:href="#DejaVuSans-20" transform="translate(479.833984 0.015625)"/>
     <use xlink:href="#DejaVuSans-64" transform="translate(511.621094 0.015625)"/>
     <use xlink:href="#DejaVuSans-65" transform="translate(575.097656 0.015625)"/>
     <use xlink:href="#DejaVuSans-73" transform="translate(636.621094 0.015625)"/>
     <use xlink:href="#DejaVuSans-63" transform="translate(688.720703 0.015625)"/>
     <use xlink:href="#DejaVuSans-72" transform="translate(743.701172 0.015625)"/>
     <use xlink:href="#DejaVuSans-69" transform="translate(784.814453 0.015625)"/>
     <use xlink:href="#DejaVuSans-70" transform="translate(812.597656 0.015625)"/>
     <use xlink:href="#DejaVuSans-74" transform="translate(876.074219 0.015625)"/>
     <use xlink:href="#DejaVuSans-6f" transform="translate(915.283203 0.015625)"/>
     <use xlink:href="#DejaVuSans-72" transform="translate(976.464844 0.015625)"/>
    </g>
   </g>
   <g id="legend_1">
    <g id="patch_7">
     <path d="M 334.82 78.82825 
L 407.72 78.82825 
Q 409.72 78.82825 409.72 76.82825 
L 409.72 48.472 
Q 409.72 46.472 407.72 46.472 
L 334.82 46.472 
Q 332.82 46.472 332.82 48.472 
L 332.82 76.82825 
Q 332.82 78.82825 334.82 78.82825 
z
" style="fill: #ffffff; opacity: 0.8; stroke: #cccccc; stroke-linejoin: miter"/>
    </g>
    <g id="line2d_31">
     <path d="M 336.82 54.570437 
L 346.82 54.570437 
L 356.82 54.570437 
" style="fill: none; stroke: #ff7f0e; stroke-linecap: square"/>
    </g>
    <g id="text_17">
     <!-- $\sigma=$1.0 -->
     <g transform="translate(364.82 58.070437) scale(0.1 -0.1)">
      <defs>
       <path id="DejaVuSans-Oblique-3c3" d="M 2219 3044 
Q 1744 3044 1422 2700 
Q 1081 2341 969 1747 
Q 844 1119 1044 756 
Q 1241 397 1706 397 
Q 2166 397 2503 759 
Q 2844 1122 2966 1747 
Q 3075 2319 2881 2700 
Q 2700 3044 2219 3044 
z
M 2309 3503 
L 4219 3500 
L 4106 2925 
L 3463 2925 
Q 3706 2438 3575 1747 
Q 3406 888 2884 400 
Q 2359 -91 1609 -91 
Q 856 -91 525 400 
Q 194 888 363 1747 
Q 528 2609 1050 3097 
Q 1484 3503 2309 3503 
z
" transform="scale(0.015625)"/>
       <path id="DejaVuSans-3d" d="M 678 2906 
L 4684 2906 
L 4684 2381 
L 678 2381 
L 678 2906 
z
M 678 1631 
L 4684 1631 
L 4684 1100 
L 678 1100 
L 678 1631 
z
" transform="scale(0.015625)"/>
       <path id="DejaVuSans-2e" d="M 684 794 
L 1344 794 
L 1344 0 
L 684 0 
L 684 794 
z
" transform="scale(0.015625)"/>
      </defs>
      <use xlink:href="#DejaVuSans-Oblique-3c3" transform="translate(0 0.78125)"/>
      <use xlink:href="#DejaVuSans-3d" transform="translate(82.861328 0.78125)"/>
      <use xlink:href="#DejaVuSans-31" transform="translate(186.132812 0.78125)"/>
      <use xlink:href="#DejaVuSans-2e" transform="translate(249.755859 0.78125)"/>
      <use xlink:href="#DejaVuSans-30" transform="translate(281.542969 0.78125)"/>
     </g>
    </g>
    <g id="line2d_32">
     <path d="M 336.82 69.248562 
L 346.82 69.248562 
L 356.82 69.248562 
" style="fill: none; stroke: #2ca02c; stroke-linecap: square"/>
    </g>
    <g id="text_18">
     <!-- $\sigma=$10.0 -->
     <g transform="translate(364.82 72.748562) scale(0.1 -0.1)">
      <use xlink:href="#DejaVuSans-Oblique-3c3" transform="translate(0 0.78125)"/>
      <use xlink:href="#DejaVuSans-3d" transform="translate(82.861328 0.78125)"/>
      <use xlink:href="#DejaVuSans-31" transform="translate(186.132812 0.78125)"/>
      <use xlink:href="#DejaVuSans-30" transform="translate(249.755859 0.78125)"/>
      <use xlink:href="#DejaVuSans-2e" transform="translate(313.378906 0.78125)"/>
      <use xlink:href="#DejaVuSans-30" transform="translate(345.166016 0.78125)"/>
     </g>
    </g>
   </g>
  </g>
 </g>
 <defs>
  <clipPath id="p18a13bfba8">
   <rect x="57.6" y="41.472" width="357.12" height="266.112"/>
  </clipPath>
 </defs>
</svg>
