<?xml version="1.0" encoding="utf-8" standalone="no"?>
<!DOCTYPE svg PUBLIC "-//W3C//DTD SVG 1.1//EN"
  "http://www.w3.org/Graphics/SVG/1.1/DTD/svg11.dtd">
<svg xmlns:xlink="http://www.w3.org/1999/xlink" width="864pt" height="720pt" viewBox="0 0 864 720" xmlns="http://www.w3.org/2000/svg" version="1.1">
 <metadata>
  <rdf:RDF xmlns:dc="http://purl.org/dc/elements/1.1/" xmlns:cc="http://creativecommons.org/ns#" xmlns:rdf="http://www.w3.org/1999/02/22-rdf-syntax-ns#">
   <cc:Work>
    <dc:type rdf:resource="http://purl.org/dc/dcmitype/StillImage"/>
    <dc:date>2024-12-17T02:50:14.062874</dc:date>
    <dc:format>image/svg+xml</dc:format>
    <dc:creator>
     <cc:Agent>
      <dc:title>Matplotlib v3.7.1, https://matplotlib.org/</dc:title>
     </cc:Agent>
    </dc:creator>
   </cc:Work>
  </rdf:RDF>
 </metadata>
 <defs>
  <style type="text/css">*{stroke-linejoin: round; stroke-linecap: butt}</style>
 </defs>
 <g id="figure_1">
  <g id="patch_1">
   <path d="M 0 720 
L 864 720 
L 864 0 
L 0 0 
z
" style="fill: #ffffff"/>
  </g>
  <g id="axes_1">
   <g id="patch_2">
    <path d="M 108 338.4 
L 412.363636 338.4 
L 412.363636 86.4 
L 108 86.4 
z
" style="fill: #ffffff"/>
   </g>
   <g id="matplotlib.axis_1">
    <g id="xtick_1">
     <g id="line2d_1">
      <path d="M 121.834711 338.4 
L 121.834711 86.4 
" clip-path="url(#p8b4d8f9500)" style="fill: none; stroke: #b0b0b0; stroke-width: 0.8; stroke-linecap: square"/>
     </g>
     <g id="line2d_2">
      <defs>
       <path id="m77a71fef4f" d="M 0 0 
L 0 3.5 
" style="stroke: #000000; stroke-width: 0.8"/>
      </defs>
      <g>
       <use xlink:href="#m77a71fef4f" x="121.834711" y="338.4" style="stroke: #000000; stroke-width: 0.8"/>
      </g>
     </g>
     <g id="text_1">
      <!-- 0 -->
      <g transform="translate(118.653461 352.998437) scale(0.1 -0.1)">
       <defs>
        <path id="DejaVuSans-30" d="M 2034 4250 
Q 1547 4250 1301 3770 
Q 1056 3291 1056 2328 
Q 1056 1369 1301 889 
Q 1547 409 2034 409 
Q 2525 409 2770 889 
Q 3016 1369 3016 2328 
Q 3016 3291 2770 3770 
Q 2525 4250 2034 4250 
z
M 2034 4750 
Q 2819 4750 3233 4129 
Q 3647 3509 3647 2328 
Q 3647 1150 3233 529 
Q 2819 -91 2034 -91 
Q 1250 -91 836 529 
Q 422 1150 422 2328 
Q 422 3509 836 4129 
Q 1250 4750 2034 4750 
z
" transform="scale(0.015625)"/>
       </defs>
       <use xlink:href="#DejaVuSans-30"/>
      </g>
     </g>
    </g>
    <g id="xtick_2">
     <g id="line2d_3">
      <path d="M 187.247055 338.4 
L 187.247055 86.4 
" clip-path="url(#p8b4d8f9500)" style="fill: none; stroke: #b0b0b0; stroke-width: 0.8; stroke-linecap: square"/>
     </g>
     <g id="line2d_4">
      <g>
       <use xlink:href="#m77a71fef4f" x="187.247055" y="338.4" style="stroke: #000000; stroke-width: 0.8"/>
      </g>
     </g>
     <g id="text_2">
      <!-- 100 -->
      <g transform="translate(177.703305 352.998437) scale(0.1 -0.1)">
       <defs>
        <path id="DejaVuSans-31" d="M 794 531 
L 1825 531 
L 1825 4091 
L 703 3866 
L 703 4441 
L 1819 4666 
L 2450 4666 
L 2450 531 
L 3481 531 
L 3481 0 
L 794 0 
L 794 531 
z
" transform="scale(0.015625)"/>
       </defs>
       <use xlink:href="#DejaVuSans-31"/>
       <use xlink:href="#DejaVuSans-30" x="63.623047"/>
       <use xlink:href="#DejaVuSans-30" x="127.246094"/>
      </g>
     </g>
    </g>
    <g id="xtick_3">
     <g id="line2d_5">
      <path d="M 252.659399 338.4 
L 252.659399 86.4 
" clip-path="url(#p8b4d8f9500)" style="fill: none; stroke: #b0b0b0; stroke-width: 0.8; stroke-linecap: square"/>
     </g>
     <g id="line2d_6">
      <g>
       <use xlink:href="#m77a71fef4f" x="252.659399" y="338.4" style="stroke: #000000; stroke-width: 0.8"/>
      </g>
     </g>
     <g id="text_3">
      <!-- 200 -->
      <g transform="translate(243.115649 352.998437) scale(0.1 -0.1)">
       <defs>
        <path id="DejaVuSans-32" d="M 1228 531 
L 3431 531 
L 3431 0 
L 469 0 
L 469 531 
Q 828 903 1448 1529 
Q 2069 2156 2228 2338 
Q 2531 2678 2651 2914 
Q 2772 3150 2772 3378 
Q 2772 3750 2511 3984 
Q 2250 4219 1831 4219 
Q 1534 4219 1204 4116 
Q 875 4013 500 3803 
L 500 4441 
Q 881 4594 1212 4672 
Q 1544 4750 1819 4750 
Q 2544 4750 2975 4387 
Q 3406 4025 3406 3419 
Q 3406 3131 3298 2873 
Q 3191 2616 2906 2266 
Q 2828 2175 2409 1742 
Q 1991 1309 1228 531 
z
" transform="scale(0.015625)"/>
       </defs>
       <use xlink:href="#DejaVuSans-32"/>
       <use xlink:href="#DejaVuSans-30" x="63.623047"/>
       <use xlink:href="#DejaVuSans-30" x="127.246094"/>
      </g>
     </g>
    </g>
    <g id="xtick_4">
     <g id="line2d_7">
      <path d="M 318.071743 338.4 
L 318.071743 86.4 
" clip-path="url(#p8b4d8f9500)" style="fill: none; stroke: #b0b0b0; stroke-width: 0.8; stroke-linecap: square"/>
     </g>
     <g id="line2d_8">
      <g>
       <use xlink:href="#m77a71fef4f" x="318.071743" y="338.4" style="stroke: #000000; stroke-width: 0.8"/>
      </g>
     </g>
     <g id="text_4">
      <!-- 300 -->
      <g transform="translate(308.527993 352.998437) scale(0.1 -0.1)">
       <defs>
        <path id="DejaVuSans-33" d="M 2597 2516 
Q 3050 2419 3304 2112 
Q 3559 1806 3559 1356 
Q 3559 666 3084 287 
Q 2609 -91 1734 -91 
Q 1441 -91 1130 -33 
Q 819 25 488 141 
L 488 750 
Q 750 597 1062 519 
Q 1375 441 1716 441 
Q 2309 441 2620 675 
Q 2931 909 2931 1356 
Q 2931 1769 2642 2001 
Q 2353 2234 1838 2234 
L 1294 2234 
L 1294 2753 
L 1863 2753 
Q 2328 2753 2575 2939 
Q 2822 3125 2822 3475 
Q 2822 3834 2567 4026 
Q 2313 4219 1838 4219 
Q 1578 4219 1281 4162 
Q 984 4106 628 3988 
L 628 4550 
Q 988 4650 1302 4700 
Q 1616 4750 1894 4750 
Q 2613 4750 3031 4423 
Q 3450 4097 3450 3541 
Q 3450 3153 3228 2886 
Q 3006 2619 2597 2516 
z
" transform="scale(0.015625)"/>
       </defs>
       <use xlink:href="#DejaVuSans-33"/>
       <use xlink:href="#DejaVuSans-30" x="63.623047"/>
       <use xlink:href="#DejaVuSans-30" x="127.246094"/>
      </g>
     </g>
    </g>
    <g id="xtick_5">
     <g id="line2d_9">
      <path d="M 383.484087 338.4 
L 383.484087 86.4 
" clip-path="url(#p8b4d8f9500)" style="fill: none; stroke: #b0b0b0; stroke-width: 0.8; stroke-linecap: square"/>
     </g>
     <g id="line2d_10">
      <g>
       <use xlink:href="#m77a71fef4f" x="383.484087" y="338.4" style="stroke: #000000; stroke-width: 0.8"/>
      </g>
     </g>
     <g id="text_5">
      <!-- 400 -->
      <g transform="translate(373.940337 352.998437) scale(0.1 -0.1)">
       <defs>
        <path id="DejaVuSans-34" d="M 2419 4116 
L 825 1625 
L 2419 1625 
L 2419 4116 
z
M 2253 4666 
L 3047 4666 
L 3047 1625 
L 3713 1625 
L 3713 1100 
L 3047 1100 
L 3047 0 
L 2419 0 
L 2419 1100 
L 313 1100 
L 313 1709 
L 2253 4666 
z
" transform="scale(0.015625)"/>
       </defs>
       <use xlink:href="#DejaVuSans-34"/>
       <use xlink:href="#DejaVuSans-30" x="63.623047"/>
       <use xlink:href="#DejaVuSans-30" x="127.246094"/>
      </g>
     </g>
    </g>
    <g id="text_6">
     <!-- Epochs -->
     <g transform="translate(238.683068 368.19625) scale(0.12 -0.12)">
      <defs>
       <path id="DejaVuSans-45" d="M 628 4666 
L 3578 4666 
L 3578 4134 
L 1259 4134 
L 1259 2753 
L 3481 2753 
L 3481 2222 
L 1259 2222 
L 1259 531 
L 3634 531 
L 3634 0 
L 628 0 
L 628 4666 
z
" transform="scale(0.015625)"/>
       <path id="DejaVuSans-70" d="M 1159 525 
L 1159 -1331 
L 581 -1331 
L 581 3500 
L 1159 3500 
L 1159 2969 
Q 1341 3281 1617 3432 
Q 1894 3584 2278 3584 
Q 2916 3584 3314 3078 
Q 3713 2572 3713 1747 
Q 3713 922 3314 415 
Q 2916 -91 2278 -91 
Q 1894 -91 1617 61 
Q 1341 213 1159 525 
z
M 3116 1747 
Q 3116 2381 2855 2742 
Q 2594 3103 2138 3103 
Q 1681 3103 1420 2742 
Q 1159 2381 1159 1747 
Q 1159 1113 1420 752 
Q 1681 391 2138 391 
Q 2594 391 2855 752 
Q 3116 1113 3116 1747 
z
" transform="scale(0.015625)"/>
       <path id="DejaVuSans-6f" d="M 1959 3097 
Q 1497 3097 1228 2736 
Q 959 2375 959 1747 
Q 959 1119 1226 758 
Q 1494 397 1959 397 
Q 2419 397 2687 759 
Q 2956 1122 2956 1747 
Q 2956 2369 2687 2733 
Q 2419 3097 1959 3097 
z
M 1959 3584 
Q 2709 3584 3137 3096 
Q 3566 2609 3566 1747 
Q 3566 888 3137 398 
Q 2709 -91 1959 -91 
Q 1206 -91 779 398 
Q 353 888 353 1747 
Q 353 2609 779 3096 
Q 1206 3584 1959 3584 
z
" transform="scale(0.015625)"/>
       <path id="DejaVuSans-63" d="M 3122 3366 
L 3122 2828 
Q 2878 2963 2633 3030 
Q 2388 3097 2138 3097 
Q 1578 3097 1268 2742 
Q 959 2388 959 1747 
Q 959 1106 1268 751 
Q 1578 397 2138 397 
Q 2388 397 2633 464 
Q 2878 531 3122 666 
L 3122 134 
Q 2881 22 2623 -34 
Q 2366 -91 2075 -91 
Q 1284 -91 818 406 
Q 353 903 353 1747 
Q 353 2603 823 3093 
Q 1294 3584 2113 3584 
Q 2378 3584 2631 3529 
Q 2884 3475 3122 3366 
z
" transform="scale(0.015625)"/>
       <path id="DejaVuSans-68" d="M 3513 2113 
L 3513 0 
L 2938 0 
L 2938 2094 
Q 2938 2591 2744 2837 
Q 2550 3084 2163 3084 
Q 1697 3084 1428 2787 
Q 1159 2491 1159 1978 
L 1159 0 
L 581 0 
L 581 4863 
L 1159 4863 
L 1159 2956 
Q 1366 3272 1645 3428 
Q 1925 3584 2291 3584 
Q 2894 3584 3203 3211 
Q 3513 2838 3513 2113 
z
" transform="scale(0.015625)"/>
       <path id="DejaVuSans-73" d="M 2834 3397 
L 2834 2853 
Q 2591 2978 2328 3040 
Q 2066 3103 1784 3103 
Q 1356 3103 1142 2972 
Q 928 2841 928 2578 
Q 928 2378 1081 2264 
Q 1234 2150 1697 2047 
L 1894 2003 
Q 2506 1872 2764 1633 
Q 3022 1394 3022 966 
Q 3022 478 2636 193 
Q 2250 -91 1575 -91 
Q 1294 -91 989 -36 
Q 684 19 347 128 
L 347 722 
Q 666 556 975 473 
Q 1284 391 1588 391 
Q 1994 391 2212 530 
Q 2431 669 2431 922 
Q 2431 1156 2273 1281 
Q 2116 1406 1581 1522 
L 1381 1569 
Q 847 1681 609 1914 
Q 372 2147 372 2553 
Q 372 3047 722 3315 
Q 1072 3584 1716 3584 
Q 2034 3584 2315 3537 
Q 2597 3491 2834 3397 
z
" transform="scale(0.015625)"/>
      </defs>
      <use xlink:href="#DejaVuSans-45"/>
      <use xlink:href="#DejaVuSans-70" x="63.183594"/>
      <use xlink:href="#DejaVuSans-6f" x="126.660156"/>
      <use xlink:href="#DejaVuSans-63" x="187.841797"/>
      <use xlink:href="#DejaVuSans-68" x="242.822266"/>
      <use xlink:href="#DejaVuSans-73" x="306.201172"/>
     </g>
    </g>
   </g>
   <g id="matplotlib.axis_2">
    <g id="ytick_1">
     <g id="line2d_11">
      <path d="M 108 338.4 
L 412.363636 338.4 
" clip-path="url(#p8b4d8f9500)" style="fill: none; stroke: #b0b0b0; stroke-width: 0.8; stroke-linecap: square"/>
     </g>
     <g id="line2d_12">
      <defs>
       <path id="mb61cbad6fa" d="M 0 0 
L -3.5 0 
" style="stroke: #000000; stroke-width: 0.8"/>
      </defs>
      <g>
       <use xlink:href="#mb61cbad6fa" x="108" y="338.4" style="stroke: #000000; stroke-width: 0.8"/>
      </g>
     </g>
     <g id="text_7">
      <!-- 0.00 -->
      <g transform="translate(78.734375 342.199219) scale(0.1 -0.1)">
       <defs>
        <path id="DejaVuSans-2e" d="M 684 794 
L 1344 794 
L 1344 0 
L 684 0 
L 684 794 
z
" transform="scale(0.015625)"/>
       </defs>
       <use xlink:href="#DejaVuSans-30"/>
       <use xlink:href="#DejaVuSans-2e" x="63.623047"/>
       <use xlink:href="#DejaVuSans-30" x="95.410156"/>
       <use xlink:href="#DejaVuSans-30" x="159.033203"/>
      </g>
     </g>
    </g>
    <g id="ytick_2">
     <g id="line2d_13">
      <path d="M 108 296.4 
L 412.363636 296.4 
" clip-path="url(#p8b4d8f9500)" style="fill: none; stroke: #b0b0b0; stroke-width: 0.8; stroke-linecap: square"/>
     </g>
     <g id="line2d_14">
      <g>
       <use xlink:href="#mb61cbad6fa" x="108" y="296.4" style="stroke: #000000; stroke-width: 0.8"/>
      </g>
     </g>
     <g id="text_8">
      <!-- 0.05 -->
      <g transform="translate(78.734375 300.199219) scale(0.1 -0.1)">
       <defs>
        <path id="DejaVuSans-35" d="M 691 4666 
L 3169 4666 
L 3169 4134 
L 1269 4134 
L 1269 2991 
Q 1406 3038 1543 3061 
Q 1681 3084 1819 3084 
Q 2600 3084 3056 2656 
Q 3513 2228 3513 1497 
Q 3513 744 3044 326 
Q 2575 -91 1722 -91 
Q 1428 -91 1123 -41 
Q 819 9 494 109 
L 494 744 
Q 775 591 1075 516 
Q 1375 441 1709 441 
Q 2250 441 2565 725 
Q 2881 1009 2881 1497 
Q 2881 1984 2565 2268 
Q 2250 2553 1709 2553 
Q 1456 2553 1204 2497 
Q 953 2441 691 2322 
L 691 4666 
z
" transform="scale(0.015625)"/>
       </defs>
       <use xlink:href="#DejaVuSans-30"/>
       <use xlink:href="#DejaVuSans-2e" x="63.623047"/>
       <use xlink:href="#DejaVuSans-30" x="95.410156"/>
       <use xlink:href="#DejaVuSans-35" x="159.033203"/>
      </g>
     </g>
    </g>
    <g id="ytick_3">
     <g id="line2d_15">
      <path d="M 108 254.4 
L 412.363636 254.4 
" clip-path="url(#p8b4d8f9500)" style="fill: none; stroke: #b0b0b0; stroke-width: 0.8; stroke-linecap: square"/>
     </g>
     <g id="line2d_16">
      <g>
       <use xlink:href="#mb61cbad6fa" x="108" y="254.4" style="stroke: #000000; stroke-width: 0.8"/>
      </g>
     </g>
     <g id="text_9">
      <!-- 0.10 -->
      <g transform="translate(78.734375 258.199219) scale(0.1 -0.1)">
       <use xlink:href="#DejaVuSans-30"/>
       <use xlink:href="#DejaVuSans-2e" x="63.623047"/>
       <use xlink:href="#DejaVuSans-31" x="95.410156"/>
       <use xlink:href="#DejaVuSans-30" x="159.033203"/>
      </g>
     </g>
    </g>
    <g id="ytick_4">
     <g id="line2d_17">
      <path d="M 108 212.4 
L 412.363636 212.4 
" clip-path="url(#p8b4d8f9500)" style="fill: none; stroke: #b0b0b0; stroke-width: 0.8; stroke-linecap: square"/>
     </g>
     <g id="line2d_18">
      <g>
       <use xlink:href="#mb61cbad6fa" x="108" y="212.4" style="stroke: #000000; stroke-width: 0.8"/>
      </g>
     </g>
     <g id="text_10">
      <!-- 0.15 -->
      <g transform="translate(78.734375 216.199219) scale(0.1 -0.1)">
       <use xlink:href="#DejaVuSans-30"/>
       <use xlink:href="#DejaVuSans-2e" x="63.623047"/>
       <use xlink:href="#DejaVuSans-31" x="95.410156"/>
       <use xlink:href="#DejaVuSans-35" x="159.033203"/>
      </g>
     </g>
    </g>
    <g id="ytick_5">
     <g id="line2d_19">
      <path d="M 108 170.4 
L 412.363636 170.4 
" clip-path="url(#p8b4d8f9500)" style="fill: none; stroke: #b0b0b0; stroke-width: 0.8; stroke-linecap: square"/>
     </g>
     <g id="line2d_20">
      <g>
       <use xlink:href="#mb61cbad6fa" x="108" y="170.4" style="stroke: #000000; stroke-width: 0.8"/>
      </g>
     </g>
     <g id="text_11">
      <!-- 0.20 -->
      <g transform="translate(78.734375 174.199219) scale(0.1 -0.1)">
       <use xlink:href="#DejaVuSans-30"/>
       <use xlink:href="#DejaVuSans-2e" x="63.623047"/>
       <use xlink:href="#DejaVuSans-32" x="95.410156"/>
       <use xlink:href="#DejaVuSans-30" x="159.033203"/>
      </g>
     </g>
    </g>
    <g id="ytick_6">
     <g id="line2d_21">
      <path d="M 108 128.4 
L 412.363636 128.4 
" clip-path="url(#p8b4d8f9500)" style="fill: none; stroke: #b0b0b0; stroke-width: 0.8; stroke-linecap: square"/>
     </g>
     <g id="line2d_22">
      <g>
       <use xlink:href="#mb61cbad6fa" x="108" y="128.4" style="stroke: #000000; stroke-width: 0.8"/>
      </g>
     </g>
     <g id="text_12">
      <!-- 0.25 -->
      <g transform="translate(78.734375 132.199219) scale(0.1 -0.1)">
       <use xlink:href="#DejaVuSans-30"/>
       <use xlink:href="#DejaVuSans-2e" x="63.623047"/>
       <use xlink:href="#DejaVuSans-32" x="95.410156"/>
       <use xlink:href="#DejaVuSans-35" x="159.033203"/>
      </g>
     </g>
    </g>
    <g id="ytick_7">
     <g id="line2d_23">
      <path d="M 108 86.4 
L 412.363636 86.4 
" clip-path="url(#p8b4d8f9500)" style="fill: none; stroke: #b0b0b0; stroke-width: 0.8; stroke-linecap: square"/>
     </g>
     <g id="line2d_24">
      <g>
       <use xlink:href="#mb61cbad6fa" x="108" y="86.4" style="stroke: #000000; stroke-width: 0.8"/>
      </g>
     </g>
     <g id="text_13">
      <!-- 0.30 -->
      <g transform="translate(78.734375 90.199219) scale(0.1 -0.1)">
       <use xlink:href="#DejaVuSans-30"/>
       <use xlink:href="#DejaVuSans-2e" x="63.623047"/>
       <use xlink:href="#DejaVuSans-33" x="95.410156"/>
       <use xlink:href="#DejaVuSans-30" x="159.033203"/>
      </g>
     </g>
    </g>
    <g id="text_14">
     <!-- $\mathcal{L}oss$ -->
     <g transform="translate(72.23875 226.5) rotate(-90) scale(0.12 -0.12)">
      <defs>
       <path id="STIXNonUnicode-Italic-e238" d="M 4070 915 
L 4179 800 
Q 3347 -45 2413 -45 
Q 2157 -45 1850 26 
Q 1395 122 1146 122 
Q 1005 122 672 61 
Q 339 0 192 0 
L 230 154 
Q 582 154 730 749 
L 1178 2566 
Q 1286 3008 1516 3353 
Q 1747 3699 2025 3894 
Q 2304 4090 2585 4189 
Q 2867 4288 3123 4288 
Q 3443 4288 3593 4083 
Q 3744 3878 3744 3584 
Q 3744 3347 3593 3200 
Q 3443 3053 3226 3053 
Q 3085 3053 2995 3149 
Q 2906 3245 2906 3379 
Q 2906 3482 2957 3552 
Q 3008 3622 3065 3644 
Q 3123 3667 3174 3705 
Q 3226 3744 3226 3789 
Q 3226 4032 2854 4032 
Q 2522 4032 2310 3785 
Q 2099 3539 1990 3132 
Q 1882 2726 1795 2284 
Q 1709 1843 1549 1363 
Q 1389 883 1158 589 
L 1158 563 
Q 1363 704 1888 704 
Q 2227 704 2460 544 
Q 2694 384 2963 384 
Q 3507 384 4070 915 
z
" transform="scale(0.015625)"/>
       <path id="DejaVuSans-Oblique-6f" d="M 1625 -91 
Q 1009 -91 651 289 
Q 294 669 294 1325 
Q 294 1706 417 2101 
Q 541 2497 738 2766 
Q 1047 3184 1428 3384 
Q 1809 3584 2291 3584 
Q 2888 3584 3255 3212 
Q 3622 2841 3622 2241 
Q 3622 1825 3500 1412 
Q 3378 1000 3181 728 
Q 2875 309 2494 109 
Q 2113 -91 1625 -91 
z
M 891 1344 
Q 891 869 1089 633 
Q 1288 397 1691 397 
Q 2269 397 2648 901 
Q 3028 1406 3028 2181 
Q 3028 2634 2825 2865 
Q 2622 3097 2228 3097 
Q 1903 3097 1650 2945 
Q 1397 2794 1197 2484 
Q 1050 2253 970 1956 
Q 891 1659 891 1344 
z
" transform="scale(0.015625)"/>
       <path id="DejaVuSans-Oblique-73" d="M 3200 3397 
L 3091 2853 
Q 2863 2978 2609 3040 
Q 2356 3103 2088 3103 
Q 1634 3103 1373 2948 
Q 1113 2794 1113 2528 
Q 1113 2219 1719 2053 
Q 1766 2041 1788 2034 
L 1972 1978 
Q 2547 1819 2739 1644 
Q 2931 1469 2931 1166 
Q 2931 609 2489 259 
Q 2047 -91 1331 -91 
Q 1053 -91 747 -37 
Q 441 16 72 128 
L 184 722 
Q 500 559 806 475 
Q 1113 391 1394 391 
Q 1816 391 2080 572 
Q 2344 753 2344 1031 
Q 2344 1331 1650 1516 
L 1591 1531 
L 1394 1581 
Q 956 1697 753 1886 
Q 550 2075 550 2369 
Q 550 2928 970 3256 
Q 1391 3584 2113 3584 
Q 2397 3584 2667 3537 
Q 2938 3491 3200 3397 
z
" transform="scale(0.015625)"/>
      </defs>
      <use xlink:href="#STIXNonUnicode-Italic-e238"/>
      <use xlink:href="#DejaVuSans-Oblique-6f" transform="translate(69.299988 0)"/>
      <use xlink:href="#DejaVuSans-Oblique-73" transform="translate(130.481628 0)"/>
      <use xlink:href="#DejaVuSans-Oblique-73" transform="translate(182.581238 0)"/>
     </g>
    </g>
   </g>
   <g id="line2d_25">
    <path d="M 122.82334 -1 
L 123.146058 30.486411 
L 123.801731 76.711225 
L 124.457405 109.842282 
L 125.113078 134.292642 
L 125.768752 153.224279 
L 127.080099 181.536588 
L 128.391446 202.200825 
L 129.702792 218.331026 
L 131.014139 231.392878 
L 132.325486 241.725935 
L 133.636834 249.62901 
L 134.948181 255.776221 
L 136.259527 260.932652 
L 138.882221 267.720802 
L 140.193568 270.433187 
L 142.160589 273.673769 
L 144.127608 276.320296 
L 145.438957 277.924953 
L 146.09463 278.402933 
L 146.750303 279.17774 
L 149.372997 281.389646 
L 150.02867 281.726759 
L 151.340016 282.745522 
L 151.995692 283.065969 
L 153.307038 284.066363 
L 153.962711 284.211097 
L 154.618384 284.980115 
L 155.274059 285.071063 
L 155.929732 285.501841 
L 156.585405 285.744865 
L 157.241078 286.191286 
L 157.896751 286.449426 
L 158.552424 286.945599 
L 159.2081 286.919057 
L 161.175119 287.819175 
L 161.830792 287.830709 
L 162.486467 288.288777 
L 167.076181 289.714314 
L 169.043202 290.204078 
L 170.354548 290.703715 
L 171.010224 290.677595 
L 172.32157 290.827983 
L 172.97724 291.326281 
L 173.632916 291.344787 
L 174.288591 291.728849 
L 174.944262 291.734832 
L 175.599937 291.93312 
L 176.911284 291.860362 
L 177.566954 292.228796 
L 178.22263 292.183547 
L 178.878305 292.390108 
L 180.189651 292.586894 
L 181.500997 292.983926 
L 182.156673 292.896536 
L 182.812343 293.029985 
L 183.468019 293.322979 
L 185.43504 293.56063 
L 186.090711 293.67154 
L 186.746386 293.561303 
L 187.402057 293.863209 
L 188.057732 294.365349 
L 188.713408 293.726236 
L 190.024754 294.219279 
L 191.3361 294.247042 
L 191.991775 294.469315 
L 192.647446 294.451782 
L 193.303121 294.612369 
L 193.958792 294.5822 
L 194.614467 294.875835 
L 195.270138 294.849184 
L 195.925813 294.675676 
L 196.581489 295.009642 
L 197.237159 294.955547 
L 199.859856 295.30165 
L 201.171202 295.215571 
L 202.482548 295.670388 
L 204.44957 295.871461 
L 205.10524 295.538084 
L 205.760916 295.825379 
L 207.072267 296.107684 
L 208.383608 296.001021 
L 209.039278 296.25019 
L 211.0063 296.181894 
L 212.317651 296.52541 
L 215.596014 296.693172 
L 216.251694 296.840362 
L 218.218716 296.680017 
L 219.530057 297.190055 
L 220.841408 296.973584 
L 222.152749 297.291142 
L 226.742472 297.34862 
L 227.398143 297.583855 
L 228.053813 297.47972 
L 228.709484 297.71768 
L 229.365164 297.606486 
L 230.020835 297.754787 
L 230.676505 297.727544 
L 231.987856 298.042061 
L 232.643527 297.981613 
L 233.954878 298.15727 
L 234.610548 297.770937 
L 235.266219 298.07698 
L 235.921899 298.215577 
L 236.57757 298.04217 
L 237.23324 298.307202 
L 237.888921 298.142513 
L 238.544591 298.340534 
L 239.855932 298.315816 
L 240.511613 298.422793 
L 241.822954 298.308294 
L 242.478634 298.506713 
L 243.134305 298.268972 
L 244.445656 298.633197 
L 245.101326 298.715718 
L 245.756997 298.49521 
L 247.068348 298.601951 
L 247.724019 298.931016 
L 248.379689 298.794428 
L 249.03537 298.40683 
L 249.69104 298.910513 
L 250.346711 298.833678 
L 251.002381 299.20266 
L 251.658062 298.906111 
L 252.969403 298.912823 
L 253.625083 299.018754 
L 254.280754 298.905985 
L 254.936424 299.063537 
L 255.592105 299.096172 
L 256.247775 298.931777 
L 256.903446 298.978765 
L 257.559116 299.293336 
L 258.214797 299.091822 
L 259.526138 299.403166 
L 260.181818 299.439531 
L 260.837499 299.306629 
L 261.493169 299.022644 
L 262.14884 299.350078 
L 262.80452 299.533199 
L 263.460191 299.487981 
L 264.115861 299.665362 
L 264.771532 299.47037 
L 265.427212 299.501784 
L 266.082883 299.651312 
L 268.705575 299.343203 
L 269.361255 299.702284 
L 270.016926 299.515628 
L 270.672596 299.697913 
L 273.950969 299.867802 
L 274.606639 299.961326 
L 275.26231 299.803956 
L 275.91798 299.790357 
L 276.573661 299.969691 
L 277.229331 299.977301 
L 278.540682 300.187408 
L 279.196353 300.029187 
L 280.507704 300.04585 
L 282.474715 300.272692 
L 283.130396 300.150389 
L 283.786067 300.191651 
L 284.441737 300.402706 
L 285.097418 300.153712 
L 286.408759 300.272864 
L 287.064439 300.13197 
L 287.72011 300.33937 
L 288.37578 300.389278 
L 289.031451 300.206762 
L 289.687121 300.269992 
L 290.342802 300.493025 
L 290.998482 300.326634 
L 291.654163 300.324735 
L 292.309823 300.502175 
L 292.965484 300.450001 
L 293.621164 300.205054 
L 296.243866 300.632708 
L 299.522229 300.579774 
L 300.177889 300.601967 
L 300.83357 300.512849 
L 301.48925 300.625195 
L 302.144931 300.614315 
L 302.800611 300.86998 
L 303.456272 300.637196 
L 304.767613 300.762857 
L 305.423293 300.76056 
L 306.078974 300.578247 
L 306.734634 300.940254 
L 307.390315 300.658468 
L 308.045975 300.91425 
L 309.357336 300.826402 
L 310.013017 300.760995 
L 310.668677 301.01222 
L 311.324358 300.704556 
L 311.980018 301.017972 
L 313.291379 300.860943 
L 313.94706 300.681206 
L 314.60272 301.093142 
L 315.258401 300.668382 
L 315.914061 301.109333 
L 317.225422 300.832911 
L 317.881083 300.981788 
L 318.536763 301.295755 
L 319.192424 301.185749 
L 319.848105 301.194874 
L 320.503785 301.372233 
L 321.159466 301.173802 
L 322.470807 301.312174 
L 323.126467 301.254352 
L 323.782148 301.517274 
L 324.437828 301.002945 
L 325.093509 301.260892 
L 326.40485 301.043832 
L 327.06051 301.512705 
L 328.371871 301.303459 
L 330.994553 301.291464 
L 332.305914 301.451995 
L 332.961575 301.568787 
L 333.617255 301.349506 
L 334.272916 301.429179 
L 334.928596 301.351089 
L 335.584277 301.505251 
L 336.239957 301.797616 
L 336.895618 301.459968 
L 338.862639 301.578097 
L 339.51832 301.344837 
L 340.17398 301.686544 
L 340.829661 301.731643 
L 342.141002 301.434562 
L 342.796682 301.732782 
L 344.108023 301.455747 
L 344.763704 301.438051 
L 345.419364 301.722649 
L 346.730725 301.671339 
L 347.386406 301.717451 
L 348.042066 301.646793 
L 351.320429 301.86231 
L 352.63177 301.70086 
L 353.28745 301.859053 
L 353.943131 301.837593 
L 354.598811 301.636413 
L 355.254472 301.827889 
L 355.910153 301.823552 
L 356.565813 301.680708 
L 357.221494 301.658963 
L 357.877174 302.00567 
L 358.532855 301.796684 
L 359.188515 301.853758 
L 359.844196 302.036509 
L 360.499856 301.913192 
L 361.155537 301.987634 
L 361.811217 301.707266 
L 363.778239 302.053188 
L 364.433899 302.099798 
L 365.74526 302.036134 
L 367.056601 302.115053 
L 369.023623 302.022869 
L 369.679303 302.123483 
L 370.990644 302.06691 
L 371.646305 302.186572 
L 372.301985 302.075018 
L 373.613326 302.229083 
L 374.269007 301.948311 
L 374.924687 302.335546 
L 375.580348 302.130064 
L 377.547369 302.420395 
L 378.20305 302.614772 
L 378.85873 301.959311 
L 380.825752 302.476177 
L 381.481412 302.250521 
L 382.137093 302.187041 
L 382.792753 302.341689 
L 384.759775 302.121675 
L 386.071136 302.514163 
L 387.382477 302.256154 
L 388.038157 302.521464 
L 388.693818 302.190584 
L 389.349498 302.532056 
L 390.005179 302.375075 
L 390.66084 302.541619 
L 391.31652 302.157148 
L 391.972201 302.445852 
L 392.627861 302.25448 
L 393.283542 302.553614 
L 393.939202 302.267454 
L 395.250563 302.256238 
L 396.561904 302.584787 
L 397.217585 302.327876 
L 397.873245 302.657999 
L 398.528926 302.729086 
L 398.528926 302.729086 
" clip-path="url(#p8b4d8f9500)" style="fill: none; stroke: #1f77b4; stroke-width: 1.5; stroke-linecap: square"/>
   </g>
   <g id="line2d_26">
    <path d="M 122.424505 -1 
L 122.490384 6.815258 
L 123.146058 60.340323 
L 123.801731 98.625871 
L 124.457405 126.480547 
L 125.113078 147.5897 
L 125.768752 164.397995 
L 127.080099 190.023248 
L 128.391446 209.402743 
L 129.702792 224.694719 
L 131.014139 236.885965 
L 132.325486 246.515011 
L 133.636834 253.939099 
L 134.948181 259.707146 
L 136.915201 266.17254 
L 137.570874 267.933496 
L 138.226547 269.181214 
L 138.882221 270.731441 
L 139.537894 271.823197 
L 140.193568 273.268801 
L 141.504915 275.212099 
L 142.160589 275.963243 
L 142.816262 276.372516 
L 143.471935 277.795903 
L 144.127608 278.086341 
L 144.783284 279.153087 
L 146.09463 280.400867 
L 146.750303 280.312585 
L 147.405976 281.280817 
L 148.061651 281.960733 
L 149.372997 282.58108 
L 150.684343 283.727992 
L 151.340016 283.089689 
L 151.995692 284.210728 
L 152.651365 284.503231 
L 153.307038 284.455441 
L 153.962711 285.067552 
L 154.618384 283.649786 
L 155.274059 285.887082 
L 155.929732 285.760517 
L 157.241078 286.740894 
L 157.896751 286.838532 
L 158.552424 285.166443 
L 159.2081 287.124651 
L 159.863773 287.633535 
L 160.519446 287.85927 
L 161.175119 287.465076 
L 161.830792 287.586697 
L 162.486467 288.119003 
L 163.14214 288.305663 
L 163.797813 287.260116 
L 164.453489 288.908198 
L 165.109159 287.928629 
L 165.764835 289.280247 
L 166.420505 288.973193 
L 167.076181 289.623177 
L 167.731856 289.31617 
L 169.043202 289.6516 
L 169.698873 290.192493 
L 170.354548 289.285 
L 171.010224 290.449401 
L 171.665894 290.534476 
L 172.32157 290.250641 
L 174.288591 291.085213 
L 174.944262 290.756721 
L 175.599937 291.200986 
L 176.255608 290.88353 
L 176.911284 291.458657 
L 177.566954 291.386247 
L 178.22263 291.429377 
L 178.878305 291.851481 
L 180.189651 291.729378 
L 180.845322 291.923384 
L 181.500997 291.274736 
L 182.812343 292.310769 
L 183.468019 292.360847 
L 184.123689 292.587795 
L 184.779365 291.820852 
L 185.43504 292.191999 
L 186.090711 292.187139 
L 186.746386 292.841552 
L 187.402057 292.907018 
L 188.057732 291.487043 
L 188.713408 292.988548 
L 189.369078 292.472467 
L 190.024754 293.075944 
L 190.680424 292.672513 
L 191.3361 292.887695 
L 191.991775 291.251824 
L 192.647446 293.196743 
L 193.303121 293.715246 
L 193.958792 293.632897 
L 194.614467 292.656037 
L 195.270138 293.618086 
L 195.925813 293.490763 
L 196.581489 294.028452 
L 197.237159 293.721742 
L 197.892835 294.128591 
L 198.548505 294.130302 
L 199.204181 293.918121 
L 200.515527 294.3867 
L 201.826873 294.235182 
L 202.482548 294.54452 
L 203.138224 293.997009 
L 203.793894 293.122442 
L 204.44957 293.801719 
L 205.10524 294.012449 
L 205.760916 294.883117 
L 206.416586 293.892452 
L 207.072267 294.351337 
L 209.039278 295.026574 
L 209.694959 294.945508 
L 210.350629 293.443649 
L 211.0063 295.103022 
L 211.661981 294.227431 
L 212.317651 295.296706 
L 212.973322 295.393584 
L 213.629002 295.067336 
L 214.940343 295.520394 
L 215.596014 295.497191 
L 216.251694 294.528937 
L 217.563035 295.770615 
L 218.218716 295.681875 
L 220.841408 295.859344 
L 221.497078 295.484492 
L 222.152749 296.049587 
L 222.808429 296.097796 
L 223.4641 295.482198 
L 224.11977 295.614353 
L 225.431121 296.273459 
L 226.086792 296.006021 
L 226.742472 295.877447 
L 227.398143 296.337483 
L 228.053813 295.745449 
L 228.709484 296.242264 
L 229.365164 296.098562 
L 230.020835 296.140444 
L 230.676505 296.582096 
L 231.332186 296.28888 
L 231.987856 296.724962 
L 232.643527 296.513663 
L 233.299197 296.493783 
L 233.954878 295.652799 
L 234.610548 296.348598 
L 235.266219 296.85767 
L 236.57757 296.918233 
L 237.888921 296.375369 
L 238.544591 296.785798 
L 239.200262 296.989978 
L 240.511613 297.098393 
L 241.167283 295.818479 
L 241.822954 297.189357 
L 242.478634 297.058198 
L 243.134305 296.686419 
L 243.789975 296.790914 
L 244.445656 295.967816 
L 245.101326 296.987797 
L 245.756997 294.62983 
L 246.412668 297.346589 
L 247.068348 297.322203 
L 247.724019 297.037661 
L 249.03537 297.328806 
L 249.69104 297.485675 
L 252.969403 297.546808 
L 253.625083 297.214617 
L 254.280754 297.610219 
L 254.936424 297.69575 
L 255.592105 297.335722 
L 256.903446 297.760422 
L 257.559116 292.872193 
L 258.214797 297.154554 
L 258.870467 297.857063 
L 260.181818 297.912976 
L 260.837499 296.611959 
L 261.493169 297.514076 
L 262.14884 297.977695 
L 262.80452 297.972491 
L 263.460191 297.534807 
L 264.115861 298.012874 
L 264.771532 297.956545 
L 265.427212 298.04366 
L 266.082883 297.920662 
L 268.049904 298.065411 
L 268.705575 297.876364 
L 269.361255 297.138041 
L 270.016926 297.70016 
L 270.672596 298.09793 
L 271.983947 298.260225 
L 272.639618 298.277298 
L 273.295288 297.861744 
L 273.950969 298.274948 
L 274.606639 298.360862 
L 275.26231 297.845594 
L 275.91798 298.192333 
L 276.573661 298.396103 
L 277.229331 298.249317 
L 278.540682 298.488901 
L 279.852023 298.30395 
L 280.507704 298.491451 
L 281.819045 298.33155 
L 282.474715 298.130368 
L 283.130396 298.535937 
L 283.786067 297.130941 
L 284.441737 298.481328 
L 285.097418 298.383386 
L 285.753088 298.617375 
L 286.408759 298.252049 
L 287.064439 298.615986 
L 287.72011 298.708818 
L 288.37578 298.082638 
L 289.031451 298.696602 
L 291.654163 298.810428 
L 292.965484 298.026001 
L 293.621164 298.63719 
L 294.932525 298.812624 
L 295.588186 298.792791 
L 296.243866 298.654657 
L 296.899527 298.843904 
L 297.555207 298.550481 
L 298.866568 298.824462 
L 299.522229 298.33395 
L 300.177889 298.496871 
L 300.83357 298.928917 
L 302.144931 298.998549 
L 302.800611 298.067577 
L 304.767613 298.969844 
L 305.423293 298.608845 
L 306.734634 299.066951 
L 307.390315 298.636376 
L 308.045975 298.892977 
L 308.701656 298.843648 
L 309.357336 298.649851 
L 310.013017 298.937606 
L 310.668677 297.84403 
L 311.324358 299.119046 
L 312.635699 299.001446 
L 313.291379 298.080888 
L 313.94706 299.050647 
L 314.60272 299.141495 
L 315.258401 298.949688 
L 315.914061 298.17322 
L 316.569742 298.880169 
L 317.225422 299.237892 
L 317.881083 299.210886 
L 318.536763 299.028611 
L 319.192424 299.213355 
L 319.848105 298.772198 
L 320.503785 298.057259 
L 321.159466 299.056192 
L 321.815126 299.209244 
L 323.126467 299.04191 
L 323.782148 299.108795 
L 324.437828 299.396876 
L 325.093509 299.136967 
L 326.40485 299.313313 
L 327.06051 299.072405 
L 327.716191 298.520907 
L 328.371871 299.354628 
L 329.027532 299.10365 
L 329.683212 299.342011 
L 331.650234 299.476791 
L 332.961575 298.686682 
L 333.617255 299.463585 
L 334.928596 299.309833 
L 335.584277 299.437531 
L 336.239957 298.308284 
L 336.895618 299.220115 
L 338.206959 299.512017 
L 338.862639 299.493548 
L 340.17398 299.247239 
L 340.829661 298.234816 
L 341.485321 299.499002 
L 342.796682 299.52081 
L 343.452363 299.377297 
L 344.108023 299.580566 
L 344.763704 299.360061 
L 346.075045 299.601867 
L 352.63177 299.595195 
L 353.28745 299.108441 
L 353.943131 299.596951 
L 354.598811 299.530748 
L 355.910153 299.661598 
L 356.565813 299.67899 
L 357.221494 299.113852 
L 357.877174 299.670867 
L 358.532855 299.290053 
L 359.188515 299.706471 
L 359.844196 299.620805 
L 360.499856 299.661648 
L 361.155537 298.547346 
L 361.811217 299.624404 
L 363.778239 299.695131 
L 364.433899 298.976118 
L 365.08958 298.783745 
L 365.74526 299.634458 
L 367.056601 299.830793 
L 367.712262 299.704784 
L 368.367942 299.387745 
L 369.023623 299.787249 
L 370.334964 299.826606 
L 370.990644 299.189633 
L 371.646305 299.840822 
L 372.301985 299.575825 
L 372.957666 298.936139 
L 373.613326 299.790047 
L 374.269007 299.487543 
L 374.924687 299.855511 
L 376.891709 299.786818 
L 377.547369 297.868203 
L 378.20305 298.581824 
L 378.85873 299.815428 
L 380.170071 299.816577 
L 380.825752 297.819609 
L 381.481412 299.800229 
L 382.137093 299.479682 
L 382.792753 299.949939 
L 384.104114 299.74548 
L 384.759775 299.013378 
L 385.415455 300.035029 
L 386.071136 298.950846 
L 386.726796 298.561099 
L 387.382477 299.588592 
L 388.038157 299.947601 
L 388.693818 299.780841 
L 390.005179 299.935291 
L 390.66084 299.373009 
L 391.31652 299.593221 
L 391.972201 299.461179 
L 392.627861 299.929542 
L 393.283542 299.695068 
L 393.939202 299.932856 
L 395.250563 300.015662 
L 395.906224 299.932243 
L 396.561904 299.610638 
L 397.217585 299.674337 
L 397.873245 298.527297 
L 398.528926 299.229803 
L 398.528926 299.229803 
" clip-path="url(#p8b4d8f9500)" style="fill: none; stroke: #ff7f0e; stroke-width: 1.5; stroke-linecap: square"/>
   </g>
   <g id="line2d_27"/>
   <g id="patch_3">
    <path d="M 108 338.4 
L 108 86.4 
" style="fill: none; stroke: #000000; stroke-width: 0.8; stroke-linejoin: miter; stroke-linecap: square"/>
   </g>
   <g id="patch_4">
    <path d="M 412.363636 338.4 
L 412.363636 86.4 
" style="fill: none; stroke: #000000; stroke-width: 0.8; stroke-linejoin: miter; stroke-linecap: square"/>
   </g>
   <g id="patch_5">
    <path d="M 108 338.4 
L 412.363636 338.4 
" style="fill: none; stroke: #000000; stroke-width: 0.8; stroke-linejoin: miter; stroke-linecap: square"/>
   </g>
   <g id="patch_6">
    <path d="M 108 86.4 
L 412.363636 86.4 
" style="fill: none; stroke: #000000; stroke-width: 0.8; stroke-linejoin: miter; stroke-linecap: square"/>
   </g>
   <g id="legend_1">
    <g id="patch_7">
     <path d="M 270.265199 138.434375 
L 405.363636 138.434375 
Q 407.363636 138.434375 407.363636 136.434375 
L 407.363636 93.4 
Q 407.363636 91.4 405.363636 91.4 
L 270.265199 91.4 
Q 268.265199 91.4 268.265199 93.4 
L 268.265199 136.434375 
Q 268.265199 138.434375 270.265199 138.434375 
z
" style="fill: #ffffff; opacity: 0.8; stroke: #cccccc; stroke-linejoin: miter"/>
    </g>
    <g id="line2d_28">
     <path d="M 272.265199 99.498438 
L 282.265199 99.498438 
L 292.265199 99.498438 
" style="fill: none; stroke: #1f77b4; stroke-width: 1.5; stroke-linecap: square"/>
    </g>
    <g id="text_15">
     <!-- Training loss -->
     <g transform="translate(300.265199 102.998438) scale(0.1 -0.1)">
      <defs>
       <path id="DejaVuSans-54" d="M -19 4666 
L 3928 4666 
L 3928 4134 
L 2272 4134 
L 2272 0 
L 1638 0 
L 1638 4134 
L -19 4134 
L -19 4666 
z
" transform="scale(0.015625)"/>
       <path id="DejaVuSans-72" d="M 2631 2963 
Q 2534 3019 2420 3045 
Q 2306 3072 2169 3072 
Q 1681 3072 1420 2755 
Q 1159 2438 1159 1844 
L 1159 0 
L 581 0 
L 581 3500 
L 1159 3500 
L 1159 2956 
Q 1341 3275 1631 3429 
Q 1922 3584 2338 3584 
Q 2397 3584 2469 3576 
Q 2541 3569 2628 3553 
L 2631 2963 
z
" transform="scale(0.015625)"/>
       <path id="DejaVuSans-61" d="M 2194 1759 
Q 1497 1759 1228 1600 
Q 959 1441 959 1056 
Q 959 750 1161 570 
Q 1363 391 1709 391 
Q 2188 391 2477 730 
Q 2766 1069 2766 1631 
L 2766 1759 
L 2194 1759 
z
M 3341 1997 
L 3341 0 
L 2766 0 
L 2766 531 
Q 2569 213 2275 61 
Q 1981 -91 1556 -91 
Q 1019 -91 701 211 
Q 384 513 384 1019 
Q 384 1609 779 1909 
Q 1175 2209 1959 2209 
L 2766 2209 
L 2766 2266 
Q 2766 2663 2505 2880 
Q 2244 3097 1772 3097 
Q 1472 3097 1187 3025 
Q 903 2953 641 2809 
L 641 3341 
Q 956 3463 1253 3523 
Q 1550 3584 1831 3584 
Q 2591 3584 2966 3190 
Q 3341 2797 3341 1997 
z
" transform="scale(0.015625)"/>
       <path id="DejaVuSans-69" d="M 603 3500 
L 1178 3500 
L 1178 0 
L 603 0 
L 603 3500 
z
M 603 4863 
L 1178 4863 
L 1178 4134 
L 603 4134 
L 603 4863 
z
" transform="scale(0.015625)"/>
       <path id="DejaVuSans-6e" d="M 3513 2113 
L 3513 0 
L 2938 0 
L 2938 2094 
Q 2938 2591 2744 2837 
Q 2550 3084 2163 3084 
Q 1697 3084 1428 2787 
Q 1159 2491 1159 1978 
L 1159 0 
L 581 0 
L 581 3500 
L 1159 3500 
L 1159 2956 
Q 1366 3272 1645 3428 
Q 1925 3584 2291 3584 
Q 2894 3584 3203 3211 
Q 3513 2838 3513 2113 
z
" transform="scale(0.015625)"/>
       <path id="DejaVuSans-67" d="M 2906 1791 
Q 2906 2416 2648 2759 
Q 2391 3103 1925 3103 
Q 1463 3103 1205 2759 
Q 947 2416 947 1791 
Q 947 1169 1205 825 
Q 1463 481 1925 481 
Q 2391 481 2648 825 
Q 2906 1169 2906 1791 
z
M 3481 434 
Q 3481 -459 3084 -895 
Q 2688 -1331 1869 -1331 
Q 1566 -1331 1297 -1286 
Q 1028 -1241 775 -1147 
L 775 -588 
Q 1028 -725 1275 -790 
Q 1522 -856 1778 -856 
Q 2344 -856 2625 -561 
Q 2906 -266 2906 331 
L 2906 616 
Q 2728 306 2450 153 
Q 2172 0 1784 0 
Q 1141 0 747 490 
Q 353 981 353 1791 
Q 353 2603 747 3093 
Q 1141 3584 1784 3584 
Q 2172 3584 2450 3431 
Q 2728 3278 2906 2969 
L 2906 3500 
L 3481 3500 
L 3481 434 
z
" transform="scale(0.015625)"/>
       <path id="DejaVuSans-20" transform="scale(0.015625)"/>
       <path id="DejaVuSans-6c" d="M 603 4863 
L 1178 4863 
L 1178 0 
L 603 0 
L 603 4863 
z
" transform="scale(0.015625)"/>
      </defs>
      <use xlink:href="#DejaVuSans-54"/>
      <use xlink:href="#DejaVuSans-72" x="46.333984"/>
      <use xlink:href="#DejaVuSans-61" x="87.447266"/>
      <use xlink:href="#DejaVuSans-69" x="148.726562"/>
      <use xlink:href="#DejaVuSans-6e" x="176.509766"/>
      <use xlink:href="#DejaVuSans-69" x="239.888672"/>
      <use xlink:href="#DejaVuSans-6e" x="267.671875"/>
      <use xlink:href="#DejaVuSans-67" x="331.050781"/>
      <use xlink:href="#DejaVuSans-20" x="394.527344"/>
      <use xlink:href="#DejaVuSans-6c" x="426.314453"/>
      <use xlink:href="#DejaVuSans-6f" x="454.097656"/>
      <use xlink:href="#DejaVuSans-73" x="515.279297"/>
      <use xlink:href="#DejaVuSans-73" x="567.378906"/>
     </g>
    </g>
    <g id="line2d_29">
     <path d="M 272.265199 114.176563 
L 282.265199 114.176563 
L 292.265199 114.176563 
" style="fill: none; stroke: #ff7f0e; stroke-width: 1.5; stroke-linecap: square"/>
    </g>
    <g id="text_16">
     <!-- Validation loss -->
     <g transform="translate(300.265199 117.676563) scale(0.1 -0.1)">
      <defs>
       <path id="DejaVuSans-56" d="M 1831 0 
L 50 4666 
L 709 4666 
L 2188 738 
L 3669 4666 
L 4325 4666 
L 2547 0 
L 1831 0 
z
" transform="scale(0.015625)"/>
       <path id="DejaVuSans-64" d="M 2906 2969 
L 2906 4863 
L 3481 4863 
L 3481 0 
L 2906 0 
L 2906 525 
Q 2725 213 2448 61 
Q 2172 -91 1784 -91 
Q 1150 -91 751 415 
Q 353 922 353 1747 
Q 353 2572 751 3078 
Q 1150 3584 1784 3584 
Q 2172 3584 2448 3432 
Q 2725 3281 2906 2969 
z
M 947 1747 
Q 947 1113 1208 752 
Q 1469 391 1925 391 
Q 2381 391 2643 752 
Q 2906 1113 2906 1747 
Q 2906 2381 2643 2742 
Q 2381 3103 1925 3103 
Q 1469 3103 1208 2742 
Q 947 2381 947 1747 
z
" transform="scale(0.015625)"/>
       <path id="DejaVuSans-74" d="M 1172 4494 
L 1172 3500 
L 2356 3500 
L 2356 3053 
L 1172 3053 
L 1172 1153 
Q 1172 725 1289 603 
Q 1406 481 1766 481 
L 2356 481 
L 2356 0 
L 1766 0 
Q 1100 0 847 248 
Q 594 497 594 1153 
L 594 3053 
L 172 3053 
L 172 3500 
L 594 3500 
L 594 4494 
L 1172 4494 
z
" transform="scale(0.015625)"/>
      </defs>
      <use xlink:href="#DejaVuSans-56"/>
      <use xlink:href="#DejaVuSans-61" x="60.658203"/>
      <use xlink:href="#DejaVuSans-6c" x="121.9375"/>
      <use xlink:href="#DejaVuSans-69" x="149.720703"/>
      <use xlink:href="#DejaVuSans-64" x="177.503906"/>
      <use xlink:href="#DejaVuSans-61" x="240.980469"/>
      <use xlink:href="#DejaVuSans-74" x="302.259766"/>
      <use xlink:href="#DejaVuSans-69" x="341.46875"/>
      <use xlink:href="#DejaVuSans-6f" x="369.251953"/>
      <use xlink:href="#DejaVuSans-6e" x="430.433594"/>
      <use xlink:href="#DejaVuSans-20" x="493.8125"/>
      <use xlink:href="#DejaVuSans-6c" x="525.599609"/>
      <use xlink:href="#DejaVuSans-6f" x="553.382812"/>
      <use xlink:href="#DejaVuSans-73" x="614.564453"/>
      <use xlink:href="#DejaVuSans-73" x="666.664062"/>
     </g>
    </g>
    <g id="line2d_30">
     <path d="M 272.265199 128.854688 
L 282.265199 128.854688 
L 292.265199 128.854688 
" style="fill: none; stroke: #ff0000; stroke-width: 1.5; stroke-linecap: square"/>
    </g>
    <g id="text_17">
     <!-- Final test loss: 0.052 -->
     <g transform="translate(300.265199 132.354688) scale(0.1 -0.1)">
      <defs>
       <path id="DejaVuSans-46" d="M 628 4666 
L 3309 4666 
L 3309 4134 
L 1259 4134 
L 1259 2759 
L 3109 2759 
L 3109 2228 
L 1259 2228 
L 1259 0 
L 628 0 
L 628 4666 
z
" transform="scale(0.015625)"/>
       <path id="DejaVuSans-65" d="M 3597 1894 
L 3597 1613 
L 953 1613 
Q 991 1019 1311 708 
Q 1631 397 2203 397 
Q 2534 397 2845 478 
Q 3156 559 3463 722 
L 3463 178 
Q 3153 47 2828 -22 
Q 2503 -91 2169 -91 
Q 1331 -91 842 396 
Q 353 884 353 1716 
Q 353 2575 817 3079 
Q 1281 3584 2069 3584 
Q 2775 3584 3186 3129 
Q 3597 2675 3597 1894 
z
M 3022 2063 
Q 3016 2534 2758 2815 
Q 2500 3097 2075 3097 
Q 1594 3097 1305 2825 
Q 1016 2553 972 2059 
L 3022 2063 
z
" transform="scale(0.015625)"/>
       <path id="DejaVuSans-3a" d="M 750 794 
L 1409 794 
L 1409 0 
L 750 0 
L 750 794 
z
M 750 3309 
L 1409 3309 
L 1409 2516 
L 750 2516 
L 750 3309 
z
" transform="scale(0.015625)"/>
      </defs>
      <use xlink:href="#DejaVuSans-46"/>
      <use xlink:href="#DejaVuSans-69" x="50.269531"/>
      <use xlink:href="#DejaVuSans-6e" x="78.052734"/>
      <use xlink:href="#DejaVuSans-61" x="141.431641"/>
      <use xlink:href="#DejaVuSans-6c" x="202.710938"/>
      <use xlink:href="#DejaVuSans-20" x="230.494141"/>
      <use xlink:href="#DejaVuSans-74" x="262.28125"/>
      <use xlink:href="#DejaVuSans-65" x="301.490234"/>
      <use xlink:href="#DejaVuSans-73" x="363.013672"/>
      <use xlink:href="#DejaVuSans-74" x="415.113281"/>
      <use xlink:href="#DejaVuSans-20" x="454.322266"/>
      <use xlink:href="#DejaVuSans-6c" x="486.109375"/>
      <use xlink:href="#DejaVuSans-6f" x="513.892578"/>
      <use xlink:href="#DejaVuSans-73" x="575.074219"/>
      <use xlink:href="#DejaVuSans-73" x="627.173828"/>
      <use xlink:href="#DejaVuSans-3a" x="679.273438"/>
      <use xlink:href="#DejaVuSans-20" x="712.964844"/>
      <use xlink:href="#DejaVuSans-30" x="744.751953"/>
      <use xlink:href="#DejaVuSans-2e" x="808.375"/>
      <use xlink:href="#DejaVuSans-30" x="840.162109"/>
      <use xlink:href="#DejaVuSans-35" x="903.785156"/>
      <use xlink:href="#DejaVuSans-32" x="967.408203"/>
     </g>
    </g>
   </g>
  </g>
  <g id="axes_2">
   <g id="patch_8">
    <path d="M 473.236364 338.4 
L 777.6 338.4 
L 777.6 86.4 
L 473.236364 86.4 
z
" style="fill: #ffffff"/>
   </g>
   <g id="patch_9">
    <path d="M 483.381818 338.4 
L 564.545455 338.4 
L 564.545455 98.4 
L 483.381818 98.4 
z
" clip-path="url(#pf4a31e1c54)" style="fill: #2ca02c; opacity: 0.6; stroke: #000000; stroke-linejoin: miter"/>
   </g>
   <g id="patch_10">
    <path d="M 584.836364 338.4 
L 666 338.4 
L 666 336.572589 
L 584.836364 336.572589 
z
" clip-path="url(#pf4a31e1c54)" style="fill: #ff0000; opacity: 0.6; stroke: #000000; stroke-linejoin: miter"/>
   </g>
   <g id="patch_11">
    <path d="M 686.290909 338.4 
L 767.454545 338.4 
L 767.454545 336.369543 
L 686.290909 336.369543 
z
" clip-path="url(#pf4a31e1c54)" style="fill: #ff0000; opacity: 0.6; stroke: #000000; stroke-linejoin: miter"/>
   </g>
   <g id="matplotlib.axis_3">
    <g id="xtick_6">
     <g id="line2d_31">
      <g>
       <use xlink:href="#m77a71fef4f" x="523.963636" y="338.4" style="stroke: #000000; stroke-width: 0.8"/>
      </g>
     </g>
     <g id="text_18">
      <!-- Correct -->
      <g transform="translate(498.416918 356.037812) scale(0.14 -0.14)">
       <defs>
        <path id="DejaVuSans-43" d="M 4122 4306 
L 4122 3641 
Q 3803 3938 3442 4084 
Q 3081 4231 2675 4231 
Q 1875 4231 1450 3742 
Q 1025 3253 1025 2328 
Q 1025 1406 1450 917 
Q 1875 428 2675 428 
Q 3081 428 3442 575 
Q 3803 722 4122 1019 
L 4122 359 
Q 3791 134 3420 21 
Q 3050 -91 2638 -91 
Q 1578 -91 968 557 
Q 359 1206 359 2328 
Q 359 3453 968 4101 
Q 1578 4750 2638 4750 
Q 3056 4750 3426 4639 
Q 3797 4528 4122 4306 
z
" transform="scale(0.015625)"/>
       </defs>
       <use xlink:href="#DejaVuSans-43"/>
       <use xlink:href="#DejaVuSans-6f" x="69.824219"/>
       <use xlink:href="#DejaVuSans-72" x="131.005859"/>
       <use xlink:href="#DejaVuSans-72" x="170.369141"/>
       <use xlink:href="#DejaVuSans-65" x="209.232422"/>
       <use xlink:href="#DejaVuSans-63" x="270.755859"/>
       <use xlink:href="#DejaVuSans-74" x="325.736328"/>
      </g>
     </g>
    </g>
    <g id="xtick_7">
     <g id="line2d_32">
      <g>
       <use xlink:href="#m77a71fef4f" x="625.418182" y="338.4" style="stroke: #000000; stroke-width: 0.8"/>
      </g>
     </g>
     <g id="text_19">
      <!-- False -->
      <g transform="translate(607.842713 356.037812) scale(0.14 -0.14)">
       <use xlink:href="#DejaVuSans-46"/>
       <use xlink:href="#DejaVuSans-61" x="48.394531"/>
       <use xlink:href="#DejaVuSans-6c" x="109.673828"/>
       <use xlink:href="#DejaVuSans-73" x="137.457031"/>
       <use xlink:href="#DejaVuSans-65" x="189.556641"/>
      </g>
      <!-- Positive -->
      <g transform="translate(598.437557 371.71475) scale(0.14 -0.14)">
       <defs>
        <path id="DejaVuSans-50" d="M 1259 4147 
L 1259 2394 
L 2053 2394 
Q 2494 2394 2734 2622 
Q 2975 2850 2975 3272 
Q 2975 3691 2734 3919 
Q 2494 4147 2053 4147 
L 1259 4147 
z
M 628 4666 
L 2053 4666 
Q 2838 4666 3239 4311 
Q 3641 3956 3641 3272 
Q 3641 2581 3239 2228 
Q 2838 1875 2053 1875 
L 1259 1875 
L 1259 0 
L 628 0 
L 628 4666 
z
" transform="scale(0.015625)"/>
        <path id="DejaVuSans-76" d="M 191 3500 
L 800 3500 
L 1894 563 
L 2988 3500 
L 3597 3500 
L 2284 0 
L 1503 0 
L 191 3500 
z
" transform="scale(0.015625)"/>
       </defs>
       <use xlink:href="#DejaVuSans-50"/>
       <use xlink:href="#DejaVuSans-6f" x="56.677734"/>
       <use xlink:href="#DejaVuSans-73" x="117.859375"/>
       <use xlink:href="#DejaVuSans-69" x="169.958984"/>
       <use xlink:href="#DejaVuSans-74" x="197.742188"/>
       <use xlink:href="#DejaVuSans-69" x="236.951172"/>
       <use xlink:href="#DejaVuSans-76" x="264.734375"/>
       <use xlink:href="#DejaVuSans-65" x="323.914062"/>
      </g>
     </g>
    </g>
    <g id="xtick_8">
     <g id="line2d_33">
      <g>
       <use xlink:href="#m77a71fef4f" x="726.872727" y="338.4" style="stroke: #000000; stroke-width: 0.8"/>
      </g>
     </g>
     <g id="text_20">
      <!-- False -->
      <g transform="translate(709.297259 356.037812) scale(0.14 -0.14)">
       <use xlink:href="#DejaVuSans-46"/>
       <use xlink:href="#DejaVuSans-61" x="48.394531"/>
       <use xlink:href="#DejaVuSans-6c" x="109.673828"/>
       <use xlink:href="#DejaVuSans-73" x="137.457031"/>
       <use xlink:href="#DejaVuSans-65" x="189.556641"/>
      </g>
      <!-- Negative -->
      <g transform="translate(695.455852 371.71475) scale(0.14 -0.14)">
       <defs>
        <path id="DejaVuSans-4e" d="M 628 4666 
L 1478 4666 
L 3547 763 
L 3547 4666 
L 4159 4666 
L 4159 0 
L 3309 0 
L 1241 3903 
L 1241 0 
L 628 0 
L 628 4666 
z
" transform="scale(0.015625)"/>
       </defs>
       <use xlink:href="#DejaVuSans-4e"/>
       <use xlink:href="#DejaVuSans-65" x="74.804688"/>
       <use xlink:href="#DejaVuSans-67" x="136.328125"/>
       <use xlink:href="#DejaVuSans-61" x="199.804688"/>
       <use xlink:href="#DejaVuSans-74" x="261.083984"/>
       <use xlink:href="#DejaVuSans-69" x="300.292969"/>
       <use xlink:href="#DejaVuSans-76" x="328.076172"/>
       <use xlink:href="#DejaVuSans-65" x="387.255859"/>
      </g>
     </g>
    </g>
   </g>
   <g id="matplotlib.axis_4">
    <g id="ytick_8">
     <g id="line2d_34">
      <g>
       <use xlink:href="#mb61cbad6fa" x="473.236364" y="338.4" style="stroke: #000000; stroke-width: 0.8"/>
      </g>
     </g>
     <g id="text_21">
      <!-- 0.0 -->
      <g transform="translate(450.333239 342.199219) scale(0.1 -0.1)">
       <use xlink:href="#DejaVuSans-30"/>
       <use xlink:href="#DejaVuSans-2e" x="63.623047"/>
       <use xlink:href="#DejaVuSans-30" x="95.410156"/>
      </g>
     </g>
    </g>
    <g id="ytick_9">
     <g id="line2d_35">
      <g>
       <use xlink:href="#mb61cbad6fa" x="473.236364" y="289.628426" style="stroke: #000000; stroke-width: 0.8"/>
      </g>
     </g>
     <g id="text_22">
      <!-- 0.2 -->
      <g transform="translate(450.333239 293.427645) scale(0.1 -0.1)">
       <use xlink:href="#DejaVuSans-30"/>
       <use xlink:href="#DejaVuSans-2e" x="63.623047"/>
       <use xlink:href="#DejaVuSans-32" x="95.410156"/>
      </g>
     </g>
    </g>
    <g id="ytick_10">
     <g id="line2d_36">
      <g>
       <use xlink:href="#mb61cbad6fa" x="473.236364" y="240.856853" style="stroke: #000000; stroke-width: 0.8"/>
      </g>
     </g>
     <g id="text_23">
      <!-- 0.4 -->
      <g transform="translate(450.333239 244.656072) scale(0.1 -0.1)">
       <use xlink:href="#DejaVuSans-30"/>
       <use xlink:href="#DejaVuSans-2e" x="63.623047"/>
       <use xlink:href="#DejaVuSans-34" x="95.410156"/>
      </g>
     </g>
    </g>
    <g id="ytick_11">
     <g id="line2d_37">
      <g>
       <use xlink:href="#mb61cbad6fa" x="473.236364" y="192.085279" style="stroke: #000000; stroke-width: 0.8"/>
      </g>
     </g>
     <g id="text_24">
      <!-- 0.6 -->
      <g transform="translate(450.333239 195.884498) scale(0.1 -0.1)">
       <defs>
        <path id="DejaVuSans-36" d="M 2113 2584 
Q 1688 2584 1439 2293 
Q 1191 2003 1191 1497 
Q 1191 994 1439 701 
Q 1688 409 2113 409 
Q 2538 409 2786 701 
Q 3034 994 3034 1497 
Q 3034 2003 2786 2293 
Q 2538 2584 2113 2584 
z
M 3366 4563 
L 3366 3988 
Q 3128 4100 2886 4159 
Q 2644 4219 2406 4219 
Q 1781 4219 1451 3797 
Q 1122 3375 1075 2522 
Q 1259 2794 1537 2939 
Q 1816 3084 2150 3084 
Q 2853 3084 3261 2657 
Q 3669 2231 3669 1497 
Q 3669 778 3244 343 
Q 2819 -91 2113 -91 
Q 1303 -91 875 529 
Q 447 1150 447 2328 
Q 447 3434 972 4092 
Q 1497 4750 2381 4750 
Q 2619 4750 2861 4703 
Q 3103 4656 3366 4563 
z
" transform="scale(0.015625)"/>
       </defs>
       <use xlink:href="#DejaVuSans-30"/>
       <use xlink:href="#DejaVuSans-2e" x="63.623047"/>
       <use xlink:href="#DejaVuSans-36" x="95.410156"/>
      </g>
     </g>
    </g>
    <g id="ytick_12">
     <g id="line2d_38">
      <g>
       <use xlink:href="#mb61cbad6fa" x="473.236364" y="143.313706" style="stroke: #000000; stroke-width: 0.8"/>
      </g>
     </g>
     <g id="text_25">
      <!-- 0.8 -->
      <g transform="translate(450.333239 147.112924) scale(0.1 -0.1)">
       <defs>
        <path id="DejaVuSans-38" d="M 2034 2216 
Q 1584 2216 1326 1975 
Q 1069 1734 1069 1313 
Q 1069 891 1326 650 
Q 1584 409 2034 409 
Q 2484 409 2743 651 
Q 3003 894 3003 1313 
Q 3003 1734 2745 1975 
Q 2488 2216 2034 2216 
z
M 1403 2484 
Q 997 2584 770 2862 
Q 544 3141 544 3541 
Q 544 4100 942 4425 
Q 1341 4750 2034 4750 
Q 2731 4750 3128 4425 
Q 3525 4100 3525 3541 
Q 3525 3141 3298 2862 
Q 3072 2584 2669 2484 
Q 3125 2378 3379 2068 
Q 3634 1759 3634 1313 
Q 3634 634 3220 271 
Q 2806 -91 2034 -91 
Q 1263 -91 848 271 
Q 434 634 434 1313 
Q 434 1759 690 2068 
Q 947 2378 1403 2484 
z
M 1172 3481 
Q 1172 3119 1398 2916 
Q 1625 2713 2034 2713 
Q 2441 2713 2670 2916 
Q 2900 3119 2900 3481 
Q 2900 3844 2670 4047 
Q 2441 4250 2034 4250 
Q 1625 4250 1398 4047 
Q 1172 3844 1172 3481 
z
" transform="scale(0.015625)"/>
       </defs>
       <use xlink:href="#DejaVuSans-30"/>
       <use xlink:href="#DejaVuSans-2e" x="63.623047"/>
       <use xlink:href="#DejaVuSans-38" x="95.410156"/>
      </g>
     </g>
    </g>
    <g id="ytick_13">
     <g id="line2d_39">
      <g>
       <use xlink:href="#mb61cbad6fa" x="473.236364" y="94.542132" style="stroke: #000000; stroke-width: 0.8"/>
      </g>
     </g>
     <g id="text_26">
      <!-- 1.0 -->
      <g transform="translate(450.333239 98.341351) scale(0.1 -0.1)">
       <use xlink:href="#DejaVuSans-31"/>
       <use xlink:href="#DejaVuSans-2e" x="63.623047"/>
       <use xlink:href="#DejaVuSans-30" x="95.410156"/>
      </g>
     </g>
    </g>
   </g>
   <g id="patch_12">
    <path d="M 473.236364 338.4 
L 473.236364 86.4 
" style="fill: none; stroke: #000000; stroke-width: 0.8; stroke-linejoin: miter; stroke-linecap: square"/>
   </g>
   <g id="patch_13">
    <path d="M 777.6 338.4 
L 777.6 86.4 
" style="fill: none; stroke: #000000; stroke-width: 0.8; stroke-linejoin: miter; stroke-linecap: square"/>
   </g>
   <g id="patch_14">
    <path d="M 473.236364 338.4 
L 777.6 338.4 
" style="fill: none; stroke: #000000; stroke-width: 0.8; stroke-linejoin: miter; stroke-linecap: square"/>
   </g>
   <g id="patch_15">
    <path d="M 473.236364 86.4 
L 777.6 86.4 
" style="fill: none; stroke: #000000; stroke-width: 0.8; stroke-linejoin: miter; stroke-linecap: square"/>
   </g>
   <g id="text_27">
    <!-- 98.42% -->
    <g transform="translate(501.085824 289.628426) scale(0.12 -0.12)">
     <defs>
      <path id="DejaVuSans-39" d="M 703 97 
L 703 672 
Q 941 559 1184 500 
Q 1428 441 1663 441 
Q 2288 441 2617 861 
Q 2947 1281 2994 2138 
Q 2813 1869 2534 1725 
Q 2256 1581 1919 1581 
Q 1219 1581 811 2004 
Q 403 2428 403 3163 
Q 403 3881 828 4315 
Q 1253 4750 1959 4750 
Q 2769 4750 3195 4129 
Q 3622 3509 3622 2328 
Q 3622 1225 3098 567 
Q 2575 -91 1691 -91 
Q 1453 -91 1209 -44 
Q 966 3 703 97 
z
M 1959 2075 
Q 2384 2075 2632 2365 
Q 2881 2656 2881 3163 
Q 2881 3666 2632 3958 
Q 2384 4250 1959 4250 
Q 1534 4250 1286 3958 
Q 1038 3666 1038 3163 
Q 1038 2656 1286 2365 
Q 1534 2075 1959 2075 
z
" transform="scale(0.015625)"/>
      <path id="DejaVuSans-25" d="M 4653 2053 
Q 4381 2053 4226 1822 
Q 4072 1591 4072 1178 
Q 4072 772 4226 539 
Q 4381 306 4653 306 
Q 4919 306 5073 539 
Q 5228 772 5228 1178 
Q 5228 1588 5073 1820 
Q 4919 2053 4653 2053 
z
M 4653 2450 
Q 5147 2450 5437 2106 
Q 5728 1763 5728 1178 
Q 5728 594 5436 251 
Q 5144 -91 4653 -91 
Q 4153 -91 3862 251 
Q 3572 594 3572 1178 
Q 3572 1766 3864 2108 
Q 4156 2450 4653 2450 
z
M 1428 4353 
Q 1159 4353 1004 4120 
Q 850 3888 850 3481 
Q 850 3069 1003 2837 
Q 1156 2606 1428 2606 
Q 1700 2606 1854 2837 
Q 2009 3069 2009 3481 
Q 2009 3884 1853 4118 
Q 1697 4353 1428 4353 
z
M 4250 4750 
L 4750 4750 
L 1831 -91 
L 1331 -91 
L 4250 4750 
z
M 1428 4750 
Q 1922 4750 2215 4408 
Q 2509 4066 2509 3481 
Q 2509 2891 2217 2550 
Q 1925 2209 1428 2209 
Q 931 2209 642 2551 
Q 353 2894 353 3481 
Q 353 4063 643 4406 
Q 934 4750 1428 4750 
z
" transform="scale(0.015625)"/>
     </defs>
     <use xlink:href="#DejaVuSans-39"/>
     <use xlink:href="#DejaVuSans-38" x="63.623047"/>
     <use xlink:href="#DejaVuSans-2e" x="127.246094"/>
     <use xlink:href="#DejaVuSans-34" x="159.033203"/>
     <use xlink:href="#DejaVuSans-32" x="222.65625"/>
     <use xlink:href="#DejaVuSans-25" x="286.279297"/>
    </g>
   </g>
   <g id="text_28">
    <!-- 1182 -->
    <g transform="translate(508.693636 240.856853) scale(0.12 -0.12)">
     <use xlink:href="#DejaVuSans-31"/>
     <use xlink:href="#DejaVuSans-31" x="63.623047"/>
     <use xlink:href="#DejaVuSans-38" x="127.246094"/>
     <use xlink:href="#DejaVuSans-32" x="190.869141"/>
    </g>
   </g>
   <g id="text_29">
    <!-- 0.75% -->
    <g transform="translate(606.357869 289.628426) scale(0.12 -0.12)">
     <defs>
      <path id="DejaVuSans-37" d="M 525 4666 
L 3525 4666 
L 3525 4397 
L 1831 0 
L 1172 0 
L 2766 4134 
L 525 4134 
L 525 4666 
z
" transform="scale(0.015625)"/>
     </defs>
     <use xlink:href="#DejaVuSans-30"/>
     <use xlink:href="#DejaVuSans-2e" x="63.623047"/>
     <use xlink:href="#DejaVuSans-37" x="95.410156"/>
     <use xlink:href="#DejaVuSans-35" x="159.033203"/>
     <use xlink:href="#DejaVuSans-25" x="222.65625"/>
    </g>
   </g>
   <g id="text_30">
    <!-- 9 -->
    <g transform="translate(621.600682 240.856853) scale(0.12 -0.12)">
     <use xlink:href="#DejaVuSans-39"/>
    </g>
   </g>
   <g id="text_31">
    <!-- 0.83% -->
    <g transform="translate(707.812415 289.628426) scale(0.12 -0.12)">
     <use xlink:href="#DejaVuSans-30"/>
     <use xlink:href="#DejaVuSans-2e" x="63.623047"/>
     <use xlink:href="#DejaVuSans-38" x="95.410156"/>
     <use xlink:href="#DejaVuSans-33" x="159.033203"/>
     <use xlink:href="#DejaVuSans-25" x="222.65625"/>
    </g>
   </g>
   <g id="text_32">
    <!-- 10 -->
    <g transform="translate(719.237727 240.856853) scale(0.12 -0.12)">
     <use xlink:href="#DejaVuSans-31"/>
     <use xlink:href="#DejaVuSans-30" x="63.623047"/>
    </g>
   </g>
  </g>
  <g id="axes_3">
   <g id="patch_16">
    <path d="M 108 640.8 
L 412.363636 640.8 
L 412.363636 388.8 
L 108 388.8 
z
" style="fill: #ffffff"/>
   </g>
   <g id="matplotlib.axis_5">
    <g id="xtick_9">
     <g id="line2d_40">
      <path d="M 121.834711 640.8 
L 121.834711 388.8 
" clip-path="url(#p04ebba66c0)" style="fill: none; stroke: #b0b0b0; stroke-width: 0.8; stroke-linecap: square"/>
     </g>
     <g id="line2d_41">
      <g>
       <use xlink:href="#m77a71fef4f" x="121.834711" y="640.8" style="stroke: #000000; stroke-width: 0.8"/>
      </g>
     </g>
     <g id="text_33">
      <!-- 0 -->
      <g transform="translate(118.653461 655.398438) scale(0.1 -0.1)">
       <use xlink:href="#DejaVuSans-30"/>
      </g>
     </g>
    </g>
    <g id="xtick_10">
     <g id="line2d_42">
      <path d="M 160.264463 640.8 
L 160.264463 388.8 
" clip-path="url(#p04ebba66c0)" style="fill: none; stroke: #b0b0b0; stroke-width: 0.8; stroke-linecap: square"/>
     </g>
     <g id="line2d_43">
      <g>
       <use xlink:href="#m77a71fef4f" x="160.264463" y="640.8" style="stroke: #000000; stroke-width: 0.8"/>
      </g>
     </g>
     <g id="text_34">
      <!-- 10 -->
      <g transform="translate(153.901963 655.398438) scale(0.1 -0.1)">
       <use xlink:href="#DejaVuSans-31"/>
       <use xlink:href="#DejaVuSans-30" x="63.623047"/>
      </g>
     </g>
    </g>
    <g id="xtick_11">
     <g id="line2d_44">
      <path d="M 198.694215 640.8 
L 198.694215 388.8 
" clip-path="url(#p04ebba66c0)" style="fill: none; stroke: #b0b0b0; stroke-width: 0.8; stroke-linecap: square"/>
     </g>
     <g id="line2d_45">
      <g>
       <use xlink:href="#m77a71fef4f" x="198.694215" y="640.8" style="stroke: #000000; stroke-width: 0.8"/>
      </g>
     </g>
     <g id="text_35">
      <!-- 20 -->
      <g transform="translate(192.331715 655.398438) scale(0.1 -0.1)">
       <use xlink:href="#DejaVuSans-32"/>
       <use xlink:href="#DejaVuSans-30" x="63.623047"/>
      </g>
     </g>
    </g>
    <g id="xtick_12">
     <g id="line2d_46">
      <path d="M 237.123967 640.8 
L 237.123967 388.8 
" clip-path="url(#p04ebba66c0)" style="fill: none; stroke: #b0b0b0; stroke-width: 0.8; stroke-linecap: square"/>
     </g>
     <g id="line2d_47">
      <g>
       <use xlink:href="#m77a71fef4f" x="237.123967" y="640.8" style="stroke: #000000; stroke-width: 0.8"/>
      </g>
     </g>
     <g id="text_36">
      <!-- 30 -->
      <g transform="translate(230.761467 655.398438) scale(0.1 -0.1)">
       <use xlink:href="#DejaVuSans-33"/>
       <use xlink:href="#DejaVuSans-30" x="63.623047"/>
      </g>
     </g>
    </g>
    <g id="xtick_13">
     <g id="line2d_48">
      <path d="M 275.553719 640.8 
L 275.553719 388.8 
" clip-path="url(#p04ebba66c0)" style="fill: none; stroke: #b0b0b0; stroke-width: 0.8; stroke-linecap: square"/>
     </g>
     <g id="line2d_49">
      <g>
       <use xlink:href="#m77a71fef4f" x="275.553719" y="640.8" style="stroke: #000000; stroke-width: 0.8"/>
      </g>
     </g>
     <g id="text_37">
      <!-- 40 -->
      <g transform="translate(269.191219 655.398438) scale(0.1 -0.1)">
       <use xlink:href="#DejaVuSans-34"/>
       <use xlink:href="#DejaVuSans-30" x="63.623047"/>
      </g>
     </g>
    </g>
    <g id="xtick_14">
     <g id="line2d_50">
      <path d="M 313.983471 640.8 
L 313.983471 388.8 
" clip-path="url(#p04ebba66c0)" style="fill: none; stroke: #b0b0b0; stroke-width: 0.8; stroke-linecap: square"/>
     </g>
     <g id="line2d_51">
      <g>
       <use xlink:href="#m77a71fef4f" x="313.983471" y="640.8" style="stroke: #000000; stroke-width: 0.8"/>
      </g>
     </g>
     <g id="text_38">
      <!-- 50 -->
      <g transform="translate(307.620971 655.398438) scale(0.1 -0.1)">
       <use xlink:href="#DejaVuSans-35"/>
       <use xlink:href="#DejaVuSans-30" x="63.623047"/>
      </g>
     </g>
    </g>
    <g id="xtick_15">
     <g id="line2d_52">
      <path d="M 352.413223 640.8 
L 352.413223 388.8 
" clip-path="url(#p04ebba66c0)" style="fill: none; stroke: #b0b0b0; stroke-width: 0.8; stroke-linecap: square"/>
     </g>
     <g id="line2d_53">
      <g>
       <use xlink:href="#m77a71fef4f" x="352.413223" y="640.8" style="stroke: #000000; stroke-width: 0.8"/>
      </g>
     </g>
     <g id="text_39">
      <!-- 60 -->
      <g transform="translate(346.050723 655.398438) scale(0.1 -0.1)">
       <use xlink:href="#DejaVuSans-36"/>
       <use xlink:href="#DejaVuSans-30" x="63.623047"/>
      </g>
     </g>
    </g>
    <g id="xtick_16">
     <g id="line2d_54">
      <path d="M 390.842975 640.8 
L 390.842975 388.8 
" clip-path="url(#p04ebba66c0)" style="fill: none; stroke: #b0b0b0; stroke-width: 0.8; stroke-linecap: square"/>
     </g>
     <g id="line2d_55">
      <g>
       <use xlink:href="#m77a71fef4f" x="390.842975" y="640.8" style="stroke: #000000; stroke-width: 0.8"/>
      </g>
     </g>
     <g id="text_40">
      <!-- 70 -->
      <g transform="translate(384.480475 655.398438) scale(0.1 -0.1)">
       <use xlink:href="#DejaVuSans-37"/>
       <use xlink:href="#DejaVuSans-30" x="63.623047"/>
      </g>
     </g>
    </g>
    <g id="text_41">
     <!-- Epochs -->
     <g transform="translate(238.683068 670.59625) scale(0.12 -0.12)">
      <use xlink:href="#DejaVuSans-45"/>
      <use xlink:href="#DejaVuSans-70" x="63.183594"/>
      <use xlink:href="#DejaVuSans-6f" x="126.660156"/>
      <use xlink:href="#DejaVuSans-63" x="187.841797"/>
      <use xlink:href="#DejaVuSans-68" x="242.822266"/>
      <use xlink:href="#DejaVuSans-73" x="306.201172"/>
     </g>
    </g>
   </g>
   <g id="matplotlib.axis_6">
    <g id="ytick_14">
     <g id="line2d_56">
      <path d="M 108 640.8 
L 412.363636 640.8 
" clip-path="url(#p04ebba66c0)" style="fill: none; stroke: #b0b0b0; stroke-width: 0.8; stroke-linecap: square"/>
     </g>
     <g id="line2d_57">
      <g>
       <use xlink:href="#mb61cbad6fa" x="108" y="640.8" style="stroke: #000000; stroke-width: 0.8"/>
      </g>
     </g>
     <g id="text_42">
      <!-- 0.00 -->
      <g transform="translate(78.734375 644.599219) scale(0.1 -0.1)">
       <use xlink:href="#DejaVuSans-30"/>
       <use xlink:href="#DejaVuSans-2e" x="63.623047"/>
       <use xlink:href="#DejaVuSans-30" x="95.410156"/>
       <use xlink:href="#DejaVuSans-30" x="159.033203"/>
      </g>
     </g>
    </g>
    <g id="ytick_15">
     <g id="line2d_58">
      <path d="M 108 598.8 
L 412.363636 598.8 
" clip-path="url(#p04ebba66c0)" style="fill: none; stroke: #b0b0b0; stroke-width: 0.8; stroke-linecap: square"/>
     </g>
     <g id="line2d_59">
      <g>
       <use xlink:href="#mb61cbad6fa" x="108" y="598.8" style="stroke: #000000; stroke-width: 0.8"/>
      </g>
     </g>
     <g id="text_43">
      <!-- 0.05 -->
      <g transform="translate(78.734375 602.599219) scale(0.1 -0.1)">
       <use xlink:href="#DejaVuSans-30"/>
       <use xlink:href="#DejaVuSans-2e" x="63.623047"/>
       <use xlink:href="#DejaVuSans-30" x="95.410156"/>
       <use xlink:href="#DejaVuSans-35" x="159.033203"/>
      </g>
     </g>
    </g>
    <g id="ytick_16">
     <g id="line2d_60">
      <path d="M 108 556.8 
L 412.363636 556.8 
" clip-path="url(#p04ebba66c0)" style="fill: none; stroke: #b0b0b0; stroke-width: 0.8; stroke-linecap: square"/>
     </g>
     <g id="line2d_61">
      <g>
       <use xlink:href="#mb61cbad6fa" x="108" y="556.8" style="stroke: #000000; stroke-width: 0.8"/>
      </g>
     </g>
     <g id="text_44">
      <!-- 0.10 -->
      <g transform="translate(78.734375 560.599219) scale(0.1 -0.1)">
       <use xlink:href="#DejaVuSans-30"/>
       <use xlink:href="#DejaVuSans-2e" x="63.623047"/>
       <use xlink:href="#DejaVuSans-31" x="95.410156"/>
       <use xlink:href="#DejaVuSans-30" x="159.033203"/>
      </g>
     </g>
    </g>
    <g id="ytick_17">
     <g id="line2d_62">
      <path d="M 108 514.8 
L 412.363636 514.8 
" clip-path="url(#p04ebba66c0)" style="fill: none; stroke: #b0b0b0; stroke-width: 0.8; stroke-linecap: square"/>
     </g>
     <g id="line2d_63">
      <g>
       <use xlink:href="#mb61cbad6fa" x="108" y="514.8" style="stroke: #000000; stroke-width: 0.8"/>
      </g>
     </g>
     <g id="text_45">
      <!-- 0.15 -->
      <g transform="translate(78.734375 518.599219) scale(0.1 -0.1)">
       <use xlink:href="#DejaVuSans-30"/>
       <use xlink:href="#DejaVuSans-2e" x="63.623047"/>
       <use xlink:href="#DejaVuSans-31" x="95.410156"/>
       <use xlink:href="#DejaVuSans-35" x="159.033203"/>
      </g>
     </g>
    </g>
    <g id="ytick_18">
     <g id="line2d_64">
      <path d="M 108 472.8 
L 412.363636 472.8 
" clip-path="url(#p04ebba66c0)" style="fill: none; stroke: #b0b0b0; stroke-width: 0.8; stroke-linecap: square"/>
     </g>
     <g id="line2d_65">
      <g>
       <use xlink:href="#mb61cbad6fa" x="108" y="472.8" style="stroke: #000000; stroke-width: 0.8"/>
      </g>
     </g>
     <g id="text_46">
      <!-- 0.20 -->
      <g transform="translate(78.734375 476.599219) scale(0.1 -0.1)">
       <use xlink:href="#DejaVuSans-30"/>
       <use xlink:href="#DejaVuSans-2e" x="63.623047"/>
       <use xlink:href="#DejaVuSans-32" x="95.410156"/>
       <use xlink:href="#DejaVuSans-30" x="159.033203"/>
      </g>
     </g>
    </g>
    <g id="ytick_19">
     <g id="line2d_66">
      <path d="M 108 430.8 
L 412.363636 430.8 
" clip-path="url(#p04ebba66c0)" style="fill: none; stroke: #b0b0b0; stroke-width: 0.8; stroke-linecap: square"/>
     </g>
     <g id="line2d_67">
      <g>
       <use xlink:href="#mb61cbad6fa" x="108" y="430.8" style="stroke: #000000; stroke-width: 0.8"/>
      </g>
     </g>
     <g id="text_47">
      <!-- 0.25 -->
      <g transform="translate(78.734375 434.599219) scale(0.1 -0.1)">
       <use xlink:href="#DejaVuSans-30"/>
       <use xlink:href="#DejaVuSans-2e" x="63.623047"/>
       <use xlink:href="#DejaVuSans-32" x="95.410156"/>
       <use xlink:href="#DejaVuSans-35" x="159.033203"/>
      </g>
     </g>
    </g>
    <g id="ytick_20">
     <g id="line2d_68">
      <path d="M 108 388.8 
L 412.363636 388.8 
" clip-path="url(#p04ebba66c0)" style="fill: none; stroke: #b0b0b0; stroke-width: 0.8; stroke-linecap: square"/>
     </g>
     <g id="line2d_69">
      <g>
       <use xlink:href="#mb61cbad6fa" x="108" y="388.8" style="stroke: #000000; stroke-width: 0.8"/>
      </g>
     </g>
     <g id="text_48">
      <!-- 0.30 -->
      <g transform="translate(78.734375 392.599219) scale(0.1 -0.1)">
       <use xlink:href="#DejaVuSans-30"/>
       <use xlink:href="#DejaVuSans-2e" x="63.623047"/>
       <use xlink:href="#DejaVuSans-33" x="95.410156"/>
       <use xlink:href="#DejaVuSans-30" x="159.033203"/>
      </g>
     </g>
    </g>
    <g id="text_49">
     <!-- $\mathcal{L}oss$ -->
     <g transform="translate(72.23875 528.9) rotate(-90) scale(0.12 -0.12)">
      <use xlink:href="#STIXNonUnicode-Italic-e238"/>
      <use xlink:href="#DejaVuSans-Oblique-6f" transform="translate(69.299988 0)"/>
      <use xlink:href="#DejaVuSans-Oblique-73" transform="translate(130.481628 0)"/>
      <use xlink:href="#DejaVuSans-Oblique-73" transform="translate(182.581238 0)"/>
     </g>
    </g>
   </g>
   <g id="line2d_70">
    <path d="M 121.834711 343.833482 
L 125.731812 581.746569 
L 129.628914 588.407414 
L 133.526015 592.006226 
L 137.423116 593.036104 
L 141.320217 596.021869 
L 145.21732 595.976692 
L 149.114421 596.493406 
L 153.011522 596.908368 
L 156.908625 597.695861 
L 160.805724 595.460427 
L 164.702827 597.445103 
L 168.59993 597.98004 
L 172.497029 599.99083 
L 176.394132 599.18423 
L 180.291231 598.78046 
L 184.188334 600.533604 
L 188.085433 599.855293 
L 191.982539 600.746627 
L 195.879638 600.632797 
L 199.776738 601.640286 
L 203.673844 601.968293 
L 207.570943 601.756553 
L 211.468042 602.056137 
L 215.365149 602.385837 
L 219.262248 601.68478 
L 223.159347 601.931274 
L 227.056446 602.722134 
L 230.953553 601.926483 
L 234.850652 602.410496 
L 238.747751 602.66715 
L 242.644857 603.209357 
L 246.541957 604.228702 
L 250.439056 604.013392 
L 254.336155 604.065709 
L 258.233254 604.112385 
L 262.130382 604.579685 
L 266.027482 603.831573 
L 269.924581 604.595929 
L 273.82168 604.502783 
L 277.718779 605.397957 
L 281.615893 603.875142 
L 285.512992 603.527883 
L 289.410091 605.022385 
L 293.30719 605.277284 
L 297.204289 605.280044 
L 301.101388 604.164234 
L 304.998488 604.117405 
L 308.895587 605.36192 
L 312.792686 604.307544 
L 316.689785 605.458548 
L 320.586899 605.595775 
L 324.483998 605.327164 
L 328.381097 606.884435 
L 332.278211 605.813921 
L 336.17531 606.695811 
L 340.072409 606.59999 
L 343.969508 606.378934 
L 347.866607 606.373226 
L 351.763707 606.892603 
L 355.660806 605.113252 
L 359.557905 605.903386 
L 363.455004 607.415987 
L 367.352118 606.419902 
L 371.249202 606.059351 
L 375.146331 605.998418 
L 379.04343 607.857226 
L 382.940529 607.572224 
L 386.837628 606.944426 
L 390.734727 606.620524 
L 394.631826 607.194446 
L 398.528926 608.613806 
" clip-path="url(#p04ebba66c0)" style="fill: none; stroke: #1f77b4; stroke-width: 1.5; stroke-linecap: square"/>
   </g>
   <g id="line2d_71">
    <path d="M 121.834711 570.185815 
L 125.731812 588.118867 
L 129.628914 588.346288 
L 133.526015 594.024517 
L 137.423116 591.389443 
L 141.320217 593.973081 
L 145.21732 595.683492 
L 149.114421 596.968966 
L 153.011522 596.652797 
L 156.908625 595.903443 
L 160.805724 591.653044 
L 164.702827 598.206141 
L 168.59993 597.265205 
L 172.497029 596.746317 
L 176.394132 596.679758 
L 180.291231 599.21336 
L 184.188334 596.992335 
L 188.085433 600.28875 
L 191.982539 597.073965 
L 195.879638 599.552432 
L 199.776738 598.034918 
L 203.673844 595.984368 
L 207.570943 600.526322 
L 211.468042 600.076709 
L 215.365149 600.540763 
L 219.262248 600.3925 
L 223.159347 600.899975 
L 227.056446 600.113284 
L 230.953553 582.311704 
L 234.850652 595.507722 
L 238.747751 592.962846 
L 242.644857 602.112363 
L 246.541957 599.356513 
L 250.439056 600.163971 
L 254.336155 598.99364 
L 258.233254 594.161662 
L 262.130382 601.749196 
L 266.027482 602.469354 
L 269.924581 602.603351 
L 273.82168 602.277149 
L 277.718779 593.832907 
L 281.615893 600.458461 
L 285.512992 602.372742 
L 289.410091 598.534636 
L 293.30719 599.463039 
L 297.204289 598.733077 
L 301.101388 602.6187 
L 304.998488 597.481981 
L 308.895587 600.203931 
L 312.792686 601.044759 
L 316.689785 602.547513 
L 320.586899 603.667419 
L 324.483998 602.923185 
L 328.381097 603.023884 
L 332.278211 598.205118 
L 336.17531 601.402338 
L 340.072409 602.757307 
L 343.969508 601.137939 
L 347.866607 593.358263 
L 351.763707 598.454127 
L 355.660806 587.804891 
L 359.557905 600.875358 
L 363.455004 602.853005 
L 367.352118 602.027117 
L 371.249202 593.246045 
L 375.146331 603.295599 
L 379.04343 598.320036 
L 382.940529 603.598416 
L 386.837628 602.746258 
L 390.734727 602.697488 
L 394.631826 602.443462 
L 398.528926 601.481333 
" clip-path="url(#p04ebba66c0)" style="fill: none; stroke: #ff7f0e; stroke-width: 1.5; stroke-linecap: square"/>
   </g>
   <g id="line2d_72"/>
   <g id="patch_17">
    <path d="M 108 640.8 
L 108 388.8 
" style="fill: none; stroke: #000000; stroke-width: 0.8; stroke-linejoin: miter; stroke-linecap: square"/>
   </g>
   <g id="patch_18">
    <path d="M 412.363636 640.8 
L 412.363636 388.8 
" style="fill: none; stroke: #000000; stroke-width: 0.8; stroke-linejoin: miter; stroke-linecap: square"/>
   </g>
   <g id="patch_19">
    <path d="M 108 640.8 
L 412.363636 640.8 
" style="fill: none; stroke: #000000; stroke-width: 0.8; stroke-linejoin: miter; stroke-linecap: square"/>
   </g>
   <g id="patch_20">
    <path d="M 108 388.8 
L 412.363636 388.8 
" style="fill: none; stroke: #000000; stroke-width: 0.8; stroke-linejoin: miter; stroke-linecap: square"/>
   </g>
   <g id="legend_2">
    <g id="patch_21">
     <path d="M 270.265199 440.834375 
L 405.363636 440.834375 
Q 407.363636 440.834375 407.363636 438.834375 
L 407.363636 395.8 
Q 407.363636 393.8 405.363636 393.8 
L 270.265199 393.8 
Q 268.265199 393.8 268.265199 395.8 
L 268.265199 438.834375 
Q 268.265199 440.834375 270.265199 440.834375 
z
" style="fill: #ffffff; opacity: 0.8; stroke: #cccccc; stroke-linejoin: miter"/>
    </g>
    <g id="line2d_73">
     <path d="M 272.265199 401.898438 
L 282.265199 401.898438 
L 292.265199 401.898438 
" style="fill: none; stroke: #1f77b4; stroke-width: 1.5; stroke-linecap: square"/>
    </g>
    <g id="text_50">
     <!-- Training loss -->
     <g transform="translate(300.265199 405.398438) scale(0.1 -0.1)">
      <use xlink:href="#DejaVuSans-54"/>
      <use xlink:href="#DejaVuSans-72" x="46.333984"/>
      <use xlink:href="#DejaVuSans-61" x="87.447266"/>
      <use xlink:href="#DejaVuSans-69" x="148.726562"/>
      <use xlink:href="#DejaVuSans-6e" x="176.509766"/>
      <use xlink:href="#DejaVuSans-69" x="239.888672"/>
      <use xlink:href="#DejaVuSans-6e" x="267.671875"/>
      <use xlink:href="#DejaVuSans-67" x="331.050781"/>
      <use xlink:href="#DejaVuSans-20" x="394.527344"/>
      <use xlink:href="#DejaVuSans-6c" x="426.314453"/>
      <use xlink:href="#DejaVuSans-6f" x="454.097656"/>
      <use xlink:href="#DejaVuSans-73" x="515.279297"/>
      <use xlink:href="#DejaVuSans-73" x="567.378906"/>
     </g>
    </g>
    <g id="line2d_74">
     <path d="M 272.265199 416.576563 
L 282.265199 416.576563 
L 292.265199 416.576563 
" style="fill: none; stroke: #ff7f0e; stroke-width: 1.5; stroke-linecap: square"/>
    </g>
    <g id="text_51">
     <!-- Validation loss -->
     <g transform="translate(300.265199 420.076563) scale(0.1 -0.1)">
      <use xlink:href="#DejaVuSans-56"/>
      <use xlink:href="#DejaVuSans-61" x="60.658203"/>
      <use xlink:href="#DejaVuSans-6c" x="121.9375"/>
      <use xlink:href="#DejaVuSans-69" x="149.720703"/>
      <use xlink:href="#DejaVuSans-64" x="177.503906"/>
      <use xlink:href="#DejaVuSans-61" x="240.980469"/>
      <use xlink:href="#DejaVuSans-74" x="302.259766"/>
      <use xlink:href="#DejaVuSans-69" x="341.46875"/>
      <use xlink:href="#DejaVuSans-6f" x="369.251953"/>
      <use xlink:href="#DejaVuSans-6e" x="430.433594"/>
      <use xlink:href="#DejaVuSans-20" x="493.8125"/>
      <use xlink:href="#DejaVuSans-6c" x="525.599609"/>
      <use xlink:href="#DejaVuSans-6f" x="553.382812"/>
      <use xlink:href="#DejaVuSans-73" x="614.564453"/>
      <use xlink:href="#DejaVuSans-73" x="666.664062"/>
     </g>
    </g>
    <g id="line2d_75">
     <path d="M 272.265199 431.254687 
L 282.265199 431.254687 
L 292.265199 431.254687 
" style="fill: none; stroke: #ff0000; stroke-width: 1.5; stroke-linecap: square"/>
    </g>
    <g id="text_52">
     <!-- Final test loss: 0.049 -->
     <g transform="translate(300.265199 434.754687) scale(0.1 -0.1)">
      <use xlink:href="#DejaVuSans-46"/>
      <use xlink:href="#DejaVuSans-69" x="50.269531"/>
      <use xlink:href="#DejaVuSans-6e" x="78.052734"/>
      <use xlink:href="#DejaVuSans-61" x="141.431641"/>
      <use xlink:href="#DejaVuSans-6c" x="202.710938"/>
      <use xlink:href="#DejaVuSans-20" x="230.494141"/>
      <use xlink:href="#DejaVuSans-74" x="262.28125"/>
      <use xlink:href="#DejaVuSans-65" x="301.490234"/>
      <use xlink:href="#DejaVuSans-73" x="363.013672"/>
      <use xlink:href="#DejaVuSans-74" x="415.113281"/>
      <use xlink:href="#DejaVuSans-20" x="454.322266"/>
      <use xlink:href="#DejaVuSans-6c" x="486.109375"/>
      <use xlink:href="#DejaVuSans-6f" x="513.892578"/>
      <use xlink:href="#DejaVuSans-73" x="575.074219"/>
      <use xlink:href="#DejaVuSans-73" x="627.173828"/>
      <use xlink:href="#DejaVuSans-3a" x="679.273438"/>
      <use xlink:href="#DejaVuSans-20" x="712.964844"/>
      <use xlink:href="#DejaVuSans-30" x="744.751953"/>
      <use xlink:href="#DejaVuSans-2e" x="808.375"/>
      <use xlink:href="#DejaVuSans-30" x="840.162109"/>
      <use xlink:href="#DejaVuSans-34" x="903.785156"/>
      <use xlink:href="#DejaVuSans-39" x="967.408203"/>
     </g>
    </g>
   </g>
  </g>
  <g id="axes_4">
   <g id="patch_22">
    <path d="M 473.236364 640.8 
L 777.6 640.8 
L 777.6 388.8 
L 473.236364 388.8 
z
" style="fill: #ffffff"/>
   </g>
   <g id="patch_23">
    <path d="M 483.381818 640.8 
L 564.545455 640.8 
L 564.545455 400.8 
L 483.381818 400.8 
z
" clip-path="url(#p12a7784ce2)" style="fill: #2ca02c; opacity: 0.6; stroke: #000000; stroke-linejoin: miter"/>
   </g>
   <g id="patch_24">
    <path d="M 584.836364 640.8 
L 666 640.8 
L 666 638.155932 
L 584.836364 638.155932 
z
" clip-path="url(#p12a7784ce2)" style="fill: #ff0000; opacity: 0.6; stroke: #000000; stroke-linejoin: miter"/>
   </g>
   <g id="patch_25">
    <path d="M 686.290909 640.8 
L 767.454545 640.8 
L 767.454545 639.172881 
L 686.290909 639.172881 
z
" clip-path="url(#p12a7784ce2)" style="fill: #ff0000; opacity: 0.6; stroke: #000000; stroke-linejoin: miter"/>
   </g>
   <g id="matplotlib.axis_7">
    <g id="xtick_17">
     <g id="line2d_76">
      <g>
       <use xlink:href="#m77a71fef4f" x="523.963636" y="640.8" style="stroke: #000000; stroke-width: 0.8"/>
      </g>
     </g>
     <g id="text_53">
      <!-- Correct -->
      <g transform="translate(498.416918 658.437813) scale(0.14 -0.14)">
       <use xlink:href="#DejaVuSans-43"/>
       <use xlink:href="#DejaVuSans-6f" x="69.824219"/>
       <use xlink:href="#DejaVuSans-72" x="131.005859"/>
       <use xlink:href="#DejaVuSans-72" x="170.369141"/>
       <use xlink:href="#DejaVuSans-65" x="209.232422"/>
       <use xlink:href="#DejaVuSans-63" x="270.755859"/>
       <use xlink:href="#DejaVuSans-74" x="325.736328"/>
      </g>
     </g>
    </g>
    <g id="xtick_18">
     <g id="line2d_77">
      <g>
       <use xlink:href="#m77a71fef4f" x="625.418182" y="640.8" style="stroke: #000000; stroke-width: 0.8"/>
      </g>
     </g>
     <g id="text_54">
      <!-- False -->
      <g transform="translate(607.842713 658.437813) scale(0.14 -0.14)">
       <use xlink:href="#DejaVuSans-46"/>
       <use xlink:href="#DejaVuSans-61" x="48.394531"/>
       <use xlink:href="#DejaVuSans-6c" x="109.673828"/>
       <use xlink:href="#DejaVuSans-73" x="137.457031"/>
       <use xlink:href="#DejaVuSans-65" x="189.556641"/>
      </g>
      <!-- Positive -->
      <g transform="translate(598.437557 674.11475) scale(0.14 -0.14)">
       <use xlink:href="#DejaVuSans-50"/>
       <use xlink:href="#DejaVuSans-6f" x="56.677734"/>
       <use xlink:href="#DejaVuSans-73" x="117.859375"/>
       <use xlink:href="#DejaVuSans-69" x="169.958984"/>
       <use xlink:href="#DejaVuSans-74" x="197.742188"/>
       <use xlink:href="#DejaVuSans-69" x="236.951172"/>
       <use xlink:href="#DejaVuSans-76" x="264.734375"/>
       <use xlink:href="#DejaVuSans-65" x="323.914062"/>
      </g>
     </g>
    </g>
    <g id="xtick_19">
     <g id="line2d_78">
      <g>
       <use xlink:href="#m77a71fef4f" x="726.872727" y="640.8" style="stroke: #000000; stroke-width: 0.8"/>
      </g>
     </g>
     <g id="text_55">
      <!-- False -->
      <g transform="translate(709.297259 658.437813) scale(0.14 -0.14)">
       <use xlink:href="#DejaVuSans-46"/>
       <use xlink:href="#DejaVuSans-61" x="48.394531"/>
       <use xlink:href="#DejaVuSans-6c" x="109.673828"/>
       <use xlink:href="#DejaVuSans-73" x="137.457031"/>
       <use xlink:href="#DejaVuSans-65" x="189.556641"/>
      </g>
      <!-- Negative -->
      <g transform="translate(695.455852 674.11475) scale(0.14 -0.14)">
       <use xlink:href="#DejaVuSans-4e"/>
       <use xlink:href="#DejaVuSans-65" x="74.804688"/>
       <use xlink:href="#DejaVuSans-67" x="136.328125"/>
       <use xlink:href="#DejaVuSans-61" x="199.804688"/>
       <use xlink:href="#DejaVuSans-74" x="261.083984"/>
       <use xlink:href="#DejaVuSans-69" x="300.292969"/>
       <use xlink:href="#DejaVuSans-76" x="328.076172"/>
       <use xlink:href="#DejaVuSans-65" x="387.255859"/>
      </g>
     </g>
    </g>
   </g>
   <g id="matplotlib.axis_8">
    <g id="ytick_21">
     <g id="line2d_79">
      <g>
       <use xlink:href="#mb61cbad6fa" x="473.236364" y="640.8" style="stroke: #000000; stroke-width: 0.8"/>
      </g>
     </g>
     <g id="text_56">
      <!-- 0.0 -->
      <g transform="translate(450.333239 644.599219) scale(0.1 -0.1)">
       <use xlink:href="#DejaVuSans-30"/>
       <use xlink:href="#DejaVuSans-2e" x="63.623047"/>
       <use xlink:href="#DejaVuSans-30" x="95.410156"/>
      </g>
     </g>
    </g>
    <g id="ytick_22">
     <g id="line2d_80">
      <g>
       <use xlink:href="#mb61cbad6fa" x="473.236364" y="591.945763" style="stroke: #000000; stroke-width: 0.8"/>
      </g>
     </g>
     <g id="text_57">
      <!-- 0.2 -->
      <g transform="translate(450.333239 595.744981) scale(0.1 -0.1)">
       <use xlink:href="#DejaVuSans-30"/>
       <use xlink:href="#DejaVuSans-2e" x="63.623047"/>
       <use xlink:href="#DejaVuSans-32" x="95.410156"/>
      </g>
     </g>
    </g>
    <g id="ytick_23">
     <g id="line2d_81">
      <g>
       <use xlink:href="#mb61cbad6fa" x="473.236364" y="543.091525" style="stroke: #000000; stroke-width: 0.8"/>
      </g>
     </g>
     <g id="text_58">
      <!-- 0.4 -->
      <g transform="translate(450.333239 546.890744) scale(0.1 -0.1)">
       <use xlink:href="#DejaVuSans-30"/>
       <use xlink:href="#DejaVuSans-2e" x="63.623047"/>
       <use xlink:href="#DejaVuSans-34" x="95.410156"/>
      </g>
     </g>
    </g>
    <g id="ytick_24">
     <g id="line2d_82">
      <g>
       <use xlink:href="#mb61cbad6fa" x="473.236364" y="494.237288" style="stroke: #000000; stroke-width: 0.8"/>
      </g>
     </g>
     <g id="text_59">
      <!-- 0.6 -->
      <g transform="translate(450.333239 498.036507) scale(0.1 -0.1)">
       <use xlink:href="#DejaVuSans-30"/>
       <use xlink:href="#DejaVuSans-2e" x="63.623047"/>
       <use xlink:href="#DejaVuSans-36" x="95.410156"/>
      </g>
     </g>
    </g>
    <g id="ytick_25">
     <g id="line2d_83">
      <g>
       <use xlink:href="#mb61cbad6fa" x="473.236364" y="445.383051" style="stroke: #000000; stroke-width: 0.8"/>
      </g>
     </g>
     <g id="text_60">
      <!-- 0.8 -->
      <g transform="translate(450.333239 449.18227) scale(0.1 -0.1)">
       <use xlink:href="#DejaVuSans-30"/>
       <use xlink:href="#DejaVuSans-2e" x="63.623047"/>
       <use xlink:href="#DejaVuSans-38" x="95.410156"/>
      </g>
     </g>
    </g>
    <g id="ytick_26">
     <g id="line2d_84">
      <g>
       <use xlink:href="#mb61cbad6fa" x="473.236364" y="396.528814" style="stroke: #000000; stroke-width: 0.8"/>
      </g>
     </g>
     <g id="text_61">
      <!-- 1.0 -->
      <g transform="translate(450.333239 400.328032) scale(0.1 -0.1)">
       <use xlink:href="#DejaVuSans-31"/>
       <use xlink:href="#DejaVuSans-2e" x="63.623047"/>
       <use xlink:href="#DejaVuSans-30" x="95.410156"/>
      </g>
     </g>
    </g>
   </g>
   <g id="patch_26">
    <path d="M 473.236364 640.8 
L 473.236364 388.8 
" style="fill: none; stroke: #000000; stroke-width: 0.8; stroke-linejoin: miter; stroke-linecap: square"/>
   </g>
   <g id="patch_27">
    <path d="M 777.6 640.8 
L 777.6 388.8 
" style="fill: none; stroke: #000000; stroke-width: 0.8; stroke-linejoin: miter; stroke-linecap: square"/>
   </g>
   <g id="patch_28">
    <path d="M 473.236364 640.8 
L 777.6 640.8 
" style="fill: none; stroke: #000000; stroke-width: 0.8; stroke-linejoin: miter; stroke-linecap: square"/>
   </g>
   <g id="patch_29">
    <path d="M 473.236364 388.8 
L 777.6 388.8 
" style="fill: none; stroke: #000000; stroke-width: 0.8; stroke-linejoin: miter; stroke-linecap: square"/>
   </g>
   <g id="text_62">
    <!-- 98.25% -->
    <g transform="translate(501.085824 591.945763) scale(0.12 -0.12)">
     <use xlink:href="#DejaVuSans-39"/>
     <use xlink:href="#DejaVuSans-38" x="63.623047"/>
     <use xlink:href="#DejaVuSans-2e" x="127.246094"/>
     <use xlink:href="#DejaVuSans-32" x="159.033203"/>
     <use xlink:href="#DejaVuSans-35" x="222.65625"/>
     <use xlink:href="#DejaVuSans-25" x="286.279297"/>
    </g>
   </g>
   <g id="text_63">
    <!-- 1180 -->
    <g transform="translate(508.693636 543.091525) scale(0.12 -0.12)">
     <use xlink:href="#DejaVuSans-31"/>
     <use xlink:href="#DejaVuSans-31" x="63.623047"/>
     <use xlink:href="#DejaVuSans-38" x="127.246094"/>
     <use xlink:href="#DejaVuSans-30" x="190.869141"/>
    </g>
   </g>
   <g id="text_64">
    <!-- 1.08% -->
    <g transform="translate(606.357869 591.945763) scale(0.12 -0.12)">
     <use xlink:href="#DejaVuSans-31"/>
     <use xlink:href="#DejaVuSans-2e" x="63.623047"/>
     <use xlink:href="#DejaVuSans-30" x="95.410156"/>
     <use xlink:href="#DejaVuSans-38" x="159.033203"/>
     <use xlink:href="#DejaVuSans-25" x="222.65625"/>
    </g>
   </g>
   <g id="text_65">
    <!-- 13 -->
    <g transform="translate(617.783182 543.091525) scale(0.12 -0.12)">
     <use xlink:href="#DejaVuSans-31"/>
     <use xlink:href="#DejaVuSans-33" x="63.623047"/>
    </g>
   </g>
   <g id="text_66">
    <!-- 0.67% -->
    <g transform="translate(707.812415 591.945763) scale(0.12 -0.12)">
     <use xlink:href="#DejaVuSans-30"/>
     <use xlink:href="#DejaVuSans-2e" x="63.623047"/>
     <use xlink:href="#DejaVuSans-36" x="95.410156"/>
     <use xlink:href="#DejaVuSans-37" x="159.033203"/>
     <use xlink:href="#DejaVuSans-25" x="222.65625"/>
    </g>
   </g>
   <g id="text_67">
    <!-- 8 -->
    <g transform="translate(723.055227 543.091525) scale(0.12 -0.12)">
     <use xlink:href="#DejaVuSans-38"/>
    </g>
   </g>
  </g>
 </g>
 <defs>
  <clipPath id="p8b4d8f9500">
   <rect x="108" y="86.4" width="304.363636" height="252"/>
  </clipPath>
  <clipPath id="pf4a31e1c54">
   <rect x="473.236364" y="86.4" width="304.363636" height="252"/>
  </clipPath>
  <clipPath id="p04ebba66c0">
   <rect x="108" y="388.8" width="304.363636" height="252"/>
  </clipPath>
  <clipPath id="p12a7784ce2">
   <rect x="473.236364" y="388.8" width="304.363636" height="252"/>
  </clipPath>
 </defs>
</svg>
