<?xml version="1.0" encoding="utf-8" standalone="no"?>
<!DOCTYPE svg PUBLIC "-//W3C//DTD SVG 1.1//EN"
  "http://www.w3.org/Graphics/SVG/1.1/DTD/svg11.dtd">
<svg xmlns:xlink="http://www.w3.org/1999/xlink" width="1008pt" height="288pt" viewBox="0 0 1008 288" xmlns="http://www.w3.org/2000/svg" version="1.1">
 <metadata>
  <rdf:RDF xmlns:dc="http://purl.org/dc/elements/1.1/" xmlns:cc="http://creativecommons.org/ns#" xmlns:rdf="http://www.w3.org/1999/02/22-rdf-syntax-ns#">
   <cc:Work>
    <dc:type rdf:resource="http://purl.org/dc/dcmitype/StillImage"/>
    <dc:date>2025-01-05T11:46:25.954146</dc:date>
    <dc:format>image/svg+xml</dc:format>
    <dc:creator>
     <cc:Agent>
      <dc:title>Matplotlib v3.7.1, https://matplotlib.org/</dc:title>
     </cc:Agent>
    </dc:creator>
   </cc:Work>
  </rdf:RDF>
 </metadata>
 <defs>
  <style type="text/css">*{stroke-linejoin: round; stroke-linecap: butt}</style>
 </defs>
 <g id="figure_1">
  <g id="patch_1">
   <path d="M 0 288 
L 1008 288 
L 1008 0 
L 0 0 
z
" style="fill: #ffffff"/>
  </g>
  <g id="axes_1">
   <g id="patch_2">
    <path d="M 46.718678 252.707885 
L 333.192476 252.707885 
L 333.192476 3.00024 
L 46.718678 3.00024 
z
" style="fill: #ffffff"/>
   </g>
   <g id="matplotlib.axis_1">
    <g id="xtick_1">
     <g id="line2d_1">
      <path d="M 53.683685 252.707885 
L 53.683685 3.00024 
" clip-path="url(#pfcb7398237)" style="fill: none; stroke: #b0b0b0; stroke-width: 0.8; stroke-linecap: square"/>
     </g>
     <g id="line2d_2">
      <defs>
       <path id="m33ca82a192" d="M 0 0 
L 0 3.5 
" style="stroke: #000000; stroke-width: 0.8"/>
      </defs>
      <g>
       <use xlink:href="#m33ca82a192" x="53.683685" y="252.707885" style="stroke: #000000; stroke-width: 0.8"/>
      </g>
     </g>
     <g id="text_1">
      <!-- 0.0 -->
      <g transform="translate(45.732123 267.306323) scale(0.1 -0.1)">
       <defs>
        <path id="DejaVuSans-30" d="M 2034 4250 
Q 1547 4250 1301 3770 
Q 1056 3291 1056 2328 
Q 1056 1369 1301 889 
Q 1547 409 2034 409 
Q 2525 409 2770 889 
Q 3016 1369 3016 2328 
Q 3016 3291 2770 3770 
Q 2525 4250 2034 4250 
z
M 2034 4750 
Q 2819 4750 3233 4129 
Q 3647 3509 3647 2328 
Q 3647 1150 3233 529 
Q 2819 -91 2034 -91 
Q 1250 -91 836 529 
Q 422 1150 422 2328 
Q 422 3509 836 4129 
Q 1250 4750 2034 4750 
z
" transform="scale(0.015625)"/>
        <path id="DejaVuSans-2e" d="M 684 794 
L 1344 794 
L 1344 0 
L 684 0 
L 684 794 
z
" transform="scale(0.015625)"/>
       </defs>
       <use xlink:href="#DejaVuSans-30"/>
       <use xlink:href="#DejaVuSans-2e" x="63.623047"/>
       <use xlink:href="#DejaVuSans-30" x="95.410156"/>
      </g>
     </g>
    </g>
    <g id="xtick_2">
     <g id="line2d_3">
      <path d="M 114.24897 252.707885 
L 114.24897 3.00024 
" clip-path="url(#pfcb7398237)" style="fill: none; stroke: #b0b0b0; stroke-width: 0.8; stroke-linecap: square"/>
     </g>
     <g id="line2d_4">
      <g>
       <use xlink:href="#m33ca82a192" x="114.24897" y="252.707885" style="stroke: #000000; stroke-width: 0.8"/>
      </g>
     </g>
     <g id="text_2">
      <!-- 0.5 -->
      <g transform="translate(106.297408 267.306323) scale(0.1 -0.1)">
       <defs>
        <path id="DejaVuSans-35" d="M 691 4666 
L 3169 4666 
L 3169 4134 
L 1269 4134 
L 1269 2991 
Q 1406 3038 1543 3061 
Q 1681 3084 1819 3084 
Q 2600 3084 3056 2656 
Q 3513 2228 3513 1497 
Q 3513 744 3044 326 
Q 2575 -91 1722 -91 
Q 1428 -91 1123 -41 
Q 819 9 494 109 
L 494 744 
Q 775 591 1075 516 
Q 1375 441 1709 441 
Q 2250 441 2565 725 
Q 2881 1009 2881 1497 
Q 2881 1984 2565 2268 
Q 2250 2553 1709 2553 
Q 1456 2553 1204 2497 
Q 953 2441 691 2322 
L 691 4666 
z
" transform="scale(0.015625)"/>
       </defs>
       <use xlink:href="#DejaVuSans-30"/>
       <use xlink:href="#DejaVuSans-2e" x="63.623047"/>
       <use xlink:href="#DejaVuSans-35" x="95.410156"/>
      </g>
     </g>
    </g>
    <g id="xtick_3">
     <g id="line2d_5">
      <path d="M 174.814255 252.707885 
L 174.814255 3.00024 
" clip-path="url(#pfcb7398237)" style="fill: none; stroke: #b0b0b0; stroke-width: 0.8; stroke-linecap: square"/>
     </g>
     <g id="line2d_6">
      <g>
       <use xlink:href="#m33ca82a192" x="174.814255" y="252.707885" style="stroke: #000000; stroke-width: 0.8"/>
      </g>
     </g>
     <g id="text_3">
      <!-- 1.0 -->
      <g transform="translate(166.862693 267.306323) scale(0.1 -0.1)">
       <defs>
        <path id="DejaVuSans-31" d="M 794 531 
L 1825 531 
L 1825 4091 
L 703 3866 
L 703 4441 
L 1819 4666 
L 2450 4666 
L 2450 531 
L 3481 531 
L 3481 0 
L 794 0 
L 794 531 
z
" transform="scale(0.015625)"/>
       </defs>
       <use xlink:href="#DejaVuSans-31"/>
       <use xlink:href="#DejaVuSans-2e" x="63.623047"/>
       <use xlink:href="#DejaVuSans-30" x="95.410156"/>
      </g>
     </g>
    </g>
    <g id="xtick_4">
     <g id="line2d_7">
      <path d="M 235.37954 252.707885 
L 235.37954 3.00024 
" clip-path="url(#pfcb7398237)" style="fill: none; stroke: #b0b0b0; stroke-width: 0.8; stroke-linecap: square"/>
     </g>
     <g id="line2d_8">
      <g>
       <use xlink:href="#m33ca82a192" x="235.37954" y="252.707885" style="stroke: #000000; stroke-width: 0.8"/>
      </g>
     </g>
     <g id="text_4">
      <!-- 1.5 -->
      <g transform="translate(227.427978 267.306323) scale(0.1 -0.1)">
       <use xlink:href="#DejaVuSans-31"/>
       <use xlink:href="#DejaVuSans-2e" x="63.623047"/>
       <use xlink:href="#DejaVuSans-35" x="95.410156"/>
      </g>
     </g>
    </g>
    <g id="xtick_5">
     <g id="line2d_9">
      <path d="M 295.944826 252.707885 
L 295.944826 3.00024 
" clip-path="url(#pfcb7398237)" style="fill: none; stroke: #b0b0b0; stroke-width: 0.8; stroke-linecap: square"/>
     </g>
     <g id="line2d_10">
      <g>
       <use xlink:href="#m33ca82a192" x="295.944826" y="252.707885" style="stroke: #000000; stroke-width: 0.8"/>
      </g>
     </g>
     <g id="text_5">
      <!-- 2.0 -->
      <g transform="translate(287.993263 267.306323) scale(0.1 -0.1)">
       <defs>
        <path id="DejaVuSans-32" d="M 1228 531 
L 3431 531 
L 3431 0 
L 469 0 
L 469 531 
Q 828 903 1448 1529 
Q 2069 2156 2228 2338 
Q 2531 2678 2651 2914 
Q 2772 3150 2772 3378 
Q 2772 3750 2511 3984 
Q 2250 4219 1831 4219 
Q 1534 4219 1204 4116 
Q 875 4013 500 3803 
L 500 4441 
Q 881 4594 1212 4672 
Q 1544 4750 1819 4750 
Q 2544 4750 2975 4387 
Q 3406 4025 3406 3419 
Q 3406 3131 3298 2873 
Q 3191 2616 2906 2266 
Q 2828 2175 2409 1742 
Q 1991 1309 1228 531 
z
" transform="scale(0.015625)"/>
       </defs>
       <use xlink:href="#DejaVuSans-32"/>
       <use xlink:href="#DejaVuSans-2e" x="63.623047"/>
       <use xlink:href="#DejaVuSans-30" x="95.410156"/>
      </g>
     </g>
    </g>
    <g id="text_6">
     <!-- $k_{B}T$ $\left[k_{B}T_0\right]$ -->
     <g transform="translate(160.135577 282.504135) scale(0.12 -0.12)">
      <defs>
       <path id="DejaVuSans-Oblique-6b" d="M 1172 4863 
L 1747 4863 
L 1197 2028 
L 3169 3500 
L 3916 3500 
L 1716 1825 
L 3322 0 
L 2625 0 
L 1131 1709 
L 800 0 
L 225 0 
L 1172 4863 
z
" transform="scale(0.015625)"/>
       <path id="DejaVuSans-Oblique-42" d="M 1081 4666 
L 2694 4666 
Q 3350 4666 3675 4422 
Q 4000 4178 4000 3688 
Q 4000 3238 3720 2911 
Q 3441 2584 2988 2516 
Q 3375 2428 3569 2181 
Q 3763 1934 3763 1522 
Q 3763 819 3242 409 
Q 2722 0 1819 0 
L 172 0 
L 1081 4666 
z
M 1234 2228 
L 903 519 
L 1919 519 
Q 2491 519 2800 781 
Q 3109 1044 3109 1522 
Q 3109 1891 2904 2059 
Q 2700 2228 2247 2228 
L 1234 2228 
z
M 1606 4147 
L 1331 2741 
L 2272 2741 
Q 2775 2741 3058 2959 
Q 3341 3178 3341 3566 
Q 3341 3869 3150 4008 
Q 2959 4147 2541 4147 
L 1606 4147 
z
" transform="scale(0.015625)"/>
       <path id="DejaVuSans-Oblique-54" d="M 378 4666 
L 4325 4666 
L 4225 4134 
L 2559 4134 
L 1759 0 
L 1125 0 
L 1925 4134 
L 275 4134 
L 378 4666 
z
" transform="scale(0.015625)"/>
       <path id="DejaVuSans-20" transform="scale(0.015625)"/>
       <path id="DejaVuSans-5b" d="M 550 4863 
L 1875 4863 
L 1875 4416 
L 1125 4416 
L 1125 -397 
L 1875 -397 
L 1875 -844 
L 550 -844 
L 550 4863 
z
" transform="scale(0.015625)"/>
       <path id="DejaVuSans-5d" d="M 1947 4863 
L 1947 -844 
L 622 -844 
L 622 -397 
L 1369 -397 
L 1369 4416 
L 622 4416 
L 622 4863 
L 1947 4863 
z
" transform="scale(0.015625)"/>
      </defs>
      <use xlink:href="#DejaVuSans-Oblique-6b" transform="translate(0 0.015625)"/>
      <use xlink:href="#DejaVuSans-Oblique-42" transform="translate(57.910156 -16.390625) scale(0.7)"/>
      <use xlink:href="#DejaVuSans-Oblique-54" transform="translate(108.666992 0.015625)"/>
      <use xlink:href="#DejaVuSans-20" transform="translate(169.750977 0.015625)"/>
      <use xlink:href="#DejaVuSans-5b" transform="translate(201.538086 0.015625)"/>
      <use xlink:href="#DejaVuSans-Oblique-6b" transform="translate(240.551758 0.015625)"/>
      <use xlink:href="#DejaVuSans-Oblique-42" transform="translate(298.461914 -16.390625) scale(0.7)"/>
      <use xlink:href="#DejaVuSans-Oblique-54" transform="translate(349.21875 0.015625)"/>
      <use xlink:href="#DejaVuSans-30" transform="translate(410.302734 -16.390625) scale(0.7)"/>
      <use xlink:href="#DejaVuSans-5d" transform="translate(457.573242 0.015625)"/>
     </g>
    </g>
   </g>
   <g id="matplotlib.axis_2">
    <g id="ytick_1">
     <g id="line2d_11">
      <path d="M 46.718678 248.716533 
L 333.192476 248.716533 
" clip-path="url(#pfcb7398237)" style="fill: none; stroke: #b0b0b0; stroke-width: 0.8; stroke-linecap: square"/>
     </g>
     <g id="line2d_12">
      <defs>
       <path id="m73b1b7ace9" d="M 0 0 
L -3.5 0 
" style="stroke: #000000; stroke-width: 0.8"/>
      </defs>
      <g>
       <use xlink:href="#m73b1b7ace9" x="46.718678" y="248.716533" style="stroke: #000000; stroke-width: 0.8"/>
      </g>
     </g>
     <g id="text_7">
      <!-- −15 -->
      <g transform="translate(18.61399 252.515752) scale(0.1 -0.1)">
       <defs>
        <path id="DejaVuSans-2212" d="M 678 2272 
L 4684 2272 
L 4684 1741 
L 678 1741 
L 678 2272 
z
" transform="scale(0.015625)"/>
       </defs>
       <use xlink:href="#DejaVuSans-2212"/>
       <use xlink:href="#DejaVuSans-31" x="83.789062"/>
       <use xlink:href="#DejaVuSans-35" x="147.412109"/>
      </g>
     </g>
    </g>
    <g id="ytick_2">
     <g id="line2d_13">
      <path d="M 46.718678 194.824582 
L 333.192476 194.824582 
" clip-path="url(#pfcb7398237)" style="fill: none; stroke: #b0b0b0; stroke-width: 0.8; stroke-linecap: square"/>
     </g>
     <g id="line2d_14">
      <g>
       <use xlink:href="#m73b1b7ace9" x="46.718678" y="194.824582" style="stroke: #000000; stroke-width: 0.8"/>
      </g>
     </g>
     <g id="text_8">
      <!-- −10 -->
      <g transform="translate(18.61399 198.6238) scale(0.1 -0.1)">
       <use xlink:href="#DejaVuSans-2212"/>
       <use xlink:href="#DejaVuSans-31" x="83.789062"/>
       <use xlink:href="#DejaVuSans-30" x="147.412109"/>
      </g>
     </g>
    </g>
    <g id="ytick_3">
     <g id="line2d_15">
      <path d="M 46.718678 140.93263 
L 333.192476 140.93263 
" clip-path="url(#pfcb7398237)" style="fill: none; stroke: #b0b0b0; stroke-width: 0.8; stroke-linecap: square"/>
     </g>
     <g id="line2d_16">
      <g>
       <use xlink:href="#m73b1b7ace9" x="46.718678" y="140.93263" style="stroke: #000000; stroke-width: 0.8"/>
      </g>
     </g>
     <g id="text_9">
      <!-- −5 -->
      <g transform="translate(24.97649 144.731849) scale(0.1 -0.1)">
       <use xlink:href="#DejaVuSans-2212"/>
       <use xlink:href="#DejaVuSans-35" x="83.789062"/>
      </g>
     </g>
    </g>
    <g id="ytick_4">
     <g id="line2d_17">
      <path d="M 46.718678 87.040679 
L 333.192476 87.040679 
" clip-path="url(#pfcb7398237)" style="fill: none; stroke: #b0b0b0; stroke-width: 0.8; stroke-linecap: square"/>
     </g>
     <g id="line2d_18">
      <g>
       <use xlink:href="#m73b1b7ace9" x="46.718678" y="87.040679" style="stroke: #000000; stroke-width: 0.8"/>
      </g>
     </g>
     <g id="text_10">
      <!-- 0 -->
      <g transform="translate(33.356178 90.839898) scale(0.1 -0.1)">
       <use xlink:href="#DejaVuSans-30"/>
      </g>
     </g>
    </g>
    <g id="ytick_5">
     <g id="line2d_19">
      <path d="M 46.718678 33.148727 
L 333.192476 33.148727 
" clip-path="url(#pfcb7398237)" style="fill: none; stroke: #b0b0b0; stroke-width: 0.8; stroke-linecap: square"/>
     </g>
     <g id="line2d_20">
      <g>
       <use xlink:href="#m73b1b7ace9" x="46.718678" y="33.148727" style="stroke: #000000; stroke-width: 0.8"/>
      </g>
     </g>
     <g id="text_11">
      <!-- 5 -->
      <g transform="translate(33.356178 36.947946) scale(0.1 -0.1)">
       <use xlink:href="#DejaVuSans-35"/>
      </g>
     </g>
    </g>
    <g id="text_12">
     <!-- $\langle E \rangle$ $\left[k_{B}T_0\right]$ -->
     <g transform="translate(12.118365 155.994063) rotate(-90) scale(0.12 -0.12)">
      <defs>
       <path id="DejaVuSans-27e8" d="M 572 2006 
L 1453 4856 
L 1984 4856 
L 1103 2006 
L 1984 -844 
L 1453 -844 
L 572 2006 
z
" transform="scale(0.015625)"/>
       <path id="DejaVuSans-Oblique-45" d="M 1081 4666 
L 4031 4666 
L 3928 4134 
L 1606 4134 
L 1338 2753 
L 3566 2753 
L 3463 2222 
L 1234 2222 
L 909 531 
L 3284 531 
L 3181 0 
L 172 0 
L 1081 4666 
z
" transform="scale(0.015625)"/>
       <path id="DejaVuSans-27e9" d="M 1925 2006 
L 1044 -844 
L 513 -844 
L 1394 2006 
L 513 4856 
L 1044 4856 
L 1925 2006 
z
" transform="scale(0.015625)"/>
      </defs>
      <use xlink:href="#DejaVuSans-27e8" transform="translate(0 0.015625)"/>
      <use xlink:href="#DejaVuSans-Oblique-45" transform="translate(39.013672 0.015625)"/>
      <use xlink:href="#DejaVuSans-27e9" transform="translate(102.197266 0.015625)"/>
      <use xlink:href="#DejaVuSans-20" transform="translate(141.210938 0.015625)"/>
      <use xlink:href="#DejaVuSans-5b" transform="translate(172.998047 0.015625)"/>
      <use xlink:href="#DejaVuSans-Oblique-6b" transform="translate(212.011719 0.015625)"/>
      <use xlink:href="#DejaVuSans-Oblique-42" transform="translate(269.921875 -16.390625) scale(0.7)"/>
      <use xlink:href="#DejaVuSans-Oblique-54" transform="translate(320.678711 0.015625)"/>
      <use xlink:href="#DejaVuSans-30" transform="translate(381.762695 -16.390625) scale(0.7)"/>
      <use xlink:href="#DejaVuSans-5d" transform="translate(429.033203 0.015625)"/>
     </g>
    </g>
   </g>
   <g id="line2d_21">
    <path d="M 59.740214 240.63274 
L 60.65787 240.224468 
L 61.575525 239.816196 
L 62.493181 239.407923 
L 63.410837 238.999651 
L 64.328493 238.591378 
L 65.246149 238.183106 
L 66.163805 237.774834 
L 67.08146 237.366561 
L 67.999116 236.958289 
L 68.916772 236.550017 
L 69.834428 236.141744 
L 70.752084 235.733472 
L 71.66974 235.3252 
L 72.587395 234.916927 
L 73.505051 234.508655 
L 74.422707 234.100382 
L 75.340363 233.69211 
L 76.258019 233.283838 
L 77.175675 232.875565 
L 78.09333 232.467293 
L 79.010986 232.059021 
L 79.928642 231.650748 
L 80.846298 231.242476 
L 81.763954 230.834204 
L 82.68161 230.425931 
L 83.599265 230.017659 
L 84.516921 229.609387 
L 85.434577 229.201114 
L 86.352233 228.792842 
L 87.269889 228.384569 
L 88.187545 227.976297 
L 89.1052 227.568025 
L 90.022856 227.159752 
L 90.940512 226.75148 
L 91.858168 226.343208 
L 92.775824 225.934935 
L 93.69348 225.526663 
L 94.611135 225.118391 
L 95.528791 224.710118 
L 96.446447 224.301846 
L 97.364103 223.893574 
L 98.281759 223.485301 
L 99.199415 223.077029 
L 100.11707 222.668756 
L 101.034726 222.260484 
L 101.952382 221.852212 
L 102.870038 221.443939 
L 103.787694 221.035667 
L 104.70535 220.627395 
L 105.623005 220.219122 
L 106.540661 219.81085 
L 107.458317 219.402578 
L 108.375973 218.994305 
L 109.293629 218.586033 
L 110.211285 218.17776 
L 111.128941 217.769488 
L 112.046596 217.361216 
L 112.964252 216.952943 
L 113.881908 216.544671 
L 114.799564 216.136399 
L 115.71722 215.728126 
L 116.634876 215.319854 
L 117.552531 214.911582 
L 118.470187 214.503309 
L 119.387843 214.095037 
L 120.305499 213.686765 
L 121.223155 213.278492 
L 122.140811 212.87022 
L 123.058466 212.461947 
L 123.976122 212.053675 
L 124.893778 211.645403 
L 125.811434 211.23713 
L 126.72909 210.828858 
L 127.646746 210.420586 
L 128.564401 210.012313 
L 129.482057 209.604041 
L 130.399713 209.195769 
L 131.317369 208.787496 
L 132.235025 208.379224 
L 133.152681 207.970952 
L 134.070336 207.562679 
L 134.987992 207.154407 
L 135.905648 206.746134 
L 136.823304 206.337862 
L 137.74096 205.92959 
L 138.658616 205.521317 
L 139.576271 205.113045 
L 140.493927 204.704773 
L 141.411583 204.2965 
L 142.329239 203.888228 
L 143.246895 203.479956 
L 144.164551 203.071683 
L 145.082206 202.663411 
L 145.999862 202.255138 
L 146.917518 201.846866 
L 147.835174 201.438594 
L 148.75283 201.030321 
L 149.670486 200.622049 
L 150.588141 200.213777 
" clip-path="url(#pfcb7398237)" style="fill: none; stroke: #ff7f0e; stroke-width: 1.5; stroke-linecap: square"/>
   </g>
   <g id="line2d_22">
    <path d="M 223.266483 41.77144 
L 224.245316 41.510145 
L 225.224149 41.248851 
L 226.202982 40.987557 
L 227.181815 40.726262 
L 228.160648 40.464968 
L 229.139481 40.203674 
L 230.118314 39.942379 
L 231.097147 39.681085 
L 232.075979 39.419791 
L 233.054812 39.158497 
L 234.033645 38.897202 
L 235.012478 38.635908 
L 235.991311 38.374614 
L 236.970144 38.113319 
L 237.948977 37.852025 
L 238.92781 37.590731 
L 239.906643 37.329436 
L 240.885475 37.068142 
L 241.864308 36.806848 
L 242.843141 36.545553 
L 243.821974 36.284259 
L 244.800807 36.022965 
L 245.77964 35.761671 
L 246.758473 35.500376 
L 247.737306 35.239082 
L 248.716139 34.977788 
L 249.694971 34.716493 
L 250.673804 34.455199 
L 251.652637 34.193905 
L 252.63147 33.93261 
L 253.610303 33.671316 
L 254.589136 33.410022 
L 255.567969 33.148727 
L 256.546802 32.887433 
L 257.525635 32.626139 
L 258.504467 32.364844 
L 259.4833 32.10355 
L 260.462133 31.842256 
L 261.440966 31.580962 
L 262.419799 31.319667 
L 263.398632 31.058373 
L 264.377465 30.797079 
L 265.356298 30.535784 
L 266.335131 30.27449 
L 267.313963 30.013196 
L 268.292796 29.751901 
L 269.271629 29.490607 
L 270.250462 29.229313 
L 271.229295 28.968018 
L 272.208128 28.706724 
L 273.186961 28.44543 
L 274.165794 28.184136 
L 275.144627 27.922841 
L 276.12346 27.661547 
L 277.102292 27.400253 
L 278.081125 27.138958 
L 279.059958 26.877664 
L 280.038791 26.61637 
L 281.017624 26.355075 
L 281.996457 26.093781 
L 282.97529 25.832487 
L 283.954123 25.571192 
L 284.932956 25.309898 
L 285.911788 25.048604 
L 286.890621 24.787309 
L 287.869454 24.526015 
L 288.848287 24.264721 
L 289.82712 24.003427 
L 290.805953 23.742132 
L 291.784786 23.480838 
L 292.763619 23.219544 
L 293.742452 22.958249 
L 294.721284 22.696955 
L 295.700117 22.435661 
L 296.67895 22.174366 
L 297.657783 21.913072 
L 298.636616 21.651778 
L 299.615449 21.390483 
L 300.594282 21.129189 
L 301.573115 20.867895 
L 302.551948 20.606601 
L 303.53078 20.345306 
L 304.509613 20.084012 
L 305.488446 19.822718 
L 306.467279 19.561423 
L 307.446112 19.300129 
L 308.424945 19.038835 
L 309.403778 18.77754 
L 310.382611 18.516246 
L 311.361444 18.254952 
L 312.340276 17.993657 
L 313.319109 17.732363 
L 314.297942 17.471069 
L 315.276775 17.209775 
L 316.255608 16.94848 
L 317.234441 16.687186 
L 318.213274 16.425892 
L 319.192107 16.164597 
L 320.17094 15.903303 
" clip-path="url(#pfcb7398237)" style="fill: none; stroke: #d62728; stroke-width: 1.5; stroke-linecap: square"/>
   </g>
   <g id="line2d_23">
    <path d="M 65.796742 241.357538 
L 77.909799 236.34597 
L 90.022856 231.053064 
L 102.135913 224.879596 
L 114.24897 217.390382 
L 126.362027 210.445142 
L 138.475084 202.00917 
L 150.588141 178.116634 
L 162.701198 72.414553 
L 174.814255 77.848012 
L 186.927312 48.657483 
L 199.040369 59.058366 
L 211.153426 44.859786 
L 223.266483 48.325452 
L 235.37954 37.120855 
L 247.492597 34.730984 
L 259.605654 28.760765 
L 271.718711 23.686056 
L 283.831769 24.852842 
L 295.944826 20.622532 
L 308.057883 16.797098 
L 320.17094 14.350588 
" clip-path="url(#pfcb7398237)" style="fill: none; stroke: #1f77b4; stroke-opacity: 0.8; stroke-linecap: square"/>
    <defs>
     <path id="m51a2602230" d="M 0 3 
C 0.795609 3 1.55874 2.683901 2.12132 2.12132 
C 2.683901 1.55874 3 0.795609 3 0 
C 3 -0.795609 2.683901 -1.55874 2.12132 -2.12132 
C 1.55874 -2.683901 0.795609 -3 0 -3 
C -0.795609 -3 -1.55874 -2.683901 -2.12132 -2.12132 
C -2.683901 -1.55874 -3 -0.795609 -3 0 
C -3 0.795609 -2.683901 1.55874 -2.12132 2.12132 
C -1.55874 2.683901 -0.795609 3 0 3 
z
" style="stroke: #000000; stroke-opacity: 0.8"/>
    </defs>
    <g clip-path="url(#pfcb7398237)">
     <use xlink:href="#m51a2602230" x="65.796742" y="241.357538" style="fill: #1f77b4; fill-opacity: 0.8; stroke: #000000; stroke-opacity: 0.8"/>
     <use xlink:href="#m51a2602230" x="77.909799" y="236.34597" style="fill: #1f77b4; fill-opacity: 0.8; stroke: #000000; stroke-opacity: 0.8"/>
     <use xlink:href="#m51a2602230" x="90.022856" y="231.053064" style="fill: #1f77b4; fill-opacity: 0.8; stroke: #000000; stroke-opacity: 0.8"/>
     <use xlink:href="#m51a2602230" x="102.135913" y="224.879596" style="fill: #1f77b4; fill-opacity: 0.8; stroke: #000000; stroke-opacity: 0.8"/>
     <use xlink:href="#m51a2602230" x="114.24897" y="217.390382" style="fill: #1f77b4; fill-opacity: 0.8; stroke: #000000; stroke-opacity: 0.8"/>
     <use xlink:href="#m51a2602230" x="126.362027" y="210.445142" style="fill: #1f77b4; fill-opacity: 0.8; stroke: #000000; stroke-opacity: 0.8"/>
     <use xlink:href="#m51a2602230" x="138.475084" y="202.00917" style="fill: #1f77b4; fill-opacity: 0.8; stroke: #000000; stroke-opacity: 0.8"/>
     <use xlink:href="#m51a2602230" x="150.588141" y="178.116634" style="fill: #1f77b4; fill-opacity: 0.8; stroke: #000000; stroke-opacity: 0.8"/>
     <use xlink:href="#m51a2602230" x="162.701198" y="72.414553" style="fill: #1f77b4; fill-opacity: 0.8; stroke: #000000; stroke-opacity: 0.8"/>
     <use xlink:href="#m51a2602230" x="174.814255" y="77.848012" style="fill: #1f77b4; fill-opacity: 0.8; stroke: #000000; stroke-opacity: 0.8"/>
     <use xlink:href="#m51a2602230" x="186.927312" y="48.657483" style="fill: #1f77b4; fill-opacity: 0.8; stroke: #000000; stroke-opacity: 0.8"/>
     <use xlink:href="#m51a2602230" x="199.040369" y="59.058366" style="fill: #1f77b4; fill-opacity: 0.8; stroke: #000000; stroke-opacity: 0.8"/>
     <use xlink:href="#m51a2602230" x="211.153426" y="44.859786" style="fill: #1f77b4; fill-opacity: 0.8; stroke: #000000; stroke-opacity: 0.8"/>
     <use xlink:href="#m51a2602230" x="223.266483" y="48.325452" style="fill: #1f77b4; fill-opacity: 0.8; stroke: #000000; stroke-opacity: 0.8"/>
     <use xlink:href="#m51a2602230" x="235.37954" y="37.120855" style="fill: #1f77b4; fill-opacity: 0.8; stroke: #000000; stroke-opacity: 0.8"/>
     <use xlink:href="#m51a2602230" x="247.492597" y="34.730984" style="fill: #1f77b4; fill-opacity: 0.8; stroke: #000000; stroke-opacity: 0.8"/>
     <use xlink:href="#m51a2602230" x="259.605654" y="28.760765" style="fill: #1f77b4; fill-opacity: 0.8; stroke: #000000; stroke-opacity: 0.8"/>
     <use xlink:href="#m51a2602230" x="271.718711" y="23.686056" style="fill: #1f77b4; fill-opacity: 0.8; stroke: #000000; stroke-opacity: 0.8"/>
     <use xlink:href="#m51a2602230" x="283.831769" y="24.852842" style="fill: #1f77b4; fill-opacity: 0.8; stroke: #000000; stroke-opacity: 0.8"/>
     <use xlink:href="#m51a2602230" x="295.944826" y="20.622532" style="fill: #1f77b4; fill-opacity: 0.8; stroke: #000000; stroke-opacity: 0.8"/>
     <use xlink:href="#m51a2602230" x="308.057883" y="16.797098" style="fill: #1f77b4; fill-opacity: 0.8; stroke: #000000; stroke-opacity: 0.8"/>
     <use xlink:href="#m51a2602230" x="320.17094" y="14.350588" style="fill: #1f77b4; fill-opacity: 0.8; stroke: #000000; stroke-opacity: 0.8"/>
    </g>
   </g>
   <g id="patch_3">
    <path d="M 46.718678 252.707885 
L 46.718678 3.00024 
" style="fill: none; stroke: #000000; stroke-width: 0.8; stroke-linejoin: miter; stroke-linecap: square"/>
   </g>
   <g id="patch_4">
    <path d="M 333.192476 252.707885 
L 333.192476 3.00024 
" style="fill: none; stroke: #000000; stroke-width: 0.8; stroke-linejoin: miter; stroke-linecap: square"/>
   </g>
   <g id="patch_5">
    <path d="M 46.718678 252.707885 
L 333.192476 252.707885 
" style="fill: none; stroke: #000000; stroke-width: 0.8; stroke-linejoin: miter; stroke-linecap: square"/>
   </g>
   <g id="patch_6">
    <path d="M 46.718678 3.00024 
L 333.192476 3.00024 
" style="fill: none; stroke: #000000; stroke-width: 0.8; stroke-linejoin: miter; stroke-linecap: square"/>
   </g>
   <g id="legend_1">
    <g id="patch_7">
     <path d="M 157.192476 247.707885 
L 326.192476 247.707885 
Q 328.192476 247.707885 328.192476 245.707885 
L 328.192476 209.707885 
Q 328.192476 207.707885 326.192476 207.707885 
L 157.192476 207.707885 
Q 155.192476 207.707885 155.192476 209.707885 
L 155.192476 245.707885 
Q 155.192476 247.707885 157.192476 247.707885 
z
" style="fill: #ffffff; opacity: 0.8; stroke: #cccccc; stroke-linejoin: miter"/>
    </g>
    <g id="line2d_24">
     <path d="M 159.192476 217.707885 
L 169.192476 217.707885 
L 179.192476 217.707885 
" style="fill: none; stroke: #ff7f0e; stroke-width: 1.5; stroke-linecap: square"/>
    </g>
    <g id="text_13">
     <!-- $U_{t} = \frac{1}{2} N_{atoms}f_{deg} k_{B}T = 4.5k_{B}T$ -->
     <g transform="translate(187.192476 221.207885) scale(0.1 -0.1)">
      <defs>
       <path id="DejaVuSans-Oblique-55" d="M 991 4666 
L 1625 4666 
L 1075 1831 
Q 1041 1641 1027 1517 
Q 1013 1394 1013 1300 
Q 1013 869 1253 645 
Q 1494 422 1959 422 
Q 2563 422 2898 753 
Q 3234 1084 3378 1831 
L 3928 4666 
L 4563 4666 
L 4000 1753 
Q 3816 809 3300 359 
Q 2784 -91 1888 -91 
Q 1188 -91 780 261 
Q 372 613 372 1216 
Q 372 1325 387 1461 
Q 403 1597 434 1753 
L 991 4666 
z
" transform="scale(0.015625)"/>
       <path id="DejaVuSans-Oblique-74" d="M 2706 3500 
L 2619 3053 
L 1472 3053 
L 1100 1153 
Q 1081 1047 1072 975 
Q 1063 903 1063 863 
Q 1063 663 1183 572 
Q 1303 481 1569 481 
L 2150 481 
L 2053 0 
L 1503 0 
Q 991 0 739 200 
Q 488 400 488 806 
Q 488 878 497 964 
Q 506 1050 525 1153 
L 897 3053 
L 409 3053 
L 500 3500 
L 978 3500 
L 1172 4494 
L 1747 4494 
L 1556 3500 
L 2706 3500 
z
" transform="scale(0.015625)"/>
       <path id="DejaVuSans-3d" d="M 678 2906 
L 4684 2906 
L 4684 2381 
L 678 2381 
L 678 2906 
z
M 678 1631 
L 4684 1631 
L 4684 1100 
L 678 1100 
L 678 1631 
z
" transform="scale(0.015625)"/>
       <path id="DejaVuSans-Oblique-4e" d="M 1081 4666 
L 1931 4666 
L 3219 666 
L 4000 4666 
L 4616 4666 
L 3706 0 
L 2853 0 
L 1569 4025 
L 788 0 
L 172 0 
L 1081 4666 
z
" transform="scale(0.015625)"/>
       <path id="DejaVuSans-Oblique-61" d="M 3438 1997 
L 3047 0 
L 2472 0 
L 2578 531 
Q 2325 219 2001 64 
Q 1678 -91 1281 -91 
Q 834 -91 548 182 
Q 263 456 263 884 
Q 263 1497 752 1853 
Q 1241 2209 2100 2209 
L 2900 2209 
L 2931 2363 
Q 2938 2388 2941 2417 
Q 2944 2447 2944 2509 
Q 2944 2788 2717 2942 
Q 2491 3097 2081 3097 
Q 1800 3097 1504 3025 
Q 1209 2953 897 2809 
L 997 3341 
Q 1322 3463 1633 3523 
Q 1944 3584 2234 3584 
Q 2853 3584 3176 3315 
Q 3500 3047 3500 2534 
Q 3500 2431 3484 2292 
Q 3469 2153 3438 1997 
z
M 2816 1759 
L 2241 1759 
Q 1534 1759 1195 1570 
Q 856 1381 856 984 
Q 856 709 1029 553 
Q 1203 397 1509 397 
Q 1978 397 2328 733 
Q 2678 1069 2791 1631 
L 2816 1759 
z
" transform="scale(0.015625)"/>
       <path id="DejaVuSans-Oblique-6f" d="M 1625 -91 
Q 1009 -91 651 289 
Q 294 669 294 1325 
Q 294 1706 417 2101 
Q 541 2497 738 2766 
Q 1047 3184 1428 3384 
Q 1809 3584 2291 3584 
Q 2888 3584 3255 3212 
Q 3622 2841 3622 2241 
Q 3622 1825 3500 1412 
Q 3378 1000 3181 728 
Q 2875 309 2494 109 
Q 2113 -91 1625 -91 
z
M 891 1344 
Q 891 869 1089 633 
Q 1288 397 1691 397 
Q 2269 397 2648 901 
Q 3028 1406 3028 2181 
Q 3028 2634 2825 2865 
Q 2622 3097 2228 3097 
Q 1903 3097 1650 2945 
Q 1397 2794 1197 2484 
Q 1050 2253 970 1956 
Q 891 1659 891 1344 
z
" transform="scale(0.015625)"/>
       <path id="DejaVuSans-Oblique-6d" d="M 5747 2113 
L 5338 0 
L 4763 0 
L 5166 2094 
Q 5191 2228 5203 2325 
Q 5216 2422 5216 2491 
Q 5216 2772 5059 2928 
Q 4903 3084 4622 3084 
Q 4203 3084 3875 2770 
Q 3547 2456 3450 1953 
L 3066 0 
L 2491 0 
L 2900 2094 
Q 2925 2209 2937 2307 
Q 2950 2406 2950 2484 
Q 2950 2769 2794 2926 
Q 2638 3084 2363 3084 
Q 1938 3084 1609 2770 
Q 1281 2456 1184 1953 
L 800 0 
L 225 0 
L 909 3500 
L 1484 3500 
L 1375 2956 
Q 1609 3263 1923 3423 
Q 2238 3584 2597 3584 
Q 2978 3584 3223 3384 
Q 3469 3184 3519 2828 
Q 3781 3197 4126 3390 
Q 4472 3584 4856 3584 
Q 5306 3584 5551 3325 
Q 5797 3066 5797 2591 
Q 5797 2488 5784 2364 
Q 5772 2241 5747 2113 
z
" transform="scale(0.015625)"/>
       <path id="DejaVuSans-Oblique-73" d="M 3200 3397 
L 3091 2853 
Q 2863 2978 2609 3040 
Q 2356 3103 2088 3103 
Q 1634 3103 1373 2948 
Q 1113 2794 1113 2528 
Q 1113 2219 1719 2053 
Q 1766 2041 1788 2034 
L 1972 1978 
Q 2547 1819 2739 1644 
Q 2931 1469 2931 1166 
Q 2931 609 2489 259 
Q 2047 -91 1331 -91 
Q 1053 -91 747 -37 
Q 441 16 72 128 
L 184 722 
Q 500 559 806 475 
Q 1113 391 1394 391 
Q 1816 391 2080 572 
Q 2344 753 2344 1031 
Q 2344 1331 1650 1516 
L 1591 1531 
L 1394 1581 
Q 956 1697 753 1886 
Q 550 2075 550 2369 
Q 550 2928 970 3256 
Q 1391 3584 2113 3584 
Q 2397 3584 2667 3537 
Q 2938 3491 3200 3397 
z
" transform="scale(0.015625)"/>
       <path id="DejaVuSans-Oblique-66" d="M 3059 4863 
L 2969 4384 
L 2419 4384 
Q 2106 4384 1964 4261 
Q 1822 4138 1753 3809 
L 1691 3500 
L 2638 3500 
L 2553 3053 
L 1606 3053 
L 1013 0 
L 434 0 
L 1031 3053 
L 481 3053 
L 563 3500 
L 1113 3500 
L 1159 3744 
Q 1278 4363 1576 4613 
Q 1875 4863 2516 4863 
L 3059 4863 
z
" transform="scale(0.015625)"/>
       <path id="DejaVuSans-Oblique-64" d="M 2675 525 
Q 2444 222 2128 65 
Q 1813 -91 1428 -91 
Q 903 -91 598 267 
Q 294 625 294 1247 
Q 294 1766 478 2236 
Q 663 2706 1013 3078 
Q 1244 3325 1534 3454 
Q 1825 3584 2144 3584 
Q 2481 3584 2739 3421 
Q 2997 3259 3138 2956 
L 3513 4863 
L 4091 4863 
L 3144 0 
L 2566 0 
L 2675 525 
z
M 891 1350 
Q 891 897 1095 644 
Q 1300 391 1663 391 
Q 1931 391 2161 520 
Q 2391 650 2566 903 
Q 2750 1166 2856 1509 
Q 2963 1853 2963 2188 
Q 2963 2622 2758 2865 
Q 2553 3109 2194 3109 
Q 1922 3109 1687 2981 
Q 1453 2853 1288 2613 
Q 1106 2353 998 2009 
Q 891 1666 891 1350 
z
" transform="scale(0.015625)"/>
       <path id="DejaVuSans-Oblique-65" d="M 3078 2063 
Q 3088 2113 3092 2166 
Q 3097 2219 3097 2272 
Q 3097 2653 2873 2875 
Q 2650 3097 2266 3097 
Q 1838 3097 1509 2826 
Q 1181 2556 1013 2059 
L 3078 2063 
z
M 3578 1613 
L 903 1613 
Q 884 1494 878 1425 
Q 872 1356 872 1306 
Q 872 872 1139 634 
Q 1406 397 1894 397 
Q 2269 397 2603 481 
Q 2938 566 3225 728 
L 3116 159 
Q 2806 34 2476 -28 
Q 2147 -91 1806 -91 
Q 1078 -91 686 257 
Q 294 606 294 1247 
Q 294 1794 489 2264 
Q 684 2734 1063 3103 
Q 1306 3334 1642 3459 
Q 1978 3584 2356 3584 
Q 2950 3584 3301 3228 
Q 3653 2872 3653 2272 
Q 3653 2128 3634 1964 
Q 3616 1800 3578 1613 
z
" transform="scale(0.015625)"/>
       <path id="DejaVuSans-Oblique-67" d="M 3816 3500 
L 3219 434 
Q 3047 -456 2561 -893 
Q 2075 -1331 1253 -1331 
Q 950 -1331 690 -1286 
Q 431 -1241 206 -1147 
L 313 -588 
Q 525 -725 762 -790 
Q 1000 -856 1269 -856 
Q 1816 -856 2167 -557 
Q 2519 -259 2631 300 
L 2681 563 
Q 2441 288 2122 144 
Q 1803 0 1434 0 
Q 903 0 598 351 
Q 294 703 294 1319 
Q 294 1803 478 2267 
Q 663 2731 997 3091 
Q 1219 3328 1514 3456 
Q 1809 3584 2131 3584 
Q 2484 3584 2746 3420 
Q 3009 3256 3138 2956 
L 3238 3500 
L 3816 3500 
z
M 2950 2216 
Q 2950 2641 2750 2872 
Q 2550 3103 2181 3103 
Q 1953 3103 1747 3012 
Q 1541 2922 1394 2759 
Q 1156 2491 1023 2127 
Q 891 1763 891 1375 
Q 891 944 1092 712 
Q 1294 481 1672 481 
Q 2219 481 2584 976 
Q 2950 1472 2950 2216 
z
" transform="scale(0.015625)"/>
       <path id="DejaVuSans-34" d="M 2419 4116 
L 825 1625 
L 2419 1625 
L 2419 4116 
z
M 2253 4666 
L 3047 4666 
L 3047 1625 
L 3713 1625 
L 3713 1100 
L 3047 1100 
L 3047 0 
L 2419 0 
L 2419 1100 
L 313 1100 
L 313 1709 
L 2253 4666 
z
" transform="scale(0.015625)"/>
      </defs>
      <use xlink:href="#DejaVuSans-Oblique-55" transform="translate(0 0.16875)"/>
      <use xlink:href="#DejaVuSans-Oblique-74" transform="translate(73.193359 -16.2375) scale(0.7)"/>
      <use xlink:href="#DejaVuSans-3d" transform="translate(122.856445 0.16875)"/>
      <use xlink:href="#DejaVuSans-31" transform="translate(226.12793 43.965625) scale(0.7)"/>
      <use xlink:href="#DejaVuSans-32" transform="translate(226.12793 -39.2375) scale(0.7)"/>
      <use xlink:href="#DejaVuSans-Oblique-4e" transform="translate(283.164062 0.16875)"/>
      <use xlink:href="#DejaVuSans-Oblique-61" transform="translate(357.96875 -16.2375) scale(0.7)"/>
      <use xlink:href="#DejaVuSans-Oblique-74" transform="translate(400.864258 -16.2375) scale(0.7)"/>
      <use xlink:href="#DejaVuSans-Oblique-6f" transform="translate(428.310547 -16.2375) scale(0.7)"/>
      <use xlink:href="#DejaVuSans-Oblique-6d" transform="translate(471.137695 -16.2375) scale(0.7)"/>
      <use xlink:href="#DejaVuSans-Oblique-73" transform="translate(539.326172 -16.2375) scale(0.7)"/>
      <use xlink:href="#DejaVuSans-Oblique-66" transform="translate(578.530273 0.16875)"/>
      <use xlink:href="#DejaVuSans-Oblique-64" transform="translate(613.735352 -16.2375) scale(0.7)"/>
      <use xlink:href="#DejaVuSans-Oblique-65" transform="translate(658.168945 -16.2375) scale(0.7)"/>
      <use xlink:href="#DejaVuSans-Oblique-67" transform="translate(701.235352 -16.2375) scale(0.7)"/>
      <use xlink:href="#DejaVuSans-Oblique-6b" transform="translate(748.40332 0.16875)"/>
      <use xlink:href="#DejaVuSans-Oblique-42" transform="translate(806.313477 -16.2375) scale(0.7)"/>
      <use xlink:href="#DejaVuSans-Oblique-54" transform="translate(857.070312 0.16875)"/>
      <use xlink:href="#DejaVuSans-3d" transform="translate(937.636719 0.16875)"/>
      <use xlink:href="#DejaVuSans-34" transform="translate(1040.908203 0.16875)"/>
      <use xlink:href="#DejaVuSans-2e" transform="translate(1104.53125 0.16875)"/>
      <use xlink:href="#DejaVuSans-35" transform="translate(1136.318359 0.16875)"/>
      <use xlink:href="#DejaVuSans-Oblique-6b" transform="translate(1199.941406 0.16875)"/>
      <use xlink:href="#DejaVuSans-Oblique-42" transform="translate(1257.851562 -16.2375) scale(0.7)"/>
      <use xlink:href="#DejaVuSans-Oblique-54" transform="translate(1308.608398 0.16875)"/>
      <path d="M 226.12793 18.965625 
L 226.12793 25.215625 
L 270.664062 25.215625 
L 270.664062 18.965625 
L 226.12793 18.965625 
z
"/>
     </g>
    </g>
    <g id="line2d_25">
     <path d="M 159.192476 236.207885 
L 169.192476 236.207885 
L 179.192476 236.207885 
" style="fill: none; stroke: #d62728; stroke-width: 1.5; stroke-linecap: square"/>
    </g>
    <g id="text_14">
     <!-- $U_{t} = \frac{1}{2} N_{atoms}f_{deg} k_{B}T = 3k_{B}T$ -->
     <g transform="translate(187.192476 239.707885) scale(0.1 -0.1)">
      <defs>
       <path id="DejaVuSans-33" d="M 2597 2516 
Q 3050 2419 3304 2112 
Q 3559 1806 3559 1356 
Q 3559 666 3084 287 
Q 2609 -91 1734 -91 
Q 1441 -91 1130 -33 
Q 819 25 488 141 
L 488 750 
Q 750 597 1062 519 
Q 1375 441 1716 441 
Q 2309 441 2620 675 
Q 2931 909 2931 1356 
Q 2931 1769 2642 2001 
Q 2353 2234 1838 2234 
L 1294 2234 
L 1294 2753 
L 1863 2753 
Q 2328 2753 2575 2939 
Q 2822 3125 2822 3475 
Q 2822 3834 2567 4026 
Q 2313 4219 1838 4219 
Q 1578 4219 1281 4162 
Q 984 4106 628 3988 
L 628 4550 
Q 988 4650 1302 4700 
Q 1616 4750 1894 4750 
Q 2613 4750 3031 4423 
Q 3450 4097 3450 3541 
Q 3450 3153 3228 2886 
Q 3006 2619 2597 2516 
z
" transform="scale(0.015625)"/>
      </defs>
      <use xlink:href="#DejaVuSans-Oblique-55" transform="translate(0 0.16875)"/>
      <use xlink:href="#DejaVuSans-Oblique-74" transform="translate(73.193359 -16.2375) scale(0.7)"/>
      <use xlink:href="#DejaVuSans-3d" transform="translate(122.856445 0.16875)"/>
      <use xlink:href="#DejaVuSans-31" transform="translate(226.12793 43.965625) scale(0.7)"/>
      <use xlink:href="#DejaVuSans-32" transform="translate(226.12793 -39.2375) scale(0.7)"/>
      <use xlink:href="#DejaVuSans-Oblique-4e" transform="translate(283.164062 0.16875)"/>
      <use xlink:href="#DejaVuSans-Oblique-61" transform="translate(357.96875 -16.2375) scale(0.7)"/>
      <use xlink:href="#DejaVuSans-Oblique-74" transform="translate(400.864258 -16.2375) scale(0.7)"/>
      <use xlink:href="#DejaVuSans-Oblique-6f" transform="translate(428.310547 -16.2375) scale(0.7)"/>
      <use xlink:href="#DejaVuSans-Oblique-6d" transform="translate(471.137695 -16.2375) scale(0.7)"/>
      <use xlink:href="#DejaVuSans-Oblique-73" transform="translate(539.326172 -16.2375) scale(0.7)"/>
      <use xlink:href="#DejaVuSans-Oblique-66" transform="translate(578.530273 0.16875)"/>
      <use xlink:href="#DejaVuSans-Oblique-64" transform="translate(613.735352 -16.2375) scale(0.7)"/>
      <use xlink:href="#DejaVuSans-Oblique-65" transform="translate(658.168945 -16.2375) scale(0.7)"/>
      <use xlink:href="#DejaVuSans-Oblique-67" transform="translate(701.235352 -16.2375) scale(0.7)"/>
      <use xlink:href="#DejaVuSans-Oblique-6b" transform="translate(748.40332 0.16875)"/>
      <use xlink:href="#DejaVuSans-Oblique-42" transform="translate(806.313477 -16.2375) scale(0.7)"/>
      <use xlink:href="#DejaVuSans-Oblique-54" transform="translate(857.070312 0.16875)"/>
      <use xlink:href="#DejaVuSans-3d" transform="translate(937.636719 0.16875)"/>
      <use xlink:href="#DejaVuSans-33" transform="translate(1040.908203 0.16875)"/>
      <use xlink:href="#DejaVuSans-Oblique-6b" transform="translate(1104.53125 0.16875)"/>
      <use xlink:href="#DejaVuSans-Oblique-42" transform="translate(1162.441406 -16.2375) scale(0.7)"/>
      <use xlink:href="#DejaVuSans-Oblique-54" transform="translate(1213.198242 0.16875)"/>
      <path d="M 226.12793 18.965625 
L 226.12793 25.215625 
L 270.664062 25.215625 
L 270.664062 18.965625 
L 226.12793 18.965625 
z
"/>
     </g>
    </g>
   </g>
  </g>
  <g id="axes_2">
   <g id="patch_8">
    <path d="M 381.613726 252.707885 
L 668.087524 252.707885 
L 668.087524 3.00024 
L 381.613726 3.00024 
z
" style="fill: #ffffff"/>
   </g>
   <g id="matplotlib.axis_3">
    <g id="xtick_6">
     <g id="line2d_26">
      <path d="M 388.578734 252.707885 
L 388.578734 3.00024 
" clip-path="url(#p02b7bf4749)" style="fill: none; stroke: #b0b0b0; stroke-width: 0.8; stroke-linecap: square"/>
     </g>
     <g id="line2d_27">
      <g>
       <use xlink:href="#m33ca82a192" x="388.578734" y="252.707885" style="stroke: #000000; stroke-width: 0.8"/>
      </g>
     </g>
     <g id="text_15">
      <!-- 0.0 -->
      <g transform="translate(380.627171 267.306323) scale(0.1 -0.1)">
       <use xlink:href="#DejaVuSans-30"/>
       <use xlink:href="#DejaVuSans-2e" x="63.623047"/>
       <use xlink:href="#DejaVuSans-30" x="95.410156"/>
      </g>
     </g>
    </g>
    <g id="xtick_7">
     <g id="line2d_28">
      <path d="M 449.144019 252.707885 
L 449.144019 3.00024 
" clip-path="url(#p02b7bf4749)" style="fill: none; stroke: #b0b0b0; stroke-width: 0.8; stroke-linecap: square"/>
     </g>
     <g id="line2d_29">
      <g>
       <use xlink:href="#m33ca82a192" x="449.144019" y="252.707885" style="stroke: #000000; stroke-width: 0.8"/>
      </g>
     </g>
     <g id="text_16">
      <!-- 0.5 -->
      <g transform="translate(441.192456 267.306323) scale(0.1 -0.1)">
       <use xlink:href="#DejaVuSans-30"/>
       <use xlink:href="#DejaVuSans-2e" x="63.623047"/>
       <use xlink:href="#DejaVuSans-35" x="95.410156"/>
      </g>
     </g>
    </g>
    <g id="xtick_8">
     <g id="line2d_30">
      <path d="M 509.709304 252.707885 
L 509.709304 3.00024 
" clip-path="url(#p02b7bf4749)" style="fill: none; stroke: #b0b0b0; stroke-width: 0.8; stroke-linecap: square"/>
     </g>
     <g id="line2d_31">
      <g>
       <use xlink:href="#m33ca82a192" x="509.709304" y="252.707885" style="stroke: #000000; stroke-width: 0.8"/>
      </g>
     </g>
     <g id="text_17">
      <!-- 1.0 -->
      <g transform="translate(501.757741 267.306323) scale(0.1 -0.1)">
       <use xlink:href="#DejaVuSans-31"/>
       <use xlink:href="#DejaVuSans-2e" x="63.623047"/>
       <use xlink:href="#DejaVuSans-30" x="95.410156"/>
      </g>
     </g>
    </g>
    <g id="xtick_9">
     <g id="line2d_32">
      <path d="M 570.274589 252.707885 
L 570.274589 3.00024 
" clip-path="url(#p02b7bf4749)" style="fill: none; stroke: #b0b0b0; stroke-width: 0.8; stroke-linecap: square"/>
     </g>
     <g id="line2d_33">
      <g>
       <use xlink:href="#m33ca82a192" x="570.274589" y="252.707885" style="stroke: #000000; stroke-width: 0.8"/>
      </g>
     </g>
     <g id="text_18">
      <!-- 1.5 -->
      <g transform="translate(562.323026 267.306323) scale(0.1 -0.1)">
       <use xlink:href="#DejaVuSans-31"/>
       <use xlink:href="#DejaVuSans-2e" x="63.623047"/>
       <use xlink:href="#DejaVuSans-35" x="95.410156"/>
      </g>
     </g>
    </g>
    <g id="xtick_10">
     <g id="line2d_34">
      <path d="M 630.839874 252.707885 
L 630.839874 3.00024 
" clip-path="url(#p02b7bf4749)" style="fill: none; stroke: #b0b0b0; stroke-width: 0.8; stroke-linecap: square"/>
     </g>
     <g id="line2d_35">
      <g>
       <use xlink:href="#m33ca82a192" x="630.839874" y="252.707885" style="stroke: #000000; stroke-width: 0.8"/>
      </g>
     </g>
     <g id="text_19">
      <!-- 2.0 -->
      <g transform="translate(622.888311 267.306323) scale(0.1 -0.1)">
       <use xlink:href="#DejaVuSans-32"/>
       <use xlink:href="#DejaVuSans-2e" x="63.623047"/>
       <use xlink:href="#DejaVuSans-30" x="95.410156"/>
      </g>
     </g>
    </g>
    <g id="text_20">
     <!-- $k_{B}T$ $\left[k_{B}T_0\right]$ -->
     <g transform="translate(495.030625 282.504135) scale(0.12 -0.12)">
      <use xlink:href="#DejaVuSans-Oblique-6b" transform="translate(0 0.015625)"/>
      <use xlink:href="#DejaVuSans-Oblique-42" transform="translate(57.910156 -16.390625) scale(0.7)"/>
      <use xlink:href="#DejaVuSans-Oblique-54" transform="translate(108.666992 0.015625)"/>
      <use xlink:href="#DejaVuSans-20" transform="translate(169.750977 0.015625)"/>
      <use xlink:href="#DejaVuSans-5b" transform="translate(201.538086 0.015625)"/>
      <use xlink:href="#DejaVuSans-Oblique-6b" transform="translate(240.551758 0.015625)"/>
      <use xlink:href="#DejaVuSans-Oblique-42" transform="translate(298.461914 -16.390625) scale(0.7)"/>
      <use xlink:href="#DejaVuSans-Oblique-54" transform="translate(349.21875 0.015625)"/>
      <use xlink:href="#DejaVuSans-30" transform="translate(410.302734 -16.390625) scale(0.7)"/>
      <use xlink:href="#DejaVuSans-5d" transform="translate(457.573242 0.015625)"/>
     </g>
    </g>
   </g>
   <g id="matplotlib.axis_4">
    <g id="ytick_6">
     <g id="line2d_36">
      <path d="M 381.613726 221.021512 
L 668.087524 221.021512 
" clip-path="url(#p02b7bf4749)" style="fill: none; stroke: #b0b0b0; stroke-width: 0.8; stroke-linecap: square"/>
     </g>
     <g id="line2d_37">
      <g>
       <use xlink:href="#m73b1b7ace9" x="381.613726" y="221.021512" style="stroke: #000000; stroke-width: 0.8"/>
      </g>
     </g>
     <g id="text_21">
      <!-- 0 -->
      <g transform="translate(368.251226 224.820731) scale(0.1 -0.1)">
       <use xlink:href="#DejaVuSans-30"/>
      </g>
     </g>
    </g>
    <g id="ytick_7">
     <g id="line2d_38">
      <path d="M 381.613726 178.873243 
L 668.087524 178.873243 
" clip-path="url(#p02b7bf4749)" style="fill: none; stroke: #b0b0b0; stroke-width: 0.8; stroke-linecap: square"/>
     </g>
     <g id="line2d_39">
      <g>
       <use xlink:href="#m73b1b7ace9" x="381.613726" y="178.873243" style="stroke: #000000; stroke-width: 0.8"/>
      </g>
     </g>
     <g id="text_22">
      <!-- 20 -->
      <g transform="translate(361.888726 182.672461) scale(0.1 -0.1)">
       <use xlink:href="#DejaVuSans-32"/>
       <use xlink:href="#DejaVuSans-30" x="63.623047"/>
      </g>
     </g>
    </g>
    <g id="ytick_8">
     <g id="line2d_40">
      <path d="M 381.613726 136.724973 
L 668.087524 136.724973 
" clip-path="url(#p02b7bf4749)" style="fill: none; stroke: #b0b0b0; stroke-width: 0.8; stroke-linecap: square"/>
     </g>
     <g id="line2d_41">
      <g>
       <use xlink:href="#m73b1b7ace9" x="381.613726" y="136.724973" style="stroke: #000000; stroke-width: 0.8"/>
      </g>
     </g>
     <g id="text_23">
      <!-- 40 -->
      <g transform="translate(361.888726 140.524192) scale(0.1 -0.1)">
       <use xlink:href="#DejaVuSans-34"/>
       <use xlink:href="#DejaVuSans-30" x="63.623047"/>
      </g>
     </g>
    </g>
    <g id="ytick_9">
     <g id="line2d_42">
      <path d="M 381.613726 94.576704 
L 668.087524 94.576704 
" clip-path="url(#p02b7bf4749)" style="fill: none; stroke: #b0b0b0; stroke-width: 0.8; stroke-linecap: square"/>
     </g>
     <g id="line2d_43">
      <g>
       <use xlink:href="#m73b1b7ace9" x="381.613726" y="94.576704" style="stroke: #000000; stroke-width: 0.8"/>
      </g>
     </g>
     <g id="text_24">
      <!-- 60 -->
      <g transform="translate(361.888726 98.375923) scale(0.1 -0.1)">
       <defs>
        <path id="DejaVuSans-36" d="M 2113 2584 
Q 1688 2584 1439 2293 
Q 1191 2003 1191 1497 
Q 1191 994 1439 701 
Q 1688 409 2113 409 
Q 2538 409 2786 701 
Q 3034 994 3034 1497 
Q 3034 2003 2786 2293 
Q 2538 2584 2113 2584 
z
M 3366 4563 
L 3366 3988 
Q 3128 4100 2886 4159 
Q 2644 4219 2406 4219 
Q 1781 4219 1451 3797 
Q 1122 3375 1075 2522 
Q 1259 2794 1537 2939 
Q 1816 3084 2150 3084 
Q 2853 3084 3261 2657 
Q 3669 2231 3669 1497 
Q 3669 778 3244 343 
Q 2819 -91 2113 -91 
Q 1303 -91 875 529 
Q 447 1150 447 2328 
Q 447 3434 972 4092 
Q 1497 4750 2381 4750 
Q 2619 4750 2861 4703 
Q 3103 4656 3366 4563 
z
" transform="scale(0.015625)"/>
       </defs>
       <use xlink:href="#DejaVuSans-36"/>
       <use xlink:href="#DejaVuSans-30" x="63.623047"/>
      </g>
     </g>
    </g>
    <g id="ytick_10">
     <g id="line2d_44">
      <path d="M 381.613726 52.428435 
L 668.087524 52.428435 
" clip-path="url(#p02b7bf4749)" style="fill: none; stroke: #b0b0b0; stroke-width: 0.8; stroke-linecap: square"/>
     </g>
     <g id="line2d_45">
      <g>
       <use xlink:href="#m73b1b7ace9" x="381.613726" y="52.428435" style="stroke: #000000; stroke-width: 0.8"/>
      </g>
     </g>
     <g id="text_25">
      <!-- 80 -->
      <g transform="translate(361.888726 56.227653) scale(0.1 -0.1)">
       <defs>
        <path id="DejaVuSans-38" d="M 2034 2216 
Q 1584 2216 1326 1975 
Q 1069 1734 1069 1313 
Q 1069 891 1326 650 
Q 1584 409 2034 409 
Q 2484 409 2743 651 
Q 3003 894 3003 1313 
Q 3003 1734 2745 1975 
Q 2488 2216 2034 2216 
z
M 1403 2484 
Q 997 2584 770 2862 
Q 544 3141 544 3541 
Q 544 4100 942 4425 
Q 1341 4750 2034 4750 
Q 2731 4750 3128 4425 
Q 3525 4100 3525 3541 
Q 3525 3141 3298 2862 
Q 3072 2584 2669 2484 
Q 3125 2378 3379 2068 
Q 3634 1759 3634 1313 
Q 3634 634 3220 271 
Q 2806 -91 2034 -91 
Q 1263 -91 848 271 
Q 434 634 434 1313 
Q 434 1759 690 2068 
Q 947 2378 1403 2484 
z
M 1172 3481 
Q 1172 3119 1398 2916 
Q 1625 2713 2034 2713 
Q 2441 2713 2670 2916 
Q 2900 3119 2900 3481 
Q 2900 3844 2670 4047 
Q 2441 4250 2034 4250 
Q 1625 4250 1398 4047 
Q 1172 3844 1172 3481 
z
" transform="scale(0.015625)"/>
       </defs>
       <use xlink:href="#DejaVuSans-38"/>
       <use xlink:href="#DejaVuSans-30" x="63.623047"/>
      </g>
     </g>
    </g>
    <g id="ytick_11">
     <g id="line2d_46">
      <path d="M 381.613726 10.280165 
L 668.087524 10.280165 
" clip-path="url(#p02b7bf4749)" style="fill: none; stroke: #b0b0b0; stroke-width: 0.8; stroke-linecap: square"/>
     </g>
     <g id="line2d_47">
      <g>
       <use xlink:href="#m73b1b7ace9" x="381.613726" y="10.280165" style="stroke: #000000; stroke-width: 0.8"/>
      </g>
     </g>
     <g id="text_26">
      <!-- 100 -->
      <g transform="translate(355.526226 14.079384) scale(0.1 -0.1)">
       <use xlink:href="#DejaVuSans-31"/>
       <use xlink:href="#DejaVuSans-30" x="63.623047"/>
       <use xlink:href="#DejaVuSans-30" x="127.246094"/>
      </g>
     </g>
    </g>
    <g id="text_27">
     <!-- $C_v/k_{B}$ -->
     <g transform="translate(349.030601 143.274063) rotate(-90) scale(0.12 -0.12)">
      <defs>
       <path id="DejaVuSans-Oblique-43" d="M 4447 4306 
L 4319 3641 
Q 4019 3944 3683 4091 
Q 3347 4238 2956 4238 
Q 2422 4238 2017 3981 
Q 1613 3725 1319 3200 
Q 1131 2863 1032 2486 
Q 934 2109 934 1728 
Q 934 1091 1264 756 
Q 1594 422 2222 422 
Q 2656 422 3056 561 
Q 3456 700 3834 978 
L 3688 231 
Q 3316 72 2936 -9 
Q 2556 -91 2175 -91 
Q 1278 -91 773 396 
Q 269 884 269 1753 
Q 269 2309 461 2846 
Q 653 3384 1013 3828 
Q 1394 4300 1883 4525 
Q 2372 4750 3022 4750 
Q 3422 4750 3780 4639 
Q 4138 4528 4447 4306 
z
" transform="scale(0.015625)"/>
       <path id="DejaVuSans-Oblique-76" d="M 459 3500 
L 1069 3500 
L 1581 525 
L 3256 3500 
L 3866 3500 
L 1875 0 
L 1100 0 
L 459 3500 
z
" transform="scale(0.015625)"/>
       <path id="DejaVuSans-2f" d="M 1625 4666 
L 2156 4666 
L 531 -594 
L 0 -594 
L 1625 4666 
z
" transform="scale(0.015625)"/>
      </defs>
      <use xlink:href="#DejaVuSans-Oblique-43" transform="translate(0 0.015625)"/>
      <use xlink:href="#DejaVuSans-Oblique-76" transform="translate(69.824219 -16.390625) scale(0.7)"/>
      <use xlink:href="#DejaVuSans-2f" transform="translate(113.984375 0.015625)"/>
      <use xlink:href="#DejaVuSans-Oblique-6b" transform="translate(147.675781 0.015625)"/>
      <use xlink:href="#DejaVuSans-Oblique-42" transform="translate(205.585938 -16.390625) scale(0.7)"/>
     </g>
    </g>
   </g>
   <g id="LineCollection_1">
    <path d="M 394.635262 211.538151 
L 485.48319 211.538151 
" clip-path="url(#p02b7bf4749)" style="fill: none; stroke: #ff7f0e; stroke-width: 1.5"/>
   </g>
   <g id="LineCollection_2">
    <path d="M 558.161532 214.699272 
L 655.065988 214.699272 
" clip-path="url(#p02b7bf4749)" style="fill: none; stroke: #d62728; stroke-width: 1.5"/>
   </g>
   <g id="line2d_48">
    <path d="M 400.691791 211.682649 
L 412.804848 211.222791 
L 424.917905 210.672711 
L 437.030962 208.951018 
L 449.144019 206.378443 
L 461.257076 207.442033 
L 473.370133 204.527323 
L 485.48319 174.306325 
L 497.596247 14.350588 
L 509.709304 231.645125 
L 521.822361 163.947578 
L 533.935418 241.357538 
L 546.048475 193.26015 
L 558.161532 227.797654 
L 570.274589 199.11405 
L 582.387646 216.348785 
L 594.500703 209.348415 
L 606.61376 211.099335 
L 618.726817 223.302836 
L 630.839874 212.750322 
L 642.952931 213.541944 
L 655.065988 216.238043 
" clip-path="url(#p02b7bf4749)" style="fill: none; stroke: #1f77b4; stroke-opacity: 0.8; stroke-linecap: square"/>
    <g clip-path="url(#p02b7bf4749)">
     <use xlink:href="#m51a2602230" x="400.691791" y="211.682649" style="fill: #1f77b4; fill-opacity: 0.8; stroke: #000000; stroke-opacity: 0.8"/>
     <use xlink:href="#m51a2602230" x="412.804848" y="211.222791" style="fill: #1f77b4; fill-opacity: 0.8; stroke: #000000; stroke-opacity: 0.8"/>
     <use xlink:href="#m51a2602230" x="424.917905" y="210.672711" style="fill: #1f77b4; fill-opacity: 0.8; stroke: #000000; stroke-opacity: 0.8"/>
     <use xlink:href="#m51a2602230" x="437.030962" y="208.951018" style="fill: #1f77b4; fill-opacity: 0.8; stroke: #000000; stroke-opacity: 0.8"/>
     <use xlink:href="#m51a2602230" x="449.144019" y="206.378443" style="fill: #1f77b4; fill-opacity: 0.8; stroke: #000000; stroke-opacity: 0.8"/>
     <use xlink:href="#m51a2602230" x="461.257076" y="207.442033" style="fill: #1f77b4; fill-opacity: 0.8; stroke: #000000; stroke-opacity: 0.8"/>
     <use xlink:href="#m51a2602230" x="473.370133" y="204.527323" style="fill: #1f77b4; fill-opacity: 0.8; stroke: #000000; stroke-opacity: 0.8"/>
     <use xlink:href="#m51a2602230" x="485.48319" y="174.306325" style="fill: #1f77b4; fill-opacity: 0.8; stroke: #000000; stroke-opacity: 0.8"/>
     <use xlink:href="#m51a2602230" x="497.596247" y="14.350588" style="fill: #1f77b4; fill-opacity: 0.8; stroke: #000000; stroke-opacity: 0.8"/>
     <use xlink:href="#m51a2602230" x="509.709304" y="231.645125" style="fill: #1f77b4; fill-opacity: 0.8; stroke: #000000; stroke-opacity: 0.8"/>
     <use xlink:href="#m51a2602230" x="521.822361" y="163.947578" style="fill: #1f77b4; fill-opacity: 0.8; stroke: #000000; stroke-opacity: 0.8"/>
     <use xlink:href="#m51a2602230" x="533.935418" y="241.357538" style="fill: #1f77b4; fill-opacity: 0.8; stroke: #000000; stroke-opacity: 0.8"/>
     <use xlink:href="#m51a2602230" x="546.048475" y="193.26015" style="fill: #1f77b4; fill-opacity: 0.8; stroke: #000000; stroke-opacity: 0.8"/>
     <use xlink:href="#m51a2602230" x="558.161532" y="227.797654" style="fill: #1f77b4; fill-opacity: 0.8; stroke: #000000; stroke-opacity: 0.8"/>
     <use xlink:href="#m51a2602230" x="570.274589" y="199.11405" style="fill: #1f77b4; fill-opacity: 0.8; stroke: #000000; stroke-opacity: 0.8"/>
     <use xlink:href="#m51a2602230" x="582.387646" y="216.348785" style="fill: #1f77b4; fill-opacity: 0.8; stroke: #000000; stroke-opacity: 0.8"/>
     <use xlink:href="#m51a2602230" x="594.500703" y="209.348415" style="fill: #1f77b4; fill-opacity: 0.8; stroke: #000000; stroke-opacity: 0.8"/>
     <use xlink:href="#m51a2602230" x="606.61376" y="211.099335" style="fill: #1f77b4; fill-opacity: 0.8; stroke: #000000; stroke-opacity: 0.8"/>
     <use xlink:href="#m51a2602230" x="618.726817" y="223.302836" style="fill: #1f77b4; fill-opacity: 0.8; stroke: #000000; stroke-opacity: 0.8"/>
     <use xlink:href="#m51a2602230" x="630.839874" y="212.750322" style="fill: #1f77b4; fill-opacity: 0.8; stroke: #000000; stroke-opacity: 0.8"/>
     <use xlink:href="#m51a2602230" x="642.952931" y="213.541944" style="fill: #1f77b4; fill-opacity: 0.8; stroke: #000000; stroke-opacity: 0.8"/>
     <use xlink:href="#m51a2602230" x="655.065988" y="216.238043" style="fill: #1f77b4; fill-opacity: 0.8; stroke: #000000; stroke-opacity: 0.8"/>
    </g>
   </g>
   <g id="line2d_49">
    <path d="M 400.691791 211.682649 
L 412.804848 211.222791 
L 424.917905 210.672711 
L 437.030962 208.951018 
L 449.144019 206.378443 
L 461.257076 207.442033 
L 473.370133 204.527323 
L 485.48319 174.306325 
L 497.596247 14.350588 
L 509.709304 231.645125 
L 521.822361 163.947578 
L 533.935418 241.357538 
L 546.048475 193.26015 
L 558.161532 227.797654 
L 570.274589 199.11405 
L 582.387646 216.348785 
L 594.500703 209.348415 
L 606.61376 211.099335 
L 618.726817 223.302836 
L 630.839874 212.750322 
L 642.952931 213.541944 
L 655.065988 216.238043 
" clip-path="url(#p02b7bf4749)" style="fill: none; stroke: #1f77b4; stroke-opacity: 0.8; stroke-linecap: square"/>
    <g clip-path="url(#p02b7bf4749)">
     <use xlink:href="#m51a2602230" x="400.691791" y="211.682649" style="fill: #1f77b4; fill-opacity: 0.8; stroke: #000000; stroke-opacity: 0.8"/>
     <use xlink:href="#m51a2602230" x="412.804848" y="211.222791" style="fill: #1f77b4; fill-opacity: 0.8; stroke: #000000; stroke-opacity: 0.8"/>
     <use xlink:href="#m51a2602230" x="424.917905" y="210.672711" style="fill: #1f77b4; fill-opacity: 0.8; stroke: #000000; stroke-opacity: 0.8"/>
     <use xlink:href="#m51a2602230" x="437.030962" y="208.951018" style="fill: #1f77b4; fill-opacity: 0.8; stroke: #000000; stroke-opacity: 0.8"/>
     <use xlink:href="#m51a2602230" x="449.144019" y="206.378443" style="fill: #1f77b4; fill-opacity: 0.8; stroke: #000000; stroke-opacity: 0.8"/>
     <use xlink:href="#m51a2602230" x="461.257076" y="207.442033" style="fill: #1f77b4; fill-opacity: 0.8; stroke: #000000; stroke-opacity: 0.8"/>
     <use xlink:href="#m51a2602230" x="473.370133" y="204.527323" style="fill: #1f77b4; fill-opacity: 0.8; stroke: #000000; stroke-opacity: 0.8"/>
     <use xlink:href="#m51a2602230" x="485.48319" y="174.306325" style="fill: #1f77b4; fill-opacity: 0.8; stroke: #000000; stroke-opacity: 0.8"/>
     <use xlink:href="#m51a2602230" x="497.596247" y="14.350588" style="fill: #1f77b4; fill-opacity: 0.8; stroke: #000000; stroke-opacity: 0.8"/>
     <use xlink:href="#m51a2602230" x="509.709304" y="231.645125" style="fill: #1f77b4; fill-opacity: 0.8; stroke: #000000; stroke-opacity: 0.8"/>
     <use xlink:href="#m51a2602230" x="521.822361" y="163.947578" style="fill: #1f77b4; fill-opacity: 0.8; stroke: #000000; stroke-opacity: 0.8"/>
     <use xlink:href="#m51a2602230" x="533.935418" y="241.357538" style="fill: #1f77b4; fill-opacity: 0.8; stroke: #000000; stroke-opacity: 0.8"/>
     <use xlink:href="#m51a2602230" x="546.048475" y="193.26015" style="fill: #1f77b4; fill-opacity: 0.8; stroke: #000000; stroke-opacity: 0.8"/>
     <use xlink:href="#m51a2602230" x="558.161532" y="227.797654" style="fill: #1f77b4; fill-opacity: 0.8; stroke: #000000; stroke-opacity: 0.8"/>
     <use xlink:href="#m51a2602230" x="570.274589" y="199.11405" style="fill: #1f77b4; fill-opacity: 0.8; stroke: #000000; stroke-opacity: 0.8"/>
     <use xlink:href="#m51a2602230" x="582.387646" y="216.348785" style="fill: #1f77b4; fill-opacity: 0.8; stroke: #000000; stroke-opacity: 0.8"/>
     <use xlink:href="#m51a2602230" x="594.500703" y="209.348415" style="fill: #1f77b4; fill-opacity: 0.8; stroke: #000000; stroke-opacity: 0.8"/>
     <use xlink:href="#m51a2602230" x="606.61376" y="211.099335" style="fill: #1f77b4; fill-opacity: 0.8; stroke: #000000; stroke-opacity: 0.8"/>
     <use xlink:href="#m51a2602230" x="618.726817" y="223.302836" style="fill: #1f77b4; fill-opacity: 0.8; stroke: #000000; stroke-opacity: 0.8"/>
     <use xlink:href="#m51a2602230" x="630.839874" y="212.750322" style="fill: #1f77b4; fill-opacity: 0.8; stroke: #000000; stroke-opacity: 0.8"/>
     <use xlink:href="#m51a2602230" x="642.952931" y="213.541944" style="fill: #1f77b4; fill-opacity: 0.8; stroke: #000000; stroke-opacity: 0.8"/>
     <use xlink:href="#m51a2602230" x="655.065988" y="216.238043" style="fill: #1f77b4; fill-opacity: 0.8; stroke: #000000; stroke-opacity: 0.8"/>
    </g>
   </g>
   <g id="patch_9">
    <path d="M 381.613726 252.707885 
L 381.613726 3.00024 
" style="fill: none; stroke: #000000; stroke-width: 0.8; stroke-linejoin: miter; stroke-linecap: square"/>
   </g>
   <g id="patch_10">
    <path d="M 668.087524 252.707885 
L 668.087524 3.00024 
" style="fill: none; stroke: #000000; stroke-width: 0.8; stroke-linejoin: miter; stroke-linecap: square"/>
   </g>
   <g id="patch_11">
    <path d="M 381.613726 252.707885 
L 668.087524 252.707885 
" style="fill: none; stroke: #000000; stroke-width: 0.8; stroke-linejoin: miter; stroke-linecap: square"/>
   </g>
   <g id="patch_12">
    <path d="M 381.613726 3.00024 
L 668.087524 3.00024 
" style="fill: none; stroke: #000000; stroke-width: 0.8; stroke-linejoin: miter; stroke-linecap: square"/>
   </g>
  </g>
  <g id="axes_3">
   <g id="patch_13">
    <path d="M 718.525962 252.707885 
L 1004.99976 252.707885 
L 1004.99976 3.00024 
L 718.525962 3.00024 
z
" style="fill: #ffffff"/>
   </g>
   <g id="matplotlib.axis_5">
    <g id="xtick_11">
     <g id="line2d_50">
      <path d="M 725.490969 252.707885 
L 725.490969 3.00024 
" clip-path="url(#p132e6ca9a9)" style="fill: none; stroke: #b0b0b0; stroke-width: 0.8; stroke-linecap: square"/>
     </g>
     <g id="line2d_51">
      <g>
       <use xlink:href="#m33ca82a192" x="725.490969" y="252.707885" style="stroke: #000000; stroke-width: 0.8"/>
      </g>
     </g>
     <g id="text_28">
      <!-- 0.0 -->
      <g transform="translate(717.539407 267.306323) scale(0.1 -0.1)">
       <use xlink:href="#DejaVuSans-30"/>
       <use xlink:href="#DejaVuSans-2e" x="63.623047"/>
       <use xlink:href="#DejaVuSans-30" x="95.410156"/>
      </g>
     </g>
    </g>
    <g id="xtick_12">
     <g id="line2d_52">
      <path d="M 786.056255 252.707885 
L 786.056255 3.00024 
" clip-path="url(#p132e6ca9a9)" style="fill: none; stroke: #b0b0b0; stroke-width: 0.8; stroke-linecap: square"/>
     </g>
     <g id="line2d_53">
      <g>
       <use xlink:href="#m33ca82a192" x="786.056255" y="252.707885" style="stroke: #000000; stroke-width: 0.8"/>
      </g>
     </g>
     <g id="text_29">
      <!-- 0.5 -->
      <g transform="translate(778.104692 267.306323) scale(0.1 -0.1)">
       <use xlink:href="#DejaVuSans-30"/>
       <use xlink:href="#DejaVuSans-2e" x="63.623047"/>
       <use xlink:href="#DejaVuSans-35" x="95.410156"/>
      </g>
     </g>
    </g>
    <g id="xtick_13">
     <g id="line2d_54">
      <path d="M 846.62154 252.707885 
L 846.62154 3.00024 
" clip-path="url(#p132e6ca9a9)" style="fill: none; stroke: #b0b0b0; stroke-width: 0.8; stroke-linecap: square"/>
     </g>
     <g id="line2d_55">
      <g>
       <use xlink:href="#m33ca82a192" x="846.62154" y="252.707885" style="stroke: #000000; stroke-width: 0.8"/>
      </g>
     </g>
     <g id="text_30">
      <!-- 1.0 -->
      <g transform="translate(838.669977 267.306323) scale(0.1 -0.1)">
       <use xlink:href="#DejaVuSans-31"/>
       <use xlink:href="#DejaVuSans-2e" x="63.623047"/>
       <use xlink:href="#DejaVuSans-30" x="95.410156"/>
      </g>
     </g>
    </g>
    <g id="xtick_14">
     <g id="line2d_56">
      <path d="M 907.186825 252.707885 
L 907.186825 3.00024 
" clip-path="url(#p132e6ca9a9)" style="fill: none; stroke: #b0b0b0; stroke-width: 0.8; stroke-linecap: square"/>
     </g>
     <g id="line2d_57">
      <g>
       <use xlink:href="#m33ca82a192" x="907.186825" y="252.707885" style="stroke: #000000; stroke-width: 0.8"/>
      </g>
     </g>
     <g id="text_31">
      <!-- 1.5 -->
      <g transform="translate(899.235262 267.306323) scale(0.1 -0.1)">
       <use xlink:href="#DejaVuSans-31"/>
       <use xlink:href="#DejaVuSans-2e" x="63.623047"/>
       <use xlink:href="#DejaVuSans-35" x="95.410156"/>
      </g>
     </g>
    </g>
    <g id="xtick_15">
     <g id="line2d_58">
      <path d="M 967.75211 252.707885 
L 967.75211 3.00024 
" clip-path="url(#p132e6ca9a9)" style="fill: none; stroke: #b0b0b0; stroke-width: 0.8; stroke-linecap: square"/>
     </g>
     <g id="line2d_59">
      <g>
       <use xlink:href="#m33ca82a192" x="967.75211" y="252.707885" style="stroke: #000000; stroke-width: 0.8"/>
      </g>
     </g>
     <g id="text_32">
      <!-- 2.0 -->
      <g transform="translate(959.800547 267.306323) scale(0.1 -0.1)">
       <use xlink:href="#DejaVuSans-32"/>
       <use xlink:href="#DejaVuSans-2e" x="63.623047"/>
       <use xlink:href="#DejaVuSans-30" x="95.410156"/>
      </g>
     </g>
    </g>
    <g id="text_33">
     <!-- $k_{B}T$ $\left[k_{B}T_0\right]$ -->
     <g transform="translate(831.942861 282.504135) scale(0.12 -0.12)">
      <use xlink:href="#DejaVuSans-Oblique-6b" transform="translate(0 0.015625)"/>
      <use xlink:href="#DejaVuSans-Oblique-42" transform="translate(57.910156 -16.390625) scale(0.7)"/>
      <use xlink:href="#DejaVuSans-Oblique-54" transform="translate(108.666992 0.015625)"/>
      <use xlink:href="#DejaVuSans-20" transform="translate(169.750977 0.015625)"/>
      <use xlink:href="#DejaVuSans-5b" transform="translate(201.538086 0.015625)"/>
      <use xlink:href="#DejaVuSans-Oblique-6b" transform="translate(240.551758 0.015625)"/>
      <use xlink:href="#DejaVuSans-Oblique-42" transform="translate(298.461914 -16.390625) scale(0.7)"/>
      <use xlink:href="#DejaVuSans-Oblique-54" transform="translate(349.21875 0.015625)"/>
      <use xlink:href="#DejaVuSans-30" transform="translate(410.302734 -16.390625) scale(0.7)"/>
      <use xlink:href="#DejaVuSans-5d" transform="translate(457.573242 0.015625)"/>
     </g>
    </g>
   </g>
   <g id="matplotlib.axis_6">
    <g id="ytick_12">
     <g id="line2d_60">
      <path d="M 718.525962 227.737121 
L 1004.99976 227.737121 
" clip-path="url(#p132e6ca9a9)" style="fill: none; stroke: #b0b0b0; stroke-width: 0.8; stroke-linecap: square"/>
     </g>
     <g id="line2d_61">
      <g>
       <use xlink:href="#m73b1b7ace9" x="718.525962" y="227.737121" style="stroke: #000000; stroke-width: 0.8"/>
      </g>
     </g>
     <g id="text_34">
      <!-- −40 -->
      <g transform="translate(690.421274 231.536339) scale(0.1 -0.1)">
       <use xlink:href="#DejaVuSans-2212"/>
       <use xlink:href="#DejaVuSans-34" x="83.789062"/>
       <use xlink:href="#DejaVuSans-30" x="147.412109"/>
      </g>
     </g>
    </g>
    <g id="ytick_13">
     <g id="line2d_62">
      <path d="M 718.525962 177.795592 
L 1004.99976 177.795592 
" clip-path="url(#p132e6ca9a9)" style="fill: none; stroke: #b0b0b0; stroke-width: 0.8; stroke-linecap: square"/>
     </g>
     <g id="line2d_63">
      <g>
       <use xlink:href="#m73b1b7ace9" x="718.525962" y="177.795592" style="stroke: #000000; stroke-width: 0.8"/>
      </g>
     </g>
     <g id="text_35">
      <!-- −20 -->
      <g transform="translate(690.421274 181.59481) scale(0.1 -0.1)">
       <use xlink:href="#DejaVuSans-2212"/>
       <use xlink:href="#DejaVuSans-32" x="83.789062"/>
       <use xlink:href="#DejaVuSans-30" x="147.412109"/>
      </g>
     </g>
    </g>
    <g id="ytick_14">
     <g id="line2d_64">
      <path d="M 718.525962 127.854063 
L 1004.99976 127.854063 
" clip-path="url(#p132e6ca9a9)" style="fill: none; stroke: #b0b0b0; stroke-width: 0.8; stroke-linecap: square"/>
     </g>
     <g id="line2d_65">
      <g>
       <use xlink:href="#m73b1b7ace9" x="718.525962" y="127.854063" style="stroke: #000000; stroke-width: 0.8"/>
      </g>
     </g>
     <g id="text_36">
      <!-- 0 -->
      <g transform="translate(705.163462 131.653281) scale(0.1 -0.1)">
       <use xlink:href="#DejaVuSans-30"/>
      </g>
     </g>
    </g>
    <g id="ytick_15">
     <g id="line2d_66">
      <path d="M 718.525962 77.912534 
L 1004.99976 77.912534 
" clip-path="url(#p132e6ca9a9)" style="fill: none; stroke: #b0b0b0; stroke-width: 0.8; stroke-linecap: square"/>
     </g>
     <g id="line2d_67">
      <g>
       <use xlink:href="#m73b1b7ace9" x="718.525962" y="77.912534" style="stroke: #000000; stroke-width: 0.8"/>
      </g>
     </g>
     <g id="text_37">
      <!-- 20 -->
      <g transform="translate(698.800962 81.711752) scale(0.1 -0.1)">
       <use xlink:href="#DejaVuSans-32"/>
       <use xlink:href="#DejaVuSans-30" x="63.623047"/>
      </g>
     </g>
    </g>
    <g id="ytick_16">
     <g id="line2d_68">
      <path d="M 718.525962 27.971005 
L 1004.99976 27.971005 
" clip-path="url(#p132e6ca9a9)" style="fill: none; stroke: #b0b0b0; stroke-width: 0.8; stroke-linecap: square"/>
     </g>
     <g id="line2d_69">
      <g>
       <use xlink:href="#m73b1b7ace9" x="718.525962" y="27.971005" style="stroke: #000000; stroke-width: 0.8"/>
      </g>
     </g>
     <g id="text_38">
      <!-- 40 -->
      <g transform="translate(698.800962 31.770223) scale(0.1 -0.1)">
       <use xlink:href="#DejaVuSans-34"/>
       <use xlink:href="#DejaVuSans-30" x="63.623047"/>
      </g>
     </g>
    </g>
    <g id="text_39">
     <!-- $C_v/k_{B}$ -->
     <g transform="translate(683.925649 143.274063) rotate(-90) scale(0.12 -0.12)">
      <use xlink:href="#DejaVuSans-Oblique-43" transform="translate(0 0.015625)"/>
      <use xlink:href="#DejaVuSans-Oblique-76" transform="translate(69.824219 -16.390625) scale(0.7)"/>
      <use xlink:href="#DejaVuSans-2f" transform="translate(113.984375 0.015625)"/>
      <use xlink:href="#DejaVuSans-Oblique-6b" transform="translate(147.675781 0.015625)"/>
      <use xlink:href="#DejaVuSans-Oblique-42" transform="translate(205.585938 -16.390625) scale(0.7)"/>
     </g>
    </g>
   </g>
   <g id="LineCollection_3">
    <path d="M 731.547498 116.617218 
L 822.395426 116.617218 
" clip-path="url(#p132e6ca9a9)" style="fill: none; stroke: #ff7f0e; stroke-width: 1.5"/>
   </g>
   <g id="LineCollection_4">
    <path d="M 895.073768 120.362833 
L 991.978224 120.362833 
" clip-path="url(#p132e6ca9a9)" style="fill: none; stroke: #d62728; stroke-width: 1.5"/>
   </g>
   <g id="line2d_70">
    <path d="M 737.604026 116.788434 
L 749.717083 116.243547 
L 761.83014 115.591757 
L 773.943197 113.551722 
L 786.056255 110.503474 
L 798.169312 111.763723 
L 810.282369 108.31008 
L 822.395426 72.501187 
L 827.092919 -1 
M 839.967257 -1 
L 846.62154 140.441993 
L 858.734597 60.227097 
L 870.847654 151.950241 
L 882.960711 94.959595 
L 895.073768 135.883121 
L 907.186825 101.895887 
L 919.299882 122.317343 
L 931.412939 114.022597 
L 943.525996 116.097265 
L 955.639053 130.557205 
L 967.75211 118.053521 
L 979.865167 118.991514 
L 991.978224 122.186125 
" clip-path="url(#p132e6ca9a9)" style="fill: none; stroke: #1f77b4; stroke-opacity: 0.8; stroke-linecap: square"/>
    <g clip-path="url(#p132e6ca9a9)">
     <use xlink:href="#m51a2602230" x="737.604026" y="116.788434" style="fill: #1f77b4; fill-opacity: 0.8; stroke: #000000; stroke-opacity: 0.8"/>
     <use xlink:href="#m51a2602230" x="749.717083" y="116.243547" style="fill: #1f77b4; fill-opacity: 0.8; stroke: #000000; stroke-opacity: 0.8"/>
     <use xlink:href="#m51a2602230" x="761.83014" y="115.591757" style="fill: #1f77b4; fill-opacity: 0.8; stroke: #000000; stroke-opacity: 0.8"/>
     <use xlink:href="#m51a2602230" x="773.943197" y="113.551722" style="fill: #1f77b4; fill-opacity: 0.8; stroke: #000000; stroke-opacity: 0.8"/>
     <use xlink:href="#m51a2602230" x="786.056255" y="110.503474" style="fill: #1f77b4; fill-opacity: 0.8; stroke: #000000; stroke-opacity: 0.8"/>
     <use xlink:href="#m51a2602230" x="798.169312" y="111.763723" style="fill: #1f77b4; fill-opacity: 0.8; stroke: #000000; stroke-opacity: 0.8"/>
     <use xlink:href="#m51a2602230" x="810.282369" y="108.31008" style="fill: #1f77b4; fill-opacity: 0.8; stroke: #000000; stroke-opacity: 0.8"/>
     <use xlink:href="#m51a2602230" x="822.395426" y="72.501187" style="fill: #1f77b4; fill-opacity: 0.8; stroke: #000000; stroke-opacity: 0.8"/>
     <use xlink:href="#m51a2602230" x="827.092919" y="-1" style="fill: #1f77b4; fill-opacity: 0.8; stroke: #000000; stroke-opacity: 0.8"/>
     <use xlink:href="#m51a2602230" x="839.967257" y="-1" style="fill: #1f77b4; fill-opacity: 0.8; stroke: #000000; stroke-opacity: 0.8"/>
     <use xlink:href="#m51a2602230" x="846.62154" y="140.441993" style="fill: #1f77b4; fill-opacity: 0.8; stroke: #000000; stroke-opacity: 0.8"/>
     <use xlink:href="#m51a2602230" x="858.734597" y="60.227097" style="fill: #1f77b4; fill-opacity: 0.8; stroke: #000000; stroke-opacity: 0.8"/>
     <use xlink:href="#m51a2602230" x="870.847654" y="151.950241" style="fill: #1f77b4; fill-opacity: 0.8; stroke: #000000; stroke-opacity: 0.8"/>
     <use xlink:href="#m51a2602230" x="882.960711" y="94.959595" style="fill: #1f77b4; fill-opacity: 0.8; stroke: #000000; stroke-opacity: 0.8"/>
     <use xlink:href="#m51a2602230" x="895.073768" y="135.883121" style="fill: #1f77b4; fill-opacity: 0.8; stroke: #000000; stroke-opacity: 0.8"/>
     <use xlink:href="#m51a2602230" x="907.186825" y="101.895887" style="fill: #1f77b4; fill-opacity: 0.8; stroke: #000000; stroke-opacity: 0.8"/>
     <use xlink:href="#m51a2602230" x="919.299882" y="122.317343" style="fill: #1f77b4; fill-opacity: 0.8; stroke: #000000; stroke-opacity: 0.8"/>
     <use xlink:href="#m51a2602230" x="931.412939" y="114.022597" style="fill: #1f77b4; fill-opacity: 0.8; stroke: #000000; stroke-opacity: 0.8"/>
     <use xlink:href="#m51a2602230" x="943.525996" y="116.097265" style="fill: #1f77b4; fill-opacity: 0.8; stroke: #000000; stroke-opacity: 0.8"/>
     <use xlink:href="#m51a2602230" x="955.639053" y="130.557205" style="fill: #1f77b4; fill-opacity: 0.8; stroke: #000000; stroke-opacity: 0.8"/>
     <use xlink:href="#m51a2602230" x="967.75211" y="118.053521" style="fill: #1f77b4; fill-opacity: 0.8; stroke: #000000; stroke-opacity: 0.8"/>
     <use xlink:href="#m51a2602230" x="979.865167" y="118.991514" style="fill: #1f77b4; fill-opacity: 0.8; stroke: #000000; stroke-opacity: 0.8"/>
     <use xlink:href="#m51a2602230" x="991.978224" y="122.186125" style="fill: #1f77b4; fill-opacity: 0.8; stroke: #000000; stroke-opacity: 0.8"/>
    </g>
   </g>
   <g id="line2d_71">
    <path d="M 737.604026 116.788434 
L 749.717083 116.243547 
L 761.83014 115.591757 
L 773.943197 113.551722 
L 786.056255 110.503474 
L 798.169312 111.763723 
L 810.282369 108.31008 
L 822.395426 72.501187 
L 827.092919 -1 
M 839.967257 -1 
L 846.62154 140.441993 
L 858.734597 60.227097 
L 870.847654 151.950241 
L 882.960711 94.959595 
L 895.073768 135.883121 
L 907.186825 101.895887 
L 919.299882 122.317343 
L 931.412939 114.022597 
L 943.525996 116.097265 
L 955.639053 130.557205 
L 967.75211 118.053521 
L 979.865167 118.991514 
L 991.978224 122.186125 
" clip-path="url(#p132e6ca9a9)" style="fill: none; stroke: #1f77b4; stroke-opacity: 0.8; stroke-linecap: square"/>
    <g clip-path="url(#p132e6ca9a9)">
     <use xlink:href="#m51a2602230" x="737.604026" y="116.788434" style="fill: #1f77b4; fill-opacity: 0.8; stroke: #000000; stroke-opacity: 0.8"/>
     <use xlink:href="#m51a2602230" x="749.717083" y="116.243547" style="fill: #1f77b4; fill-opacity: 0.8; stroke: #000000; stroke-opacity: 0.8"/>
     <use xlink:href="#m51a2602230" x="761.83014" y="115.591757" style="fill: #1f77b4; fill-opacity: 0.8; stroke: #000000; stroke-opacity: 0.8"/>
     <use xlink:href="#m51a2602230" x="773.943197" y="113.551722" style="fill: #1f77b4; fill-opacity: 0.8; stroke: #000000; stroke-opacity: 0.8"/>
     <use xlink:href="#m51a2602230" x="786.056255" y="110.503474" style="fill: #1f77b4; fill-opacity: 0.8; stroke: #000000; stroke-opacity: 0.8"/>
     <use xlink:href="#m51a2602230" x="798.169312" y="111.763723" style="fill: #1f77b4; fill-opacity: 0.8; stroke: #000000; stroke-opacity: 0.8"/>
     <use xlink:href="#m51a2602230" x="810.282369" y="108.31008" style="fill: #1f77b4; fill-opacity: 0.8; stroke: #000000; stroke-opacity: 0.8"/>
     <use xlink:href="#m51a2602230" x="822.395426" y="72.501187" style="fill: #1f77b4; fill-opacity: 0.8; stroke: #000000; stroke-opacity: 0.8"/>
     <use xlink:href="#m51a2602230" x="827.092919" y="-1" style="fill: #1f77b4; fill-opacity: 0.8; stroke: #000000; stroke-opacity: 0.8"/>
     <use xlink:href="#m51a2602230" x="839.967257" y="-1" style="fill: #1f77b4; fill-opacity: 0.8; stroke: #000000; stroke-opacity: 0.8"/>
     <use xlink:href="#m51a2602230" x="846.62154" y="140.441993" style="fill: #1f77b4; fill-opacity: 0.8; stroke: #000000; stroke-opacity: 0.8"/>
     <use xlink:href="#m51a2602230" x="858.734597" y="60.227097" style="fill: #1f77b4; fill-opacity: 0.8; stroke: #000000; stroke-opacity: 0.8"/>
     <use xlink:href="#m51a2602230" x="870.847654" y="151.950241" style="fill: #1f77b4; fill-opacity: 0.8; stroke: #000000; stroke-opacity: 0.8"/>
     <use xlink:href="#m51a2602230" x="882.960711" y="94.959595" style="fill: #1f77b4; fill-opacity: 0.8; stroke: #000000; stroke-opacity: 0.8"/>
     <use xlink:href="#m51a2602230" x="895.073768" y="135.883121" style="fill: #1f77b4; fill-opacity: 0.8; stroke: #000000; stroke-opacity: 0.8"/>
     <use xlink:href="#m51a2602230" x="907.186825" y="101.895887" style="fill: #1f77b4; fill-opacity: 0.8; stroke: #000000; stroke-opacity: 0.8"/>
     <use xlink:href="#m51a2602230" x="919.299882" y="122.317343" style="fill: #1f77b4; fill-opacity: 0.8; stroke: #000000; stroke-opacity: 0.8"/>
     <use xlink:href="#m51a2602230" x="931.412939" y="114.022597" style="fill: #1f77b4; fill-opacity: 0.8; stroke: #000000; stroke-opacity: 0.8"/>
     <use xlink:href="#m51a2602230" x="943.525996" y="116.097265" style="fill: #1f77b4; fill-opacity: 0.8; stroke: #000000; stroke-opacity: 0.8"/>
     <use xlink:href="#m51a2602230" x="955.639053" y="130.557205" style="fill: #1f77b4; fill-opacity: 0.8; stroke: #000000; stroke-opacity: 0.8"/>
     <use xlink:href="#m51a2602230" x="967.75211" y="118.053521" style="fill: #1f77b4; fill-opacity: 0.8; stroke: #000000; stroke-opacity: 0.8"/>
     <use xlink:href="#m51a2602230" x="979.865167" y="118.991514" style="fill: #1f77b4; fill-opacity: 0.8; stroke: #000000; stroke-opacity: 0.8"/>
     <use xlink:href="#m51a2602230" x="991.978224" y="122.186125" style="fill: #1f77b4; fill-opacity: 0.8; stroke: #000000; stroke-opacity: 0.8"/>
    </g>
   </g>
   <g id="patch_14">
    <path d="M 718.525962 252.707885 
L 718.525962 3.00024 
" style="fill: none; stroke: #000000; stroke-width: 0.8; stroke-linejoin: miter; stroke-linecap: square"/>
   </g>
   <g id="patch_15">
    <path d="M 1004.99976 252.707885 
L 1004.99976 3.00024 
" style="fill: none; stroke: #000000; stroke-width: 0.8; stroke-linejoin: miter; stroke-linecap: square"/>
   </g>
   <g id="patch_16">
    <path d="M 718.525962 252.707885 
L 1004.99976 252.707885 
" style="fill: none; stroke: #000000; stroke-width: 0.8; stroke-linejoin: miter; stroke-linecap: square"/>
   </g>
   <g id="patch_17">
    <path d="M 718.525962 3.00024 
L 1004.99976 3.00024 
" style="fill: none; stroke: #000000; stroke-width: 0.8; stroke-linejoin: miter; stroke-linecap: square"/>
   </g>
  </g>
 </g>
 <defs>
  <clipPath id="pfcb7398237">
   <rect x="46.718678" y="3.00024" width="286.473798" height="249.707645"/>
  </clipPath>
  <clipPath id="p02b7bf4749">
   <rect x="381.613726" y="3.00024" width="286.473798" height="249.707645"/>
  </clipPath>
  <clipPath id="p132e6ca9a9">
   <rect x="718.525962" y="3.00024" width="286.473798" height="249.707645"/>
  </clipPath>
 </defs>
</svg>
