<?xml version="1.0" encoding="utf-8" standalone="no"?>
<!DOCTYPE svg PUBLIC "-//W3C//DTD SVG 1.1//EN"
  "http://www.w3.org/Graphics/SVG/1.1/DTD/svg11.dtd">
<svg xmlns:xlink="http://www.w3.org/1999/xlink" width="1008pt" height="288pt" viewBox="0 0 1008 288" xmlns="http://www.w3.org/2000/svg" version="1.1">
 <metadata>
  <rdf:RDF xmlns:dc="http://purl.org/dc/elements/1.1/" xmlns:cc="http://creativecommons.org/ns#" xmlns:rdf="http://www.w3.org/1999/02/22-rdf-syntax-ns#">
   <cc:Work>
    <dc:type rdf:resource="http://purl.org/dc/dcmitype/StillImage"/>
    <dc:date>2025-01-02T18:36:36.679417</dc:date>
    <dc:format>image/svg+xml</dc:format>
    <dc:creator>
     <cc:Agent>
      <dc:title>Matplotlib v3.7.1, https://matplotlib.org/</dc:title>
     </cc:Agent>
    </dc:creator>
   </cc:Work>
  </rdf:RDF>
 </metadata>
 <defs>
  <style type="text/css">*{stroke-linejoin: round; stroke-linecap: butt}</style>
 </defs>
 <g id="figure_1">
  <g id="patch_1">
   <path d="M 0 288 
L 1008 288 
L 1008 0 
L 0 0 
z
" style="fill: #ffffff"/>
  </g>
  <g id="axes_1">
   <g id="patch_2">
    <path d="M 46.718678 252.707885 
L 333.192476 252.707885 
L 333.192476 6.513628 
L 46.718678 6.513628 
z
" style="fill: #ffffff"/>
   </g>
   <g id="matplotlib.axis_1">
    <g id="xtick_1">
     <g id="line2d_1">
      <path d="M 53.753301 252.707885 
L 53.753301 6.513628 
" clip-path="url(#p825b923342)" style="fill: none; stroke: #b0b0b0; stroke-width: 0.8; stroke-linecap: square"/>
     </g>
     <g id="line2d_2">
      <defs>
       <path id="m43aaff248b" d="M 0 0 
L 0 3.5 
" style="stroke: #000000; stroke-width: 0.8"/>
      </defs>
      <g>
       <use xlink:href="#m43aaff248b" x="53.753301" y="252.707885" style="stroke: #000000; stroke-width: 0.8"/>
      </g>
     </g>
     <g id="text_1">
      <!-- 0.0 -->
      <g transform="translate(45.801738 267.306323) scale(0.1 -0.1)">
       <defs>
        <path id="DejaVuSans-30" d="M 2034 4250 
Q 1547 4250 1301 3770 
Q 1056 3291 1056 2328 
Q 1056 1369 1301 889 
Q 1547 409 2034 409 
Q 2525 409 2770 889 
Q 3016 1369 3016 2328 
Q 3016 3291 2770 3770 
Q 2525 4250 2034 4250 
z
M 2034 4750 
Q 2819 4750 3233 4129 
Q 3647 3509 3647 2328 
Q 3647 1150 3233 529 
Q 2819 -91 2034 -91 
Q 1250 -91 836 529 
Q 422 1150 422 2328 
Q 422 3509 836 4129 
Q 1250 4750 2034 4750 
z
" transform="scale(0.015625)"/>
        <path id="DejaVuSans-2e" d="M 684 794 
L 1344 794 
L 1344 0 
L 684 0 
L 684 794 
z
" transform="scale(0.015625)"/>
       </defs>
       <use xlink:href="#DejaVuSans-30"/>
       <use xlink:href="#DejaVuSans-2e" x="63.623047"/>
       <use xlink:href="#DejaVuSans-30" x="95.410156"/>
      </g>
     </g>
    </g>
    <g id="xtick_2">
     <g id="line2d_3">
      <path d="M 113.622433 252.707885 
L 113.622433 6.513628 
" clip-path="url(#p825b923342)" style="fill: none; stroke: #b0b0b0; stroke-width: 0.8; stroke-linecap: square"/>
     </g>
     <g id="line2d_4">
      <g>
       <use xlink:href="#m43aaff248b" x="113.622433" y="252.707885" style="stroke: #000000; stroke-width: 0.8"/>
      </g>
     </g>
     <g id="text_2">
      <!-- 0.5 -->
      <g transform="translate(105.67087 267.306323) scale(0.1 -0.1)">
       <defs>
        <path id="DejaVuSans-35" d="M 691 4666 
L 3169 4666 
L 3169 4134 
L 1269 4134 
L 1269 2991 
Q 1406 3038 1543 3061 
Q 1681 3084 1819 3084 
Q 2600 3084 3056 2656 
Q 3513 2228 3513 1497 
Q 3513 744 3044 326 
Q 2575 -91 1722 -91 
Q 1428 -91 1123 -41 
Q 819 9 494 109 
L 494 744 
Q 775 591 1075 516 
Q 1375 441 1709 441 
Q 2250 441 2565 725 
Q 2881 1009 2881 1497 
Q 2881 1984 2565 2268 
Q 2250 2553 1709 2553 
Q 1456 2553 1204 2497 
Q 953 2441 691 2322 
L 691 4666 
z
" transform="scale(0.015625)"/>
       </defs>
       <use xlink:href="#DejaVuSans-30"/>
       <use xlink:href="#DejaVuSans-2e" x="63.623047"/>
       <use xlink:href="#DejaVuSans-35" x="95.410156"/>
      </g>
     </g>
    </g>
    <g id="xtick_3">
     <g id="line2d_5">
      <path d="M 173.491565 252.707885 
L 173.491565 6.513628 
" clip-path="url(#p825b923342)" style="fill: none; stroke: #b0b0b0; stroke-width: 0.8; stroke-linecap: square"/>
     </g>
     <g id="line2d_6">
      <g>
       <use xlink:href="#m43aaff248b" x="173.491565" y="252.707885" style="stroke: #000000; stroke-width: 0.8"/>
      </g>
     </g>
     <g id="text_3">
      <!-- 1.0 -->
      <g transform="translate(165.540003 267.306323) scale(0.1 -0.1)">
       <defs>
        <path id="DejaVuSans-31" d="M 794 531 
L 1825 531 
L 1825 4091 
L 703 3866 
L 703 4441 
L 1819 4666 
L 2450 4666 
L 2450 531 
L 3481 531 
L 3481 0 
L 794 0 
L 794 531 
z
" transform="scale(0.015625)"/>
       </defs>
       <use xlink:href="#DejaVuSans-31"/>
       <use xlink:href="#DejaVuSans-2e" x="63.623047"/>
       <use xlink:href="#DejaVuSans-30" x="95.410156"/>
      </g>
     </g>
    </g>
    <g id="xtick_4">
     <g id="line2d_7">
      <path d="M 233.360698 252.707885 
L 233.360698 6.513628 
" clip-path="url(#p825b923342)" style="fill: none; stroke: #b0b0b0; stroke-width: 0.8; stroke-linecap: square"/>
     </g>
     <g id="line2d_8">
      <g>
       <use xlink:href="#m43aaff248b" x="233.360698" y="252.707885" style="stroke: #000000; stroke-width: 0.8"/>
      </g>
     </g>
     <g id="text_4">
      <!-- 1.5 -->
      <g transform="translate(225.409135 267.306323) scale(0.1 -0.1)">
       <use xlink:href="#DejaVuSans-31"/>
       <use xlink:href="#DejaVuSans-2e" x="63.623047"/>
       <use xlink:href="#DejaVuSans-35" x="95.410156"/>
      </g>
     </g>
    </g>
    <g id="xtick_5">
     <g id="line2d_9">
      <path d="M 293.22983 252.707885 
L 293.22983 6.513628 
" clip-path="url(#p825b923342)" style="fill: none; stroke: #b0b0b0; stroke-width: 0.8; stroke-linecap: square"/>
     </g>
     <g id="line2d_10">
      <g>
       <use xlink:href="#m43aaff248b" x="293.22983" y="252.707885" style="stroke: #000000; stroke-width: 0.8"/>
      </g>
     </g>
     <g id="text_5">
      <!-- 2.0 -->
      <g transform="translate(285.278267 267.306323) scale(0.1 -0.1)">
       <defs>
        <path id="DejaVuSans-32" d="M 1228 531 
L 3431 531 
L 3431 0 
L 469 0 
L 469 531 
Q 828 903 1448 1529 
Q 2069 2156 2228 2338 
Q 2531 2678 2651 2914 
Q 2772 3150 2772 3378 
Q 2772 3750 2511 3984 
Q 2250 4219 1831 4219 
Q 1534 4219 1204 4116 
Q 875 4013 500 3803 
L 500 4441 
Q 881 4594 1212 4672 
Q 1544 4750 1819 4750 
Q 2544 4750 2975 4387 
Q 3406 4025 3406 3419 
Q 3406 3131 3298 2873 
Q 3191 2616 2906 2266 
Q 2828 2175 2409 1742 
Q 1991 1309 1228 531 
z
" transform="scale(0.015625)"/>
       </defs>
       <use xlink:href="#DejaVuSans-32"/>
       <use xlink:href="#DejaVuSans-2e" x="63.623047"/>
       <use xlink:href="#DejaVuSans-30" x="95.410156"/>
      </g>
     </g>
    </g>
    <g id="text_6">
     <!-- $k_{B}T$ $\left[k_{B}T_0\right]$ -->
     <g transform="translate(160.135577 282.504135) scale(0.12 -0.12)">
      <defs>
       <path id="DejaVuSans-Oblique-6b" d="M 1172 4863 
L 1747 4863 
L 1197 2028 
L 3169 3500 
L 3916 3500 
L 1716 1825 
L 3322 0 
L 2625 0 
L 1131 1709 
L 800 0 
L 225 0 
L 1172 4863 
z
" transform="scale(0.015625)"/>
       <path id="DejaVuSans-Oblique-42" d="M 1081 4666 
L 2694 4666 
Q 3350 4666 3675 4422 
Q 4000 4178 4000 3688 
Q 4000 3238 3720 2911 
Q 3441 2584 2988 2516 
Q 3375 2428 3569 2181 
Q 3763 1934 3763 1522 
Q 3763 819 3242 409 
Q 2722 0 1819 0 
L 172 0 
L 1081 4666 
z
M 1234 2228 
L 903 519 
L 1919 519 
Q 2491 519 2800 781 
Q 3109 1044 3109 1522 
Q 3109 1891 2904 2059 
Q 2700 2228 2247 2228 
L 1234 2228 
z
M 1606 4147 
L 1331 2741 
L 2272 2741 
Q 2775 2741 3058 2959 
Q 3341 3178 3341 3566 
Q 3341 3869 3150 4008 
Q 2959 4147 2541 4147 
L 1606 4147 
z
" transform="scale(0.015625)"/>
       <path id="DejaVuSans-Oblique-54" d="M 378 4666 
L 4325 4666 
L 4225 4134 
L 2559 4134 
L 1759 0 
L 1125 0 
L 1925 4134 
L 275 4134 
L 378 4666 
z
" transform="scale(0.015625)"/>
       <path id="DejaVuSans-20" transform="scale(0.015625)"/>
       <path id="DejaVuSans-5b" d="M 550 4863 
L 1875 4863 
L 1875 4416 
L 1125 4416 
L 1125 -397 
L 1875 -397 
L 1875 -844 
L 550 -844 
L 550 4863 
z
" transform="scale(0.015625)"/>
       <path id="DejaVuSans-5d" d="M 1947 4863 
L 1947 -844 
L 622 -844 
L 622 -397 
L 1369 -397 
L 1369 4416 
L 622 4416 
L 622 4863 
L 1947 4863 
z
" transform="scale(0.015625)"/>
      </defs>
      <use xlink:href="#DejaVuSans-Oblique-6b" transform="translate(0 0.015625)"/>
      <use xlink:href="#DejaVuSans-Oblique-42" transform="translate(57.910156 -16.390625) scale(0.7)"/>
      <use xlink:href="#DejaVuSans-Oblique-54" transform="translate(108.666992 0.015625)"/>
      <use xlink:href="#DejaVuSans-20" transform="translate(169.750977 0.015625)"/>
      <use xlink:href="#DejaVuSans-5b" transform="translate(201.538086 0.015625)"/>
      <use xlink:href="#DejaVuSans-Oblique-6b" transform="translate(240.551758 0.015625)"/>
      <use xlink:href="#DejaVuSans-Oblique-42" transform="translate(298.461914 -16.390625) scale(0.7)"/>
      <use xlink:href="#DejaVuSans-Oblique-54" transform="translate(349.21875 0.015625)"/>
      <use xlink:href="#DejaVuSans-30" transform="translate(410.302734 -16.390625) scale(0.7)"/>
      <use xlink:href="#DejaVuSans-5d" transform="translate(457.573242 0.015625)"/>
     </g>
    </g>
   </g>
   <g id="matplotlib.axis_2">
    <g id="ytick_1">
     <g id="line2d_11">
      <path d="M 46.718678 241.104943 
L 333.192476 241.104943 
" clip-path="url(#p825b923342)" style="fill: none; stroke: #b0b0b0; stroke-width: 0.8; stroke-linecap: square"/>
     </g>
     <g id="line2d_12">
      <defs>
       <path id="m1749f582e5" d="M 0 0 
L -3.5 0 
" style="stroke: #000000; stroke-width: 0.8"/>
      </defs>
      <g>
       <use xlink:href="#m1749f582e5" x="46.718678" y="241.104943" style="stroke: #000000; stroke-width: 0.8"/>
      </g>
     </g>
     <g id="text_7">
      <!-- −60 -->
      <g transform="translate(18.61399 244.904162) scale(0.1 -0.1)">
       <defs>
        <path id="DejaVuSans-2212" d="M 678 2272 
L 4684 2272 
L 4684 1741 
L 678 1741 
L 678 2272 
z
" transform="scale(0.015625)"/>
        <path id="DejaVuSans-36" d="M 2113 2584 
Q 1688 2584 1439 2293 
Q 1191 2003 1191 1497 
Q 1191 994 1439 701 
Q 1688 409 2113 409 
Q 2538 409 2786 701 
Q 3034 994 3034 1497 
Q 3034 2003 2786 2293 
Q 2538 2584 2113 2584 
z
M 3366 4563 
L 3366 3988 
Q 3128 4100 2886 4159 
Q 2644 4219 2406 4219 
Q 1781 4219 1451 3797 
Q 1122 3375 1075 2522 
Q 1259 2794 1537 2939 
Q 1816 3084 2150 3084 
Q 2853 3084 3261 2657 
Q 3669 2231 3669 1497 
Q 3669 778 3244 343 
Q 2819 -91 2113 -91 
Q 1303 -91 875 529 
Q 447 1150 447 2328 
Q 447 3434 972 4092 
Q 1497 4750 2381 4750 
Q 2619 4750 2861 4703 
Q 3103 4656 3366 4563 
z
" transform="scale(0.015625)"/>
       </defs>
       <use xlink:href="#DejaVuSans-2212"/>
       <use xlink:href="#DejaVuSans-36" x="83.789062"/>
       <use xlink:href="#DejaVuSans-30" x="147.412109"/>
      </g>
     </g>
    </g>
    <g id="ytick_2">
     <g id="line2d_13">
      <path d="M 46.718678 211.816761 
L 333.192476 211.816761 
" clip-path="url(#p825b923342)" style="fill: none; stroke: #b0b0b0; stroke-width: 0.8; stroke-linecap: square"/>
     </g>
     <g id="line2d_14">
      <g>
       <use xlink:href="#m1749f582e5" x="46.718678" y="211.816761" style="stroke: #000000; stroke-width: 0.8"/>
      </g>
     </g>
     <g id="text_8">
      <!-- −50 -->
      <g transform="translate(18.61399 215.61598) scale(0.1 -0.1)">
       <use xlink:href="#DejaVuSans-2212"/>
       <use xlink:href="#DejaVuSans-35" x="83.789062"/>
       <use xlink:href="#DejaVuSans-30" x="147.412109"/>
      </g>
     </g>
    </g>
    <g id="ytick_3">
     <g id="line2d_15">
      <path d="M 46.718678 182.52858 
L 333.192476 182.52858 
" clip-path="url(#p825b923342)" style="fill: none; stroke: #b0b0b0; stroke-width: 0.8; stroke-linecap: square"/>
     </g>
     <g id="line2d_16">
      <g>
       <use xlink:href="#m1749f582e5" x="46.718678" y="182.52858" style="stroke: #000000; stroke-width: 0.8"/>
      </g>
     </g>
     <g id="text_9">
      <!-- −40 -->
      <g transform="translate(18.61399 186.327799) scale(0.1 -0.1)">
       <defs>
        <path id="DejaVuSans-34" d="M 2419 4116 
L 825 1625 
L 2419 1625 
L 2419 4116 
z
M 2253 4666 
L 3047 4666 
L 3047 1625 
L 3713 1625 
L 3713 1100 
L 3047 1100 
L 3047 0 
L 2419 0 
L 2419 1100 
L 313 1100 
L 313 1709 
L 2253 4666 
z
" transform="scale(0.015625)"/>
       </defs>
       <use xlink:href="#DejaVuSans-2212"/>
       <use xlink:href="#DejaVuSans-34" x="83.789062"/>
       <use xlink:href="#DejaVuSans-30" x="147.412109"/>
      </g>
     </g>
    </g>
    <g id="ytick_4">
     <g id="line2d_17">
      <path d="M 46.718678 153.240399 
L 333.192476 153.240399 
" clip-path="url(#p825b923342)" style="fill: none; stroke: #b0b0b0; stroke-width: 0.8; stroke-linecap: square"/>
     </g>
     <g id="line2d_18">
      <g>
       <use xlink:href="#m1749f582e5" x="46.718678" y="153.240399" style="stroke: #000000; stroke-width: 0.8"/>
      </g>
     </g>
     <g id="text_10">
      <!-- −30 -->
      <g transform="translate(18.61399 157.039617) scale(0.1 -0.1)">
       <defs>
        <path id="DejaVuSans-33" d="M 2597 2516 
Q 3050 2419 3304 2112 
Q 3559 1806 3559 1356 
Q 3559 666 3084 287 
Q 2609 -91 1734 -91 
Q 1441 -91 1130 -33 
Q 819 25 488 141 
L 488 750 
Q 750 597 1062 519 
Q 1375 441 1716 441 
Q 2309 441 2620 675 
Q 2931 909 2931 1356 
Q 2931 1769 2642 2001 
Q 2353 2234 1838 2234 
L 1294 2234 
L 1294 2753 
L 1863 2753 
Q 2328 2753 2575 2939 
Q 2822 3125 2822 3475 
Q 2822 3834 2567 4026 
Q 2313 4219 1838 4219 
Q 1578 4219 1281 4162 
Q 984 4106 628 3988 
L 628 4550 
Q 988 4650 1302 4700 
Q 1616 4750 1894 4750 
Q 2613 4750 3031 4423 
Q 3450 4097 3450 3541 
Q 3450 3153 3228 2886 
Q 3006 2619 2597 2516 
z
" transform="scale(0.015625)"/>
       </defs>
       <use xlink:href="#DejaVuSans-2212"/>
       <use xlink:href="#DejaVuSans-33" x="83.789062"/>
       <use xlink:href="#DejaVuSans-30" x="147.412109"/>
      </g>
     </g>
    </g>
    <g id="ytick_5">
     <g id="line2d_19">
      <path d="M 46.718678 123.952217 
L 333.192476 123.952217 
" clip-path="url(#p825b923342)" style="fill: none; stroke: #b0b0b0; stroke-width: 0.8; stroke-linecap: square"/>
     </g>
     <g id="line2d_20">
      <g>
       <use xlink:href="#m1749f582e5" x="46.718678" y="123.952217" style="stroke: #000000; stroke-width: 0.8"/>
      </g>
     </g>
     <g id="text_11">
      <!-- −20 -->
      <g transform="translate(18.61399 127.751436) scale(0.1 -0.1)">
       <use xlink:href="#DejaVuSans-2212"/>
       <use xlink:href="#DejaVuSans-32" x="83.789062"/>
       <use xlink:href="#DejaVuSans-30" x="147.412109"/>
      </g>
     </g>
    </g>
    <g id="ytick_6">
     <g id="line2d_21">
      <path d="M 46.718678 94.664036 
L 333.192476 94.664036 
" clip-path="url(#p825b923342)" style="fill: none; stroke: #b0b0b0; stroke-width: 0.8; stroke-linecap: square"/>
     </g>
     <g id="line2d_22">
      <g>
       <use xlink:href="#m1749f582e5" x="46.718678" y="94.664036" style="stroke: #000000; stroke-width: 0.8"/>
      </g>
     </g>
     <g id="text_12">
      <!-- −10 -->
      <g transform="translate(18.61399 98.463255) scale(0.1 -0.1)">
       <use xlink:href="#DejaVuSans-2212"/>
       <use xlink:href="#DejaVuSans-31" x="83.789062"/>
       <use xlink:href="#DejaVuSans-30" x="147.412109"/>
      </g>
     </g>
    </g>
    <g id="ytick_7">
     <g id="line2d_23">
      <path d="M 46.718678 65.375854 
L 333.192476 65.375854 
" clip-path="url(#p825b923342)" style="fill: none; stroke: #b0b0b0; stroke-width: 0.8; stroke-linecap: square"/>
     </g>
     <g id="line2d_24">
      <g>
       <use xlink:href="#m1749f582e5" x="46.718678" y="65.375854" style="stroke: #000000; stroke-width: 0.8"/>
      </g>
     </g>
     <g id="text_13">
      <!-- 0 -->
      <g transform="translate(33.356178 69.175073) scale(0.1 -0.1)">
       <use xlink:href="#DejaVuSans-30"/>
      </g>
     </g>
    </g>
    <g id="ytick_8">
     <g id="line2d_25">
      <path d="M 46.718678 36.087673 
L 333.192476 36.087673 
" clip-path="url(#p825b923342)" style="fill: none; stroke: #b0b0b0; stroke-width: 0.8; stroke-linecap: square"/>
     </g>
     <g id="line2d_26">
      <g>
       <use xlink:href="#m1749f582e5" x="46.718678" y="36.087673" style="stroke: #000000; stroke-width: 0.8"/>
      </g>
     </g>
     <g id="text_14">
      <!-- 10 -->
      <g transform="translate(26.993678 39.886892) scale(0.1 -0.1)">
       <use xlink:href="#DejaVuSans-31"/>
       <use xlink:href="#DejaVuSans-30" x="63.623047"/>
      </g>
     </g>
    </g>
    <g id="ytick_9">
     <g id="line2d_27">
      <path d="M 46.718678 6.799492 
L 333.192476 6.799492 
" clip-path="url(#p825b923342)" style="fill: none; stroke: #b0b0b0; stroke-width: 0.8; stroke-linecap: square"/>
     </g>
     <g id="line2d_28">
      <g>
       <use xlink:href="#m1749f582e5" x="46.718678" y="6.799492" style="stroke: #000000; stroke-width: 0.8"/>
      </g>
     </g>
     <g id="text_15">
      <!-- 20 -->
      <g transform="translate(26.993678 10.59871) scale(0.1 -0.1)">
       <use xlink:href="#DejaVuSans-32"/>
       <use xlink:href="#DejaVuSans-30" x="63.623047"/>
      </g>
     </g>
    </g>
    <g id="text_16">
     <!-- $\langle E \rangle$ $\left[k_{B}T_0\right]$ -->
     <g transform="translate(12.118365 157.750757) rotate(-90) scale(0.12 -0.12)">
      <defs>
       <path id="DejaVuSans-27e8" d="M 572 2006 
L 1453 4856 
L 1984 4856 
L 1103 2006 
L 1984 -844 
L 1453 -844 
L 572 2006 
z
" transform="scale(0.015625)"/>
       <path id="DejaVuSans-Oblique-45" d="M 1081 4666 
L 4031 4666 
L 3928 4134 
L 1606 4134 
L 1338 2753 
L 3566 2753 
L 3463 2222 
L 1234 2222 
L 909 531 
L 3284 531 
L 3181 0 
L 172 0 
L 1081 4666 
z
" transform="scale(0.015625)"/>
       <path id="DejaVuSans-27e9" d="M 1925 2006 
L 1044 -844 
L 513 -844 
L 1394 2006 
L 513 4856 
L 1044 4856 
L 1925 2006 
z
" transform="scale(0.015625)"/>
      </defs>
      <use xlink:href="#DejaVuSans-27e8" transform="translate(0 0.015625)"/>
      <use xlink:href="#DejaVuSans-Oblique-45" transform="translate(39.013672 0.015625)"/>
      <use xlink:href="#DejaVuSans-27e9" transform="translate(102.197266 0.015625)"/>
      <use xlink:href="#DejaVuSans-20" transform="translate(141.210938 0.015625)"/>
      <use xlink:href="#DejaVuSans-5b" transform="translate(172.998047 0.015625)"/>
      <use xlink:href="#DejaVuSans-Oblique-6b" transform="translate(212.011719 0.015625)"/>
      <use xlink:href="#DejaVuSans-Oblique-42" transform="translate(269.921875 -16.390625) scale(0.7)"/>
      <use xlink:href="#DejaVuSans-Oblique-54" transform="translate(320.678711 0.015625)"/>
      <use xlink:href="#DejaVuSans-30" transform="translate(381.762695 -16.390625) scale(0.7)"/>
      <use xlink:href="#DejaVuSans-5d" transform="translate(429.033203 0.015625)"/>
     </g>
    </g>
   </g>
   <g id="line2d_29">
    <path d="M 59.740214 241.471045 
L 61.010165 240.927439 
L 62.280116 240.383832 
L 63.550068 239.840226 
L 64.820019 239.29662 
L 66.08997 238.753013 
L 67.359922 238.209407 
L 68.629873 237.6658 
L 69.899824 237.122194 
L 71.169775 236.578588 
L 72.439727 236.034981 
L 73.709678 235.491375 
L 74.979629 234.947768 
L 76.249581 234.404162 
L 77.519532 233.860556 
L 78.789483 233.316949 
L 80.059434 232.773343 
L 81.329386 232.229736 
L 82.599337 231.68613 
L 83.869288 231.142524 
L 85.13924 230.598917 
L 86.409191 230.055311 
L 87.679142 229.511704 
L 88.949094 228.968098 
L 90.219045 228.424492 
L 91.488996 227.880885 
L 92.758947 227.337279 
L 94.028899 226.793672 
L 95.29885 226.250066 
L 96.568801 225.70646 
L 97.838753 225.162853 
L 99.108704 224.619247 
L 100.378655 224.07564 
L 101.648606 223.532034 
L 102.918558 222.988428 
L 104.188509 222.444821 
L 105.45846 221.901215 
L 106.728412 221.357608 
L 107.998363 220.814002 
L 109.268314 220.270396 
L 110.538265 219.726789 
L 111.808217 219.183183 
L 113.078168 218.639576 
L 114.348119 218.09597 
L 115.618071 217.552364 
L 116.888022 217.008757 
L 118.157973 216.465151 
L 119.427925 215.921544 
L 120.697876 215.377938 
L 121.967827 214.834332 
L 123.237778 214.290725 
L 124.50773 213.747119 
L 125.777681 213.203512 
L 127.047632 212.659906 
L 128.317584 212.1163 
L 129.587535 211.572693 
L 130.857486 211.029087 
L 132.127437 210.48548 
L 133.397389 209.941874 
L 134.66734 209.398268 
L 135.937291 208.854661 
L 137.207243 208.311055 
L 138.477194 207.767448 
L 139.747145 207.223842 
L 141.017097 206.680236 
L 142.287048 206.136629 
L 143.556999 205.593023 
L 144.82695 205.049416 
L 146.096902 204.50581 
L 147.366853 203.962204 
L 148.636804 203.418597 
L 149.906756 202.874991 
L 151.176707 202.331385 
L 152.446658 201.787778 
L 153.716609 201.244172 
L 154.986561 200.700565 
L 156.256512 200.156959 
L 157.526463 199.613353 
L 158.796415 199.069746 
L 160.066366 198.52614 
L 161.336317 197.982533 
L 162.606268 197.438927 
L 163.87622 196.895321 
L 165.146171 196.351714 
L 166.416122 195.808108 
L 167.686074 195.264501 
L 168.956025 194.720895 
L 170.225976 194.177289 
L 171.495928 193.633682 
L 172.765879 193.090076 
L 174.03583 192.546469 
L 175.305781 192.002863 
L 176.575733 191.459257 
L 177.845684 190.91565 
L 179.115635 190.372044 
L 180.385587 189.828437 
L 181.655538 189.284831 
L 182.925489 188.741225 
L 184.19544 188.197618 
L 185.465392 187.654012 
" clip-path="url(#p825b923342)" style="fill: none; stroke: #ff7f0e; stroke-width: 1.5; stroke-linecap: square"/>
   </g>
   <g id="line2d_30">
    <path d="M 221.386871 36.673437 
L 222.354453 36.507766 
L 223.322035 36.342096 
L 224.289617 36.176425 
L 225.257199 36.010755 
L 226.224781 35.845084 
L 227.192363 35.679414 
L 228.159945 35.513743 
L 229.127527 35.348073 
L 230.095109 35.182402 
L 231.062691 35.016731 
L 232.030272 34.851061 
L 232.997854 34.68539 
L 233.965436 34.51972 
L 234.933018 34.354049 
L 235.9006 34.188379 
L 236.868182 34.022708 
L 237.835764 33.857038 
L 238.803346 33.691367 
L 239.770928 33.525697 
L 240.73851 33.360026 
L 241.706092 33.194356 
L 242.673674 33.028685 
L 243.641256 32.863015 
L 244.608838 32.697344 
L 245.57642 32.531674 
L 246.544002 32.366003 
L 247.511583 32.200333 
L 248.479165 32.034662 
L 249.446747 31.868992 
L 250.414329 31.703321 
L 251.381911 31.537651 
L 252.349493 31.37198 
L 253.317075 31.206309 
L 254.284657 31.040639 
L 255.252239 30.874968 
L 256.219821 30.709298 
L 257.187403 30.543627 
L 258.154985 30.377957 
L 259.122567 30.212286 
L 260.090149 30.046616 
L 261.057731 29.880945 
L 262.025313 29.715275 
L 262.992894 29.549604 
L 263.960476 29.383934 
L 264.928058 29.218263 
L 265.89564 29.052593 
L 266.863222 28.886922 
L 267.830804 28.721252 
L 268.798386 28.555581 
L 269.765968 28.389911 
L 270.73355 28.22424 
L 271.701132 28.05857 
L 272.668714 27.892899 
L 273.636296 27.727229 
L 274.603878 27.561558 
L 275.57146 27.395888 
L 276.539042 27.230217 
L 277.506624 27.064546 
L 278.474205 26.898876 
L 279.441787 26.733205 
L 280.409369 26.567535 
L 281.376951 26.401864 
L 282.344533 26.236194 
L 283.312115 26.070523 
L 284.279697 25.904853 
L 285.247279 25.739182 
L 286.214861 25.573512 
L 287.182443 25.407841 
L 288.150025 25.242171 
L 289.117607 25.0765 
L 290.085189 24.91083 
L 291.052771 24.745159 
L 292.020353 24.579489 
L 292.987935 24.413818 
L 293.955516 24.248148 
L 294.923098 24.082477 
L 295.89068 23.916807 
L 296.858262 23.751136 
L 297.825844 23.585466 
L 298.793426 23.419795 
L 299.761008 23.254124 
L 300.72859 23.088454 
L 301.696172 22.922783 
L 302.663754 22.757113 
L 303.631336 22.591442 
L 304.598918 22.425772 
L 305.5665 22.260101 
L 306.534082 22.094431 
L 307.501664 21.92876 
L 308.469245 21.76309 
L 309.436827 21.597419 
L 310.404409 21.431749 
L 311.371991 21.266078 
L 312.339573 21.100408 
L 313.307155 20.934737 
L 314.274737 20.769067 
L 315.242319 20.603396 
L 316.209901 20.437726 
L 317.177483 20.272055 
" clip-path="url(#p825b923342)" style="fill: none; stroke: #d62728; stroke-width: 1.5; stroke-linecap: square"/>
   </g>
   <g id="line2d_31">
    <path d="M 68.720584 241.517237 
L 86.681323 235.123867 
L 104.642063 230.071926 
L 122.602803 216.752998 
L 140.563542 209.380209 
L 158.524282 198.991696 
L 176.485022 180.205304 
L 194.445762 139.495832 
L 212.406501 41.288143 
L 230.367241 37.481105 
L 248.327981 30.371015 
L 266.28872 25.603948 
L 284.24946 25.173067 
L 302.2102 21.753096 
L 320.17094 17.704276 
" clip-path="url(#p825b923342)" style="fill: none; stroke: #1f77b4; stroke-opacity: 0.8; stroke-linecap: square"/>
    <defs>
     <path id="m89d9b16a1c" d="M 0 3 
C 0.795609 3 1.55874 2.683901 2.12132 2.12132 
C 2.683901 1.55874 3 0.795609 3 0 
C 3 -0.795609 2.683901 -1.55874 2.12132 -2.12132 
C 1.55874 -2.683901 0.795609 -3 0 -3 
C -0.795609 -3 -1.55874 -2.683901 -2.12132 -2.12132 
C -2.683901 -1.55874 -3 -0.795609 -3 0 
C -3 0.795609 -2.683901 1.55874 -2.12132 2.12132 
C -1.55874 2.683901 -0.795609 3 0 3 
z
" style="stroke: #000000; stroke-opacity: 0.8"/>
    </defs>
    <g clip-path="url(#p825b923342)">
     <use xlink:href="#m89d9b16a1c" x="68.720584" y="241.517237" style="fill: #1f77b4; fill-opacity: 0.8; stroke: #000000; stroke-opacity: 0.8"/>
     <use xlink:href="#m89d9b16a1c" x="86.681323" y="235.123867" style="fill: #1f77b4; fill-opacity: 0.8; stroke: #000000; stroke-opacity: 0.8"/>
     <use xlink:href="#m89d9b16a1c" x="104.642063" y="230.071926" style="fill: #1f77b4; fill-opacity: 0.8; stroke: #000000; stroke-opacity: 0.8"/>
     <use xlink:href="#m89d9b16a1c" x="122.602803" y="216.752998" style="fill: #1f77b4; fill-opacity: 0.8; stroke: #000000; stroke-opacity: 0.8"/>
     <use xlink:href="#m89d9b16a1c" x="140.563542" y="209.380209" style="fill: #1f77b4; fill-opacity: 0.8; stroke: #000000; stroke-opacity: 0.8"/>
     <use xlink:href="#m89d9b16a1c" x="158.524282" y="198.991696" style="fill: #1f77b4; fill-opacity: 0.8; stroke: #000000; stroke-opacity: 0.8"/>
     <use xlink:href="#m89d9b16a1c" x="176.485022" y="180.205304" style="fill: #1f77b4; fill-opacity: 0.8; stroke: #000000; stroke-opacity: 0.8"/>
     <use xlink:href="#m89d9b16a1c" x="194.445762" y="139.495832" style="fill: #1f77b4; fill-opacity: 0.8; stroke: #000000; stroke-opacity: 0.8"/>
     <use xlink:href="#m89d9b16a1c" x="212.406501" y="41.288143" style="fill: #1f77b4; fill-opacity: 0.8; stroke: #000000; stroke-opacity: 0.8"/>
     <use xlink:href="#m89d9b16a1c" x="230.367241" y="37.481105" style="fill: #1f77b4; fill-opacity: 0.8; stroke: #000000; stroke-opacity: 0.8"/>
     <use xlink:href="#m89d9b16a1c" x="248.327981" y="30.371015" style="fill: #1f77b4; fill-opacity: 0.8; stroke: #000000; stroke-opacity: 0.8"/>
     <use xlink:href="#m89d9b16a1c" x="266.28872" y="25.603948" style="fill: #1f77b4; fill-opacity: 0.8; stroke: #000000; stroke-opacity: 0.8"/>
     <use xlink:href="#m89d9b16a1c" x="284.24946" y="25.173067" style="fill: #1f77b4; fill-opacity: 0.8; stroke: #000000; stroke-opacity: 0.8"/>
     <use xlink:href="#m89d9b16a1c" x="302.2102" y="21.753096" style="fill: #1f77b4; fill-opacity: 0.8; stroke: #000000; stroke-opacity: 0.8"/>
     <use xlink:href="#m89d9b16a1c" x="320.17094" y="17.704276" style="fill: #1f77b4; fill-opacity: 0.8; stroke: #000000; stroke-opacity: 0.8"/>
    </g>
   </g>
   <g id="patch_3">
    <path d="M 46.718678 252.707885 
L 46.718678 6.513628 
" style="fill: none; stroke: #000000; stroke-width: 0.8; stroke-linejoin: miter; stroke-linecap: square"/>
   </g>
   <g id="patch_4">
    <path d="M 333.192476 252.707885 
L 333.192476 6.513628 
" style="fill: none; stroke: #000000; stroke-width: 0.8; stroke-linejoin: miter; stroke-linecap: square"/>
   </g>
   <g id="patch_5">
    <path d="M 46.718678 252.707885 
L 333.192476 252.707885 
" style="fill: none; stroke: #000000; stroke-width: 0.8; stroke-linejoin: miter; stroke-linecap: square"/>
   </g>
   <g id="patch_6">
    <path d="M 46.718678 6.513628 
L 333.192476 6.513628 
" style="fill: none; stroke: #000000; stroke-width: 0.8; stroke-linejoin: miter; stroke-linecap: square"/>
   </g>
   <g id="legend_1">
    <g id="patch_7">
     <path d="M 150.792476 247.707885 
L 326.192476 247.707885 
Q 328.192476 247.707885 328.192476 245.707885 
L 328.192476 209.707885 
Q 328.192476 207.707885 326.192476 207.707885 
L 150.792476 207.707885 
Q 148.792476 207.707885 148.792476 209.707885 
L 148.792476 245.707885 
Q 148.792476 247.707885 150.792476 247.707885 
z
" style="fill: #ffffff; opacity: 0.8; stroke: #cccccc; stroke-linejoin: miter"/>
    </g>
    <g id="line2d_32">
     <path d="M 152.792476 217.707885 
L 162.792476 217.707885 
L 172.792476 217.707885 
" style="fill: none; stroke: #ff7f0e; stroke-width: 1.5; stroke-linecap: square"/>
    </g>
    <g id="text_17">
     <!-- $U_{t} = \frac{1}{2} N_{atoms}f_{deg} k_{B}T = 17.5k_{B}T$ -->
     <g transform="translate(180.792476 221.207885) scale(0.1 -0.1)">
      <defs>
       <path id="DejaVuSans-Oblique-55" d="M 991 4666 
L 1625 4666 
L 1075 1831 
Q 1041 1641 1027 1517 
Q 1013 1394 1013 1300 
Q 1013 869 1253 645 
Q 1494 422 1959 422 
Q 2563 422 2898 753 
Q 3234 1084 3378 1831 
L 3928 4666 
L 4563 4666 
L 4000 1753 
Q 3816 809 3300 359 
Q 2784 -91 1888 -91 
Q 1188 -91 780 261 
Q 372 613 372 1216 
Q 372 1325 387 1461 
Q 403 1597 434 1753 
L 991 4666 
z
" transform="scale(0.015625)"/>
       <path id="DejaVuSans-Oblique-74" d="M 2706 3500 
L 2619 3053 
L 1472 3053 
L 1100 1153 
Q 1081 1047 1072 975 
Q 1063 903 1063 863 
Q 1063 663 1183 572 
Q 1303 481 1569 481 
L 2150 481 
L 2053 0 
L 1503 0 
Q 991 0 739 200 
Q 488 400 488 806 
Q 488 878 497 964 
Q 506 1050 525 1153 
L 897 3053 
L 409 3053 
L 500 3500 
L 978 3500 
L 1172 4494 
L 1747 4494 
L 1556 3500 
L 2706 3500 
z
" transform="scale(0.015625)"/>
       <path id="DejaVuSans-3d" d="M 678 2906 
L 4684 2906 
L 4684 2381 
L 678 2381 
L 678 2906 
z
M 678 1631 
L 4684 1631 
L 4684 1100 
L 678 1100 
L 678 1631 
z
" transform="scale(0.015625)"/>
       <path id="DejaVuSans-Oblique-4e" d="M 1081 4666 
L 1931 4666 
L 3219 666 
L 4000 4666 
L 4616 4666 
L 3706 0 
L 2853 0 
L 1569 4025 
L 788 0 
L 172 0 
L 1081 4666 
z
" transform="scale(0.015625)"/>
       <path id="DejaVuSans-Oblique-61" d="M 3438 1997 
L 3047 0 
L 2472 0 
L 2578 531 
Q 2325 219 2001 64 
Q 1678 -91 1281 -91 
Q 834 -91 548 182 
Q 263 456 263 884 
Q 263 1497 752 1853 
Q 1241 2209 2100 2209 
L 2900 2209 
L 2931 2363 
Q 2938 2388 2941 2417 
Q 2944 2447 2944 2509 
Q 2944 2788 2717 2942 
Q 2491 3097 2081 3097 
Q 1800 3097 1504 3025 
Q 1209 2953 897 2809 
L 997 3341 
Q 1322 3463 1633 3523 
Q 1944 3584 2234 3584 
Q 2853 3584 3176 3315 
Q 3500 3047 3500 2534 
Q 3500 2431 3484 2292 
Q 3469 2153 3438 1997 
z
M 2816 1759 
L 2241 1759 
Q 1534 1759 1195 1570 
Q 856 1381 856 984 
Q 856 709 1029 553 
Q 1203 397 1509 397 
Q 1978 397 2328 733 
Q 2678 1069 2791 1631 
L 2816 1759 
z
" transform="scale(0.015625)"/>
       <path id="DejaVuSans-Oblique-6f" d="M 1625 -91 
Q 1009 -91 651 289 
Q 294 669 294 1325 
Q 294 1706 417 2101 
Q 541 2497 738 2766 
Q 1047 3184 1428 3384 
Q 1809 3584 2291 3584 
Q 2888 3584 3255 3212 
Q 3622 2841 3622 2241 
Q 3622 1825 3500 1412 
Q 3378 1000 3181 728 
Q 2875 309 2494 109 
Q 2113 -91 1625 -91 
z
M 891 1344 
Q 891 869 1089 633 
Q 1288 397 1691 397 
Q 2269 397 2648 901 
Q 3028 1406 3028 2181 
Q 3028 2634 2825 2865 
Q 2622 3097 2228 3097 
Q 1903 3097 1650 2945 
Q 1397 2794 1197 2484 
Q 1050 2253 970 1956 
Q 891 1659 891 1344 
z
" transform="scale(0.015625)"/>
       <path id="DejaVuSans-Oblique-6d" d="M 5747 2113 
L 5338 0 
L 4763 0 
L 5166 2094 
Q 5191 2228 5203 2325 
Q 5216 2422 5216 2491 
Q 5216 2772 5059 2928 
Q 4903 3084 4622 3084 
Q 4203 3084 3875 2770 
Q 3547 2456 3450 1953 
L 3066 0 
L 2491 0 
L 2900 2094 
Q 2925 2209 2937 2307 
Q 2950 2406 2950 2484 
Q 2950 2769 2794 2926 
Q 2638 3084 2363 3084 
Q 1938 3084 1609 2770 
Q 1281 2456 1184 1953 
L 800 0 
L 225 0 
L 909 3500 
L 1484 3500 
L 1375 2956 
Q 1609 3263 1923 3423 
Q 2238 3584 2597 3584 
Q 2978 3584 3223 3384 
Q 3469 3184 3519 2828 
Q 3781 3197 4126 3390 
Q 4472 3584 4856 3584 
Q 5306 3584 5551 3325 
Q 5797 3066 5797 2591 
Q 5797 2488 5784 2364 
Q 5772 2241 5747 2113 
z
" transform="scale(0.015625)"/>
       <path id="DejaVuSans-Oblique-73" d="M 3200 3397 
L 3091 2853 
Q 2863 2978 2609 3040 
Q 2356 3103 2088 3103 
Q 1634 3103 1373 2948 
Q 1113 2794 1113 2528 
Q 1113 2219 1719 2053 
Q 1766 2041 1788 2034 
L 1972 1978 
Q 2547 1819 2739 1644 
Q 2931 1469 2931 1166 
Q 2931 609 2489 259 
Q 2047 -91 1331 -91 
Q 1053 -91 747 -37 
Q 441 16 72 128 
L 184 722 
Q 500 559 806 475 
Q 1113 391 1394 391 
Q 1816 391 2080 572 
Q 2344 753 2344 1031 
Q 2344 1331 1650 1516 
L 1591 1531 
L 1394 1581 
Q 956 1697 753 1886 
Q 550 2075 550 2369 
Q 550 2928 970 3256 
Q 1391 3584 2113 3584 
Q 2397 3584 2667 3537 
Q 2938 3491 3200 3397 
z
" transform="scale(0.015625)"/>
       <path id="DejaVuSans-Oblique-66" d="M 3059 4863 
L 2969 4384 
L 2419 4384 
Q 2106 4384 1964 4261 
Q 1822 4138 1753 3809 
L 1691 3500 
L 2638 3500 
L 2553 3053 
L 1606 3053 
L 1013 0 
L 434 0 
L 1031 3053 
L 481 3053 
L 563 3500 
L 1113 3500 
L 1159 3744 
Q 1278 4363 1576 4613 
Q 1875 4863 2516 4863 
L 3059 4863 
z
" transform="scale(0.015625)"/>
       <path id="DejaVuSans-Oblique-64" d="M 2675 525 
Q 2444 222 2128 65 
Q 1813 -91 1428 -91 
Q 903 -91 598 267 
Q 294 625 294 1247 
Q 294 1766 478 2236 
Q 663 2706 1013 3078 
Q 1244 3325 1534 3454 
Q 1825 3584 2144 3584 
Q 2481 3584 2739 3421 
Q 2997 3259 3138 2956 
L 3513 4863 
L 4091 4863 
L 3144 0 
L 2566 0 
L 2675 525 
z
M 891 1350 
Q 891 897 1095 644 
Q 1300 391 1663 391 
Q 1931 391 2161 520 
Q 2391 650 2566 903 
Q 2750 1166 2856 1509 
Q 2963 1853 2963 2188 
Q 2963 2622 2758 2865 
Q 2553 3109 2194 3109 
Q 1922 3109 1687 2981 
Q 1453 2853 1288 2613 
Q 1106 2353 998 2009 
Q 891 1666 891 1350 
z
" transform="scale(0.015625)"/>
       <path id="DejaVuSans-Oblique-65" d="M 3078 2063 
Q 3088 2113 3092 2166 
Q 3097 2219 3097 2272 
Q 3097 2653 2873 2875 
Q 2650 3097 2266 3097 
Q 1838 3097 1509 2826 
Q 1181 2556 1013 2059 
L 3078 2063 
z
M 3578 1613 
L 903 1613 
Q 884 1494 878 1425 
Q 872 1356 872 1306 
Q 872 872 1139 634 
Q 1406 397 1894 397 
Q 2269 397 2603 481 
Q 2938 566 3225 728 
L 3116 159 
Q 2806 34 2476 -28 
Q 2147 -91 1806 -91 
Q 1078 -91 686 257 
Q 294 606 294 1247 
Q 294 1794 489 2264 
Q 684 2734 1063 3103 
Q 1306 3334 1642 3459 
Q 1978 3584 2356 3584 
Q 2950 3584 3301 3228 
Q 3653 2872 3653 2272 
Q 3653 2128 3634 1964 
Q 3616 1800 3578 1613 
z
" transform="scale(0.015625)"/>
       <path id="DejaVuSans-Oblique-67" d="M 3816 3500 
L 3219 434 
Q 3047 -456 2561 -893 
Q 2075 -1331 1253 -1331 
Q 950 -1331 690 -1286 
Q 431 -1241 206 -1147 
L 313 -588 
Q 525 -725 762 -790 
Q 1000 -856 1269 -856 
Q 1816 -856 2167 -557 
Q 2519 -259 2631 300 
L 2681 563 
Q 2441 288 2122 144 
Q 1803 0 1434 0 
Q 903 0 598 351 
Q 294 703 294 1319 
Q 294 1803 478 2267 
Q 663 2731 997 3091 
Q 1219 3328 1514 3456 
Q 1809 3584 2131 3584 
Q 2484 3584 2746 3420 
Q 3009 3256 3138 2956 
L 3238 3500 
L 3816 3500 
z
M 2950 2216 
Q 2950 2641 2750 2872 
Q 2550 3103 2181 3103 
Q 1953 3103 1747 3012 
Q 1541 2922 1394 2759 
Q 1156 2491 1023 2127 
Q 891 1763 891 1375 
Q 891 944 1092 712 
Q 1294 481 1672 481 
Q 2219 481 2584 976 
Q 2950 1472 2950 2216 
z
" transform="scale(0.015625)"/>
       <path id="DejaVuSans-37" d="M 525 4666 
L 3525 4666 
L 3525 4397 
L 1831 0 
L 1172 0 
L 2766 4134 
L 525 4134 
L 525 4666 
z
" transform="scale(0.015625)"/>
      </defs>
      <use xlink:href="#DejaVuSans-Oblique-55" transform="translate(0 0.16875)"/>
      <use xlink:href="#DejaVuSans-Oblique-74" transform="translate(73.193359 -16.2375) scale(0.7)"/>
      <use xlink:href="#DejaVuSans-3d" transform="translate(122.856445 0.16875)"/>
      <use xlink:href="#DejaVuSans-31" transform="translate(226.12793 43.965625) scale(0.7)"/>
      <use xlink:href="#DejaVuSans-32" transform="translate(226.12793 -39.2375) scale(0.7)"/>
      <use xlink:href="#DejaVuSans-Oblique-4e" transform="translate(283.164062 0.16875)"/>
      <use xlink:href="#DejaVuSans-Oblique-61" transform="translate(357.96875 -16.2375) scale(0.7)"/>
      <use xlink:href="#DejaVuSans-Oblique-74" transform="translate(400.864258 -16.2375) scale(0.7)"/>
      <use xlink:href="#DejaVuSans-Oblique-6f" transform="translate(428.310547 -16.2375) scale(0.7)"/>
      <use xlink:href="#DejaVuSans-Oblique-6d" transform="translate(471.137695 -16.2375) scale(0.7)"/>
      <use xlink:href="#DejaVuSans-Oblique-73" transform="translate(539.326172 -16.2375) scale(0.7)"/>
      <use xlink:href="#DejaVuSans-Oblique-66" transform="translate(578.530273 0.16875)"/>
      <use xlink:href="#DejaVuSans-Oblique-64" transform="translate(613.735352 -16.2375) scale(0.7)"/>
      <use xlink:href="#DejaVuSans-Oblique-65" transform="translate(658.168945 -16.2375) scale(0.7)"/>
      <use xlink:href="#DejaVuSans-Oblique-67" transform="translate(701.235352 -16.2375) scale(0.7)"/>
      <use xlink:href="#DejaVuSans-Oblique-6b" transform="translate(748.40332 0.16875)"/>
      <use xlink:href="#DejaVuSans-Oblique-42" transform="translate(806.313477 -16.2375) scale(0.7)"/>
      <use xlink:href="#DejaVuSans-Oblique-54" transform="translate(857.070312 0.16875)"/>
      <use xlink:href="#DejaVuSans-3d" transform="translate(937.636719 0.16875)"/>
      <use xlink:href="#DejaVuSans-31" transform="translate(1040.908203 0.16875)"/>
      <use xlink:href="#DejaVuSans-37" transform="translate(1104.53125 0.16875)"/>
      <use xlink:href="#DejaVuSans-2e" transform="translate(1168.154297 0.16875)"/>
      <use xlink:href="#DejaVuSans-35" transform="translate(1199.941406 0.16875)"/>
      <use xlink:href="#DejaVuSans-Oblique-6b" transform="translate(1263.564453 0.16875)"/>
      <use xlink:href="#DejaVuSans-Oblique-42" transform="translate(1321.474609 -16.2375) scale(0.7)"/>
      <use xlink:href="#DejaVuSans-Oblique-54" transform="translate(1372.231445 0.16875)"/>
      <path d="M 226.12793 18.965625 
L 226.12793 25.215625 
L 270.664062 25.215625 
L 270.664062 18.965625 
L 226.12793 18.965625 
z
"/>
     </g>
    </g>
    <g id="line2d_33">
     <path d="M 152.792476 236.207885 
L 162.792476 236.207885 
L 172.792476 236.207885 
" style="fill: none; stroke: #d62728; stroke-width: 1.5; stroke-linecap: square"/>
    </g>
    <g id="text_18">
     <!-- $U_{t} = \frac{1}{2} N_{atoms}f_{deg} k_{B}T = 7k_{B}T$ -->
     <g transform="translate(180.792476 239.707885) scale(0.1 -0.1)">
      <use xlink:href="#DejaVuSans-Oblique-55" transform="translate(0 0.16875)"/>
      <use xlink:href="#DejaVuSans-Oblique-74" transform="translate(73.193359 -16.2375) scale(0.7)"/>
      <use xlink:href="#DejaVuSans-3d" transform="translate(122.856445 0.16875)"/>
      <use xlink:href="#DejaVuSans-31" transform="translate(226.12793 43.965625) scale(0.7)"/>
      <use xlink:href="#DejaVuSans-32" transform="translate(226.12793 -39.2375) scale(0.7)"/>
      <use xlink:href="#DejaVuSans-Oblique-4e" transform="translate(283.164062 0.16875)"/>
      <use xlink:href="#DejaVuSans-Oblique-61" transform="translate(357.96875 -16.2375) scale(0.7)"/>
      <use xlink:href="#DejaVuSans-Oblique-74" transform="translate(400.864258 -16.2375) scale(0.7)"/>
      <use xlink:href="#DejaVuSans-Oblique-6f" transform="translate(428.310547 -16.2375) scale(0.7)"/>
      <use xlink:href="#DejaVuSans-Oblique-6d" transform="translate(471.137695 -16.2375) scale(0.7)"/>
      <use xlink:href="#DejaVuSans-Oblique-73" transform="translate(539.326172 -16.2375) scale(0.7)"/>
      <use xlink:href="#DejaVuSans-Oblique-66" transform="translate(578.530273 0.16875)"/>
      <use xlink:href="#DejaVuSans-Oblique-64" transform="translate(613.735352 -16.2375) scale(0.7)"/>
      <use xlink:href="#DejaVuSans-Oblique-65" transform="translate(658.168945 -16.2375) scale(0.7)"/>
      <use xlink:href="#DejaVuSans-Oblique-67" transform="translate(701.235352 -16.2375) scale(0.7)"/>
      <use xlink:href="#DejaVuSans-Oblique-6b" transform="translate(748.40332 0.16875)"/>
      <use xlink:href="#DejaVuSans-Oblique-42" transform="translate(806.313477 -16.2375) scale(0.7)"/>
      <use xlink:href="#DejaVuSans-Oblique-54" transform="translate(857.070312 0.16875)"/>
      <use xlink:href="#DejaVuSans-3d" transform="translate(937.636719 0.16875)"/>
      <use xlink:href="#DejaVuSans-37" transform="translate(1040.908203 0.16875)"/>
      <use xlink:href="#DejaVuSans-Oblique-6b" transform="translate(1104.53125 0.16875)"/>
      <use xlink:href="#DejaVuSans-Oblique-42" transform="translate(1162.441406 -16.2375) scale(0.7)"/>
      <use xlink:href="#DejaVuSans-Oblique-54" transform="translate(1213.198242 0.16875)"/>
      <path d="M 226.12793 18.965625 
L 226.12793 25.215625 
L 270.664062 25.215625 
L 270.664062 18.965625 
L 226.12793 18.965625 
z
"/>
     </g>
    </g>
   </g>
  </g>
  <g id="axes_2">
   <g id="patch_8">
    <path d="M 381.613726 252.707885 
L 668.087524 252.707885 
L 668.087524 6.513628 
L 381.613726 6.513628 
z
" style="fill: #ffffff"/>
   </g>
   <g id="matplotlib.axis_3">
    <g id="xtick_6">
     <g id="line2d_34">
      <path d="M 388.648349 252.707885 
L 388.648349 6.513628 
" clip-path="url(#p85628c69a8)" style="fill: none; stroke: #b0b0b0; stroke-width: 0.8; stroke-linecap: square"/>
     </g>
     <g id="line2d_35">
      <g>
       <use xlink:href="#m43aaff248b" x="388.648349" y="252.707885" style="stroke: #000000; stroke-width: 0.8"/>
      </g>
     </g>
     <g id="text_19">
      <!-- 0.0 -->
      <g transform="translate(380.696786 267.306323) scale(0.1 -0.1)">
       <use xlink:href="#DejaVuSans-30"/>
       <use xlink:href="#DejaVuSans-2e" x="63.623047"/>
       <use xlink:href="#DejaVuSans-30" x="95.410156"/>
      </g>
     </g>
    </g>
    <g id="xtick_7">
     <g id="line2d_36">
      <path d="M 448.517481 252.707885 
L 448.517481 6.513628 
" clip-path="url(#p85628c69a8)" style="fill: none; stroke: #b0b0b0; stroke-width: 0.8; stroke-linecap: square"/>
     </g>
     <g id="line2d_37">
      <g>
       <use xlink:href="#m43aaff248b" x="448.517481" y="252.707885" style="stroke: #000000; stroke-width: 0.8"/>
      </g>
     </g>
     <g id="text_20">
      <!-- 0.5 -->
      <g transform="translate(440.565919 267.306323) scale(0.1 -0.1)">
       <use xlink:href="#DejaVuSans-30"/>
       <use xlink:href="#DejaVuSans-2e" x="63.623047"/>
       <use xlink:href="#DejaVuSans-35" x="95.410156"/>
      </g>
     </g>
    </g>
    <g id="xtick_8">
     <g id="line2d_38">
      <path d="M 508.386614 252.707885 
L 508.386614 6.513628 
" clip-path="url(#p85628c69a8)" style="fill: none; stroke: #b0b0b0; stroke-width: 0.8; stroke-linecap: square"/>
     </g>
     <g id="line2d_39">
      <g>
       <use xlink:href="#m43aaff248b" x="508.386614" y="252.707885" style="stroke: #000000; stroke-width: 0.8"/>
      </g>
     </g>
     <g id="text_21">
      <!-- 1.0 -->
      <g transform="translate(500.435051 267.306323) scale(0.1 -0.1)">
       <use xlink:href="#DejaVuSans-31"/>
       <use xlink:href="#DejaVuSans-2e" x="63.623047"/>
       <use xlink:href="#DejaVuSans-30" x="95.410156"/>
      </g>
     </g>
    </g>
    <g id="xtick_9">
     <g id="line2d_40">
      <path d="M 568.255746 252.707885 
L 568.255746 6.513628 
" clip-path="url(#p85628c69a8)" style="fill: none; stroke: #b0b0b0; stroke-width: 0.8; stroke-linecap: square"/>
     </g>
     <g id="line2d_41">
      <g>
       <use xlink:href="#m43aaff248b" x="568.255746" y="252.707885" style="stroke: #000000; stroke-width: 0.8"/>
      </g>
     </g>
     <g id="text_22">
      <!-- 1.5 -->
      <g transform="translate(560.304183 267.306323) scale(0.1 -0.1)">
       <use xlink:href="#DejaVuSans-31"/>
       <use xlink:href="#DejaVuSans-2e" x="63.623047"/>
       <use xlink:href="#DejaVuSans-35" x="95.410156"/>
      </g>
     </g>
    </g>
    <g id="xtick_10">
     <g id="line2d_42">
      <path d="M 628.124878 252.707885 
L 628.124878 6.513628 
" clip-path="url(#p85628c69a8)" style="fill: none; stroke: #b0b0b0; stroke-width: 0.8; stroke-linecap: square"/>
     </g>
     <g id="line2d_43">
      <g>
       <use xlink:href="#m43aaff248b" x="628.124878" y="252.707885" style="stroke: #000000; stroke-width: 0.8"/>
      </g>
     </g>
     <g id="text_23">
      <!-- 2.0 -->
      <g transform="translate(620.173316 267.306323) scale(0.1 -0.1)">
       <use xlink:href="#DejaVuSans-32"/>
       <use xlink:href="#DejaVuSans-2e" x="63.623047"/>
       <use xlink:href="#DejaVuSans-30" x="95.410156"/>
      </g>
     </g>
    </g>
    <g id="text_24">
     <!-- $k_{B}T$ $\left[k_{B}T_0\right]$ -->
     <g transform="translate(495.030625 282.504135) scale(0.12 -0.12)">
      <use xlink:href="#DejaVuSans-Oblique-6b" transform="translate(0 0.015625)"/>
      <use xlink:href="#DejaVuSans-Oblique-42" transform="translate(57.910156 -16.390625) scale(0.7)"/>
      <use xlink:href="#DejaVuSans-Oblique-54" transform="translate(108.666992 0.015625)"/>
      <use xlink:href="#DejaVuSans-20" transform="translate(169.750977 0.015625)"/>
      <use xlink:href="#DejaVuSans-5b" transform="translate(201.538086 0.015625)"/>
      <use xlink:href="#DejaVuSans-Oblique-6b" transform="translate(240.551758 0.015625)"/>
      <use xlink:href="#DejaVuSans-Oblique-42" transform="translate(298.461914 -16.390625) scale(0.7)"/>
      <use xlink:href="#DejaVuSans-Oblique-54" transform="translate(349.21875 0.015625)"/>
      <use xlink:href="#DejaVuSans-30" transform="translate(410.302734 -16.390625) scale(0.7)"/>
      <use xlink:href="#DejaVuSans-5d" transform="translate(457.573242 0.015625)"/>
     </g>
    </g>
   </g>
   <g id="matplotlib.axis_4">
    <g id="ytick_10">
     <g id="line2d_44">
      <path d="M 381.613726 242.503531 
L 668.087524 242.503531 
" clip-path="url(#p85628c69a8)" style="fill: none; stroke: #b0b0b0; stroke-width: 0.8; stroke-linecap: square"/>
     </g>
     <g id="line2d_45">
      <g>
       <use xlink:href="#m1749f582e5" x="381.613726" y="242.503531" style="stroke: #000000; stroke-width: 0.8"/>
      </g>
     </g>
     <g id="text_25">
      <!-- 0 -->
      <g transform="translate(368.251226 246.30275) scale(0.1 -0.1)">
       <use xlink:href="#DejaVuSans-30"/>
      </g>
     </g>
    </g>
    <g id="ytick_11">
     <g id="line2d_46">
      <path d="M 381.613726 192.222631 
L 668.087524 192.222631 
" clip-path="url(#p85628c69a8)" style="fill: none; stroke: #b0b0b0; stroke-width: 0.8; stroke-linecap: square"/>
     </g>
     <g id="line2d_47">
      <g>
       <use xlink:href="#m1749f582e5" x="381.613726" y="192.222631" style="stroke: #000000; stroke-width: 0.8"/>
      </g>
     </g>
     <g id="text_26">
      <!-- 50 -->
      <g transform="translate(361.888726 196.02185) scale(0.1 -0.1)">
       <use xlink:href="#DejaVuSans-35"/>
       <use xlink:href="#DejaVuSans-30" x="63.623047"/>
      </g>
     </g>
    </g>
    <g id="ytick_12">
     <g id="line2d_48">
      <path d="M 381.613726 141.941731 
L 668.087524 141.941731 
" clip-path="url(#p85628c69a8)" style="fill: none; stroke: #b0b0b0; stroke-width: 0.8; stroke-linecap: square"/>
     </g>
     <g id="line2d_49">
      <g>
       <use xlink:href="#m1749f582e5" x="381.613726" y="141.941731" style="stroke: #000000; stroke-width: 0.8"/>
      </g>
     </g>
     <g id="text_27">
      <!-- 100 -->
      <g transform="translate(355.526226 145.740949) scale(0.1 -0.1)">
       <use xlink:href="#DejaVuSans-31"/>
       <use xlink:href="#DejaVuSans-30" x="63.623047"/>
       <use xlink:href="#DejaVuSans-30" x="127.246094"/>
      </g>
     </g>
    </g>
    <g id="ytick_13">
     <g id="line2d_50">
      <path d="M 381.613726 91.66083 
L 668.087524 91.66083 
" clip-path="url(#p85628c69a8)" style="fill: none; stroke: #b0b0b0; stroke-width: 0.8; stroke-linecap: square"/>
     </g>
     <g id="line2d_51">
      <g>
       <use xlink:href="#m1749f582e5" x="381.613726" y="91.66083" style="stroke: #000000; stroke-width: 0.8"/>
      </g>
     </g>
     <g id="text_28">
      <!-- 150 -->
      <g transform="translate(355.526226 95.460049) scale(0.1 -0.1)">
       <use xlink:href="#DejaVuSans-31"/>
       <use xlink:href="#DejaVuSans-35" x="63.623047"/>
       <use xlink:href="#DejaVuSans-30" x="127.246094"/>
      </g>
     </g>
    </g>
    <g id="ytick_14">
     <g id="line2d_52">
      <path d="M 381.613726 41.37993 
L 668.087524 41.37993 
" clip-path="url(#p85628c69a8)" style="fill: none; stroke: #b0b0b0; stroke-width: 0.8; stroke-linecap: square"/>
     </g>
     <g id="line2d_53">
      <g>
       <use xlink:href="#m1749f582e5" x="381.613726" y="41.37993" style="stroke: #000000; stroke-width: 0.8"/>
      </g>
     </g>
     <g id="text_29">
      <!-- 200 -->
      <g transform="translate(355.526226 45.179149) scale(0.1 -0.1)">
       <use xlink:href="#DejaVuSans-32"/>
       <use xlink:href="#DejaVuSans-30" x="63.623047"/>
       <use xlink:href="#DejaVuSans-30" x="127.246094"/>
      </g>
     </g>
    </g>
    <g id="text_30">
     <!-- $C_v/k_{B}$ -->
     <g transform="translate(349.030601 145.030757) rotate(-90) scale(0.12 -0.12)">
      <defs>
       <path id="DejaVuSans-Oblique-43" d="M 4447 4306 
L 4319 3641 
Q 4019 3944 3683 4091 
Q 3347 4238 2956 4238 
Q 2422 4238 2017 3981 
Q 1613 3725 1319 3200 
Q 1131 2863 1032 2486 
Q 934 2109 934 1728 
Q 934 1091 1264 756 
Q 1594 422 2222 422 
Q 2656 422 3056 561 
Q 3456 700 3834 978 
L 3688 231 
Q 3316 72 2936 -9 
Q 2556 -91 2175 -91 
Q 1278 -91 773 396 
Q 269 884 269 1753 
Q 269 2309 461 2846 
Q 653 3384 1013 3828 
Q 1394 4300 1883 4525 
Q 2372 4750 3022 4750 
Q 3422 4750 3780 4639 
Q 4138 4528 4447 4306 
z
" transform="scale(0.015625)"/>
       <path id="DejaVuSans-Oblique-76" d="M 459 3500 
L 1069 3500 
L 1581 525 
L 3256 3500 
L 3866 3500 
L 1875 0 
L 1100 0 
L 459 3500 
z
" transform="scale(0.015625)"/>
       <path id="DejaVuSans-2f" d="M 1625 4666 
L 2156 4666 
L 531 -594 
L 0 -594 
L 1625 4666 
z
" transform="scale(0.015625)"/>
      </defs>
      <use xlink:href="#DejaVuSans-Oblique-43" transform="translate(0 0.015625)"/>
      <use xlink:href="#DejaVuSans-Oblique-76" transform="translate(69.824219 -16.390625) scale(0.7)"/>
      <use xlink:href="#DejaVuSans-2f" transform="translate(113.984375 0.015625)"/>
      <use xlink:href="#DejaVuSans-Oblique-6b" transform="translate(147.675781 0.015625)"/>
      <use xlink:href="#DejaVuSans-Oblique-42" transform="translate(205.585938 -16.390625) scale(0.7)"/>
     </g>
    </g>
   </g>
   <g id="LineCollection_1">
    <path d="M 394.635262 224.905216 
L 520.36044 224.905216 
" clip-path="url(#p85628c69a8)" style="fill: none; stroke: #ff7f0e; stroke-width: 1.5"/>
   </g>
   <g id="LineCollection_2">
    <path d="M 556.281919 235.464205 
L 652.072531 235.464205 
" clip-path="url(#p85628c69a8)" style="fill: none; stroke: #d62728; stroke-width: 1.5"/>
   </g>
   <g id="line2d_54">
    <path d="M 403.615632 229.827343 
L 421.576372 227.868987 
L 439.537111 230.939543 
L 457.497851 212.016253 
L 475.458591 225.627079 
L 493.419331 218.724029 
L 511.38007 199.501125 
L 529.34081 149.31878 
L 547.30155 17.704276 
L 565.262289 233.789149 
L 583.223029 226.2284 
L 601.183769 231.591626 
L 619.144508 241.517237 
L 637.105248 234.675151 
L 655.065988 233.235707 
" clip-path="url(#p85628c69a8)" style="fill: none; stroke: #1f77b4; stroke-opacity: 0.8; stroke-linecap: square"/>
    <g clip-path="url(#p85628c69a8)">
     <use xlink:href="#m89d9b16a1c" x="403.615632" y="229.827343" style="fill: #1f77b4; fill-opacity: 0.8; stroke: #000000; stroke-opacity: 0.8"/>
     <use xlink:href="#m89d9b16a1c" x="421.576372" y="227.868987" style="fill: #1f77b4; fill-opacity: 0.8; stroke: #000000; stroke-opacity: 0.8"/>
     <use xlink:href="#m89d9b16a1c" x="439.537111" y="230.939543" style="fill: #1f77b4; fill-opacity: 0.8; stroke: #000000; stroke-opacity: 0.8"/>
     <use xlink:href="#m89d9b16a1c" x="457.497851" y="212.016253" style="fill: #1f77b4; fill-opacity: 0.8; stroke: #000000; stroke-opacity: 0.8"/>
     <use xlink:href="#m89d9b16a1c" x="475.458591" y="225.627079" style="fill: #1f77b4; fill-opacity: 0.8; stroke: #000000; stroke-opacity: 0.8"/>
     <use xlink:href="#m89d9b16a1c" x="493.419331" y="218.724029" style="fill: #1f77b4; fill-opacity: 0.8; stroke: #000000; stroke-opacity: 0.8"/>
     <use xlink:href="#m89d9b16a1c" x="511.38007" y="199.501125" style="fill: #1f77b4; fill-opacity: 0.8; stroke: #000000; stroke-opacity: 0.8"/>
     <use xlink:href="#m89d9b16a1c" x="529.34081" y="149.31878" style="fill: #1f77b4; fill-opacity: 0.8; stroke: #000000; stroke-opacity: 0.8"/>
     <use xlink:href="#m89d9b16a1c" x="547.30155" y="17.704276" style="fill: #1f77b4; fill-opacity: 0.8; stroke: #000000; stroke-opacity: 0.8"/>
     <use xlink:href="#m89d9b16a1c" x="565.262289" y="233.789149" style="fill: #1f77b4; fill-opacity: 0.8; stroke: #000000; stroke-opacity: 0.8"/>
     <use xlink:href="#m89d9b16a1c" x="583.223029" y="226.2284" style="fill: #1f77b4; fill-opacity: 0.8; stroke: #000000; stroke-opacity: 0.8"/>
     <use xlink:href="#m89d9b16a1c" x="601.183769" y="231.591626" style="fill: #1f77b4; fill-opacity: 0.8; stroke: #000000; stroke-opacity: 0.8"/>
     <use xlink:href="#m89d9b16a1c" x="619.144508" y="241.517237" style="fill: #1f77b4; fill-opacity: 0.8; stroke: #000000; stroke-opacity: 0.8"/>
     <use xlink:href="#m89d9b16a1c" x="637.105248" y="234.675151" style="fill: #1f77b4; fill-opacity: 0.8; stroke: #000000; stroke-opacity: 0.8"/>
     <use xlink:href="#m89d9b16a1c" x="655.065988" y="233.235707" style="fill: #1f77b4; fill-opacity: 0.8; stroke: #000000; stroke-opacity: 0.8"/>
    </g>
   </g>
   <g id="line2d_55">
    <path d="M 403.615632 229.827343 
L 421.576372 227.868987 
L 439.537111 230.939543 
L 457.497851 212.016253 
L 475.458591 225.627079 
L 493.419331 218.724029 
L 511.38007 199.501125 
L 529.34081 149.31878 
L 547.30155 17.704276 
L 565.262289 233.789149 
L 583.223029 226.2284 
L 601.183769 231.591626 
L 619.144508 241.517237 
L 637.105248 234.675151 
L 655.065988 233.235707 
" clip-path="url(#p85628c69a8)" style="fill: none; stroke: #1f77b4; stroke-opacity: 0.8; stroke-linecap: square"/>
    <g clip-path="url(#p85628c69a8)">
     <use xlink:href="#m89d9b16a1c" x="403.615632" y="229.827343" style="fill: #1f77b4; fill-opacity: 0.8; stroke: #000000; stroke-opacity: 0.8"/>
     <use xlink:href="#m89d9b16a1c" x="421.576372" y="227.868987" style="fill: #1f77b4; fill-opacity: 0.8; stroke: #000000; stroke-opacity: 0.8"/>
     <use xlink:href="#m89d9b16a1c" x="439.537111" y="230.939543" style="fill: #1f77b4; fill-opacity: 0.8; stroke: #000000; stroke-opacity: 0.8"/>
     <use xlink:href="#m89d9b16a1c" x="457.497851" y="212.016253" style="fill: #1f77b4; fill-opacity: 0.8; stroke: #000000; stroke-opacity: 0.8"/>
     <use xlink:href="#m89d9b16a1c" x="475.458591" y="225.627079" style="fill: #1f77b4; fill-opacity: 0.8; stroke: #000000; stroke-opacity: 0.8"/>
     <use xlink:href="#m89d9b16a1c" x="493.419331" y="218.724029" style="fill: #1f77b4; fill-opacity: 0.8; stroke: #000000; stroke-opacity: 0.8"/>
     <use xlink:href="#m89d9b16a1c" x="511.38007" y="199.501125" style="fill: #1f77b4; fill-opacity: 0.8; stroke: #000000; stroke-opacity: 0.8"/>
     <use xlink:href="#m89d9b16a1c" x="529.34081" y="149.31878" style="fill: #1f77b4; fill-opacity: 0.8; stroke: #000000; stroke-opacity: 0.8"/>
     <use xlink:href="#m89d9b16a1c" x="547.30155" y="17.704276" style="fill: #1f77b4; fill-opacity: 0.8; stroke: #000000; stroke-opacity: 0.8"/>
     <use xlink:href="#m89d9b16a1c" x="565.262289" y="233.789149" style="fill: #1f77b4; fill-opacity: 0.8; stroke: #000000; stroke-opacity: 0.8"/>
     <use xlink:href="#m89d9b16a1c" x="583.223029" y="226.2284" style="fill: #1f77b4; fill-opacity: 0.8; stroke: #000000; stroke-opacity: 0.8"/>
     <use xlink:href="#m89d9b16a1c" x="601.183769" y="231.591626" style="fill: #1f77b4; fill-opacity: 0.8; stroke: #000000; stroke-opacity: 0.8"/>
     <use xlink:href="#m89d9b16a1c" x="619.144508" y="241.517237" style="fill: #1f77b4; fill-opacity: 0.8; stroke: #000000; stroke-opacity: 0.8"/>
     <use xlink:href="#m89d9b16a1c" x="637.105248" y="234.675151" style="fill: #1f77b4; fill-opacity: 0.8; stroke: #000000; stroke-opacity: 0.8"/>
     <use xlink:href="#m89d9b16a1c" x="655.065988" y="233.235707" style="fill: #1f77b4; fill-opacity: 0.8; stroke: #000000; stroke-opacity: 0.8"/>
    </g>
   </g>
   <g id="patch_9">
    <path d="M 381.613726 252.707885 
L 381.613726 6.513628 
" style="fill: none; stroke: #000000; stroke-width: 0.8; stroke-linejoin: miter; stroke-linecap: square"/>
   </g>
   <g id="patch_10">
    <path d="M 668.087524 252.707885 
L 668.087524 6.513628 
" style="fill: none; stroke: #000000; stroke-width: 0.8; stroke-linejoin: miter; stroke-linecap: square"/>
   </g>
   <g id="patch_11">
    <path d="M 381.613726 252.707885 
L 668.087524 252.707885 
" style="fill: none; stroke: #000000; stroke-width: 0.8; stroke-linejoin: miter; stroke-linecap: square"/>
   </g>
   <g id="patch_12">
    <path d="M 381.613726 6.513628 
L 668.087524 6.513628 
" style="fill: none; stroke: #000000; stroke-width: 0.8; stroke-linejoin: miter; stroke-linecap: square"/>
   </g>
  </g>
  <g id="axes_3">
   <g id="patch_13">
    <path d="M 718.525962 252.707885 
L 1004.99976 252.707885 
L 1004.99976 6.513628 
L 718.525962 6.513628 
z
" style="fill: #ffffff"/>
   </g>
   <g id="matplotlib.axis_5">
    <g id="xtick_11">
     <g id="line2d_56">
      <path d="M 725.560585 252.707885 
L 725.560585 6.513628 
" clip-path="url(#p6437acc505)" style="fill: none; stroke: #b0b0b0; stroke-width: 0.8; stroke-linecap: square"/>
     </g>
     <g id="line2d_57">
      <g>
       <use xlink:href="#m43aaff248b" x="725.560585" y="252.707885" style="stroke: #000000; stroke-width: 0.8"/>
      </g>
     </g>
     <g id="text_31">
      <!-- 0.0 -->
      <g transform="translate(717.609022 267.306323) scale(0.1 -0.1)">
       <use xlink:href="#DejaVuSans-30"/>
       <use xlink:href="#DejaVuSans-2e" x="63.623047"/>
       <use xlink:href="#DejaVuSans-30" x="95.410156"/>
      </g>
     </g>
    </g>
    <g id="xtick_12">
     <g id="line2d_58">
      <path d="M 785.429717 252.707885 
L 785.429717 6.513628 
" clip-path="url(#p6437acc505)" style="fill: none; stroke: #b0b0b0; stroke-width: 0.8; stroke-linecap: square"/>
     </g>
     <g id="line2d_59">
      <g>
       <use xlink:href="#m43aaff248b" x="785.429717" y="252.707885" style="stroke: #000000; stroke-width: 0.8"/>
      </g>
     </g>
     <g id="text_32">
      <!-- 0.5 -->
      <g transform="translate(777.478155 267.306323) scale(0.1 -0.1)">
       <use xlink:href="#DejaVuSans-30"/>
       <use xlink:href="#DejaVuSans-2e" x="63.623047"/>
       <use xlink:href="#DejaVuSans-35" x="95.410156"/>
      </g>
     </g>
    </g>
    <g id="xtick_13">
     <g id="line2d_60">
      <path d="M 845.298849 252.707885 
L 845.298849 6.513628 
" clip-path="url(#p6437acc505)" style="fill: none; stroke: #b0b0b0; stroke-width: 0.8; stroke-linecap: square"/>
     </g>
     <g id="line2d_61">
      <g>
       <use xlink:href="#m43aaff248b" x="845.298849" y="252.707885" style="stroke: #000000; stroke-width: 0.8"/>
      </g>
     </g>
     <g id="text_33">
      <!-- 1.0 -->
      <g transform="translate(837.347287 267.306323) scale(0.1 -0.1)">
       <use xlink:href="#DejaVuSans-31"/>
       <use xlink:href="#DejaVuSans-2e" x="63.623047"/>
       <use xlink:href="#DejaVuSans-30" x="95.410156"/>
      </g>
     </g>
    </g>
    <g id="xtick_14">
     <g id="line2d_62">
      <path d="M 905.167982 252.707885 
L 905.167982 6.513628 
" clip-path="url(#p6437acc505)" style="fill: none; stroke: #b0b0b0; stroke-width: 0.8; stroke-linecap: square"/>
     </g>
     <g id="line2d_63">
      <g>
       <use xlink:href="#m43aaff248b" x="905.167982" y="252.707885" style="stroke: #000000; stroke-width: 0.8"/>
      </g>
     </g>
     <g id="text_34">
      <!-- 1.5 -->
      <g transform="translate(897.216419 267.306323) scale(0.1 -0.1)">
       <use xlink:href="#DejaVuSans-31"/>
       <use xlink:href="#DejaVuSans-2e" x="63.623047"/>
       <use xlink:href="#DejaVuSans-35" x="95.410156"/>
      </g>
     </g>
    </g>
    <g id="xtick_15">
     <g id="line2d_64">
      <path d="M 965.037114 252.707885 
L 965.037114 6.513628 
" clip-path="url(#p6437acc505)" style="fill: none; stroke: #b0b0b0; stroke-width: 0.8; stroke-linecap: square"/>
     </g>
     <g id="line2d_65">
      <g>
       <use xlink:href="#m43aaff248b" x="965.037114" y="252.707885" style="stroke: #000000; stroke-width: 0.8"/>
      </g>
     </g>
     <g id="text_35">
      <!-- 2.0 -->
      <g transform="translate(957.085552 267.306323) scale(0.1 -0.1)">
       <use xlink:href="#DejaVuSans-32"/>
       <use xlink:href="#DejaVuSans-2e" x="63.623047"/>
       <use xlink:href="#DejaVuSans-30" x="95.410156"/>
      </g>
     </g>
    </g>
    <g id="text_36">
     <!-- $k_{B}T$ $\left[k_{B}T_0\right]$ -->
     <g transform="translate(831.942861 282.504135) scale(0.12 -0.12)">
      <use xlink:href="#DejaVuSans-Oblique-6b" transform="translate(0 0.015625)"/>
      <use xlink:href="#DejaVuSans-Oblique-42" transform="translate(57.910156 -16.390625) scale(0.7)"/>
      <use xlink:href="#DejaVuSans-Oblique-54" transform="translate(108.666992 0.015625)"/>
      <use xlink:href="#DejaVuSans-20" transform="translate(169.750977 0.015625)"/>
      <use xlink:href="#DejaVuSans-5b" transform="translate(201.538086 0.015625)"/>
      <use xlink:href="#DejaVuSans-Oblique-6b" transform="translate(240.551758 0.015625)"/>
      <use xlink:href="#DejaVuSans-Oblique-42" transform="translate(298.461914 -16.390625) scale(0.7)"/>
      <use xlink:href="#DejaVuSans-Oblique-54" transform="translate(349.21875 0.015625)"/>
      <use xlink:href="#DejaVuSans-30" transform="translate(410.302734 -16.390625) scale(0.7)"/>
      <use xlink:href="#DejaVuSans-5d" transform="translate(457.573242 0.015625)"/>
     </g>
    </g>
   </g>
   <g id="matplotlib.axis_6">
    <g id="ytick_15">
     <g id="line2d_66">
      <path d="M 718.525962 228.088459 
L 1004.99976 228.088459 
" clip-path="url(#p6437acc505)" style="fill: none; stroke: #b0b0b0; stroke-width: 0.8; stroke-linecap: square"/>
     </g>
     <g id="line2d_67">
      <g>
       <use xlink:href="#m1749f582e5" x="718.525962" y="228.088459" style="stroke: #000000; stroke-width: 0.8"/>
      </g>
     </g>
     <g id="text_37">
      <!-- −40 -->
      <g transform="translate(690.421274 231.887678) scale(0.1 -0.1)">
       <use xlink:href="#DejaVuSans-2212"/>
       <use xlink:href="#DejaVuSans-34" x="83.789062"/>
       <use xlink:href="#DejaVuSans-30" x="147.412109"/>
      </g>
     </g>
    </g>
    <g id="ytick_16">
     <g id="line2d_68">
      <path d="M 718.525962 178.849608 
L 1004.99976 178.849608 
" clip-path="url(#p6437acc505)" style="fill: none; stroke: #b0b0b0; stroke-width: 0.8; stroke-linecap: square"/>
     </g>
     <g id="line2d_69">
      <g>
       <use xlink:href="#m1749f582e5" x="718.525962" y="178.849608" style="stroke: #000000; stroke-width: 0.8"/>
      </g>
     </g>
     <g id="text_38">
      <!-- −20 -->
      <g transform="translate(690.421274 182.648827) scale(0.1 -0.1)">
       <use xlink:href="#DejaVuSans-2212"/>
       <use xlink:href="#DejaVuSans-32" x="83.789062"/>
       <use xlink:href="#DejaVuSans-30" x="147.412109"/>
      </g>
     </g>
    </g>
    <g id="ytick_17">
     <g id="line2d_70">
      <path d="M 718.525962 129.610757 
L 1004.99976 129.610757 
" clip-path="url(#p6437acc505)" style="fill: none; stroke: #b0b0b0; stroke-width: 0.8; stroke-linecap: square"/>
     </g>
     <g id="line2d_71">
      <g>
       <use xlink:href="#m1749f582e5" x="718.525962" y="129.610757" style="stroke: #000000; stroke-width: 0.8"/>
      </g>
     </g>
     <g id="text_39">
      <!-- 0 -->
      <g transform="translate(705.163462 133.409975) scale(0.1 -0.1)">
       <use xlink:href="#DejaVuSans-30"/>
      </g>
     </g>
    </g>
    <g id="ytick_18">
     <g id="line2d_72">
      <path d="M 718.525962 80.371905 
L 1004.99976 80.371905 
" clip-path="url(#p6437acc505)" style="fill: none; stroke: #b0b0b0; stroke-width: 0.8; stroke-linecap: square"/>
     </g>
     <g id="line2d_73">
      <g>
       <use xlink:href="#m1749f582e5" x="718.525962" y="80.371905" style="stroke: #000000; stroke-width: 0.8"/>
      </g>
     </g>
     <g id="text_40">
      <!-- 20 -->
      <g transform="translate(698.800962 84.171124) scale(0.1 -0.1)">
       <use xlink:href="#DejaVuSans-32"/>
       <use xlink:href="#DejaVuSans-30" x="63.623047"/>
      </g>
     </g>
    </g>
    <g id="ytick_19">
     <g id="line2d_74">
      <path d="M 718.525962 31.133054 
L 1004.99976 31.133054 
" clip-path="url(#p6437acc505)" style="fill: none; stroke: #b0b0b0; stroke-width: 0.8; stroke-linecap: square"/>
     </g>
     <g id="line2d_75">
      <g>
       <use xlink:href="#m1749f582e5" x="718.525962" y="31.133054" style="stroke: #000000; stroke-width: 0.8"/>
      </g>
     </g>
     <g id="text_41">
      <!-- 40 -->
      <g transform="translate(698.800962 34.932273) scale(0.1 -0.1)">
       <use xlink:href="#DejaVuSans-34"/>
       <use xlink:href="#DejaVuSans-30" x="63.623047"/>
      </g>
     </g>
    </g>
    <g id="text_42">
     <!-- $C_v/k_{B}$ -->
     <g transform="translate(683.925649 145.030757) rotate(-90) scale(0.12 -0.12)">
      <use xlink:href="#DejaVuSans-Oblique-43" transform="translate(0 0.015625)"/>
      <use xlink:href="#DejaVuSans-Oblique-76" transform="translate(69.824219 -16.390625) scale(0.7)"/>
      <use xlink:href="#DejaVuSans-2f" transform="translate(113.984375 0.015625)"/>
      <use xlink:href="#DejaVuSans-Oblique-6b" transform="translate(147.675781 0.015625)"/>
      <use xlink:href="#DejaVuSans-Oblique-42" transform="translate(205.585938 -16.390625) scale(0.7)"/>
     </g>
    </g>
   </g>
   <g id="LineCollection_3">
    <path d="M 731.547498 86.526762 
L 857.272676 86.526762 
" clip-path="url(#p6437acc505)" style="fill: none; stroke: #ff7f0e; stroke-width: 1.5"/>
   </g>
   <g id="LineCollection_4">
    <path d="M 893.194155 112.377159 
L 988.984767 112.377159 
" clip-path="url(#p6437acc505)" style="fill: none; stroke: #d62728; stroke-width: 1.5"/>
   </g>
   <g id="line2d_76">
    <path d="M 740.527868 98.577057 
L 758.488608 93.782632 
L 776.449347 101.299931 
L 794.410087 54.972148 
L 812.370827 88.294019 
L 830.331566 71.394049 
L 848.292306 24.332755 
L 851.995793 -1 
M 898.464465 -1 
L 902.174525 108.276306 
L 920.135265 89.766165 
L 938.096005 102.896355 
L 956.056744 127.196122 
L 974.017484 110.445405 
L 991.978224 106.921375 
" clip-path="url(#p6437acc505)" style="fill: none; stroke: #1f77b4; stroke-opacity: 0.8; stroke-linecap: square"/>
    <g clip-path="url(#p6437acc505)">
     <use xlink:href="#m89d9b16a1c" x="740.527868" y="98.577057" style="fill: #1f77b4; fill-opacity: 0.8; stroke: #000000; stroke-opacity: 0.8"/>
     <use xlink:href="#m89d9b16a1c" x="758.488608" y="93.782632" style="fill: #1f77b4; fill-opacity: 0.8; stroke: #000000; stroke-opacity: 0.8"/>
     <use xlink:href="#m89d9b16a1c" x="776.449347" y="101.299931" style="fill: #1f77b4; fill-opacity: 0.8; stroke: #000000; stroke-opacity: 0.8"/>
     <use xlink:href="#m89d9b16a1c" x="794.410087" y="54.972148" style="fill: #1f77b4; fill-opacity: 0.8; stroke: #000000; stroke-opacity: 0.8"/>
     <use xlink:href="#m89d9b16a1c" x="812.370827" y="88.294019" style="fill: #1f77b4; fill-opacity: 0.8; stroke: #000000; stroke-opacity: 0.8"/>
     <use xlink:href="#m89d9b16a1c" x="830.331566" y="71.394049" style="fill: #1f77b4; fill-opacity: 0.8; stroke: #000000; stroke-opacity: 0.8"/>
     <use xlink:href="#m89d9b16a1c" x="848.292306" y="24.332755" style="fill: #1f77b4; fill-opacity: 0.8; stroke: #000000; stroke-opacity: 0.8"/>
     <use xlink:href="#m89d9b16a1c" x="851.995793" y="-1" style="fill: #1f77b4; fill-opacity: 0.8; stroke: #000000; stroke-opacity: 0.8"/>
     <use xlink:href="#m89d9b16a1c" x="898.464465" y="-1" style="fill: #1f77b4; fill-opacity: 0.8; stroke: #000000; stroke-opacity: 0.8"/>
     <use xlink:href="#m89d9b16a1c" x="902.174525" y="108.276306" style="fill: #1f77b4; fill-opacity: 0.8; stroke: #000000; stroke-opacity: 0.8"/>
     <use xlink:href="#m89d9b16a1c" x="920.135265" y="89.766165" style="fill: #1f77b4; fill-opacity: 0.8; stroke: #000000; stroke-opacity: 0.8"/>
     <use xlink:href="#m89d9b16a1c" x="938.096005" y="102.896355" style="fill: #1f77b4; fill-opacity: 0.8; stroke: #000000; stroke-opacity: 0.8"/>
     <use xlink:href="#m89d9b16a1c" x="956.056744" y="127.196122" style="fill: #1f77b4; fill-opacity: 0.8; stroke: #000000; stroke-opacity: 0.8"/>
     <use xlink:href="#m89d9b16a1c" x="974.017484" y="110.445405" style="fill: #1f77b4; fill-opacity: 0.8; stroke: #000000; stroke-opacity: 0.8"/>
     <use xlink:href="#m89d9b16a1c" x="991.978224" y="106.921375" style="fill: #1f77b4; fill-opacity: 0.8; stroke: #000000; stroke-opacity: 0.8"/>
    </g>
   </g>
   <g id="line2d_77">
    <path d="M 740.527868 98.577057 
L 758.488608 93.782632 
L 776.449347 101.299931 
L 794.410087 54.972148 
L 812.370827 88.294019 
L 830.331566 71.394049 
L 848.292306 24.332755 
L 851.995793 -1 
M 898.464465 -1 
L 902.174525 108.276306 
L 920.135265 89.766165 
L 938.096005 102.896355 
L 956.056744 127.196122 
L 974.017484 110.445405 
L 991.978224 106.921375 
" clip-path="url(#p6437acc505)" style="fill: none; stroke: #1f77b4; stroke-opacity: 0.8; stroke-linecap: square"/>
    <g clip-path="url(#p6437acc505)">
     <use xlink:href="#m89d9b16a1c" x="740.527868" y="98.577057" style="fill: #1f77b4; fill-opacity: 0.8; stroke: #000000; stroke-opacity: 0.8"/>
     <use xlink:href="#m89d9b16a1c" x="758.488608" y="93.782632" style="fill: #1f77b4; fill-opacity: 0.8; stroke: #000000; stroke-opacity: 0.8"/>
     <use xlink:href="#m89d9b16a1c" x="776.449347" y="101.299931" style="fill: #1f77b4; fill-opacity: 0.8; stroke: #000000; stroke-opacity: 0.8"/>
     <use xlink:href="#m89d9b16a1c" x="794.410087" y="54.972148" style="fill: #1f77b4; fill-opacity: 0.8; stroke: #000000; stroke-opacity: 0.8"/>
     <use xlink:href="#m89d9b16a1c" x="812.370827" y="88.294019" style="fill: #1f77b4; fill-opacity: 0.8; stroke: #000000; stroke-opacity: 0.8"/>
     <use xlink:href="#m89d9b16a1c" x="830.331566" y="71.394049" style="fill: #1f77b4; fill-opacity: 0.8; stroke: #000000; stroke-opacity: 0.8"/>
     <use xlink:href="#m89d9b16a1c" x="848.292306" y="24.332755" style="fill: #1f77b4; fill-opacity: 0.8; stroke: #000000; stroke-opacity: 0.8"/>
     <use xlink:href="#m89d9b16a1c" x="851.995793" y="-1" style="fill: #1f77b4; fill-opacity: 0.8; stroke: #000000; stroke-opacity: 0.8"/>
     <use xlink:href="#m89d9b16a1c" x="898.464465" y="-1" style="fill: #1f77b4; fill-opacity: 0.8; stroke: #000000; stroke-opacity: 0.8"/>
     <use xlink:href="#m89d9b16a1c" x="902.174525" y="108.276306" style="fill: #1f77b4; fill-opacity: 0.8; stroke: #000000; stroke-opacity: 0.8"/>
     <use xlink:href="#m89d9b16a1c" x="920.135265" y="89.766165" style="fill: #1f77b4; fill-opacity: 0.8; stroke: #000000; stroke-opacity: 0.8"/>
     <use xlink:href="#m89d9b16a1c" x="938.096005" y="102.896355" style="fill: #1f77b4; fill-opacity: 0.8; stroke: #000000; stroke-opacity: 0.8"/>
     <use xlink:href="#m89d9b16a1c" x="956.056744" y="127.196122" style="fill: #1f77b4; fill-opacity: 0.8; stroke: #000000; stroke-opacity: 0.8"/>
     <use xlink:href="#m89d9b16a1c" x="974.017484" y="110.445405" style="fill: #1f77b4; fill-opacity: 0.8; stroke: #000000; stroke-opacity: 0.8"/>
     <use xlink:href="#m89d9b16a1c" x="991.978224" y="106.921375" style="fill: #1f77b4; fill-opacity: 0.8; stroke: #000000; stroke-opacity: 0.8"/>
    </g>
   </g>
   <g id="patch_14">
    <path d="M 718.525962 252.707885 
L 718.525962 6.513628 
" style="fill: none; stroke: #000000; stroke-width: 0.8; stroke-linejoin: miter; stroke-linecap: square"/>
   </g>
   <g id="patch_15">
    <path d="M 1004.99976 252.707885 
L 1004.99976 6.513628 
" style="fill: none; stroke: #000000; stroke-width: 0.8; stroke-linejoin: miter; stroke-linecap: square"/>
   </g>
   <g id="patch_16">
    <path d="M 718.525962 252.707885 
L 1004.99976 252.707885 
" style="fill: none; stroke: #000000; stroke-width: 0.8; stroke-linejoin: miter; stroke-linecap: square"/>
   </g>
   <g id="patch_17">
    <path d="M 718.525962 6.513628 
L 1004.99976 6.513628 
" style="fill: none; stroke: #000000; stroke-width: 0.8; stroke-linejoin: miter; stroke-linecap: square"/>
   </g>
  </g>
 </g>
 <defs>
  <clipPath id="p825b923342">
   <rect x="46.718678" y="6.513628" width="286.473798" height="246.194257"/>
  </clipPath>
  <clipPath id="p85628c69a8">
   <rect x="381.613726" y="6.513628" width="286.473798" height="246.194257"/>
  </clipPath>
  <clipPath id="p6437acc505">
   <rect x="718.525962" y="6.513628" width="286.473798" height="246.194257"/>
  </clipPath>
 </defs>
</svg>
